<svg width="3196" height="1225" viewBox="0 0 3196 1225" fill="none" xmlns="http://www.w3.org/2000/svg">
<g clip-path="url(#clip0_92_273)">
<path d="M535 1224C1031 -279.999 2666 -113.999 3195 249.001" stroke="black" stroke-width="2" stroke-miterlimit="10"/>
<path d="M650.397 940.8C584.997 969.4 479.498 988 360.498 988C161.998 988 0.998047 936.3 0.998047 872.5C0.998047 808.7 161.998 757 360.498 757C421.298 757 478.598 761.9 528.798 770.4" stroke="black" stroke-width="2" stroke-miterlimit="10"/>
<path d="M96.998 893.201V890.601H99.5981V854.401H96.998V851.801H104.798V854.401H107.398V864.701H109.999V877.601H115.199V887.901H112.599V893.101H109.999V887.901H107.398V875.001H104.798V864.701H102.198V890.501H104.798V893.101H96.998V893.201ZM117.699 893.201V890.601H120.299V864.801H117.699V877.701H115.099V864.801H117.699V854.501H120.299V851.901H128.098V854.501H125.498V890.701H128.098V893.301H117.799L117.699 893.201Z" fill="black"/>
<path d="M156.399 890.599V893.199H151.199V890.599H145.999V887.999H148.599V877.699H145.999V880.299H140.799V882.899H138.199V890.599H145.899V893.199H132.999V890.599H130.398V882.899H132.999V880.299H138.199V877.699H143.399V875.099H148.599V869.899H145.999V867.299H138.299V869.899H135.699V875.099H130.499V869.899H133.099V867.299H135.699V864.699H148.599V867.299H151.199V869.899H153.799V887.999H159V890.599H156.399Z" fill="black"/>
<path d="M164.198 893.198V890.598H166.799V869.898H161.6V867.298H166.799V864.698H171.999V867.298H174.599V864.698H179.799V862.098H184.999V864.698H187.599V869.898H182.399V867.298H177.199V869.898H174.599V872.498H171.999V890.598H174.599V893.198H164.299H164.198Z" fill="black"/>
<path d="M197.699 893.198V890.598H202.898V869.898H197.699V867.298H202.898V864.698H208.098V890.498H213.299V893.098H197.799L197.699 893.198ZM202.898 854.398H208.098V859.598H202.898V854.398Z" fill="black"/>
<path d="M228.699 893.198V890.598H233.899V869.898H228.699V867.298H233.899V864.698H239.1V890.498H244.299V893.098H228.799L228.699 893.198ZM233.899 854.398H239.1V859.598H233.899V854.398Z" fill="black"/>
<path d="M280.398 890.599V893.199H275.199V890.599H269.999V887.999H272.599V877.699H269.999V880.299H264.798V882.899H262.198V890.599H269.999V893.199H257.098V890.599H254.498V882.899H257.098V880.299H262.298V877.699H267.499V875.099H272.699V869.899H270.099V867.299H262.298V869.899H259.698V875.099H254.498V869.899H257.098V867.299H259.698V864.699H272.599V867.299H275.199V869.899H277.799V887.999H282.998V890.599H280.398Z" fill="black"/>
<path d="M313.998 893.199V890.599H316.598V854.399H313.998V851.799H324.297V854.399H321.697V869.899H324.297V867.299H326.897V864.699H329.497V862.099H332.097V859.499H334.697V856.899H337.298V854.299H334.697V851.699H344.998V854.299H342.398V856.899H339.798V859.499H337.197V862.099H334.597V864.699H331.997V867.299H329.397V869.899H331.997V875.099H334.597V880.299H337.197V885.499H339.798V890.699H344.998V893.299H332.097V890.699H334.697V885.499H332.097V880.299H329.497V875.099H326.897V872.499H324.297V875.099H321.697V890.599H324.297V893.199H313.998Z" fill="black"/>
<path d="M350.2 890.598V885.398H347.6V869.898H350.2V864.698H355.399V862.098H365.699V864.698H370.899V869.898H373.499V885.398H370.899V890.598H365.699V893.198H355.399V890.598H350.2ZM363.099 890.598V887.998H365.699V885.398H368.299V869.898H365.699V867.298H363.099V864.698H357.899V867.298H355.3V869.898H352.7V885.398H355.3V887.998H357.899V890.598H363.099Z" fill="black"/>
<path d="M383.699 893.201V890.601H388.899V857.001H383.699V854.401H388.899V851.801H394.1V890.601H399.299V893.201H383.799H383.699Z" fill="black"/>
<path d="M412.2 890.598V885.398H409.6V869.898H412.2V864.698H417.4V862.098H427.7V864.698H432.899V869.898H435.499V885.398H432.899V890.598H427.7V893.198H417.4V890.598H412.2ZM425.1 890.598V887.998H427.7V885.398H430.3V869.898H427.7V867.298H425.1V864.698H419.9V867.298H417.3V869.898H414.7V885.398H417.3V887.998H419.9V890.598H425.1Z" fill="black"/>
<path d="M440.6 898.298V890.598H443.2V887.998H445.8V885.398H443.2V880.198H445.8V874.998H443.2V867.298H445.8V864.698H448.4V862.098H458.7V864.698H463.9V862.098H469.101V867.298H463.9V874.998H461.3V877.598H458.7V880.198H448.4V885.398H463.9V887.998H466.501V890.598H469.101V895.798H466.501V898.398H463.9V900.998H443.2V898.398H440.6V898.298ZM461.3 898.298V895.698H463.9V890.498H461.3V887.898H448.4V890.498H445.8V898.198H461.3V898.298ZM456.1 877.698V875.098H458.7V867.398H456.1V864.798H450.9V867.398H448.3V875.098H450.9V877.698H456.1Z" fill="black"/>
<path d="M474.198 893.198V890.598H476.799V869.898H471.6V867.298H476.799V864.698H481.999V867.298H484.599V864.698H489.799V862.098H494.999V864.698H497.599V869.898H492.399V867.298H487.199V869.898H484.599V872.498H481.999V890.598H484.599V893.198H474.299H474.198Z" fill="black"/>
<path d="M505.2 890.601V885.401H502.6V872.501H505.2V867.301H510.399V872.501H507.8V877.701H523.299V872.501H520.699V867.301H525.899V872.501H528.499V880.301H507.8V885.501H510.399V890.701H505.2V890.601ZM510.3 864.801H520.599V867.401H510.3V864.801ZM525.799 888.001V890.601H523.199V893.201H510.3V890.601H523.199V888.001H525.799V885.401H528.399V888.001H525.799Z" fill="black"/>
<path d="M536.2 890.601V885.401H533.6V872.501H536.2V867.301H541.4V872.501H538.8V877.701H554.299V872.501H551.699V867.301H556.899V872.501H559.499V880.301H538.8V885.501H541.4V890.701H536.2V890.601ZM541.3 864.801H551.6V867.401H541.3V864.801ZM556.799 888.001V890.601H554.199V893.201H541.3V890.601H554.199V888.001H556.799V885.401H559.399V888.001H556.799Z" fill="black"/>
<path d="M569.8 864.798V869.998H572.4V877.698H575.001V882.898H580.201V877.698H582.801V872.498H585.4V867.298H588V864.698H585.4V862.098H593.2V864.698H590.6V869.898H588V875.098H585.4V880.298H582.801V885.498H580.201V890.698H577.601V893.298H575.001V888.098H572.4V882.898H569.8V875.098H567.2V869.898H564.6V864.698H562V862.098H572.3V864.698H569.7L569.8 864.798Z" fill="black"/>
<path d="M621.399 890.599V893.199H616.199V890.599H610.999V887.999H613.599V877.699H610.999V880.299H605.799V882.899H603.199V890.599H610.899V893.199H597.999V890.599H595.398V882.899H597.999V880.299H603.199V877.699H608.399V875.099H613.599V869.899H610.999V867.299H603.299V869.899H600.699V875.099H595.499V869.899H598.099V867.299H600.699V864.699H613.599V867.299H616.199V869.899H618.799V887.999H624V890.599H621.399Z" fill="black"/>
</g>
<defs>
<clipPath id="clip0_92_273">
<rect width="3196" height="1225" fill="white"/>
</clipPath>
</defs>
</svg>
