<svg width="2389" height="1484" viewBox="0 0 2389 1484" fill="none" xmlns="http://www.w3.org/2000/svg">
<g clip-path="url(#clip0_83_226)">
<path d="M0.998047 32C0.998047 32 1147 92.9999 1032 1070C924.598 1982.3 2388 1098 2388 1098" stroke="black" stroke-width="2" stroke-miterlimit="10"/>
<path d="M433.399 0.5L435.999 1.29987L430.299 19.0999L438.198 21.5999L437.399 23.9998L426.898 20.5998L433.299 0.5H433.399Z" fill="black"/>
<path d="M448.399 5.30078L460.3 9.20093L459.499 11.6008L450.2 8.50085L448.099 15.0008L457.199 18.001L456.4 20.3008L447.299 17.3009L445.1 23.8008L454.399 26.9008L453.599 29.3007L441.799 25.4009L448.399 5.30078Z" fill="black"/>
<path d="M479.197 25.998L489.197 29.498L488.798 30.5979C488.298 31.9979 487.597 33.1978 486.697 34.2978C485.797 35.3978 484.698 36.1978 483.498 36.7978C482.298 37.3978 480.998 37.798 479.598 37.898C478.198 37.998 476.797 37.898 475.397 37.298C473.897 36.798 472.697 36.098 471.697 35.098C470.697 34.098 469.898 32.9978 469.398 31.7978C468.798 30.4978 468.598 29.1979 468.498 27.7979C468.498 26.3979 468.697 24.9981 469.197 23.5981C469.697 22.1981 470.398 20.9981 471.298 19.8981C472.198 18.7981 473.298 17.998 474.498 17.298C475.698 16.698 476.998 16.2978 478.398 16.1978C479.798 16.0978 481.198 16.1978 482.698 16.7978C483.698 17.1978 484.599 17.5979 485.299 18.0979C485.999 18.5979 486.698 19.198 487.198 19.798C487.698 20.398 488.198 21.098 488.498 21.698C488.798 22.398 489.098 22.9978 489.298 23.6978L486.499 24.0979C486.199 23.0979 485.698 22.0978 484.898 21.1978C484.098 20.2978 483.098 19.698 481.798 19.198C480.798 18.798 479.698 18.6979 478.698 18.7979C477.698 18.7979 476.698 19.1979 475.798 19.6979C474.898 20.1979 474.098 20.898 473.398 21.698C472.698 22.498 472.198 23.498 471.798 24.498C471.398 25.598 471.198 26.5981 471.298 27.6981C471.298 28.7981 471.498 29.798 471.898 30.698C472.298 31.698 472.898 32.498 473.598 33.198C474.298 33.898 475.198 34.498 476.298 34.798C477.298 35.198 478.297 35.2981 479.197 35.1981C480.097 35.1981 480.998 34.898 481.898 34.498C482.698 34.098 483.499 33.598 484.099 32.898C484.699 32.198 485.198 31.3981 485.598 30.4981L478.398 27.9981L479.099 25.8979L479.197 25.998Z" fill="black"/>
<path d="M496.298 21.8008L507.998 26.101L507.098 28.4008L497.897 25.0009L495.498 31.401L504.498 34.7009L503.698 37.001L494.698 33.7008L492.298 40.201L501.499 43.601L500.598 45.9008L488.898 41.6009L496.198 21.8008H496.298Z" fill="black"/>
<path d="M514.398 31.2999H514.598L507.998 48.6998L505.498 47.7L513.098 28L516.698 29.3998L520.299 50.5998H520.099L526.698 33.3L529.298 34.2997L521.698 53.9998L518.098 52.5999L514.498 31.4L514.398 31.2999Z" fill="black"/>
<path d="M534.1 36.1016L540.899 38.9016C541.999 39.3016 542.799 39.9015 543.499 40.7015C544.199 41.5015 544.599 42.4015 544.799 43.5015C544.999 44.6015 544.799 45.7014 544.299 46.9014C543.799 48.1014 543.199 49.0013 542.399 49.6013C541.599 50.2013 540.799 50.6015 539.899 50.7015C539.099 50.8015 538.4 50.7015 537.8 50.7015L539.299 61.1016L536.399 59.9016L535.199 49.8015L531.999 48.5015L528.699 56.8013L526.199 55.8016L534.1 36.2014V36.1016ZM532.898 46.6014L536.299 48.0016C537.499 48.5016 538.599 48.6016 539.599 48.3016C540.599 48.0016 541.399 47.2015 541.899 46.0015C542.399 44.7015 542.399 43.6014 541.899 42.8014C541.399 42.0014 540.499 41.3016 539.399 40.8016L535.999 39.4014L533.099 46.7015L532.898 46.6014Z" fill="black"/>
<path d="M551.699 43.3008L563.2 48.1006L562.2 50.4007L553.2 46.6006L550.6 52.9007L559.4 56.6006L558.5 58.8007L549.7 55.1007L547 61.5005L556 65.3006L555 67.6007L543.5 62.8006L551.601 43.3008H551.699Z" fill="black"/>
<path d="M580.698 66.0994L590.398 70.3994L589.898 71.4992C589.298 72.7992 588.499 73.9993 587.499 74.9993C586.499 75.9993 585.399 76.6993 584.099 77.1993C582.899 77.6993 581.499 77.9995 580.199 77.9995C578.799 77.9995 577.498 77.6992 576.098 77.0992C574.698 76.4992 573.499 75.5992 572.599 74.5992C571.699 73.5992 570.998 72.3994 570.498 71.0994C570.098 69.7994 569.898 68.3994 569.898 66.9994C569.898 65.5994 570.298 64.1993 570.898 62.7993C571.498 61.3993 572.298 60.2992 573.298 59.2992C574.298 58.2992 575.398 57.4994 576.698 56.9994C577.998 56.4994 579.298 56.1992 580.698 56.1992C582.098 56.1992 583.498 56.4992 584.898 57.0992C585.898 57.4992 586.698 57.9994 587.398 58.5994C588.098 59.1994 588.698 59.7994 589.198 60.3994C589.698 61.0994 589.999 61.6995 590.299 62.3995C590.599 63.0995 590.798 63.7994 590.898 64.4994L588.098 64.6993C587.898 63.5993 587.398 62.5994 586.698 61.6994C585.998 60.7994 585.099 59.9994 583.799 59.4994C582.799 59.0994 581.798 58.7993 580.698 58.7993C579.698 58.7993 578.699 58.9994 577.699 59.4994C576.799 59.8994 575.899 60.4993 575.199 61.2993C574.499 62.0993 573.898 62.9992 573.398 63.9992C572.898 64.9992 572.699 66.0993 572.599 67.1993C572.599 68.2993 572.598 69.2993 572.998 70.2993C573.298 71.2993 573.798 72.1994 574.498 72.8994C575.198 73.6994 575.998 74.2993 577.098 74.6993C578.098 75.0993 578.999 75.3994 579.999 75.3994C580.999 75.3994 581.899 75.2993 582.699 74.9993C583.499 74.6993 584.299 74.1994 584.999 73.5994C585.699 72.9994 586.198 72.1993 586.698 71.2993L579.698 68.1993L580.598 66.1992L580.698 66.0994Z" fill="black"/>
<path d="M598.097 63.3984L604.798 66.4984C605.798 66.9984 606.698 67.5985 607.298 68.4985C607.898 69.2985 608.298 70.2985 608.498 71.2985C608.598 72.3985 608.497 73.4985 607.897 74.6985C607.397 75.8985 606.698 76.7986 605.798 77.2986C604.898 77.7986 604.098 78.1986 603.298 78.2986C602.498 78.2986 601.698 78.2984 601.198 78.0984L602.098 88.5986L599.297 87.2986L598.598 77.0984L595.497 75.6985L591.697 83.7985L589.197 82.6987L598.097 63.4985V63.3984ZM596.298 73.7985L599.598 75.2985C600.798 75.7985 601.798 75.9986 602.798 75.7986C603.798 75.5986 604.598 74.7986 605.198 73.5986C605.798 72.3986 605.798 71.2986 605.298 70.3986C604.798 69.4986 603.997 68.7986 602.897 68.2986L599.598 66.6986L596.298 73.7985Z" fill="black"/>
<path d="M621.098 74.2017L623.698 75.4016L621.499 97.8015L618.899 96.5015L619.498 91.1017L611.399 87.2015L607.499 91.0016L604.898 89.7015L621.098 74.1016V74.2017ZM613.198 85.5017L619.698 88.6017L620.898 77.9016L613.198 85.5017Z" fill="black"/>
<path d="M650.699 88.9983L641.099 107.798L638.699 106.598L645.599 92.9985L646.799 90.9984L645.099 92.9985L634.299 102.999L631.899 101.798L633.599 87.1984L634.299 84.6984L633.399 86.7983L626.5 100.398L624.1 99.1985L633.699 80.3984L636.899 82.0983L634.499 99.4985L634.198 100.499L634.899 99.5983L647.599 87.3986L650.799 88.9983H650.699Z" fill="black"/>
<path d="M672.5 100.501L662.6 119.101L660.2 117.801L667.4 104.301L668.6 102.301L666.9 104.301L655.9 114.101L653.5 112.801L655.5 98.2008L656.2 95.7008L655.2 97.8007L648 111.201L645.6 109.901L655.5 91.3008L658.7 93.0009L656 110.301L655.7 111.301L656.4 110.501L669.3 98.6009L672.5 100.301V100.501Z" fill="black"/>
<path d="M682.897 106.301L685.397 107.701L681.897 129.901L679.297 128.501L680.198 123.201L672.398 118.801L668.297 122.301L665.697 120.901L682.798 106.301H682.897ZM674.297 117.001L680.597 120.501L682.498 109.801L674.397 116.901L674.297 117.001Z" fill="black"/>
<path d="M697.598 117.5L692.698 114.6L693.898 112.5L706.098 119.6L704.898 121.7L699.998 118.8L690.597 134.9L688.197 133.5L697.598 117.4V117.5Z" fill="black"/>
<path d="M709.8 121.801L712.199 123.201L701.4 141.301L699 139.901L709.8 121.801Z" fill="black"/>
<path d="M715.698 147.4C716.798 148.1 717.899 148.5 718.899 148.7C719.899 148.9 720.699 149 721.199 148.9L720.998 151.5C720.398 151.6 719.398 151.5 718.198 151.3C716.998 151.1 715.598 150.5 714.198 149.6C712.898 148.8 711.798 147.8 710.898 146.6C709.998 145.4 709.499 144.2 709.099 142.8C708.699 141.4 708.699 140 708.899 138.6C709.099 137.2 709.598 135.8 710.398 134.5C711.198 133.2 712.198 132.1 713.298 131.3C714.498 130.5 715.798 129.9 717.098 129.5C718.498 129.2 719.899 129.1 721.299 129.4C722.699 129.6 724.098 130.1 725.398 131C726.798 131.9 727.899 132.8 728.699 133.8C729.499 134.8 729.999 135.6 730.199 136.2L727.898 137.6C727.698 137.1 727.398 136.4 726.698 135.6C725.998 134.8 725.199 134 724.099 133.4C723.099 132.8 721.998 132.4 720.998 132.2C719.998 132 718.898 132.1 717.898 132.3C716.898 132.5 715.899 133 715.099 133.6C714.299 134.2 713.498 135.1 712.898 136.1C712.298 137.1 711.898 138.2 711.698 139.2C711.498 140.3 711.498 141.3 711.698 142.3C711.898 143.3 712.398 144.3 712.998 145.1C713.598 146 714.498 146.7 715.498 147.3L715.698 147.4Z" fill="black"/>
<path d="M740.3 140.602L742.7 142.102L737.8 164.102L735.3 162.502L736.5 157.202L729 152.402L724.699 155.702L722.199 154.102L740.2 140.602H740.3ZM731.199 150.902L737.299 154.802L739.799 144.302L731.3 150.902H731.199Z" fill="black"/>
<path d="M752.1 148.301L754.4 149.801L744.001 165.301L750.9 169.901L749.5 172.001L740.301 165.901L752 148.301H752.1Z" fill="black"/>
<path d="M763.898 174.398L765.299 172.398L772.098 177.098L770.698 179.098L763.898 174.398Z" fill="black"/>
<path d="M783.601 182.901C784.501 181.701 785.6 180.701 786.8 179.901C788 179.201 789.3 178.701 790.7 178.401C792 178.201 793.401 178.201 794.801 178.501C796.101 178.801 797.401 179.401 798.601 180.301C799.801 181.201 800.701 182.301 801.401 183.501C802.101 184.701 802.501 186.001 802.701 187.301C802.901 188.701 802.701 190.001 802.401 191.401C802.101 192.801 801.4 194.101 800.5 195.301C799.6 196.501 798.501 197.501 797.301 198.301C796.101 199.101 794.801 199.501 793.501 199.801C792.201 200.001 790.8 200.001 789.5 199.701C788.2 199.401 786.9 198.801 785.6 197.901C784.4 197.001 783.401 195.901 782.701 194.701C782.001 193.501 781.601 192.201 781.401 190.801C781.201 189.501 781.4 188.101 781.7 186.701C782.1 185.301 782.701 184.001 783.701 182.801L783.601 182.901ZM785.901 184.601C785.001 185.901 784.401 187.201 784.101 188.601C783.901 190.001 784.1 191.301 784.5 192.601C785 193.901 785.8 195.001 787 195.901C788.2 196.801 789.5 197.301 790.8 197.401C792.2 197.401 793.501 197.201 794.801 196.601C796.101 196.001 797.2 195.001 798.1 193.801C799 192.501 799.601 191.201 799.801 189.801C800.001 188.401 799.8 187.101 799.4 185.801C798.9 184.501 798.1 183.401 796.9 182.501C795.7 181.601 794.4 181.101 793.1 181.001C791.8 180.901 790.401 181.201 789.101 181.801C787.801 182.401 786.7 183.401 785.8 184.601H785.901Z" fill="black"/>
<path d="M810.2 189.602L814.799 193.202C815.699 193.902 816.499 194.702 817.099 195.602C817.699 196.502 817.999 197.402 818.099 198.402C818.099 199.402 817.799 200.402 816.899 201.402C816.399 202.102 815.7 202.602 815 203.002C814.3 203.402 813.599 203.502 812.899 203.602C812.199 203.602 811.699 203.602 811.199 203.302C811.499 203.602 811.799 204.002 811.999 204.402C812.299 204.902 812.4 205.402 812.5 206.002C812.6 206.602 812.5 207.202 812.5 207.902C812.4 208.602 812 209.202 811.5 209.902C810.8 210.802 810 211.502 809.1 211.902C808.2 212.302 807.199 212.402 806.099 212.302C804.999 212.102 803.9 211.602 802.8 210.702L797.199 206.302L810.2 189.602ZM800.699 206.102L803.9 208.602C804.7 209.202 805.399 209.602 806.099 209.602C806.799 209.602 807.299 209.602 807.899 209.202C808.499 208.802 808.899 208.502 809.299 208.002C809.999 207.202 810.2 206.302 810.1 205.302C809.9 204.302 809.299 203.502 808.299 202.602L805.3 200.202L800.799 206.002L800.699 206.102ZM806.6 198.502L809.399 200.702C809.999 201.202 810.7 201.502 811.3 201.502C811.9 201.502 812.499 201.502 813.099 201.102C813.599 200.802 814.099 200.402 814.499 200.002C815.299 199.002 815.5 198.102 815.2 197.302C814.9 196.502 814.299 195.702 813.399 194.902L810.899 193.002L806.6 198.502Z" fill="black"/>
<path d="M824.499 200.801L826.6 202.501L814.899 217.001L821.399 222.201L819.799 224.101L811.199 217.201L824.499 200.801Z" fill="black"/>
<path d="M836.697 210.799L838.798 212.599L825.298 228.799L823.197 226.999L836.697 210.699V210.799Z" fill="black"/>
<path d="M843.901 229.401L852 236.401L851.301 237.301C850.301 238.401 849.2 239.301 848 239.901C846.8 240.601 845.501 240.901 844.101 241.101C842.701 241.301 841.401 241.101 840.101 240.701C838.801 240.301 837.601 239.601 836.401 238.601C835.201 237.601 834.301 236.501 833.801 235.201C833.201 233.901 832.901 232.601 832.801 231.201C832.801 229.801 833 228.501 833.4 227.101C833.9 225.801 834.6 224.501 835.6 223.401C836.6 222.301 837.701 221.401 838.901 220.701C840.101 220.001 841.501 219.601 842.801 219.501C844.201 219.401 845.5 219.501 846.9 219.901C848.2 220.301 849.5 221.001 850.7 222.001C851.5 222.701 852.101 223.401 852.701 224.101C853.301 224.801 853.601 225.601 853.901 226.401C854.201 227.201 854.3 227.901 854.4 228.701C854.4 229.501 854.4 230.201 854.4 230.901L851.601 230.301C851.601 229.201 851.6 228.101 851.2 227.001C850.8 225.901 850.101 224.901 849.101 224.001C848.301 223.301 847.301 222.801 846.301 222.501C845.301 222.201 844.3 222.101 843.3 222.301C842.3 222.401 841.3 222.801 840.4 223.301C839.5 223.801 838.6 224.501 837.9 225.401C837.2 226.201 836.6 227.201 836.2 228.201C835.8 229.201 835.7 230.201 835.7 231.301C835.7 232.301 835.901 233.301 836.401 234.301C836.801 235.301 837.5 236.101 838.3 236.801C839.1 237.501 840 238.001 840.9 238.301C841.8 238.601 842.7 238.701 843.6 238.701C844.5 238.701 845.4 238.401 846.2 238.001C847 237.601 847.8 237.001 848.5 236.301L842.701 231.301L844.101 229.601L843.901 229.401Z" fill="black"/>
<path d="M866.2 236.201L868.299 238.101L859.9 259.001L857.7 257.002L859.8 252.002L853.099 246.001L848.299 248.501L846.1 246.501L866.1 236.102L866.2 236.201ZM855.499 244.802L860.899 249.601L865.1 239.601L855.599 244.701L855.499 244.802Z" fill="black"/>
<path d="M877.899 250.399L873.8 246.499L875.499 244.699L885.799 254.399L884.1 256.199L879.899 252.299L867.099 265.899L865.1 263.999L877.899 250.399Z" fill="black"/>
<path d="M880.699 264.099C881.799 262.999 882.998 262.199 884.298 261.599C885.598 260.999 886.899 260.699 888.299 260.699C889.699 260.699 890.999 260.899 892.299 261.399C893.599 261.899 894.799 262.699 895.799 263.699C896.899 264.799 897.699 265.899 898.199 267.199C898.699 268.499 898.999 269.799 898.899 271.199C898.899 272.599 898.598 273.899 897.998 275.199C897.498 276.499 896.598 277.699 895.498 278.799C894.398 279.899 893.199 280.699 891.899 281.299C890.599 281.899 889.298 282.199 887.898 282.199C886.498 282.199 885.199 281.999 883.899 281.499C882.599 280.999 881.399 280.199 880.299 279.099C879.199 277.999 878.398 276.799 877.898 275.499C877.398 274.199 877.099 272.899 877.199 271.499C877.199 270.099 877.499 268.799 878.099 267.499C878.699 266.199 879.499 264.999 880.599 263.899L880.699 264.099ZM882.699 266.099C881.599 267.199 880.798 268.399 880.398 269.799C879.998 271.099 879.899 272.499 880.199 273.799C880.499 275.099 881.199 276.299 882.199 277.399C883.299 278.499 884.499 279.099 885.799 279.399C887.099 279.699 888.499 279.599 889.799 279.199C891.099 278.799 892.399 277.999 893.499 276.899C894.599 275.799 895.399 274.599 895.799 273.199C896.199 271.799 896.299 270.499 895.999 269.199C895.699 267.899 894.999 266.699 893.899 265.599C892.799 264.599 891.599 263.899 890.299 263.599C888.999 263.299 887.599 263.399 886.299 263.799C884.999 264.199 883.699 264.999 882.599 266.099H882.699Z" fill="black"/>
<path d="M906.2 274.499L908.099 276.498L892.999 291.198L891.1 289.199L906.2 274.398V274.499Z" fill="black"/>
<path d="M911.998 280.602L917.098 286.002C917.898 286.802 918.398 287.702 918.698 288.802C918.998 289.902 918.998 290.802 918.698 291.902C918.398 293.002 917.797 293.902 916.897 294.802C915.897 295.702 914.998 296.202 913.998 296.502C912.998 296.702 912.098 296.702 911.298 296.502C910.498 296.302 909.897 295.902 909.397 295.502L906.398 305.602L904.297 303.302L907.398 293.602L905.098 291.102L898.598 297.202L896.697 295.202L912.098 280.702L911.998 280.602ZM906.498 289.502L908.998 292.202C909.898 293.102 910.797 293.702 911.797 293.802C912.797 294.002 913.798 293.602 914.798 292.602C915.798 291.702 916.198 290.702 916.098 289.702C915.998 288.702 915.498 287.702 914.598 286.802L912.098 284.102L906.398 289.502H906.498Z" fill="black"/>
<path d="M924.798 294.202L933.197 303.401L931.398 305.102L924.798 297.902L919.698 302.502L926.098 309.601L924.297 311.201L917.897 304.102L912.798 308.701L919.397 315.901L917.598 317.602L909.197 308.302L924.798 294.102V294.202Z" fill="black"/>
<path d="M930.1 323.902C930.8 323.402 931.399 323.002 932.199 322.802C932.899 322.602 933.599 322.602 934.299 322.702C934.999 322.702 935.6 322.902 936.3 323.102C936.9 323.302 937.399 323.602 937.899 323.802C938.299 324.102 938.7 324.202 938.9 324.402C938.9 324.202 938.9 323.802 938.9 323.402C938.9 323.002 939.099 322.502 939.199 322.002C939.299 321.502 939.6 321.002 939.9 320.402C940.2 319.902 940.499 319.402 940.999 319.102C941.699 318.502 942.399 318.202 943.299 318.102C944.199 318.102 944.999 318.102 945.899 318.502C946.799 318.902 947.599 319.502 948.299 320.402C948.999 321.302 949.499 322.202 949.699 323.102C949.899 324.002 949.899 324.802 949.699 325.602C949.499 326.402 948.899 327.102 948.199 327.702C947.499 328.302 946.8 328.602 946.1 328.702C945.4 328.802 944.6 328.802 943.9 328.702C943.2 328.602 942.599 328.402 941.999 328.202C941.399 328.002 940.999 327.802 940.799 327.702L939.9 334.402C939.9 334.402 940.8 334.402 941.5 334.402C942.2 334.402 943 334.302 943.8 334.102V336.602C943.8 336.602 943.1 336.702 942.6 336.802C942.1 336.802 941.6 336.802 941.1 336.802C940.6 336.802 940.099 336.802 939.799 336.802L939.1 342.902L936.799 340.202L937.299 336.202C936.499 336.202 935.7 336.002 934.9 335.702C934 335.502 933.199 335.102 932.299 334.602C931.399 334.102 930.6 333.402 929.9 332.502C929.1 331.602 928.599 330.602 928.299 329.602C927.999 328.602 927.999 327.502 928.299 326.602C928.599 325.602 929.2 324.802 930 324.002L930.1 323.902ZM938.6 326.602C938.6 326.602 938.199 326.402 937.899 326.202C937.599 326.002 937.199 325.802 936.699 325.702C936.199 325.502 935.8 325.402 935.3 325.302C934.8 325.302 934.3 325.302 933.8 325.302C933.3 325.302 932.8 325.602 932.4 326.002C931.8 326.502 931.5 327.002 931.3 327.602C931.2 328.202 931.2 328.802 931.3 329.402C931.5 330.002 931.799 330.602 932.199 331.102C932.699 331.702 933.3 332.202 934 332.502C934.7 332.902 935.299 333.202 935.999 333.302C936.699 333.502 937.3 333.602 937.8 333.602L938.7 326.502L938.6 326.602ZM946.699 321.802C946.699 321.802 945.799 321.002 945.399 320.802C944.999 320.602 944.4 320.602 944 320.602C943.6 320.602 943.2 320.802 942.8 321.102C942.5 321.402 942.199 321.802 941.999 322.202C941.799 322.702 941.6 323.102 941.5 323.602C941.4 324.102 941.3 324.502 941.3 324.902C941.3 325.302 941.3 325.502 941.3 325.502C941.5 325.602 941.799 325.802 942.199 326.002C942.599 326.202 943.1 326.302 943.6 326.402C944.1 326.502 944.7 326.502 945.2 326.402C945.8 326.402 946.299 326.102 946.799 325.602C947.399 325.102 947.6 324.502 947.7 323.802C947.8 323.102 947.399 322.302 946.899 321.702L946.699 321.802Z" fill="black"/>
<path d="M954 344.202C955.2 343.302 956.499 342.602 957.899 342.202C959.299 341.802 960.599 341.702 961.999 341.802C963.399 341.902 964.7 342.302 965.9 343.002C967.1 343.702 968.2 344.602 969.1 345.802C970 347.002 970.7 348.202 971 349.602C971.4 350.902 971.4 352.302 971.2 353.702C971 355.102 970.6 356.302 969.8 357.602C969.1 358.802 968.099 359.902 966.899 360.902C965.699 361.802 964.399 362.502 962.999 362.902C961.599 363.302 960.3 363.402 958.9 363.302C957.5 363.202 956.2 362.802 955 362.102C953.8 361.402 952.699 360.502 951.799 359.302C950.899 358.102 950.2 356.802 949.9 355.502C949.5 354.202 949.5 352.802 949.7 351.402C949.9 350.102 950.4 348.802 951.1 347.502C951.8 346.302 952.8 345.202 954 344.202ZM955.699 346.502C954.499 347.502 953.599 348.602 952.999 349.902C952.399 351.202 952.2 352.502 952.3 353.902C952.4 355.302 952.9 356.502 953.9 357.702C954.8 358.902 955.9 359.702 957.2 360.202C958.5 360.602 959.8 360.702 961.2 360.502C962.6 360.202 963.9 359.602 965.2 358.702C966.4 357.702 967.299 356.602 967.899 355.302C968.499 354.002 968.7 352.702 968.6 351.302C968.5 349.902 967.899 348.702 966.999 347.502C966.099 346.302 965 345.502 963.7 345.102C962.4 344.602 961.1 344.502 959.7 344.802C958.3 345.102 957 345.702 955.8 346.602L955.699 346.502Z" fill="black"/>
<path d="M989.198 373.199L972.198 385.699L970.598 383.499L982.898 374.499L984.899 373.199L982.499 374.299L968.398 378.399L966.798 376.199L974.899 363.899L976.599 361.899L974.799 363.399L962.499 372.399L960.898 370.199L977.898 357.699L979.999 360.599L970.099 375.099L969.298 375.899L970.299 375.399L987.098 370.199L989.198 373.099V373.199Z" fill="black"/>
<path d="M991.799 381.401V381.601L976.699 392.101L975.1 389.801L992.5 377.801L994.699 381.001L985.699 400.501H985.599L1000.8 389.801L1002.4 392.101L985 404.101L982.8 400.901L991.799 381.401Z" fill="black"/>
<path d="M1005.5 396.898L1007 399.199L989.399 410.898L987.898 408.599L1005.5 396.898Z" fill="black"/>
<path d="M1010.2 403.898L1013.4 408.898C1014.1 409.998 1014.6 411.098 1014.8 412.298C1015 413.398 1014.9 414.498 1014.5 415.498C1014.1 416.498 1013.2 417.398 1012 418.198C1010.8 418.998 1009.6 419.398 1008.4 419.398C1007.3 419.398 1006.2 419.098 1005.2 418.398C1004.2 417.798 1003.4 416.898 1002.7 415.798L1000.9 413.098L993.899 417.598L992.398 415.298L1010.2 403.898ZM1002.8 411.798L1004.1 413.898C1004.6 414.698 1005.1 415.298 1005.8 415.798C1006.4 416.298 1007.1 416.498 1007.9 416.598C1008.7 416.598 1009.5 416.398 1010.3 415.798C1011.1 415.198 1011.7 414.598 1012 413.898C1012.3 413.198 1012.3 412.498 1012 411.698C1011.8 410.898 1011.5 410.198 1011 409.398L1009.7 407.298L1002.8 411.698V411.798Z" fill="black"/>
<path d="M1019.6 418.699L1023.4 424.999C1024 425.999 1024.3 426.999 1024.4 427.999C1024.5 428.999 1024.3 429.999 1023.8 430.999C1023.3 431.999 1022.5 432.799 1021.4 433.499C1020.3 434.199 1019.2 434.499 1018.2 434.499C1017.2 434.499 1016.3 434.299 1015.6 433.899C1014.9 433.499 1014.3 433.099 1013.9 432.599L1008.8 441.799L1007.2 439.099L1012.3 430.299L1010.5 427.399L1002.9 431.999L1001.5 429.699L1019.5 418.699H1019.6ZM1012.4 426.299L1014.3 429.399C1015 430.499 1015.8 431.199 1016.7 431.599C1017.7 431.999 1018.8 431.799 1019.9 431.099C1021 430.399 1021.7 429.499 1021.8 428.499C1021.8 427.499 1021.6 426.399 1021 425.399L1019.1 422.299L1012.4 426.399V426.299Z" fill="black"/>
<path d="M1029.5 435L1035.8 445.8L1033.7 447L1028.8 438.6L1022.9 442L1027.7 450.3L1025.6 451.5L1020.8 443.2L1014.8 446.7L1019.7 455.2L1017.6 456.4L1011.3 445.6L1029.6 435H1029.5ZM1032.7 438.8L1033.4 437.3L1039.3 439.5L1038.4 441.9L1032.8 438.9L1032.7 438.8Z" fill="black"/>
<path d="M1042 456.102C1042.6 457.202 1043 458.202 1043.2 459.102C1043.4 460.002 1043.5 460.702 1043.4 461.302C1043.3 461.902 1043.4 462.302 1043.4 462.402H1040.7C1040.7 462.402 1040.7 461.702 1040.8 461.202C1040.9 460.702 1040.8 460.202 1040.7 459.502C1040.6 458.902 1040.3 458.202 1040 457.502C1039.4 456.402 1038.7 455.702 1038 455.402C1037.2 455.002 1036.5 455.002 1035.7 455.402C1035.2 455.702 1034.8 456.102 1034.6 456.602C1034.4 457.102 1034.3 457.802 1034.3 458.602C1034.3 459.402 1034.3 460.202 1034.4 461.202C1034.4 462.002 1034.5 462.802 1034.5 463.602C1034.5 464.402 1034.5 465.202 1034.2 466.002C1033.9 466.802 1033.7 467.502 1033.3 468.102C1032.9 468.702 1032.2 469.302 1031.4 469.702C1030.6 470.102 1029.8 470.402 1029 470.402C1028.2 470.402 1027.4 470.302 1026.6 469.902C1025.8 469.602 1025.1 469.102 1024.5 468.402C1023.8 467.702 1023.3 467.002 1022.8 466.102C1022.2 465.002 1021.8 463.902 1021.5 462.802C1021.3 461.702 1021.2 460.802 1021.2 460.102C1021.2 459.402 1021.2 458.902 1021.2 458.802L1024 459.002C1024 459.002 1024 459.402 1024 459.802C1024 460.202 1024 460.702 1024 461.202C1024 461.702 1024.1 462.302 1024.3 463.002C1024.5 463.602 1024.7 464.202 1025.1 464.902C1025.8 466.202 1026.6 466.902 1027.5 467.302C1028.4 467.602 1029.3 467.602 1030.2 467.102C1030.9 466.702 1031.3 466.202 1031.6 465.502C1031.9 464.802 1032 464.002 1032 463.102C1032 462.202 1032 461.302 1031.9 460.202C1031.9 459.102 1031.9 458.102 1031.9 457.202C1031.9 456.202 1032.2 455.402 1032.6 454.602C1033 453.802 1033.7 453.202 1034.6 452.702C1035.5 452.202 1036.4 452.002 1037.4 452.202C1038.4 452.302 1039.3 452.702 1040.1 453.402C1040.9 454.102 1041.7 454.902 1042.2 455.902L1042 456.102Z" fill="black"/>
<path d="M1047 466.199L1052.8 477.299L1050.6 478.399L1046.1 469.699L1040 472.899L1044.4 481.399L1042.3 482.499L1037.8 473.999L1031.7 477.199L1036.2 485.899L1034 487.099L1028.2 475.999L1046.9 466.199H1047Z" fill="black"/>
<path d="M1054.2 485.701V485.901L1037.6 494.101L1036.4 491.601L1055.3 482.301L1057 485.801L1045.3 503.801L1061.9 495.501L1063.1 498.001L1044.2 507.301L1042.5 503.801L1054.3 485.801L1054.2 485.701Z" fill="black"/>
<path d="M1065 507.802L1062.6 502.602L1064.8 501.602L1070.7 514.402L1068.5 515.402L1066.1 510.202L1049.2 518.002L1048 515.502L1064.9 507.702L1065 507.802Z" fill="black"/>
<path d="M1054 529.599C1053.8 529.099 1053.7 528.499 1054 527.999C1054.2 527.499 1054.6 526.999 1055.1 526.799C1055.6 526.599 1056.2 526.499 1056.8 526.799C1057.4 526.999 1057.8 527.399 1058 527.899C1058.3 528.499 1058.3 528.999 1058 529.599C1057.8 530.199 1057.4 530.599 1056.8 530.799C1056.3 530.999 1055.7 530.999 1055.2 530.799C1054.7 530.599 1054.3 530.199 1054 529.599Z" fill="black"/>
<path d="M1067.9 560.699L1074.4 577.599L1072.5 578.299L1066 561.399L1067.8 560.699H1067.9ZM1073 558.699L1073.9 560.899L1068.1 563.099L1067.2 560.799L1073 558.599V558.699ZM1079.1 564.799L1080 566.999L1074.4 569.199L1073.5 566.999L1079.1 564.799ZM1076.4 554.199L1084.9 576.399L1083.1 577.099L1074.6 554.899L1076.4 554.199ZM1088.8 552.699L1095.1 569.099L1086.5 572.399L1080.2 555.999L1088.8 552.699ZM1092.5 567.599L1087.9 555.499L1082.9 557.399L1087.5 569.499L1092.5 567.599Z" fill="black"/>
<path d="M1085.4 584.298L1086.2 586.498L1083.2 587.498L1087.2 598.798L1090.2 597.798L1091 600.098L1081.3 603.498L1075.8 587.698L1085.5 584.298H1085.4ZM1081.4 588.298L1078.4 589.398L1082.4 600.698L1085.4 599.598L1081.5 588.298H1081.4ZM1097.7 576.398L1098.5 578.698L1094.7 579.998L1097 586.698L1100.8 585.398L1101.6 587.598L1090.3 591.598L1086.4 580.398L1097.7 576.398ZM1092.9 580.598L1089 581.898L1091.3 588.598L1095.2 587.198L1092.9 580.498V580.598ZM1104.9 592.798L1105.7 595.098L1092.2 599.798L1091.4 597.498L1104.9 592.798ZM1096.6 588.598L1099 595.598L1097.1 596.298L1094.7 589.298L1096.6 588.598Z" fill="black"/>
<path d="M1092.4 609.401L1097.7 626.101L1089 628.801L1088.3 626.501L1095.1 624.401L1090.6 610.001L1092.5 609.401H1092.4ZM1106.9 607.601L1107.5 609.501L1105.4 610.101C1103.9 610.601 1102.4 610.701 1100.9 610.601C1099.4 610.401 1098 610.001 1096.7 609.201C1095.4 608.501 1094.2 607.501 1093.3 606.301L1094.7 604.501C1095.3 605.301 1096 606.001 1096.8 606.601C1097.6 607.201 1098.4 607.701 1099.3 608.001C1100.2 608.301 1101.1 608.501 1102.1 608.601C1103 608.601 1103.9 608.601 1104.8 608.201L1106.9 607.601ZM1107.1 608.101L1107.7 610.001L1105.7 610.601C1104.6 611.001 1103.7 611.501 1102.8 612.301C1102 613.101 1101.3 614.101 1100.8 615.301C1100.3 616.501 1100 617.701 1100 619.101L1097.8 618.501C1097.8 617.001 1098.2 615.601 1098.8 614.301C1099.4 613.001 1100.3 611.901 1101.3 610.901C1102.4 610.001 1103.6 609.201 1105 608.801L1107 608.201L1107.1 608.101ZM1113.2 618.701L1113.9 621.001L1098.9 625.701L1098.2 623.401L1113.2 618.701ZM1105.2 615.901L1106.9 621.501L1105 622.101L1103.2 616.501L1105.1 615.901H1105.2ZM1106 601.801L1110.2 615.201L1108.3 615.801L1104.1 602.401L1106 601.801Z" fill="black"/>
<path d="M1105.1 649.601C1105.8 652.201 1106 654.401 1105.5 656.101C1105.1 657.801 1104.1 658.901 1102.6 659.301C1101.1 659.701 1099.7 659.301 1098.5 658.001C1097.3 656.701 1096.3 654.801 1095.6 652.201C1094.9 649.601 1094.7 647.401 1095.2 645.701C1095.6 644.001 1096.6 642.901 1098.1 642.501C1099.6 642.101 1101 642.501 1102.2 643.801C1103.5 645.101 1104.4 647.001 1105.1 649.601ZM1103.3 650.101C1102.9 648.801 1102.5 647.801 1102.1 646.901C1101.6 646.001 1101.1 645.401 1100.5 645.101C1099.9 644.701 1099.3 644.601 1098.7 644.801C1098.1 645.001 1097.6 645.301 1097.4 646.001C1097.1 646.601 1097 647.401 1097 648.401C1097 649.401 1097.2 650.501 1097.5 651.801C1097.8 653.101 1098.3 654.201 1098.7 655.001C1099.2 655.801 1099.7 656.401 1100.3 656.801C1100.9 657.201 1101.5 657.301 1102.1 657.101C1102.7 656.901 1103.2 656.501 1103.5 655.901C1103.8 655.301 1103.9 654.501 1103.9 653.501C1103.9 652.501 1103.7 651.401 1103.4 650.101H1103.3ZM1117.8 639.601L1118.3 641.501L1115.7 642.201C1114 642.601 1112.5 642.801 1110.9 642.601C1109.4 642.401 1107.9 641.901 1106.6 641.101C1105.3 640.301 1104.1 639.301 1103.2 638.001L1104.7 636.301C1105.5 637.501 1106.5 638.401 1107.6 639.101C1108.7 639.801 1109.9 640.301 1111.2 640.501C1112.5 640.701 1113.8 640.601 1115.1 640.301L1117.7 639.601H1117.8ZM1117.9 640.001L1118.4 641.901L1115.9 642.601C1114.7 642.901 1113.7 643.501 1112.7 644.301C1111.8 645.101 1111 646.101 1110.5 647.201C1109.9 648.401 1109.6 649.601 1109.6 650.901L1107.4 650.101C1107.5 648.601 1108 647.201 1108.6 645.901C1109.2 644.601 1110.2 643.501 1111.3 642.601C1112.5 641.701 1113.8 641.001 1115.3 640.601L1117.8 639.901L1117.9 640.001ZM1122.5 651.301L1123.1 653.601L1108.1 657.701L1107.5 655.401L1122.5 651.301ZM1115.7 647.301L1117.3 653.301L1115.4 653.801L1113.8 647.801L1115.7 647.301Z" fill="black"/>
<path d="M1097.1 671.6C1098.9 669.8 1100.8 668.2 1103 666.9C1105.1 665.6 1107.6 664.6 1110.4 663.9C1113.2 663.2 1115.8 662.9 1118.3 663.1C1120.8 663.2 1123.3 663.7 1125.7 664.5L1125.4 666.3C1123.1 665.6 1120.7 665.3 1118.3 665.3C1115.8 665.3 1113.4 665.6 1111 666.2C1108.6 666.8 1106.3 667.7 1104.1 668.9C1101.9 670.1 1100 671.5 1098.3 673.2L1097.2 671.8L1097.1 671.6Z" fill="black"/>
<path d="M1128.2 672.201L1128.7 674.301L1102.7 680.301L1102.2 678.201L1128.2 672.201ZM1106.3 682.001L1110.3 699.401L1108.3 699.901L1104.3 682.501L1106.3 682.001ZM1131 684.901L1131.5 687.001L1107.5 692.501L1107 690.301L1131 684.801V684.901ZM1115.8 682.001L1119 696.001L1117 696.501L1113.8 682.501L1115.8 682.001ZM1122.2 670.801V672.501C1121.5 672.601 1120.7 672.701 1119.7 672.801C1118.7 672.801 1117.8 672.901 1116.9 672.901C1116 672.901 1115.1 672.901 1114.4 672.801L1114.6 671.001C1115.3 671.101 1116.1 671.201 1117 671.201C1117.9 671.201 1118.8 671.201 1119.7 671.101C1120.6 671.101 1121.5 671.001 1122.3 670.801H1122.2ZM1128.8 680.601V682.701C1127.5 682.701 1126.1 682.701 1124.7 682.701C1123.3 682.701 1122 682.501 1120.7 682.301C1119.5 682.101 1118.3 681.901 1117.3 681.501C1117.3 681.301 1117.4 681.101 1117.5 680.901C1117.5 680.601 1117.7 680.401 1117.7 680.101C1117.7 679.801 1117.8 679.601 1117.8 679.401C1118.8 679.801 1119.8 680.001 1121 680.201C1122.2 680.401 1123.4 680.501 1124.8 680.501C1126.1 680.501 1127.5 680.501 1128.8 680.501V680.601ZM1123.5 675.701L1124.5 677.001C1123.8 677.601 1123.1 678.201 1122.3 678.801C1121.5 679.401 1120.8 679.801 1120.2 680.101L1119 678.701C1119 678.701 1119.9 678.201 1120.4 677.901C1120.9 677.601 1121.4 677.201 1122 676.801C1122.5 676.401 1123 676.001 1123.5 675.601V675.701ZM1124 681.601L1127 694.801L1125 695.301L1121.8 681.501L1124 681.701V681.601Z" fill="black"/>
<path d="M1104.7 704.801L1105.1 703.001C1107.4 703.801 1109.8 704.301 1112.2 704.401C1114.6 704.501 1117.1 704.401 1119.5 703.801C1121.9 703.301 1124.2 702.501 1126.4 701.401C1128.6 700.301 1130.6 698.901 1132.4 697.301L1133.5 698.801C1131.6 700.601 1129.6 702.101 1127.4 703.301C1125.2 704.501 1122.7 705.401 1119.9 706.001C1117.1 706.601 1114.5 706.801 1112 706.501C1109.5 706.301 1107.1 705.701 1104.7 704.801Z" fill="black"/>
<path d="M1120.1 716.701L1122.1 716.301L1123.5 723.601L1121.5 724.001L1120.1 716.701Z" fill="black"/>
<path d="M1116.9 738.8L1119.8 756.5L1117.9 756.8L1115 739L1116.9 738.7V738.8ZM1125.9 737.3L1128.6 754.2L1122.4 755.2L1120.1 740.7L1116.2 741.3L1115.8 739L1121.4 738.1L1123.7 752.6L1126.3 752.2L1123.9 737.7L1125.8 737.4L1125.9 737.3ZM1127.5 733.3L1129.4 732.7C1129.7 734.2 1130 735.9 1130.3 737.7C1130.6 739.5 1131 741.3 1131.4 743.2C1131.8 745 1132.2 746.8 1132.7 748.4L1131 748.8C1130.5 747.1 1130 745.4 1129.5 743.6C1129.1 741.8 1128.7 740 1128.3 738.2C1127.9 736.4 1127.7 734.8 1127.4 733.3H1127.5ZM1137.9 734.7L1138.3 737L1129.5 738.4L1129.1 736.1L1137.9 734.7ZM1143 749.4L1143.4 751.8L1130 754L1129.6 751.6L1143 749.4ZM1138.9 741.2L1139.3 743.5L1130.5 744.9L1130.1 742.6L1138.9 741.2ZM1138.3 732L1140.6 745.9L1138.7 746.2L1136.4 732.3L1138.3 732Z" fill="black"/>
<path d="M1129.5 769.899L1129.8 772.299L1119.9 773.599L1119.6 771.199L1129.5 769.899ZM1129.6 759.199L1132.8 782.699L1130.8 782.999L1127.7 759.499L1129.7 759.199H1129.6ZM1144.7 767.899L1145 769.999L1143.5 770.199C1142.5 770.299 1141.5 770.199 1140.6 769.999C1139.7 769.699 1138.8 769.299 1138 768.799C1137.2 768.299 1136.4 767.599 1135.7 766.699C1135 765.899 1134.4 764.999 1133.9 763.999C1133.4 762.999 1133 761.999 1132.6 760.999L1134.4 759.799C1134.7 760.699 1135 761.599 1135.5 762.499C1135.9 763.399 1136.5 764.199 1137 764.899C1137.6 765.599 1138.2 766.199 1138.9 766.799C1139.6 767.299 1140.3 767.699 1141 767.999C1141.7 768.199 1142.4 768.299 1143.2 768.199L1144.7 767.999V767.899ZM1144.7 768.299L1145 770.399L1143.5 770.599C1142.8 770.599 1142.1 770.999 1141.5 771.399C1140.9 771.799 1140.3 772.399 1139.8 773.099C1139.3 773.799 1138.8 774.499 1138.5 775.399C1138.2 776.299 1137.8 777.099 1137.6 778.099C1137.4 779.099 1137.3 779.999 1137.3 780.999L1135.2 780.299C1135.2 779.199 1135.4 778.099 1135.6 776.999C1135.9 775.899 1136.2 774.899 1136.7 773.899C1137.2 772.899 1137.7 772.099 1138.3 771.299C1138.9 770.499 1139.7 769.899 1140.5 769.399C1141.3 768.899 1142.2 768.599 1143.2 768.499L1144.7 768.299Z" fill="black"/>
<path d="M1131.2 790.101L1133.1 807.501L1124 808.501L1123.7 806.101L1130.8 805.301L1129.2 790.301L1131.2 790.101ZM1145.8 791.201L1146 793.201L1143.9 793.401C1142.3 793.601 1140.8 793.401 1139.4 793.001C1137.9 792.501 1136.6 791.801 1135.5 790.801C1134.3 789.801 1133.4 788.601 1132.7 787.201L1134.5 785.801C1134.9 786.701 1135.5 787.501 1136.2 788.301C1136.9 789.001 1137.6 789.701 1138.4 790.201C1139.2 790.701 1140.1 791.101 1141 791.301C1141.9 791.501 1142.8 791.601 1143.7 791.501L1145.8 791.301V791.201ZM1149.8 803.301L1150.1 805.701L1134.5 807.401L1134.2 805.001L1149.8 803.301ZM1145.9 791.601L1146.1 793.601L1144 793.801C1142.9 793.901 1141.8 794.301 1140.8 794.901C1139.8 795.501 1139 796.401 1138.2 797.401C1137.5 798.401 1137 799.601 1136.6 800.901L1134.6 799.901C1135 798.401 1135.6 797.101 1136.4 795.901C1137.3 794.701 1138.3 793.801 1139.6 793.101C1140.8 792.401 1142.2 791.901 1143.7 791.801L1145.8 791.601H1145.9ZM1142.4 798.901L1143 804.701L1141 804.901L1140.4 799.101L1142.4 798.901ZM1146.1 785.301L1147.6 799.201L1145.6 799.401L1144.1 785.501L1146.1 785.301Z" fill="black"/>
<path d="M1152.1 830.299L1152.3 832.699L1126.1 834.799L1125.9 832.399L1152.1 830.299ZM1149.2 819.099C1149.2 820.399 1149 821.599 1148.4 822.599C1147.7 823.699 1146.7 824.499 1145.4 825.199C1144.1 825.899 1142.5 826.299 1140.7 826.399C1138.8 826.499 1137.2 826.399 1135.8 825.899C1134.4 825.399 1133.3 824.699 1132.4 823.799C1131.6 822.899 1131.1 821.799 1131 820.499C1130.9 819.199 1131.2 817.999 1131.8 816.999C1132.5 815.899 1133.5 815.099 1134.8 814.399C1136.1 813.699 1137.7 813.299 1139.6 813.199C1141.5 813.099 1143.1 813.199 1144.5 813.699C1145.9 814.199 1147 814.899 1147.8 815.799C1148.6 816.699 1149.1 817.899 1149.2 819.099ZM1147 819.299C1147 818.399 1146.6 817.699 1146 817.099C1145.4 816.499 1144.5 816.099 1143.5 815.799C1142.4 815.499 1141.2 815.399 1139.8 815.499C1138.4 815.599 1137.2 815.899 1136.1 816.299C1135.1 816.699 1134.3 817.299 1133.8 817.999C1133.3 818.699 1133 819.499 1133.1 820.299C1133.1 821.099 1133.5 821.899 1134.2 822.499C1134.8 823.099 1135.7 823.499 1136.8 823.799C1137.9 824.099 1139.1 824.199 1140.5 824.099C1141.9 823.999 1143.1 823.699 1144.1 823.299C1145.1 822.799 1145.9 822.299 1146.4 821.599C1146.9 820.899 1147.2 820.099 1147.1 819.299H1147Z" fill="black"/>
<path d="M1132.2 839.602L1133.4 863.302H1131.4L1130.1 839.802H1132.1L1132.2 839.602ZM1142 848.302V850.702L1131.8 851.202V848.802L1142 848.302ZM1151.1 857.102V859.502L1148.7 859.602C1147.6 859.602 1146.5 859.702 1145.3 859.702C1144.1 859.702 1142.8 859.702 1141.3 859.702C1139.8 859.702 1138.3 859.502 1136.5 859.302L1136.7 856.802C1139.2 857.202 1141.5 857.302 1143.4 857.302C1145.3 857.302 1147.1 857.302 1148.6 857.102H1151.2H1151.1ZM1150.2 841.102L1151.1 858.002H1149.1L1148.2 841.202H1150.2V841.102Z" fill="black"/>
<path d="M1154.8 891.298V893.698L1128.6 894.298V891.898L1154.8 891.298ZM1152.5 879.198C1152.5 880.498 1152.2 881.598 1151.5 882.598C1150.8 883.598 1149.7 884.398 1148.4 884.998C1147.1 885.598 1145.4 885.898 1143.6 885.898C1141.7 885.898 1140.1 885.699 1138.7 885.199C1137.3 884.699 1136.2 883.899 1135.5 882.999C1134.7 881.999 1134.3 880.898 1134.3 879.598C1134.3 878.398 1134.6 877.198 1135.4 876.198C1136.1 875.198 1137.2 874.398 1138.5 873.798C1139.9 873.198 1141.5 872.898 1143.3 872.898C1145.1 872.898 1146.8 873.099 1148.2 873.599C1149.6 874.099 1150.7 874.899 1151.4 875.799C1152.2 876.799 1152.6 877.898 1152.6 879.198H1152.5ZM1150.3 879.198C1150.3 878.398 1150 877.598 1149.4 876.998C1148.8 876.398 1148 875.898 1146.9 875.598C1145.8 875.298 1144.6 875.098 1143.2 875.098C1141.8 875.098 1140.6 875.298 1139.5 875.698C1138.4 876.098 1137.6 876.598 1137.1 877.298C1136.6 877.998 1136.3 878.698 1136.3 879.498C1136.3 880.298 1136.6 881.098 1137.2 881.698C1137.8 882.298 1138.6 882.798 1139.7 883.098C1140.8 883.398 1142 883.598 1143.4 883.498C1144.8 883.398 1146 883.298 1147.1 882.898C1148.1 882.498 1148.9 881.998 1149.5 881.398C1150 880.698 1150.3 879.998 1150.3 879.098V879.198ZM1144.6 885.098L1144.8 892.598H1142.9L1142.7 885.098H1144.6Z" fill="black"/>
<path d="M1154.8 918.102V920.502H1128.5V918.002H1154.8V918.102ZM1137.2 900.702V902.802C1137.2 904.502 1137.2 906.102 1137.2 907.502C1137.2 908.902 1137.3 910.202 1137.4 911.402C1137.5 912.602 1137.7 913.902 1137.9 915.202L1135.9 915.402C1135.7 914.102 1135.5 912.802 1135.4 911.502C1135.3 910.202 1135.2 908.902 1135.1 907.502C1135.1 906.102 1135.1 904.502 1135.1 902.702V900.602H1137.2V900.702ZM1152.4 900.702V913.102H1150.3V903.102H1136.4V900.702H1152.4Z" fill="black"/>
<path d="M1154.2 946.199V948.499L1127.9 947.699V945.399L1154.2 946.199ZM1153.8 940.999V943.299L1129.4 942.599V940.299L1153.8 940.999ZM1152.4 932.099C1152.4 933.199 1152 934.199 1151.2 934.999C1150.4 935.799 1149.4 936.399 1148 936.899C1146.6 937.299 1145 937.499 1143.1 937.499C1141.2 937.499 1139.6 937.199 1138.3 936.699C1136.9 936.199 1135.9 935.499 1135.2 934.599C1134.5 933.699 1134.1 932.699 1134.2 931.599C1134.2 930.499 1134.6 929.499 1135.4 928.699C1136.2 927.899 1137.2 927.299 1138.6 926.799C1140 926.399 1141.6 926.199 1143.5 926.299C1145.4 926.299 1147 926.599 1148.3 927.099C1149.6 927.599 1150.7 928.299 1151.4 929.199C1152.1 930.099 1152.4 930.999 1152.4 932.099ZM1150.1 931.999C1150.1 931.299 1149.9 930.699 1149.3 930.199C1148.7 929.699 1148 929.299 1147 928.999C1146 928.699 1144.8 928.499 1143.4 928.499C1142 928.499 1140.8 928.499 1139.7 928.799C1138.7 928.999 1137.9 929.399 1137.3 929.899C1136.7 930.399 1136.4 930.999 1136.4 931.599C1136.4 932.299 1136.7 932.899 1137.2 933.399C1137.7 933.899 1138.5 934.299 1139.5 934.599C1140.5 934.899 1141.7 935.099 1143.2 935.099C1144.6 935.099 1145.8 935.099 1146.9 934.799C1147.9 934.599 1148.7 934.199 1149.3 933.699C1149.9 933.199 1150.2 932.599 1150.2 931.899L1150.1 931.999ZM1144.2 936.599L1144 941.499H1142L1142.1 936.499H1144.1L1144.2 936.599Z" fill="black"/>
<path d="M1152.9 971.101V973.501L1126.6 972.101V969.701L1152.9 971.101ZM1136.3 953.401V955.501C1136.1 957.401 1136.1 959.401 1136.1 961.401C1136.1 963.401 1136.4 965.501 1136.7 967.701L1134.7 967.901C1134.4 965.601 1134.2 963.501 1134.1 961.401C1134.1 959.401 1134.1 957.301 1134.1 955.401V953.301L1136.2 953.401H1136.3ZM1151.3 954.301V956.701L1135 955.801V953.401L1151.3 954.301ZM1142.4 972.301L1142.1 977.101H1140.1L1140.4 972.201H1142.4V972.301Z" fill="black"/>
<path d="M1128 988.099L1126.5 1006L1124.5 1005.8L1126.1 987.899L1128.1 988.099H1128ZM1133.5 988.599L1133.3 990.999L1127.1 990.499L1127.3 988.099L1133.5 988.599ZM1137.8 985.899L1135.8 1009.6L1133.8 1009.4L1135.9 985.699L1137.9 985.899H1137.8ZM1141.2 996.799L1141 999.199L1135.9 998.799L1136.1 996.399L1141.2 996.799ZM1148.4 998.099L1148.2 1000.2H1147.4C1146.8 1000.1 1146.2 1000.2 1145.5 1000.4C1144.9 1000.7 1144.3 1001.1 1143.8 1001.6C1143.3 1002.1 1142.7 1002.7 1142.3 1003.4C1141.8 1004.1 1141.4 1004.9 1141.1 1005.7C1140.7 1006.5 1140.5 1007.4 1140.3 1008.3L1138.4 1007.2C1138.7 1005.9 1139.2 1004.7 1139.8 1003.5C1140.4 1002.3 1141.1 1001.3 1141.9 1000.5C1142.7 999.599 1143.6 998.999 1144.6 998.499C1145.6 997.999 1146.6 997.799 1147.7 997.899H1148.5L1148.4 998.099ZM1148.5 997.099L1148.3 999.199H1147.5C1146.4 998.999 1145.4 998.699 1144.5 998.099C1143.6 997.499 1142.8 996.699 1142.2 995.699C1141.6 994.699 1141.1 993.599 1140.7 992.299C1140.3 990.999 1140.1 989.799 1140 988.399L1142 987.699C1142 988.599 1142.2 989.599 1142.4 990.499C1142.6 991.399 1142.9 992.199 1143.2 992.999C1143.5 993.799 1143.9 994.499 1144.4 995.099C1144.9 995.699 1145.4 996.199 1145.9 996.599C1146.4 996.999 1147 997.199 1147.7 997.199H1148.5V997.099ZM1150.4 989.199L1148.7 1008.5L1146.7 1008.3L1148.4 988.999L1150.4 989.199Z" fill="black"/>
<path d="M1147.3 1034L1147 1036.3L1120.9 1033.4L1121.2 1031.1L1147.3 1034ZM1147.4 1028.3L1147.1 1030.6L1122.9 1027.9L1123.2 1025.6L1147.4 1028.3ZM1144.8 1019.5L1144.6 1021.4L1141.6 1021.1C1140 1020.9 1138.5 1021 1137 1021.2C1135.5 1021.4 1134.2 1021.9 1133 1022.7C1131.8 1023.4 1130.8 1024.3 1130.1 1025.5L1128.4 1023.9C1129.3 1022.7 1130.4 1021.7 1131.8 1020.9C1133.2 1020.1 1134.7 1019.6 1136.4 1019.4C1138.1 1019.1 1139.9 1019.1 1141.8 1019.4L1144.8 1019.7V1019.5ZM1144.9 1019.1L1144.7 1021L1141.7 1020.7C1140.2 1020.5 1138.7 1020.2 1137.3 1019.8C1135.9 1019.4 1134.7 1018.9 1133.6 1018.2C1132.5 1017.6 1131.5 1016.8 1130.7 1016C1129.9 1015.2 1129.2 1014.2 1128.7 1013.1L1130.7 1011.8C1131.2 1013.1 1132.1 1014.3 1133.2 1015.3C1134.3 1016.3 1135.6 1017 1137.1 1017.6C1138.6 1018.2 1140.2 1018.6 1142 1018.8L1145 1019.1H1144.9ZM1137.2 1028.7L1136.6 1033.7L1134.6 1033.5L1135.2 1028.5L1137.2 1028.7ZM1146.4 1014.1L1145 1026.2L1143 1026L1144.4 1013.9L1146.4 1014.1Z" fill="black"/>
<path d="M1128.8 1042.6L1126.5 1058.9L1118 1057.7L1120.3 1041.4L1128.8 1042.6ZM1124.9 1056.3L1126.5 1044.7L1121.9 1044L1120.3 1055.6L1124.9 1056.3ZM1143.9 1058.9L1143.6 1061.3L1128 1059.1L1128.3 1056.7L1143.9 1058.9ZM1139.4 1048C1139.2 1049.2 1138.9 1050.3 1138.4 1051.2C1137.9 1052.1 1137.2 1052.7 1136.5 1053.1C1135.7 1053.5 1134.9 1053.7 1134 1053.5C1133.1 1053.4 1132.3 1053 1131.7 1052.4C1131.1 1051.8 1130.6 1051 1130.4 1050C1130.1 1049 1130.1 1047.9 1130.3 1046.7C1130.5 1045.5 1130.8 1044.4 1131.3 1043.5C1131.8 1042.6 1132.5 1042 1133.2 1041.5C1134 1041.1 1134.8 1040.9 1135.7 1041.1C1136.6 1041.2 1137.4 1041.6 1138 1042.2C1138.6 1042.8 1139.1 1043.6 1139.3 1044.6C1139.6 1045.6 1139.6 1046.7 1139.4 1047.9V1048ZM1137.5 1047.8C1137.7 1046.6 1137.5 1045.6 1137.2 1044.8C1136.9 1044 1136.2 1043.6 1135.3 1043.4C1134.4 1043.3 1133.7 1043.5 1133.1 1044.2C1132.5 1044.9 1132.1 1045.8 1131.9 1047C1131.7 1048.2 1131.9 1049.1 1132.3 1049.9C1132.7 1050.7 1133.3 1051.2 1134.2 1051.3C1135 1051.4 1135.8 1051.2 1136.4 1050.5C1137 1049.8 1137.4 1048.9 1137.5 1047.8ZM1136.8 1059.7L1136.2 1064.2L1134.2 1063.9L1134.8 1059.4L1136.8 1059.7ZM1143.7 1040.8L1141.6 1056.1L1139.7 1055.8L1141.8 1040.5L1143.7 1040.8ZM1145.7 1047.7L1145.4 1050.1L1141.5 1049.6L1141.9 1047.2L1145.8 1047.7H1145.7Z" fill="black"/>
<path d="M1118.1 1066.6C1118.1 1066.1 1118.4 1065.7 1118.9 1065.4C1119.4 1065.1 1119.8 1065 1120.4 1065.1C1121 1065.1 1121.5 1065.5 1121.8 1065.9C1122.1 1066.3 1122.2 1066.8 1122.1 1067.3C1122.1 1067.8 1121.8 1068.2 1121.3 1068.5C1120.9 1068.8 1120.4 1068.9 1119.8 1068.8C1119.2 1068.8 1118.8 1068.4 1118.5 1068C1118.2 1067.6 1118.1 1067.1 1118.2 1066.6H1118.1Z" fill="black"/>
</g>
<defs>
<clipPath id="clip0_83_226">
<rect width="2389" height="1484" fill="white"/>
</clipPath>
</defs>
</svg>
