<svg width="6123" height="1662" viewBox="0 0 6123 1662" fill="none" xmlns="http://www.w3.org/2000/svg">
<g clip-path="url(#clip0_83_239)">
<path d="M0.998047 1C0.998047 1 1216.8 2232.7 2677 1351C3929 595 6122 1661 6122 1661" stroke="black" stroke-width="2" stroke-miterlimit="10"/>
<path d="M3201.5 1369C3400.05 1369 3561 1317.29 3561 1253.5C3561 1189.71 3400.05 1138 3201.5 1138C3002.95 1138 2842 1189.71 2842 1253.5C2842 1317.29 3002.95 1369 3201.5 1369Z" stroke="black" stroke-width="2" stroke-miterlimit="10"/>
<path d="M3067.2 1271.6V1274.2H3064.6V1269H3062V1261.2H3064.6V1266.4H3067.2V1269H3072.4V1271.6H3080.1V1269H3082.7V1258.7H3080.1V1256.1H3077.5V1253.5H3074.9V1250.9H3069.7V1248.3H3067.1V1245.7H3064.5V1235.4H3067.1V1232.8H3069.7V1230.2H3085.2V1235.4H3087.8V1240.6H3085.2V1238H3082.6V1235.4H3080V1232.8H3072.3V1235.4H3069.7V1243.1H3072.3V1245.7H3074.9V1248.3H3080.1V1250.9H3082.7V1253.5H3085.3V1256.1H3087.9V1269H3085.3V1271.6H3082.7V1274.2H3069.8V1271.6H3067.2Z" fill="black"/>
<path d="M3121.4 1271.6V1274.2H3116.2V1271.6H3111V1269H3113.6V1258.7H3111V1261.3H3105.8V1263.9H3103.2V1271.6H3110.9V1274.2H3098V1271.6H3095.4V1263.9H3098V1261.3H3103.2V1258.7H3108.4V1256.1H3113.6V1250.9H3111V1248.3H3103.3V1250.9H3100.7V1256.1H3095.5V1250.9H3098.1V1248.3H3100.7V1245.7H3113.6V1248.3H3116.2V1250.9H3118.8V1269H3124V1271.6H3121.4Z" fill="black"/>
<path d="M3124 1274.2V1271.6H3126.6V1250.9H3124V1248.3H3126.6V1245.7H3131.8V1248.3H3134.4V1245.7H3144.7V1248.3H3147.3V1250.9H3149.9V1271.6H3152.5V1274.2H3142.2V1271.6H3144.8V1253.5H3142.2V1250.9H3134.4V1253.5H3131.8V1271.6H3134.4V1274.2H3124.1H3124Z" fill="black"/>
<path d="M3183.4 1271.6V1274.2H3178.2V1271.6H3173V1269H3175.6V1258.7H3173V1261.3H3167.8V1263.9H3165.2V1271.6H3173V1274.2H3160.1V1271.6H3157.5V1263.9H3160.1V1261.3H3165.3V1258.7H3170.5V1256.1H3175.7V1250.9H3173.1V1248.3H3165.3V1250.9H3162.7V1256.1H3157.5V1250.9H3160.1V1248.3H3162.7V1245.7H3175.6V1248.3H3178.2V1250.9H3180.8V1269H3186V1271.6H3183.4Z" fill="black"/>
<path d="M3217 1274.2V1271.6H3219.6V1235.4H3217V1232.8H3240.3V1235.4H3242.9V1238H3245.5V1248.3H3242.9V1250.9H3240.3V1253.5H3235.1V1256.1H3237.7V1261.3H3240.3V1269.1H3245.5V1266.5H3248.1V1271.7H3245.5V1274.3H3237.8V1271.7H3235.2V1261.4H3232.6V1256.2H3230V1253.6H3224.8V1271.7H3227.4V1274.3H3217.1L3217 1274.2ZM3237.7 1250.9V1248.3H3240.3V1238H3237.7V1235.4H3224.8V1250.9H3237.7Z" fill="black"/>
<path d="M3255.8 1274.2V1271.6H3261V1250.9H3255.8V1248.3H3261V1245.7H3266.2V1271.5H3271.4V1274.1H3255.9L3255.8 1274.2ZM3260.9 1235.4H3266.1V1240.6H3260.9V1235.4Z" fill="black"/>
<path d="M3307.4 1271.6V1274.2H3302.2V1271.6H3297V1269H3299.6V1258.7H3297V1261.3H3291.8V1263.9H3289.2V1271.6H3296.9V1274.2H3284V1271.6H3281.4V1263.9H3284V1261.3H3289.2V1258.7H3294.4V1256.1H3299.6V1250.9H3297V1248.3H3289.3V1250.9H3286.7V1256.1H3281.5V1250.9H3284.1V1248.3H3286.7V1245.7H3299.6V1248.3H3302.2V1250.9H3304.8V1269H3310V1271.6H3307.4Z" fill="black"/>
<path d="M3335.8 1245.8V1251H3333.2V1253.6H3330.6V1258.8H3328V1261.4H3325.4V1264H3322.8V1269.2H3320.2V1271.8H3330.5V1269.2H3333.1V1266.6H3335.7V1264H3338.3V1269.2H3335.7V1274.4H3312.4V1271.8H3315V1266.6H3317.6V1264H3320.2V1258.8H3322.8V1256.2H3325.4V1253.6H3328V1248.4H3330.6V1245.8H3320.3V1248.4H3317.7V1251H3315.1V1253.6H3312.5V1248.4H3315.1V1243.2H3338.4V1245.8H3335.8Z" fill="black"/>
</g>
<defs>
<clipPath id="clip0_83_239">
<rect width="6123" height="1662" fill="white"/>
</clipPath>
</defs>
</svg>
