<svg width="5157" height="1521" viewBox="0 0 5157 1521" fill="none" xmlns="http://www.w3.org/2000/svg">
<path d="M3361.2 1115.9L3369.5 1110.4L3370.7 1112.3L3364.4 1116.5L3367.8 1121.6L3373.6 1117.7L3374.8 1119.6L3369 1123.5L3373.7 1130.6L3371.6 1132L3361 1116.1L3361.2 1115.9Z" fill="black"/>
<path d="M3377.8 1104.9L3380 1103.5L3396.3 1115.7L3394.1 1117.2L3390.2 1114.2L3383.4 1118.6L3384.5 1123.4L3382.3 1124.8L3377.9 1104.9H3377.8ZM3382.8 1116.3L3388.3 1112.8L3380.5 1106.8L3382.8 1116.4V1116.3Z" fill="black"/>
<path d="M3388.6 1098L3390.7 1096.7L3401 1112.8L3398.9 1114.1L3388.6 1098Z" fill="black"/>
<path d="M3394.8 1094L3400.5 1090.4C3401.4 1089.8 3402.3 1089.5 3403.2 1089.4C3404.2 1089.4 3405.1 1089.4 3405.9 1089.9C3406.7 1090.4 3407.5 1091 3408.2 1092C3408.8 1093 3409.1 1094 3409.2 1094.9C3409.2 1095.8 3409 1096.6 3408.7 1097.3C3408.4 1098 3408 1098.5 3407.5 1098.8L3415.9 1103.3L3413.5 1104.8L3405.4 1100.3L3402.8 1102L3407.1 1108.8L3405 1110.1L3394.8 1093.9V1094ZM3401.8 1100.5L3404.6 1098.7C3405.6 1098.1 3406.2 1097.4 3406.5 1096.5C3406.8 1095.6 3406.7 1094.6 3406 1093.6C3405.3 1092.5 3404.5 1092 3403.6 1091.9C3402.7 1091.8 3401.7 1092.1 3400.8 1092.7L3398 1094.5L3401.8 1100.5Z" fill="black"/>
<path d="M3409.3 1084.9L3418.9 1078.9L3420.1 1080.8L3412.6 1085.5L3415.9 1090.8L3423.3 1086.2L3424.5 1088.1L3417.1 1092.7L3420.4 1098L3427.9 1093.3L3429.1 1095.2L3419.5 1101.2L3409.4 1084.9H3409.3Z" fill="black"/>
<path d="M3432.9 1095.5L3432.1 1094.1L3441.7 1088.3L3442.5 1089.7L3432.9 1095.5Z" fill="black"/>
<path d="M3433.7 1069.9L3442.2 1064.7L3443.4 1066.6L3437 1070.5L3440.2 1075.8L3446.2 1072.2L3447.4 1074.1L3441.4 1077.7L3445.8 1085L3443.7 1086.3L3433.8 1069.9H3433.7Z" fill="black"/>
<path d="M3450.5 1059.8L3452.7 1058.5L3468.6 1071.3L3466.3 1072.7L3462.5 1069.6L3455.5 1073.7L3456.4 1078.5L3454.1 1079.8L3450.4 1059.7L3450.5 1059.8ZM3455.1 1071.4L3460.7 1068.1L3453.2 1061.8L3455.1 1071.4Z" fill="black"/>
<path d="M3477.9 1063.5C3478.9 1062.9 3479.7 1062.3 3480.3 1061.5C3480.9 1060.8 3481.3 1060.2 3481.4 1059.7L3483.4 1061C3483.2 1061.5 3482.8 1062.3 3482.1 1063.1C3481.4 1064 3480.3 1064.8 3479 1065.6C3477.8 1066.3 3476.5 1066.8 3475.2 1066.9C3473.9 1067.1 3472.6 1067 3471.4 1066.7C3470.2 1066.4 3469 1065.8 3468 1065C3467 1064.2 3466.1 1063.2 3465.4 1062C3464.7 1060.8 3464.3 1059.5 3464.1 1058.2C3463.9 1056.9 3464.1 1055.6 3464.3 1054.4C3464.6 1053.2 3465.2 1052 3466 1051C3466.8 1049.9 3467.8 1049.1 3469 1048.4C3470.3 1047.6 3471.5 1047.2 3472.6 1046.9C3473.7 1046.7 3474.6 1046.7 3475.2 1046.8V1049.2C3475.2 1049.2 3474.2 1049.2 3473.2 1049.2C3472.3 1049.4 3471.3 1049.7 3470.3 1050.4C3469.4 1050.9 3468.6 1051.6 3468 1052.4C3467.4 1053.2 3467 1054 3466.8 1054.9C3466.6 1055.8 3466.5 1056.7 3466.7 1057.7C3466.8 1058.7 3467.2 1059.6 3467.7 1060.5C3468.2 1061.4 3468.9 1062.2 3469.7 1062.8C3470.5 1063.4 3471.3 1063.8 3472.2 1064.1C3473.1 1064.4 3474.1 1064.4 3475 1064.3C3476 1064.2 3476.9 1063.8 3477.8 1063.3L3477.9 1063.5Z" fill="black"/>
<path d="M3478 1043.7L3487.8 1038.1L3488.9 1040.1L3481.2 1044.5L3484.3 1049.9L3491.8 1045.6L3492.9 1047.5L3485.4 1051.8L3488.5 1057.2L3496.2 1052.8L3497.3 1054.7L3487.5 1060.3L3477.9 1043.7H3478Z" fill="black"/>
<path d="M3501.2 1055.1L3500.4 1053.7L3510.1 1048.2L3510.9 1049.6L3501.2 1055.1Z" fill="black"/>
<path d="M3508 1026.6L3510.3 1025.3L3525.8 1038.6L3523.5 1039.9L3519.8 1036.7L3512.7 1040.7L3513.5 1045.5L3511.2 1046.8L3508.1 1026.6H3508ZM3512.3 1038.3L3518 1035.1L3510.6 1028.6L3512.3 1038.3Z" fill="black"/>
<path d="M3529.4 1014.8L3531.6 1013.6L3537.3 1024C3538.1 1025.4 3538.4 1026.7 3538.4 1028C3538.4 1029.3 3538.1 1030.5 3537.4 1031.5C3536.7 1032.6 3535.8 1033.4 3534.5 1034.1C3533.3 1034.8 3532 1035.1 3530.7 1035.1C3529.4 1035.1 3528.3 1034.7 3527.2 1034.1C3526.1 1033.5 3525.2 1032.4 3524.4 1031L3518.7 1020.6L3520.9 1019.4L3526.6 1029.7C3527.1 1030.7 3527.8 1031.4 3528.5 1031.9C3529.2 1032.4 3530.1 1032.7 3530.9 1032.7C3531.8 1032.7 3532.6 1032.5 3533.4 1032.1C3534.2 1031.7 3534.8 1031.1 3535.2 1030.3C3535.6 1029.6 3535.8 1028.8 3535.8 1027.8C3535.8 1026.9 3535.5 1025.9 3535 1025L3529.4 1014.7V1014.8Z" fill="black"/>
<path d="M3544.5 1031L3543.7 1029.6L3553.6 1024.3L3554.4 1025.7L3544.5 1031Z" fill="black"/>
<path d="M3546.7 1005.5L3550.7 1003.4C3552.5 1002.4 3554.2 1002 3555.7 1002.1C3557.2 1002.2 3558.6 1002.8 3559.9 1003.7C3561.1 1004.7 3562.2 1006 3563.1 1007.6C3564 1009.3 3564.5 1010.9 3564.6 1012.4C3564.7 1014 3564.4 1015.4 3563.6 1016.8C3562.8 1018.1 3561.5 1019.3 3559.7 1020.2L3555.7 1022.3L3546.8 1005.4L3546.7 1005.5ZM3549.9 1006.3L3556.7 1019.2L3558.3 1018.3C3559.6 1017.6 3560.6 1016.7 3561.1 1015.7C3561.7 1014.7 3561.9 1013.6 3561.8 1012.4C3561.7 1011.2 3561.3 1010 3560.7 1008.7C3560 1007.4 3559.3 1006.4 3558.3 1005.7C3557.3 1005 3556.3 1004.5 3555.2 1004.4C3554.1 1004.3 3552.8 1004.6 3551.5 1005.3L3549.9 1006.2V1006.3Z" fill="black"/>
<path d="M3562 997.402L3572 992.201L3573 994.202L3565.1 998.301L3568 1003.8L3575.7 999.802L3576.7 1001.7L3569 1005.7L3571.9 1011.2L3579.8 1007.1L3580.8 1009.1L3570.8 1014.3L3562 997.302V997.402ZM3565.6 994.601L3564.3 993.901L3566.5 988.602L3568.6 989.501L3565.6 994.501V994.601Z" fill="black"/>
<path d="M3581.5 987.001C3582.5 986.501 3583.4 986.201 3584.2 986.001C3585 985.901 3585.7 985.801 3586.3 985.801C3586.8 985.801 3587.2 985.801 3587.3 985.901L3587.1 988.301C3587.1 988.301 3586.6 988.301 3586.2 988.201C3585.8 988.201 3585.3 988.201 3584.7 988.201C3584.1 988.201 3583.5 988.501 3582.9 988.801C3581.9 989.301 3581.3 989.901 3580.9 990.601C3580.5 991.301 3580.5 992.001 3580.9 992.701C3581.1 993.201 3581.5 993.501 3582 993.701C3582.5 993.901 3583.1 994.001 3583.8 994.101C3584.5 994.101 3585.3 994.101 3586.2 994.101C3586.9 994.101 3587.7 994.101 3588.4 994.101C3589.1 994.101 3589.8 994.201 3590.5 994.401C3591.2 994.601 3591.8 994.901 3592.4 995.301C3593 995.701 3593.4 996.301 3593.8 997.001C3594.2 997.701 3594.4 998.501 3594.4 999.201C3594.4 999.901 3594.2 1000.7 3593.9 1001.3C3593.6 1002 3593.1 1002.6 3592.5 1003.2C3591.9 1003.8 3591.2 1004.3 3590.4 1004.7C3589.3 1005.2 3588.3 1005.6 3587.4 1005.8C3586.4 1006 3585.6 1006 3585 1006C3584.3 1006 3584 1006 3583.8 1006L3584 1003.5C3584 1003.5 3584.4 1003.5 3584.8 1003.5C3585.2 1003.5 3585.6 1003.5 3586.1 1003.5C3586.6 1003.5 3587.1 1003.4 3587.7 1003.2C3588.3 1003.1 3588.9 1002.9 3589.4 1002.6C3590.6 1002 3591.3 1001.3 3591.6 1000.5C3591.9 999.701 3591.9 998.901 3591.5 998.101C3591.2 997.501 3590.7 997.001 3590.1 996.801C3589.5 996.501 3588.8 996.401 3588 996.401C3587.2 996.401 3586.3 996.401 3585.4 996.401C3584.5 996.401 3583.5 996.401 3582.7 996.401C3581.9 996.401 3581.1 996.101 3580.4 995.701C3579.7 995.301 3579.2 994.701 3578.7 993.901C3578.3 993.101 3578.1 992.201 3578.3 991.401C3578.4 990.501 3578.8 989.701 3579.5 989.001C3580.1 988.201 3580.9 987.601 3581.9 987.101L3581.5 987.001Z" fill="black"/>
<path d="M3590.9 982.6L3593.1 981.5L3601.7 998.6L3599.5 999.7L3590.9 982.6Z" fill="black"/>
<path d="M3597.5 979.302L3603.5 976.302C3604.4 975.902 3605.4 975.602 3606.3 975.602C3607.3 975.602 3608.1 975.902 3609 976.402C3609.8 976.902 3610.5 977.702 3611 978.802C3611.5 979.902 3611.7 980.802 3611.7 981.702C3611.7 982.602 3611.4 983.402 3611 984.002C3610.6 984.602 3610.1 985.102 3609.6 985.402L3617.5 990.702L3615 991.902L3607.4 986.602L3604.6 988.002L3608.2 995.202L3606 996.302L3597.5 979.102V979.302ZM3603.8 986.402L3606.8 984.902C3607.8 984.402 3608.5 983.702 3608.9 982.902C3609.3 982.102 3609.3 981.102 3608.7 980.002C3608.1 978.902 3607.4 978.202 3606.5 978.102C3605.6 977.902 3604.6 978.102 3603.6 978.602L3600.6 980.102L3603.8 986.502V986.402Z" fill="black"/>
<path d="M3620.8 991.701L3620.1 990.201L3630.2 985.301L3630.9 986.801L3620.8 991.701Z" fill="black"/>
<path d="M3629.4 963.799L3631.7 962.699L3646.3 976.999L3643.9 978.099L3640.4 974.599L3633 978.099L3633.5 983L3631.1 984.099L3629.4 963.799ZM3632.9 975.699L3638.8 972.899L3631.9 965.899L3632.9 975.699Z" fill="black"/>
<path d="M3640.8 958.399L3645.6 956.199C3646.6 955.799 3647.5 955.499 3648.5 955.399C3649.5 955.299 3650.3 955.399 3651.1 955.799C3651.9 956.199 3652.5 956.899 3653 957.999C3653.3 958.699 3653.5 959.499 3653.5 960.199C3653.5 960.899 3653.3 961.599 3653.1 962.099C3652.9 962.699 3652.5 963.099 3652.2 963.299C3652.5 963.199 3653 963.099 3653.4 963.099C3653.9 963.099 3654.4 963.099 3654.9 963.299C3655.4 963.499 3655.9 963.699 3656.4 964.199C3656.9 964.699 3657.3 965.099 3657.6 965.899C3658 966.799 3658.2 967.799 3658.2 968.699C3658.2 969.599 3657.8 970.499 3657.2 971.199C3656.6 971.999 3655.7 972.599 3654.5 973.199L3648.7 975.899L3640.7 958.499L3640.8 958.399ZM3646.6 964.999L3649.5 963.699C3650.2 963.399 3650.7 962.999 3650.9 962.499C3651.1 961.999 3651.3 961.499 3651.3 960.899C3651.3 960.299 3651.2 959.8 3650.9 959.3C3650.4 958.3 3649.8 957.699 3649 957.599C3648.2 957.499 3647.3 957.599 3646.3 958.099L3643.7 959.3L3646.3 964.999H3646.6ZM3650.2 972.899L3653.6 971.399C3654.4 970.999 3655 970.599 3655.3 970.099C3655.6 969.599 3655.8 969.099 3655.8 968.499C3655.8 967.899 3655.6 967.399 3655.4 966.899C3655 965.999 3654.4 965.399 3653.5 965.099C3652.7 964.799 3651.7 964.899 3650.6 965.499L3647.4 966.999L3650.2 973.099V972.899Z" fill="black"/>
<path d="M3661 948.8C3662 948.4 3662.9 948.101 3663.8 948.001C3664.7 947.901 3665.3 947.901 3665.9 948.001C3666.4 948.001 3666.7 948.1 3666.9 948.2L3666.6 950.6C3666.6 950.6 3666.1 950.501 3665.7 950.401C3665.3 950.401 3664.8 950.401 3664.2 950.401C3663.6 950.401 3663 950.601 3662.4 950.901C3661.4 951.301 3660.7 951.9 3660.3 952.6C3659.9 953.3 3659.9 953.901 3660.2 954.701C3660.4 955.201 3660.8 955.5 3661.2 955.8C3661.7 956 3662.3 956.2 3662.9 956.2C3663.5 956.2 3664.4 956.2 3665.3 956.2C3666 956.2 3666.7 956.2 3667.5 956.2C3668.2 956.2 3668.9 956.401 3669.6 956.601C3670.3 956.801 3670.9 957.2 3671.4 957.6C3671.9 958.1 3672.4 958.7 3672.7 959.4C3673 960.2 3673.2 960.901 3673.1 961.601C3673.1 962.301 3672.9 963 3672.5 963.7C3672.1 964.4 3671.6 965.001 3671 965.501C3670.4 966.001 3669.6 966.5 3668.8 966.9C3667.7 967.4 3666.7 967.701 3665.7 967.801C3664.7 967.901 3663.9 967.901 3663.2 967.801C3662.6 967.801 3662.2 967.7 3662.1 967.7L3662.5 965.2C3662.5 965.2 3662.9 965.201 3663.3 965.301C3663.7 965.301 3664.1 965.301 3664.6 965.301C3665.1 965.301 3665.6 965.3 3666.2 965.2C3666.8 965.1 3667.4 964.901 3667.9 964.601C3669.1 964.101 3669.9 963.4 3670.2 962.6C3670.6 961.8 3670.6 961 3670.2 960.2C3669.9 959.6 3669.5 959.1 3668.9 958.8C3668.3 958.5 3667.6 958.3 3666.8 958.3C3666 958.3 3665.1 958.3 3664.2 958.3C3663.2 958.3 3662.3 958.3 3661.5 958.1C3660.7 958 3659.9 957.701 3659.2 957.301C3658.5 956.901 3658 956.201 3657.6 955.401C3657.2 954.501 3657.1 953.701 3657.3 952.801C3657.5 951.901 3657.9 951.101 3658.6 950.401C3659.3 949.701 3660.1 949.101 3661 948.601V948.8Z" fill="black"/>
<path d="M3681.5 940.199L3683.8 939.199L3688.5 950.099C3689.1 951.499 3689.4 952.899 3689.3 954.199C3689.2 955.499 3688.7 956.599 3688 957.599C3687.3 958.599 3686.2 959.399 3684.9 959.899C3683.6 960.499 3682.3 960.699 3681.1 960.599C3679.9 960.499 3678.7 959.999 3677.7 959.199C3676.7 958.399 3675.8 957.299 3675.2 955.899L3670.5 944.999L3672.8 943.999L3677.5 954.799C3677.9 955.799 3678.5 956.599 3679.2 957.199C3679.9 957.799 3680.7 958.099 3681.5 958.199C3682.3 958.299 3683.2 958.199 3684 957.799C3684.8 957.399 3685.5 956.899 3686 956.199C3686.5 955.499 3686.8 954.699 3686.8 953.799C3686.8 952.899 3686.7 951.899 3686.2 950.899L3681.5 940.099V940.199Z" fill="black"/>
<path d="M3687.8 937.5L3694 934.901C3694.9 934.501 3695.9 934.3 3696.9 934.4C3697.8 934.4 3698.7 934.801 3699.5 935.401C3700.3 936.001 3700.9 936.801 3701.4 937.901C3701.8 939.001 3702 940.001 3701.9 940.901C3701.8 941.801 3701.5 942.5 3701 943.2C3700.6 943.8 3700.1 944.201 3699.6 944.501L3707.2 950.301L3704.6 951.401L3697.4 945.6L3694.5 946.801L3697.6 954.301L3695.3 955.301L3687.9 937.701L3687.8 937.5ZM3693.7 945L3696.8 943.7C3697.9 943.3 3698.6 942.601 3699.1 941.801C3699.6 941.001 3699.6 940.001 3699.1 938.901C3698.6 937.701 3697.9 937.001 3697 936.801C3696.1 936.601 3695.1 936.701 3694.1 937.101L3691 938.401L3693.8 945H3693.7Z" fill="black"/>
<path d="M3703.4 931.002L3707.6 929.302C3709.5 928.502 3711.2 928.302 3712.7 928.502C3714.2 928.802 3715.6 929.402 3716.7 930.502C3717.8 931.602 3718.7 933.002 3719.4 934.702C3720.1 936.402 3720.4 938.102 3720.4 939.702C3720.4 941.302 3719.9 942.702 3719 943.902C3718.1 945.102 3716.7 946.201 3714.8 946.901L3710.6 948.602L3703.4 930.902V931.002ZM3706.6 932.202L3712.1 945.802L3713.8 945.102C3715.2 944.502 3716.2 943.802 3716.9 942.802C3717.6 941.902 3717.9 940.802 3717.9 939.602C3717.9 938.402 3717.7 937.202 3717.1 935.802C3716.6 934.502 3715.9 933.402 3715.1 932.602C3714.3 931.702 3713.3 931.202 3712.2 931.002C3711.1 930.802 3709.8 931.002 3708.4 931.502L3706.7 932.202H3706.6Z" fill="black"/>
<path d="M3719.9 924.401L3730.4 920.301L3731.2 922.401L3722.9 925.6L3725.1 931.401L3733.2 928.301L3734 930.301L3725.9 933.401L3728.2 939.201L3736.5 936.001L3737.3 938.1L3726.8 942.201L3719.9 924.301V924.401Z" fill="black"/>
<path d="M3741.1 939.201L3740.5 937.701L3751 933.801L3751.6 935.301L3741.1 939.201Z" fill="black"/>
<path d="M3746.6 914.198L3757.2 910.398L3758 912.498L3749.7 915.499L3751.8 921.298L3760 918.398L3760.7 920.499L3752.5 923.398L3754.6 929.299L3762.9 926.298L3763.7 928.398L3753.1 932.198L3746.6 914.198Z" fill="black"/>
<path d="M3766.4 909.602L3761.5 911.302L3760.8 909.202L3772.9 905.102L3773.6 907.202L3768.7 908.902L3774.2 924.902L3771.8 925.702L3766.3 909.702L3766.4 909.602Z" fill="black"/>
<path d="M3781.8 924.6L3781.3 923L3792 919.5L3792.5 921L3781.8 924.5V924.6Z" fill="black"/>
<path d="M3794.1 898.198L3796.6 897.398L3809 913.598L3806.5 914.398L3803.6 910.498L3795.8 912.898L3795.5 917.798L3793 918.598L3794.2 898.198H3794.1ZM3795.9 910.498L3802.1 908.598L3796.3 900.698L3795.9 910.498Z" fill="black"/>
<path d="M3806.5 894.501L3808.9 893.801L3813.5 910.001L3820.7 907.901L3821.3 910.101L3811.7 912.801L3806.5 894.401V894.501Z" fill="black"/>
<path d="M3820.3 890.6L3822.7 890L3827.7 908.5L3825.3 909.1L3820.3 890.6Z" fill="black"/>
<path d="M3827.6 888.601L3838.6 885.801L3839.2 888.001L3830.6 890.201L3832.1 896.201L3840.5 894.101L3841 896.201L3832.6 898.301L3834.1 904.401L3842.7 902.201L3843.3 904.401L3832.3 907.201L3827.6 888.601ZM3831.7 886.801L3830.5 885.901L3833.9 881.301L3835.7 882.701L3831.6 886.901L3831.7 886.801Z" fill="black"/>
<path d="M3846.4 886.401H3846.6L3850.2 902.701L3847.8 903.201L3843.7 884.501L3847.1 883.701L3860.4 897.901H3860.2L3856.6 881.601L3859 881.102L3863.1 899.802L3859.7 900.601L3846.4 886.401Z" fill="black"/>
<path d="M3869.8 879.101L3872.3 878.602L3882.8 896.102L3880.2 896.601L3877.7 892.402L3869.7 893.901L3868.9 898.701L3866.3 899.202L3869.8 879.101ZM3870.1 891.601L3876.5 890.401L3871.6 881.901L3870.1 891.601Z" fill="black"/>
<path d="M3885.2 878.8H3885.4L3887.8 895.4L3885.3 895.8L3882.5 876.9L3886 876.4L3898.3 891.5H3898.2L3895.7 874.9L3898.2 874.5L3901 893.4L3897.5 893.9L3885.3 878.7L3885.2 878.8Z" fill="black"/>
<path d="M3907.5 875.702L3902.4 876.201L3902.2 874.002L3914.9 872.602L3915.1 874.802L3910 875.302L3911.8 892.102L3909.3 892.402L3907.5 875.601V875.702Z" fill="black"/>
<path d="M3918.9 893.901V892.301L3929.9 891.301V892.901L3918.9 893.901Z" fill="black"/>
<path d="M3931.8 871.399L3936.3 871.199C3938.3 871.199 3940 871.4 3941.4 872.2C3942.7 873 3943.8 874 3944.5 875.5C3945.2 876.9 3945.6 878.5 3945.7 880.4C3945.7 882.3 3945.5 883.9 3945 885.4C3944.4 886.9 3943.5 887.999 3942.2 888.899C3940.9 889.799 3939.3 890.3 3937.2 890.4L3932.7 890.599L3931.9 871.5L3931.8 871.399ZM3934.3 873.6L3934.9 888.199H3936.7C3938.2 887.999 3939.4 887.699 3940.4 886.999C3941.3 886.299 3942 885.4 3942.4 884.3C3942.8 883.2 3943 881.9 3942.9 880.5C3942.9 879.1 3942.6 877.8 3942.1 876.7C3941.6 875.6 3940.9 874.8 3939.9 874.2C3938.9 873.6 3937.7 873.4 3936.1 873.4H3934.3V873.6Z" fill="black"/>
<path d="M3950 877.798L3949.2 876.998C3949.2 876.998 3949.7 876.698 3950 876.398C3950.3 876.098 3950.6 875.799 3950.8 875.499C3951 875.199 3951.1 874.798 3951.1 874.498C3951.1 874.598 3950.9 874.699 3950.7 874.799C3950.5 874.799 3950.3 874.899 3950 874.899C3949.6 874.899 3949.2 874.798 3948.8 874.398C3948.5 874.098 3948.3 873.698 3948.3 873.098C3948.3 872.398 3948.5 871.898 3948.9 871.498C3949.3 871.098 3949.8 870.898 3950.5 870.898C3951.1 870.898 3951.7 871.098 3952.1 871.498C3952.5 871.898 3952.8 872.598 3952.8 873.398C3952.8 874.198 3952.7 874.799 3952.4 875.399C3952.1 875.999 3951.8 876.498 3951.3 876.898C3950.9 877.298 3950.5 877.599 3950 877.899V877.798Z" fill="black"/>
<path d="M3956.9 870.602H3968.2V872.802H3959.3V879.002H3968V881.202H3959.3V887.502H3968.2V889.702H3956.9V870.602Z" fill="black"/>
<path d="M3973.2 870.602L3983.2 870.802V873.102L3975.6 872.902V879.102L3982.5 879.302V881.502L3975.4 881.302L3975.2 889.802H3972.7L3973.1 870.602H3973.2Z" fill="black"/>
<path d="M3987.4 871L3997.4 871.5V873.7L3989.8 873.3L3989.5 879.5L3996.5 879.8V882L3989.4 881.7L3989 890.2H3986.5L3987.4 871Z" fill="black"/>
<path d="M4007.6 872.199L4010.2 872.399L4015.8 891.999L4013.2 891.799L4011.9 887.099L4003.8 886.499L4001.8 890.999L3999.2 890.799L4007.7 872.199H4007.6ZM4004.7 884.299L4011.2 884.799L4008.7 875.299L4004.7 884.299Z" fill="black"/>
<path d="M4027.9 891.201C4029.1 891.301 4030.1 891.201 4031 891.001C4031.9 890.801 4032.5 890.501 4032.9 890.201L4033.7 892.401C4033.7 892.401 4032.4 893.001 4031.3 893.301C4030.2 893.601 4028.9 893.601 4027.4 893.501C4026 893.301 4024.7 893.001 4023.6 892.301C4022.4 891.701 4021.5 890.901 4020.7 889.901C4019.9 888.901 4019.3 887.801 4018.9 886.601C4018.5 885.401 4018.4 884.001 4018.5 882.701C4018.7 881.301 4019 880.001 4019.7 878.901C4020.3 877.701 4021.1 876.801 4022.1 876.001C4023.1 875.201 4024.2 874.601 4025.5 874.201C4026.8 873.801 4028.1 873.701 4029.5 873.901C4031 874.101 4032.3 874.401 4033.3 874.901C4034.3 875.401 4035 875.901 4035.4 876.301L4034.1 878.301C4034.1 878.301 4033.2 877.601 4032.3 877.101C4031.5 876.701 4030.5 876.401 4029.3 876.301C4028.2 876.201 4027.2 876.301 4026.3 876.501C4025.4 876.801 4024.5 877.201 4023.8 877.801C4023.1 878.401 4022.5 879.101 4022 880.001C4021.5 880.901 4021.3 881.801 4021.1 882.901C4021 884.001 4021.1 885.001 4021.3 885.901C4021.6 886.801 4022 887.701 4022.6 888.401C4023.2 889.101 4023.9 889.701 4024.8 890.201C4025.7 890.701 4026.6 891.001 4027.7 891.101L4027.9 891.201Z" fill="black"/>
<path d="M4039.8 875.401L4051 876.901L4050.7 879.101L4041.9 877.901L4041.1 884.001L4049.7 885.201L4049.4 887.401L4040.8 886.2L4040 892.401L4048.8 893.601L4048.5 895.801L4037.3 894.301L4039.9 875.301L4039.8 875.401Z" fill="black"/>
<path d="M4056.1 877.699L4062.7 878.799C4063.7 878.999 4064.6 879.3 4065.4 879.9C4066.2 880.4 4066.7 881.199 4067.1 882.099C4067.5 882.999 4067.5 883.999 4067.4 885.199C4067.2 886.399 4066.8 887.3 4066.2 888C4065.6 888.7 4065 889.199 4064.2 889.499C4063.5 889.799 4062.9 889.899 4062.3 889.799L4065.6 898.699L4062.8 898.199L4059.7 889.499L4056.7 888.999L4055.4 896.999L4053 896.599L4056.1 877.699ZM4057.1 887.199L4060.4 887.699C4061.5 887.899 4062.5 887.699 4063.3 887.299C4064.1 886.899 4064.6 885.999 4064.8 884.799C4065 883.599 4064.8 882.599 4064.1 881.899C4063.5 881.299 4062.6 880.799 4061.4 880.599L4058.1 880.099L4056.9 887.199H4057.1Z" fill="black"/>
<path d="M4067.6 901.299L4067.9 899.699L4078.9 901.699L4078.6 903.299L4067.6 901.199V901.299Z" fill="black"/>
<path d="M4085.4 882.898L4087.8 883.398L4084.4 899.899L4091.8 901.398L4091.4 903.599L4081.6 901.598L4085.5 882.898H4085.4Z" fill="black"/>
<path d="M4098.6 892.901L4098 891.901C4098 891.901 4098.6 891.701 4098.9 891.501C4099.3 891.301 4099.6 891.101 4099.9 890.801C4100.2 890.501 4100.4 890.201 4100.5 889.901C4100.5 889.901 4100.2 890.001 4100 890.101C4099.8 890.101 4099.6 890.101 4099.3 890.101C4098.9 890.101 4098.5 889.801 4098.3 889.401C4098 889.001 4098 888.501 4098.1 888.001C4098.2 887.301 4098.6 886.901 4099.1 886.601C4099.6 886.301 4100.2 886.201 4100.8 886.401C4101.4 886.501 4101.9 886.901 4102.2 887.401C4102.5 887.901 4102.6 888.601 4102.4 889.401C4102.2 890.101 4102 890.801 4101.5 891.301C4101.1 891.801 4100.6 892.201 4100.1 892.501C4099.6 892.801 4099.1 893.001 4098.6 893.101V892.901Z" fill="black"/>
<path d="M4112.4 888.801L4114.9 889.401L4117.4 909.701L4114.8 909.101L4114.3 904.201L4106.4 902.301L4103.7 906.401L4101.1 905.801L4112.4 888.801ZM4107.6 900.301L4114 901.801L4113 892.001L4107.7 900.201L4107.6 900.301Z" fill="black"/>
<path d="M4129.7 910.698C4130.9 910.998 4131.9 911.098 4132.8 910.998C4133.7 910.998 4134.4 910.798 4134.9 910.498L4135.4 912.798C4134.9 913.098 4134.1 913.198 4132.9 913.398C4131.7 913.598 4130.5 913.398 4129 912.998C4127.6 912.598 4126.4 912.098 4125.4 911.298C4124.4 910.498 4123.5 909.598 4122.9 908.498C4122.3 907.398 4121.8 906.198 4121.7 904.898C4121.5 903.598 4121.6 902.298 4121.9 900.998C4122.3 899.698 4122.8 898.498 4123.6 897.398C4124.4 896.398 4125.3 895.498 4126.4 894.898C4127.5 894.198 4128.7 893.798 4130 893.698C4131.3 893.498 4132.6 893.698 4134 893.998C4135.5 894.398 4136.7 894.898 4137.6 895.598C4138.5 896.298 4139.2 896.798 4139.5 897.298L4137.9 899.098C4137.9 899.098 4137.1 898.198 4136.3 897.698C4135.5 897.198 4134.6 896.698 4133.4 896.498C4132.4 896.198 4131.4 896.098 4130.4 896.298C4129.4 896.398 4128.6 896.698 4127.7 897.198C4126.9 897.698 4126.2 898.298 4125.6 899.098C4125 899.898 4124.6 900.798 4124.3 901.798C4124 902.898 4123.9 903.898 4124.1 904.798C4124.3 905.698 4124.5 906.698 4125 907.498C4125.5 908.298 4126.1 908.998 4126.9 909.598C4127.7 910.198 4128.6 910.598 4129.6 910.898L4129.7 910.698Z" fill="black"/>
<path d="M4147.9 915.602C4149.1 915.902 4150.1 916.002 4151 916.002C4151.9 916.002 4152.6 915.802 4153.1 915.602L4153.6 917.902C4153.1 918.202 4152.2 918.302 4151.1 918.402C4149.9 918.402 4148.7 918.402 4147.2 917.902C4145.8 917.502 4144.7 916.903 4143.6 916.103C4142.6 915.303 4141.8 914.302 4141.1 913.202C4140.5 912.102 4140.1 910.902 4139.9 909.602C4139.7 908.302 4139.9 907.002 4140.2 905.702C4140.6 904.402 4141.2 903.202 4142 902.202C4142.8 901.202 4143.8 900.402 4144.9 899.702C4146 899.102 4147.2 898.702 4148.5 898.502C4149.8 898.302 4151.1 898.502 4152.5 898.802C4154 899.202 4155.1 899.702 4156.1 900.402C4157 901.102 4157.7 901.702 4158 902.102L4156.4 903.902C4156.4 903.902 4155.6 903.002 4154.9 902.502C4154.1 902.002 4153.2 901.502 4152.1 901.202C4151.1 900.902 4150.1 900.802 4149.1 900.902C4148.1 901.002 4147.2 901.303 4146.4 901.803C4145.6 902.303 4144.9 902.902 4144.3 903.702C4143.7 904.502 4143.3 905.402 4143 906.402C4142.7 907.402 4142.6 908.502 4142.7 909.402C4142.7 910.402 4143.1 911.302 4143.5 912.102C4144 912.902 4144.6 913.603 4145.3 914.203C4146.1 914.803 4147 915.303 4148 915.503L4147.9 915.602Z" fill="black"/>
<path d="M4162.1 901.999L4172.9 905.199L4172.3 907.299L4163.8 904.799L4162 910.698L4170.3 913.198L4169.7 915.299L4161.4 912.799L4159.6 918.798L4168.1 921.298L4167.5 923.399L4156.7 920.199L4162.2 901.898L4162.1 901.999Z" fill="black"/>
<path d="M4179.2 909.601H4179.3L4174.3 925.701L4171.9 924.902L4177.6 906.602L4180.9 907.601L4185.4 926.602H4185.2L4190.2 910.601L4192.6 911.301L4186.9 929.601L4183.5 928.502L4179.1 909.501L4179.2 909.601Z" fill="black"/>
<path d="M4200.1 916.098L4195.2 914.498L4195.9 912.398L4208.1 916.398L4207.4 918.498L4202.5 916.898L4197.3 932.998L4194.9 932.198L4200.1 916.098Z" fill="black"/>
<path d="M4208.9 932.898C4209.4 933.098 4209.9 933.398 4210.1 933.998C4210.4 934.498 4210.4 935.098 4210.1 935.798C4209.9 936.498 4209.5 937.098 4209 937.598C4208.5 938.098 4208 938.498 4207.4 938.898C4206.8 939.198 4206.2 939.398 4205.6 939.598L4205 938.398C4205 938.398 4205.7 938.298 4206.1 938.098C4206.5 937.998 4206.9 937.798 4207.3 937.598C4207.7 937.398 4207.9 937.099 4208.1 936.799C4207.9 936.799 4207.6 936.799 4207.3 936.799C4206.8 936.599 4206.5 936.298 4206.3 935.898C4206.1 935.398 4206 934.998 4206.3 934.498C4206.4 934.098 4206.6 933.799 4206.9 933.599C4207.2 933.399 4207.5 933.198 4207.8 933.098C4208.1 932.998 4208.5 933.098 4208.9 933.098V932.898Z" fill="black"/>
<path d="M4227.6 922.801L4230 923.601L4224.6 939.601L4231.7 942.001L4231 944.101L4221.5 940.901L4227.6 922.801Z" fill="black"/>
<path d="M4246.4 929.202L4248.8 930.001L4249.3 950.402L4246.8 949.501V944.601L4239 942.001L4235.9 945.801L4233.4 944.902L4246.3 929.102L4246.4 929.202ZM4240.6 940.201L4246.8 942.302V932.501H4246.7L4240.7 940.201H4240.6Z" fill="black"/>
<path d="M4250.1 953.101L4250.6 951.602L4261.2 955.201L4260.7 956.702L4250.1 953.101Z" fill="black"/>
<path d="M4273 940.6L4268.1 938.9L4268.8 936.801L4280.9 940.901L4280.2 943.001L4275.3 941.3L4269.9 957.301L4267.5 956.5L4272.9 940.501L4273 940.6Z" fill="black"/>
<path d="M4280.2 950.801C4280.6 949.501 4281.3 948.301 4282.1 947.301C4282.9 946.301 4283.9 945.501 4285 944.901C4286.1 944.301 4287.3 944 4288.5 943.8C4289.7 943.7 4291 943.801 4292.3 944.301C4293.6 944.701 4294.7 945.4 4295.6 946.2C4296.5 947 4297.3 948.001 4297.8 949.101C4298.3 950.201 4298.6 951.401 4298.7 952.701C4298.7 954.001 4298.6 955.301 4298.1 956.601C4297.7 957.901 4297 959.1 4296.2 960.1C4295.4 961.1 4294.4 961.9 4293.3 962.5C4292.2 963.1 4291 963.401 4289.8 963.601C4288.6 963.701 4287.3 963.6 4286 963.1C4284.7 962.7 4283.6 962 4282.6 961.2C4281.7 960.4 4280.9 959.4 4280.4 958.2C4279.9 957.1 4279.6 955.901 4279.5 954.601C4279.5 953.301 4279.6 952 4280.1 950.7L4280.2 950.801ZM4282.7 951.601C4282.3 952.901 4282.1 954.301 4282.3 955.501C4282.5 956.801 4283 957.9 4283.8 958.8C4284.6 959.8 4285.6 960.501 4286.9 960.901C4288.2 961.301 4289.4 961.401 4290.7 961.101C4291.9 960.801 4292.9 960.201 4293.9 959.301C4294.9 958.401 4295.5 957.301 4296 955.901C4296.5 954.501 4296.6 953.2 4296.4 952C4296.2 950.7 4295.7 949.6 4294.9 948.7C4294.1 947.7 4293.1 947.001 4291.8 946.601C4290.5 946.201 4289.3 946.101 4288.1 946.401C4286.9 946.701 4285.8 947.3 4284.9 948.2C4284 949.1 4283.3 950.201 4282.8 951.501L4282.7 951.601Z" fill="black"/>
<path d="M4306.1 951.7H4306.2L4301.1 967.699L4298.7 966.899L4304.6 948.699L4307.9 949.8L4312.2 968.799H4312L4317.2 952.8L4319.6 953.6L4313.7 971.8L4310.3 970.699L4306 951.7H4306.1Z" fill="black"/>
<path d="M4329.3 956.602L4331.8 957.402L4332.9 977.802L4330.4 977.001L4330.2 972.101L4322.4 969.702L4319.4 973.602L4316.9 972.802L4329.4 956.602H4329.3ZM4323.8 967.802L4330 969.702L4329.6 959.902L4323.8 967.802Z" fill="black"/>
<path d="M4341 960.202L4343.4 960.902L4338.6 977.102L4345.8 979.202L4345.2 981.302L4335.6 978.402L4341.1 960.102L4341 960.202Z" fill="black"/>
<path d="M4354.4 964.199L4356.8 964.899L4351.5 983.299L4349.1 982.599L4354.4 964.199Z" fill="black"/>
<path d="M4364.3 969.401L4359.3 968.001L4359.9 965.801L4372.3 969.201L4371.7 971.301L4366.7 969.901L4362.2 986.201L4359.8 985.501L4364.3 969.201V969.401Z" fill="black"/>
<path d="M4375.5 970.101L4386.4 973.002L4385.8 975.201L4377.2 973.002L4375.6 979.001L4384 981.201L4383.4 983.301L4375 981.102L4373.4 987.101L4382 989.302L4381.4 991.501L4370.5 988.602L4375.3 970.101H4375.5ZM4380 970.402L4379.4 969.001L4384.6 966.602L4385.5 968.701L4380 970.402Z" fill="black"/>
<path d="M4384.4 994.498L4384.8 992.898L4395.7 995.598L4395.3 997.198L4384.4 994.498Z" fill="black"/>
<path d="M4402.7 976.899L4407.1 977.899C4409.1 978.299 4410.6 979.099 4411.7 980.199C4412.8 981.299 4413.5 982.599 4413.8 984.099C4414.1 985.599 4414 987.299 4413.7 989.099C4413.3 990.899 4412.6 992.499 4411.7 993.699C4410.8 994.999 4409.6 995.899 4408.1 996.399C4406.6 996.899 4404.9 996.899 4402.9 996.399L4398.5 995.399L4402.7 976.699V976.899ZM4404.6 979.699L4401.4 993.899L4403.2 994.299C4404.7 994.599 4405.9 994.599 4407 994.299C4408.1 993.899 4409 993.199 4409.6 992.199C4410.3 991.199 4410.8 990.099 4411.1 988.699C4411.4 987.299 4411.5 985.999 4411.3 984.899C4411.1 983.699 4410.6 982.699 4409.8 981.899C4409 981.099 4407.9 980.499 4406.4 980.199L4404.6 979.799V979.699Z" fill="black"/>
<path d="M4419.4 980.702L4430.5 983.002L4430 985.202L4421.3 983.402L4420.1 989.502L4428.6 991.202L4428.2 993.302L4419.7 991.602L4418.5 997.702L4427.2 999.502L4426.7 1001.7L4415.6 999.402L4419.4 980.602V980.702Z" fill="black"/>
<path d="M4434.1 1003.4C4433.6 1003.4 4433.2 1003 4432.9 1002.6C4432.6 1002.2 4432.5 1001.7 4432.6 1001.2C4432.6 1000.6 4433 1000.2 4433.4 999.9C4433.8 999.6 4434.3 999.5 4434.9 999.6C4435.4 999.7 4435.9 1000 4436.2 1000.4C4436.5 1000.8 4436.6 1001.3 4436.5 1001.9C4436.4 1002.4 4436.1 1002.8 4435.7 1003.1C4435.3 1003.4 4434.8 1003.5 4434.2 1003.4H4434.1Z" fill="black"/>
<path d="M4461.4 988.4L4458.3 1007.3L4455.9 1006.9L4458.1 993.3L4458.6 991.199L4457.7 993.4L4451.1 1005L4448.7 1004.6L4446.2 991.5V989.1L4445.9 991.199L4443.7 1004.8L4441.2 1004.4L4444.3 985.5L4447.6 986L4450.3 1001.7V1002.7L4450.7 1001.8L4458.3 987.8L4461.5 988.3L4461.4 988.4Z" fill="black"/>
<path d="M4463.7 998.4C4463.9 997 4464.3 995.8 4464.9 994.6C4465.5 993.5 4466.3 992.5 4467.3 991.7C4468.3 990.9 4469.4 990.4 4470.6 990C4471.8 989.6 4473.1 989.6 4474.4 989.7C4475.7 989.9 4477 990.3 4478.1 990.9C4479.2 991.6 4480.1 992.4 4480.8 993.4C4481.5 994.4 4482 995.5 4482.4 996.8C4482.8 998.1 4482.8 999.4 4482.6 1000.8C4482.4 1002.2 4482 1003.4 4481.4 1004.6C4480.8 1005.7 4480 1006.7 4479 1007.5C4478 1008.3 4476.9 1008.8 4475.7 1009.2C4474.5 1009.6 4473.2 1009.6 4471.8 1009.4C4470.4 1009.2 4469.2 1008.8 4468.1 1008.2C4467 1007.5 4466.1 1006.7 4465.4 1005.7C4464.7 1004.7 4464.2 1003.6 4463.8 1002.3C4463.5 1001.1 4463.4 999.7 4463.6 998.3L4463.7 998.4ZM4466.2 998.7C4466 1000.1 4466.2 1001.4 4466.6 1002.6C4467 1003.8 4467.7 1004.8 4468.7 1005.6C4469.7 1006.4 4470.8 1006.9 4472.1 1007.1C4473.5 1007.3 4474.7 1007.1 4475.8 1006.6C4476.9 1006.1 4477.9 1005.3 4478.6 1004.2C4479.3 1003.1 4479.8 1001.9 4480 1000.5C4480.2 999.1 4480 997.8 4479.6 996.6C4479.2 995.4 4478.5 994.4 4477.5 993.6C4476.6 992.8 4475.4 992.3 4474.1 992.1C4472.8 991.9 4471.5 992.1 4470.4 992.6C4469.3 993.1 4468.3 993.9 4467.6 995C4466.9 996.1 4466.4 997.3 4466.2 998.7Z" fill="black"/>
<path d="M4489.2 994.4H4489.3L4487.6 1011.1L4485.1 1010.8L4487 991.801L4490.5 992.201L4498.7 1009.9H4498.5L4500.2 993.2L4502.7 993.401L4500.8 1012.5L4497.3 1012.1L4489.1 994.4H4489.2Z" fill="black"/>
<path d="M4508.3 1013.4C4507.8 1013.4 4507.3 1013.1 4507 1012.7C4506.7 1012.3 4506.5 1011.8 4506.5 1011.3C4506.5 1010.8 4506.8 1010.3 4507.2 1010C4507.6 1009.6 4508.1 1009.5 4508.6 1009.5C4509.1 1009.5 4509.6 1009.8 4509.9 1010.2C4510.2 1010.6 4510.4 1011.1 4510.3 1011.6C4510.3 1012.1 4510 1012.6 4509.6 1012.9C4509.2 1013.3 4508.7 1013.4 4508.2 1013.4H4508.3Z" fill="black"/>
<path d="M4516.8 994.5L4522.2 994.8C4523.4 994.8 4524.5 995.1 4525.4 995.6C4526.3 996 4527.1 996.7 4527.6 997.6C4528.1 998.5 4528.3 999.6 4528.3 1000.9C4528.3 1002.2 4527.9 1003.3 4527.3 1004.1C4526.7 1004.9 4525.9 1005.5 4524.9 1005.9C4523.9 1006.3 4522.8 1006.4 4521.6 1006.4L4518.7 1006.2L4518.3 1013.8H4515.8L4516.9 994.5H4516.8ZM4518.7 1004.1H4521C4521.8 1004.3 4522.6 1004.1 4523.3 1004.1C4524 1004.1 4524.5 1003.5 4525 1003C4525.5 1002.5 4525.7 1001.7 4525.7 1000.8C4525.7 999.9 4525.7 999.1 4525.2 998.6C4524.8 998 4524.3 997.6 4523.7 997.4C4523.1 997.1 4522.3 997 4521.5 996.9H4519.2L4518.8 1004.2L4518.7 1004.1Z" fill="black"/>
<path d="M4532.3 995.398L4539 995.598C4540 995.598 4541 995.898 4541.8 996.398C4542.6 996.898 4543.3 997.498 4543.8 998.298C4544.3 999.098 4544.5 1000.2 4544.5 1001.3C4544.5 1002.5 4544.2 1003.4 4543.7 1004.2C4543.2 1005 4542.6 1005.5 4542 1005.9C4541.3 1006.3 4540.7 1006.5 4540.2 1006.5L4544.6 1014.9H4541.8L4537.6 1006.6H4534.5L4534.2 1014.6H4531.7L4532.4 995.398H4532.3ZM4534.5 1004.6H4537.8C4538.9 1004.8 4539.9 1004.6 4540.7 1004C4541.5 1003.5 4541.9 1002.6 4541.9 1001.3C4541.9 999.998 4541.6 999.098 4540.9 998.498C4540.2 997.898 4539.2 997.598 4538.1 997.598H4534.8L4534.6 1004.6H4534.5Z" fill="black"/>
<path d="M4548 1005.5C4548 1004.1 4548.2 1002.8 4548.7 1001.6C4549.2 1000.4 4549.9 999.4 4550.7 998.5C4551.6 997.6 4552.6 996.899 4553.7 996.399C4554.9 995.899 4556.1 995.699 4557.5 995.699C4558.9 995.699 4560.1 995.999 4561.3 996.499C4562.5 996.999 4563.4 997.7 4564.3 998.6C4565.2 999.5 4565.8 1000.6 4566.3 1001.8C4566.8 1003 4567 1004.3 4567 1005.7C4567 1007.1 4566.7 1008.4 4566.3 1009.6C4565.8 1010.8 4565.2 1011.8 4564.3 1012.7C4563.4 1013.6 4562.4 1014.3 4561.3 1014.8C4560.1 1015.3 4558.9 1015.5 4557.5 1015.5C4556.1 1015.5 4554.8 1015.2 4553.7 1014.7C4552.5 1014.2 4551.5 1013.5 4550.7 1012.6C4549.9 1011.7 4549.2 1010.6 4548.7 1009.4C4548.3 1008.2 4548 1006.9 4548 1005.5ZM4550.5 1005.5C4550.5 1006.9 4550.8 1008.2 4551.4 1009.3C4552 1010.5 4552.8 1011.4 4553.8 1012C4554.8 1012.7 4556 1013 4557.4 1013C4558.8 1013 4560 1012.7 4561 1012C4562 1011.3 4562.9 1010.4 4563.5 1009.3C4564.1 1008.2 4564.4 1006.9 4564.4 1005.5C4564.4 1004.1 4564.1 1002.8 4563.5 1001.7C4562.9 1000.6 4562.1 999.699 4561.1 998.999C4560.1 998.299 4558.9 998 4557.5 998C4556.2 998 4555 998.299 4553.9 998.999C4552.9 999.699 4552 1000.6 4551.4 1001.7C4550.8 1002.8 4550.5 1004.1 4550.5 1005.5Z" fill="black"/>
<path d="M4570.5 995.901H4575.9C4577.1 995.801 4578.2 995.901 4579.2 996.301C4580.2 996.701 4581 997.301 4581.5 998.101C4582.1 998.901 4582.4 1000 4582.4 1001.3C4582.4 1002.6 4582.2 1003.7 4581.6 1004.6C4581.1 1005.5 4580.3 1006.2 4579.4 1006.6C4578.5 1007 4577.4 1007.3 4576.2 1007.3H4573.3L4573.5 1014.9H4571L4570.6 995.801L4570.5 995.901ZM4573.2 1005.3H4575.5C4576.3 1005.3 4577.1 1005.1 4577.7 1004.8C4578.4 1004.5 4578.9 1004.1 4579.3 1003.6C4579.7 1003.1 4579.9 1002.3 4579.8 1001.4C4579.8 1000.5 4579.6 999.701 4579.1 999.201C4578.7 998.701 4578.1 998.301 4577.5 998.101C4576.8 997.901 4576.1 997.801 4575.3 997.801H4573L4573.2 1005.3Z" fill="black"/>
<path d="M4586 995.5L4592.7 995.199C4593.7 995.199 4594.7 995.299 4595.6 995.699C4596.5 996.099 4597.2 996.699 4597.7 997.499C4598.2 998.299 4598.5 999.3 4598.6 1000.5C4598.6 1001.7 4598.5 1002.7 4598 1003.4C4597.6 1004.2 4597 1004.8 4596.4 1005.2C4595.8 1005.6 4595.2 1005.9 4594.6 1005.9L4599.7 1013.9H4596.9L4592.1 1006.2H4589L4589.4 1014.4H4586.9L4586 995.399V995.5ZM4588.9 1004.6H4592.2C4593.3 1004.4 4594.3 1004.1 4595 1003.5C4595.7 1002.9 4596.1 1002 4596 1000.7C4596 999.399 4595.5 998.6 4594.8 998C4594 997.5 4593.1 997.299 4591.9 997.299L4588.6 997.499L4588.9 1004.6Z" fill="black"/>
<path d="M4602.5 994.699L4613.8 993.898L4614 996.099L4605.2 996.699L4605.6 1002.9L4614.3 1002.3L4614.5 1004.5L4605.8 1005.1L4606.2 1011.3L4615 1010.7L4615.2 1012.9L4603.9 1013.7L4602.6 994.599L4602.5 994.699Z" fill="black"/>
<path d="M4622.7 1012.7C4622.2 1012.7 4621.7 1012.7 4621.3 1012.3C4620.9 1012 4620.7 1011.5 4620.6 1011C4620.6 1010.5 4620.6 1010 4621 1009.6C4621.3 1009.2 4621.8 1009 4622.3 1008.9C4622.8 1008.9 4623.3 1008.9 4623.7 1009.3C4624.1 1009.7 4624.3 1010.1 4624.4 1010.6C4624.4 1011.1 4624.4 1011.6 4624 1012C4623.7 1012.4 4623.2 1012.6 4622.7 1012.7Z" fill="black"/>
<path d="M4627.9 992.698L4630.4 992.398L4632.3 1011.4L4629.8 1011.7L4627.9 992.698Z" fill="black"/>
<path d="M4637.7 994.002H4637.9L4639.9 1010.7L4637.4 1011L4635.1 992.002L4638.6 991.602L4650.5 1007H4650.3L4648.3 990.402L4650.8 990.102L4653.1 1009.1L4649.6 1009.5L4637.8 994.002H4637.7Z" fill="black"/>
<path d="M4660.9 988.298C4662 988.098 4662.9 988.098 4663.8 988.298C4664.6 988.398 4665.3 988.598 4665.8 988.798C4666.3 988.998 4666.6 989.199 4666.7 989.199L4665.7 991.398C4665.7 991.398 4665.3 991.199 4664.9 990.999C4664.5 990.799 4664 990.698 4663.4 990.598C4662.8 990.498 4662.2 990.498 4661.5 990.598C4660.4 990.798 4659.6 991.099 4659 991.599C4658.4 992.099 4658.2 992.799 4658.3 993.599C4658.3 994.099 4658.6 994.599 4659 994.899C4659.4 995.299 4659.9 995.598 4660.6 995.798C4661.2 995.998 4662 996.299 4662.9 996.499C4663.6 996.699 4664.3 996.899 4665 997.199C4665.7 997.499 4666.3 997.798 4666.9 998.198C4667.5 998.598 4668 999.099 4668.4 999.699C4668.8 1000.3 4669.1 1001 4669.2 1001.8C4669.3 1002.6 4669.2 1003.4 4669 1004.1C4668.8 1004.8 4668.4 1005.4 4667.8 1006C4667.3 1006.5 4666.6 1007 4665.9 1007.3C4665.1 1007.7 4664.3 1007.9 4663.4 1008C4662.2 1008.2 4661.2 1008.2 4660.2 1008C4659.2 1007.8 4658.4 1007.6 4657.8 1007.4C4657.2 1007.2 4656.8 1007 4656.7 1007L4657.7 1004.7C4657.7 1004.7 4658.1 1004.9 4658.4 1005C4658.7 1005.1 4659.1 1005.3 4659.6 1005.4C4660.1 1005.5 4660.6 1005.6 4661.2 1005.7C4661.8 1005.7 4662.4 1005.7 4663 1005.7C4664.3 1005.5 4665.2 1005.1 4665.8 1004.4C4666.4 1003.7 4666.6 1003 4666.5 1002C4666.5 1001.3 4666.1 1000.8 4665.6 1000.3C4665.1 999.899 4664.5 999.499 4663.7 999.199C4662.9 998.899 4662.1 998.599 4661.2 998.399C4660.3 998.099 4659.4 997.798 4658.6 997.498C4657.8 997.198 4657.2 996.699 4656.6 996.099C4656 995.499 4655.7 994.698 4655.6 993.798C4655.5 992.898 4655.6 991.998 4656 991.298C4656.4 990.498 4657 989.899 4657.9 989.299C4658.7 988.799 4659.7 988.498 4660.8 988.298H4660.9Z" fill="black"/>
<path d="M4675.1 988.699L4670 989.499L4669.6 987.299L4682.2 985.199L4682.6 987.4L4677.5 988.199L4680.3 1004.9L4677.8 1005.3L4675 988.599L4675.1 988.699Z" fill="black"/>
<path d="M4685.5 984.699L4692.1 983.499C4693.1 983.299 4694.1 983.299 4695 983.599C4695.9 983.899 4696.7 984.398 4697.3 985.098C4698 985.798 4698.4 986.799 4698.6 987.899C4698.8 989.099 4698.8 989.999 4698.4 990.899C4698.1 991.699 4697.6 992.399 4697.1 992.899C4696.5 993.399 4696 993.699 4695.4 993.899L4701.6 1001.2L4698.8 1001.7L4693 994.599L4690 995.199L4691.5 1003.1L4689.1 1003.6L4685.6 984.799L4685.5 984.699ZM4689.6 993.299L4692.9 992.699C4694 992.499 4694.9 991.998 4695.5 991.298C4696.1 990.598 4696.3 989.599 4696.1 988.399C4695.9 987.199 4695.3 986.299 4694.5 985.899C4693.7 985.499 4692.7 985.398 4691.6 985.598L4688.3 986.198L4689.6 993.198V993.299Z" fill="black"/>
<path d="M4713.6 979.2L4716 978.699L4718.3 990.4C4718.6 991.9 4718.6 993.299 4718.2 994.599C4717.8 995.799 4717.1 996.899 4716.2 997.699C4715.2 998.499 4714.1 999 4712.7 999.3C4711.3 999.6 4710 999.5 4708.8 999.2C4707.6 998.8 4706.6 998.099 4705.7 997.099C4704.9 996.099 4704.3 994.799 4704 993.299L4701.7 981.6L4704.1 981.1L4706.4 992.599C4706.6 993.699 4707 994.6 4707.6 995.3C4708.2 996 4708.9 996.5 4709.7 996.8C4710.5 997.1 4711.4 997.099 4712.3 996.999C4713.2 996.799 4714 996.4 4714.6 995.9C4715.2 995.3 4715.7 994.599 4715.9 993.699C4716.2 992.799 4716.2 991.799 4715.9 990.799L4713.6 979.3V979.2Z" fill="black"/>
<path d="M4736.8 973.801L4741.3 992.401L4738.9 993.001L4735.7 979.601L4735.3 977.501V979.901L4733.8 993.101L4731.4 993.701L4724 982.601L4723 980.501L4723.6 982.501L4726.8 995.901L4724.4 996.501L4719.9 977.901L4723.1 977.101L4731.7 990.501L4732.1 991.401V990.401L4733.7 974.601L4736.9 973.801H4736.8Z" fill="black"/>
<path d="M4741.2 972.699L4752.1 969.699L4752.7 971.899L4744.1 974.199L4745.7 980.199L4754.1 977.899L4754.7 979.999L4746.3 982.299L4747.9 988.299L4756.5 985.999L4757.1 988.199L4746.2 991.199L4741.1 972.699H4741.2Z" fill="black"/>
<path d="M4759.3 970.001H4759.5L4764.4 986.001L4762 986.701L4756.4 968.401L4759.7 967.401L4774.1 980.501H4774L4769.1 964.501L4771.5 963.801L4777.1 982.101L4773.7 983.101L4759.3 970.001Z" fill="black"/>
<path d="M4780 963.301L4775.1 965.001L4774.4 962.901L4786.5 958.801L4787.2 960.901L4782.3 962.601L4787.8 978.601L4785.4 979.401L4780 963.401V963.301Z" fill="black"/>
<path d="M4798.7 975C4798.7 975 4797.7 975.2 4797.2 975C4796.7 974.8 4796.4 974.4 4796.2 973.9C4796 973.4 4796 972.9 4796.2 972.4C4796.4 971.9 4796.8 971.6 4797.3 971.4C4797.8 971.2 4798.3 971.2 4798.8 971.4C4799.3 971.6 4799.6 972 4799.8 972.5C4800 973 4800 973.5 4799.8 974C4799.6 974.5 4799.2 974.8 4798.7 975Z" fill="black"/>
<path d="M4820.4 943.7L4822.6 942.7L4828.9 956.5L4826.7 957.5L4820.4 943.8V943.7ZM4826.3 956.5L4827.8 955.8C4829 955.2 4830.3 954.6 4831.6 953.8C4832.9 953 4834.3 952.2 4835.7 951.2L4836.9 953C4835.4 954.1 4834 955 4832.7 955.7C4831.3 956.4 4830 957.1 4828.7 957.7L4827.2 958.4L4826.3 956.5ZM4830.8 936L4832.9 935.1L4843.1 957.2L4841 958.2L4830.8 936.1V936ZM4835.9 933L4838 932L4849 955.8L4846.9 956.8L4835.9 933ZM4836.4 944.5L4841 942.4L4841.8 944.2L4837.2 946.3L4836.4 944.5Z" fill="black"/>
<path d="M4850.7 928.601L4865.5 920.501L4866.4 922.201L4851.6 930.301L4850.7 928.601ZM4857.1 945.501L4877.9 934.101L4878.9 935.901L4858.1 947.301L4857.1 945.6V945.501ZM4860.7 932.801L4862.8 931.701L4867.8 940.801L4865.7 941.9L4860.7 932.801ZM4864.7 920.901L4866.8 919.801L4868 922.101C4868.5 923.001 4869.1 924.1 4869.6 925.1C4870.1 926.2 4870.7 927.4 4871.3 928.7C4871.9 930 4872.4 931.5 4873 933.2L4870.7 934.101C4869.9 931.601 4869.1 929.601 4868.3 927.901C4867.5 926.201 4866.7 924.601 4865.9 923.301L4864.7 921.001V920.901Z" fill="black"/>
<path d="M4880.4 909.699C4882 908.699 4883.4 908.099 4884.9 907.799C4886.3 907.499 4887.6 907.499 4888.7 907.799C4889.8 908.099 4890.7 908.799 4891.3 909.799C4891.9 910.799 4892.1 911.799 4891.9 912.999C4891.7 914.099 4891.1 915.299 4890.2 916.399C4889.3 917.499 4888 918.599 4886.5 919.499C4885 920.399 4883.5 921.099 4882.1 921.399C4880.7 921.699 4879.4 921.699 4878.3 921.399C4877.2 921.099 4876.3 920.399 4875.7 919.499C4875.1 918.499 4874.9 917.399 4875.1 916.299C4875.3 915.199 4875.9 913.999 4876.8 912.899C4877.7 911.799 4878.9 910.699 4880.5 909.799L4880.4 909.699ZM4881.5 911.299C4880.4 911.999 4879.5 912.699 4878.8 913.499C4878.1 914.299 4877.7 915.099 4877.5 915.899C4877.3 916.699 4877.5 917.399 4877.8 917.999C4878.2 918.599 4878.8 919.099 4879.6 919.199C4880.4 919.399 4881.3 919.299 4882.3 919.099C4883.3 918.899 4884.4 918.299 4885.5 917.599C4886.6 916.899 4887.6 916.099 4888.3 915.299C4889 914.499 4889.4 913.699 4889.6 912.999C4889.8 912.199 4889.6 911.499 4889.3 910.899C4888.9 910.199 4888.3 909.799 4887.5 909.599C4886.7 909.399 4885.8 909.499 4884.8 909.699C4883.8 909.999 4882.7 910.499 4881.6 911.199L4881.5 911.299ZM4877.7 927.699L4897.9 915.199L4898.9 916.899L4878.7 929.499L4877.7 927.799V927.699ZM4883.6 925.599L4885.7 924.299L4891 932.799L4888.9 934.099L4883.6 925.599ZM4891.3 920.799L4893.4 919.499L4898.7 927.999L4896.6 929.299L4891.3 920.799Z" fill="black"/>
<path d="M4899.9 898C4901 897.2 4902.2 896.7 4903.3 896.5C4904.4 896.3 4905.5 896.5 4906.6 896.8C4907.6 897.2 4908.5 897.9 4909.2 898.9C4909.9 899.9 4910.3 900.9 4910.3 902.1C4910.3 903.2 4910.1 904.3 4909.5 905.3C4908.9 906.3 4908.1 907.2 4907 908C4905.9 908.8 4904.8 909.3 4903.6 909.5C4902.4 909.7 4901.3 909.5 4900.3 909.2C4899.3 908.8 4898.4 908.1 4897.7 907.1C4897 906.1 4896.6 905 4896.6 903.9C4896.6 902.8 4896.8 901.7 4897.4 900.7C4898 899.7 4898.8 898.7 4899.9 898ZM4901.1 899.7C4900.4 900.2 4899.8 900.8 4899.4 901.5C4899 902.2 4898.8 902.9 4898.9 903.6C4898.9 904.3 4899.2 905 4899.6 905.7C4900 906.4 4900.6 906.8 4901.3 907.1C4902 907.4 4902.7 907.4 4903.5 907.3C4904.3 907.2 4905 906.9 4905.7 906.3C4906.4 905.8 4907 905.2 4907.4 904.5C4907.8 903.8 4907.9 903.1 4907.9 902.4C4907.9 901.7 4907.6 901 4907.2 900.3C4906.7 899.6 4906.2 899.2 4905.5 898.9C4904.8 898.6 4904.1 898.5 4903.3 898.7C4902.5 898.8 4901.8 899.1 4901 899.7H4901.1ZM4904 917.8L4902.6 916.3C4903.9 915.4 4905.4 914.4 4906.9 913.2C4908.4 912 4910 910.9 4911.6 909.6C4913.2 908.3 4914.7 907 4916.1 905.7L4917.3 907C4915.9 908.4 4914.4 909.8 4912.8 911.1C4911.3 912.4 4909.7 913.6 4908.2 914.7C4906.7 915.8 4905.3 916.8 4904 917.7V917.8ZM4907.4 890.4L4909.4 889L4924.5 910.5L4922.5 911.9L4907.4 890.4Z" fill="black"/>
<path d="M4924.7 879.102C4925.7 878.302 4926.8 877.701 4927.9 877.501C4929 877.301 4930.1 877.302 4931.2 877.702C4932.2 878.002 4933.1 878.702 4933.9 879.602C4934.7 880.602 4935.1 881.602 4935.3 882.702C4935.4 883.802 4935.3 884.902 4934.8 885.902C4934.3 886.902 4933.6 887.901 4932.6 888.701C4931.6 889.501 4930.5 890.002 4929.4 890.302C4928.3 890.602 4927.2 890.502 4926.1 890.202C4925 889.802 4924.1 889.201 4923.3 888.201C4922.5 887.301 4922.1 886.201 4922 885.101C4921.9 884.001 4922 882.901 4922.5 881.901C4923 880.801 4923.7 879.902 4924.7 879.102ZM4926 880.701C4925.3 881.201 4924.9 881.901 4924.6 882.601C4924.3 883.301 4924.2 884.002 4924.3 884.802C4924.3 885.502 4924.7 886.201 4925.2 886.901C4925.7 887.501 4926.3 888.001 4927 888.201C4927.7 888.401 4928.4 888.502 4929.2 888.302C4930 888.102 4930.7 887.802 4931.3 887.302C4932 886.802 4932.5 886.102 4932.8 885.402C4933.1 884.702 4933.2 884.001 4933.1 883.201C4933.1 882.501 4932.7 881.801 4932.2 881.201C4931.7 880.601 4931.1 880.102 4930.4 879.902C4929.7 879.702 4929 879.602 4928.2 879.802C4927.4 880.002 4926.7 880.302 4926.1 880.802L4926 880.701ZM4931.2 893.402L4944.4 882.601L4950.4 889.902L4948.5 891.401L4943.8 885.601L4932.5 894.902L4931.3 893.402H4931.2ZM4931.9 871.102L4933.8 869.602L4943.6 881.602L4941.7 883.101L4931.9 871.201V871.102ZM4937.6 875.302L4941.1 872.402L4942.4 874.002L4938.9 876.901L4937.6 875.402V875.302Z" fill="black"/>
<path d="M4941.2 867.1L4949.2 859.7L4950.5 861.1L4942.5 868.5L4941.2 867.1ZM4948.4 860.4L4950.1 858.8C4951.4 860.2 4952.5 861.7 4953.3 863.3C4954.2 864.9 4954.8 866.6 4955.1 868.4C4955.4 870.2 4955.5 872.2 4955.3 874.2C4955.1 876.2 4954.5 878.4 4953.6 880.7L4951.3 880.1C4952.3 877.5 4952.9 875 4953 872.7C4953.1 870.4 4952.8 868.2 4952 866.2C4951.2 864.2 4950.1 862.3 4948.5 860.6L4948.3 860.3L4948.4 860.4ZM4952.2 853.1L4954 851.5L4971.8 870.8L4970 872.4L4952.2 853.1Z" fill="black"/>
<path d="M4964.5 843.602C4965.5 842.602 4966.5 841.902 4967.6 841.502C4968.7 841.102 4969.8 841.002 4970.9 841.202C4972 841.402 4973 842.002 4973.8 842.802C4974.7 843.602 4975.2 844.602 4975.5 845.702C4975.8 846.802 4975.7 847.902 4975.3 849.002C4974.9 850.102 4974.3 851.202 4973.3 852.202C4972.4 853.202 4971.3 853.902 4970.2 854.302C4969.1 854.702 4968 854.802 4966.9 854.602C4965.8 854.402 4964.8 853.902 4964 853.002C4963.1 852.102 4962.5 851.202 4962.3 850.102C4962.1 849.002 4962.1 847.902 4962.5 846.802C4962.9 845.702 4963.5 844.602 4964.5 843.702V843.602ZM4966 845.102C4965.4 845.702 4964.9 846.402 4964.7 847.202C4964.5 848.002 4964.4 848.702 4964.6 849.402C4964.8 850.102 4965.1 850.802 4965.7 851.302C4966.3 851.902 4966.9 852.202 4967.7 852.402C4968.4 852.502 4969.2 852.402 4969.9 852.202C4970.6 851.902 4971.3 851.502 4971.9 850.802C4972.5 850.102 4973 849.402 4973.2 848.702C4973.4 848.002 4973.5 847.202 4973.3 846.502C4973.1 845.802 4972.8 845.102 4972.2 844.602C4971.6 844.102 4971 843.702 4970.2 843.502C4969.5 843.402 4968.7 843.502 4968 843.702C4967.3 844.002 4966.6 844.402 4966 845.102ZM4970.4 834.802L4972.1 833.102L4991 851.402L4989.3 853.102L4970.5 834.802H4970.4ZM4972.2 862.402L4970.5 861.202C4971.6 860.002 4972.8 858.802 4974.1 857.402C4975.4 856.002 4976.7 854.502 4978.1 853.002C4979.4 851.402 4980.7 849.902 4981.8 848.302L4983.2 849.402C4982.1 851.102 4980.9 852.702 4979.6 854.302C4978.3 855.902 4977 857.302 4975.8 858.702C4974.6 860.102 4973.3 861.302 4972.2 862.402Z" fill="black"/>
<path d="M4982.8 825.002L4995 810.602L4996.5 811.802L4984.4 826.202L4982.9 825.002H4982.8ZM4986.1 817.102L4987.6 815.302L4990.4 817.702L4988.9 819.502L4986.1 817.102ZM4989 819.602L4990.4 818.002L4990.7 818.202C4991.5 818.902 4992.1 819.702 4992.4 820.702C4992.7 821.702 4992.8 822.702 4992.6 823.902C4992.4 825.102 4992.1 826.202 4991.6 827.402C4991.1 828.602 4990.4 829.802 4989.6 831.002L4987.7 830.402C4988.4 829.402 4989 828.302 4989.5 827.302C4990 826.302 4990.3 825.302 4990.5 824.302C4990.7 823.402 4990.7 822.502 4990.5 821.702C4990.3 820.902 4990 820.302 4989.4 819.802L4989.1 819.502L4989 819.602ZM4989.3 819.302L4990.6 817.702L4990.9 818.002C4991.5 818.502 4992.1 818.802 4992.9 818.802C4993.7 818.802 4994.5 818.702 4995.4 818.402C4996.3 818.102 4997.2 817.602 4998.2 816.902C4999.1 816.202 5000.1 815.502 5001 814.602L5002 816.302C5001 817.302 4999.9 818.202 4998.8 818.902C4997.7 819.602 4996.6 820.202 4995.5 820.502C4994.4 820.802 4993.4 821.002 4992.3 820.802C4991.3 820.702 4990.4 820.302 4989.5 819.602L4989.2 819.302H4989.3ZM4989.7 834.002L5005 815.902L5006.5 817.202L4991.2 835.302L4989.7 834.002ZM4994.1 823.802L4995.6 822.002L4998.7 824.702L4997.2 826.502L4994 823.802H4994.1ZM5000.3 827.502C5002.1 825.302 5003.8 823.902 5005.4 823.202C5007 822.502 5008.3 822.602 5009.4 823.502C5010.5 824.402 5010.8 825.702 5010.3 827.402C5009.9 829.102 5008.7 831.002 5006.9 833.202C5005.1 835.302 5003.4 836.802 5001.8 837.502C5000.2 838.202 4998.9 838.102 4997.8 837.202C4996.7 836.302 4996.4 835.002 4996.9 833.302C4997.3 831.602 4998.5 829.702 5000.3 827.502ZM5001.7 828.602C5000.4 830.202 4999.5 831.602 4999.1 832.702C4998.7 833.902 4998.8 834.702 4999.4 835.202C5000 835.702 5000.9 835.702 5001.9 835.202C5003 834.602 5004.2 833.502 5005.5 831.902C5006.8 830.302 5007.7 829.002 5008.1 827.802C5008.5 826.602 5008.4 825.802 5007.8 825.302C5007.2 824.802 5006.3 824.802 5005.3 825.402C5004.3 826.002 5003 827.102 5001.7 828.702V828.602Z" fill="black"/>
<path d="M4999.9 801.702L5001.3 799.902L5005.6 803.101L5004.2 804.902L4999.9 801.602V801.702ZM5000.1 807.902L5007.3 798.302L5008.9 799.502L5001.7 809.102L5000.1 807.902ZM5004.6 805.102L5005.7 803.602L5006.8 804.401C5007.8 805.201 5008.8 806.102 5009.6 807.102C5010.4 808.102 5011.2 809.102 5011.8 810.202C5012.4 811.302 5012.9 812.402 5013.1 813.602C5013.4 814.802 5013.5 815.902 5013.3 817.002H5011C5011.1 816.002 5011 815.002 5010.8 813.902C5010.6 812.902 5010.2 811.902 5009.7 810.902C5009.2 809.902 5008.6 809.002 5007.9 808.202C5007.2 807.402 5006.4 806.602 5005.6 806.002L5004.5 805.202L5004.6 805.102ZM5004.8 804.802L5005.9 803.302L5007 804.102C5007.8 804.702 5008.7 805.202 5009.7 805.702C5010.7 806.102 5011.7 806.402 5012.7 806.602C5013.7 806.802 5014.8 806.802 5015.8 806.702C5016.8 806.702 5017.8 806.302 5018.7 805.902L5019.3 808.101C5018 808.701 5016.5 809.002 5015 808.902C5013.4 808.902 5011.9 808.502 5010.3 808.002C5008.7 807.402 5007.3 806.601 5005.9 805.601L5004.8 804.802ZM5005.3 794.002L5006.7 792.202L5026.1 806.802L5024.7 808.602L5005.3 794.002ZM5008 789.401L5009.4 787.602L5030.3 803.402L5028.9 805.202L5007.9 789.401H5008ZM5010.7 803.101L5013.7 799.202L5015.3 800.402L5012.3 804.302L5010.7 803.101Z" fill="black"/>
<path d="M5018 778.499C5018.8 777.399 5019.7 776.499 5020.7 775.899C5021.7 775.299 5022.8 774.999 5023.9 775.099C5025 775.099 5026.1 775.499 5027.1 776.199C5028.1 776.899 5028.8 777.699 5029.3 778.799C5029.7 779.799 5029.9 780.899 5029.7 782.099C5029.5 783.299 5029.1 784.399 5028.3 785.599C5027.5 786.699 5026.7 787.599 5025.6 788.199C5024.6 788.799 5023.5 789.099 5022.4 789.099C5021.3 789.099 5020.2 788.699 5019.2 787.999C5018.2 787.299 5017.4 786.499 5017 785.399C5016.6 784.399 5016.5 783.299 5016.6 782.099C5016.8 780.899 5017.2 779.799 5018 778.699V778.499ZM5019.7 779.599C5019.2 780.299 5018.9 781.099 5018.8 781.899C5018.7 782.699 5018.8 783.399 5019.1 784.099C5019.4 784.799 5019.9 785.299 5020.5 785.799C5021.2 786.199 5021.9 786.499 5022.6 786.499C5023.3 786.499 5024 786.299 5024.7 785.899C5025.4 785.499 5026 784.899 5026.5 784.199C5027 783.399 5027.3 782.699 5027.4 781.899C5027.4 781.099 5027.4 780.399 5027.1 779.699C5026.8 778.999 5026.3 778.499 5025.7 777.999C5025 777.599 5024.3 777.299 5023.6 777.299C5022.9 777.299 5022.2 777.499 5021.5 777.899C5020.8 778.299 5020.3 778.899 5019.7 779.599ZM5022.3 768.699L5023.6 766.699L5045.4 781.399L5044.1 783.399L5022.3 768.699ZM5028.9 795.499L5027 794.599C5027.9 793.299 5028.9 791.799 5029.9 790.199C5030.9 788.599 5032 786.899 5033 785.199C5034 783.499 5035 781.699 5035.8 779.899L5037.4 780.699C5036.6 782.499 5035.7 784.299 5034.7 786.099C5033.7 787.899 5032.7 789.499 5031.7 791.099C5030.7 792.699 5029.7 794.099 5028.9 795.399V795.499Z" fill="black"/>
<path d="M5051.5 777.599L5049.8 777.299C5049.9 776.299 5049.8 775.399 5049.5 774.599C5049.2 773.799 5048.7 773.199 5047.9 772.699L5045.7 771.699H5048C5048 771.699 5048 772.2 5048 772.4C5048 772.6 5047.9 772.899 5047.7 773.099C5047.4 773.499 5047 773.799 5046.6 773.999C5046.1 774.199 5045.6 773.999 5045.1 773.799C5044.6 773.499 5044.3 773.099 5044.3 772.599C5044.3 772.099 5044.3 771.599 5044.6 771.199C5045 770.599 5045.5 770.299 5046.2 770.199C5046.9 770.199 5047.6 770.399 5048.4 770.899C5049.6 771.599 5050.4 772.599 5050.9 773.799C5051.4 774.999 5051.5 776.299 5051.3 777.699L5051.5 777.599Z" fill="black"/>
<path d="M5038.4 745.3C5039 744.2 5039.8 743.3 5040.8 742.7C5041.8 742.1 5042.8 741.8 5043.9 741.7C5045 741.7 5046.1 742 5047.2 742.5C5048.3 743.1 5049.1 743.9 5049.6 744.9C5050.1 745.9 5050.4 746.9 5050.4 748.1C5050.4 749.3 5050 750.4 5049.4 751.5C5048.8 752.6 5048 753.5 5047 754.1C5046 754.7 5045 755 5043.9 755.1C5042.8 755.1 5041.7 754.9 5040.6 754.3C5039.5 753.7 5038.7 752.9 5038.2 751.9C5037.7 750.9 5037.4 749.8 5037.4 748.7C5037.4 747.6 5037.8 746.4 5038.4 745.3ZM5040.2 746.3C5039.8 747 5039.6 747.8 5039.6 748.5C5039.6 749.3 5039.8 750 5040.1 750.6C5040.5 751.3 5041 751.8 5041.7 752.2C5042.4 752.6 5043.1 752.8 5043.9 752.8C5044.7 752.8 5045.3 752.6 5046 752.2C5046.6 751.8 5047.2 751.2 5047.6 750.5C5048 749.8 5048.2 749 5048.3 748.3C5048.3 747.5 5048.1 746.8 5047.8 746.2C5047.4 745.6 5046.9 745 5046.2 744.6C5045.5 744.2 5044.7 744 5044 744C5043.3 744 5042.6 744.3 5041.9 744.6C5041.2 745 5040.7 745.6 5040.3 746.3H5040.2ZM5043 734.1L5044.2 732L5057.6 739.6L5056.4 741.7L5043 734.1ZM5045.8 742.9L5049.3 736.7L5051 737.7L5047.5 743.9L5045.8 742.9ZM5050.3 755.6L5059 740.4L5067.1 745L5065.9 747.1L5059.5 743.4L5052 756.5L5050.3 755.5V755.6Z" fill="black"/>
<path d="M5051 722.399C5051.6 721.199 5052.4 720.298 5053.3 719.598C5054.2 718.898 5055.2 718.498 5056.3 718.398C5057.4 718.298 5058.5 718.499 5059.6 719.099C5060.7 719.699 5061.5 720.398 5062.1 721.298C5062.6 722.198 5062.9 723.298 5062.9 724.398C5062.9 725.498 5062.6 726.699 5062 727.899C5061.4 729.099 5060.6 729.998 5059.7 730.698C5058.8 731.398 5057.7 731.798 5056.7 731.898C5055.6 731.998 5054.5 731.898 5053.4 731.198C5052.3 730.698 5051.5 729.898 5050.9 728.898C5050.3 727.998 5050.1 726.898 5050.1 725.698C5050.1 724.498 5050.4 723.398 5051 722.198V722.399ZM5052.8 723.298C5052.4 724.098 5052.2 724.798 5052.2 725.598C5052.2 726.398 5052.4 727.098 5052.8 727.698C5053.2 728.298 5053.7 728.799 5054.4 729.199C5055.1 729.599 5055.9 729.698 5056.6 729.598C5057.3 729.498 5058 729.298 5058.6 728.798C5059.2 728.398 5059.7 727.698 5060.1 726.998C5060.5 726.198 5060.7 725.498 5060.7 724.698C5060.7 723.898 5060.5 723.298 5060.1 722.598C5059.7 721.998 5059.2 721.499 5058.4 721.099C5057.6 720.699 5056.9 720.598 5056.2 720.698C5055.5 720.698 5054.8 720.998 5054.2 721.498C5053.6 721.898 5053.1 722.498 5052.7 723.298H5052.8ZM5054.4 712.198L5055.5 710.098L5069.4 717.098L5068.3 719.299L5054.4 712.299V712.198ZM5058.7 712.399L5060.8 708.398L5062.6 709.299L5060.6 713.298L5058.8 712.399H5058.7ZM5063.7 714.998L5065.7 710.999L5067.5 711.898L5065.4 715.898L5063.6 714.998H5063.7ZM5066.3 724.899C5067.1 723.299 5068 722.099 5068.9 721.099C5069.8 720.099 5070.8 719.499 5071.8 719.199C5072.8 718.899 5073.7 718.998 5074.6 719.498C5075.5 719.998 5076.1 720.699 5076.5 721.599C5076.8 722.499 5076.9 723.698 5076.6 724.998C5076.4 726.298 5075.9 727.798 5075.1 729.398C5074.3 730.998 5073.4 732.298 5072.5 733.198C5071.6 734.198 5070.6 734.798 5069.7 735.098C5068.7 735.398 5067.8 735.299 5066.9 734.799C5066 734.299 5065.3 733.598 5065 732.698C5064.7 731.698 5064.6 730.599 5064.9 729.299C5065.2 727.999 5065.7 726.499 5066.5 724.899H5066.3ZM5068.1 725.698C5067.5 726.798 5067.1 727.898 5066.9 728.798C5066.7 729.698 5066.7 730.498 5066.9 731.198C5067.1 731.898 5067.4 732.298 5068 732.598C5068.5 732.898 5069.1 732.898 5069.8 732.598C5070.4 732.298 5071 731.899 5071.7 731.099C5072.3 730.399 5072.9 729.398 5073.5 728.298C5074.1 727.198 5074.5 726.098 5074.7 725.198C5074.9 724.298 5074.9 723.498 5074.7 722.798C5074.5 722.198 5074.2 721.698 5073.6 721.398C5073 721.098 5072.4 721.098 5071.8 721.398C5071.2 721.598 5070.6 722.098 5069.9 722.798C5069.2 723.498 5068.7 724.498 5068.1 725.598V725.698Z" fill="black"/>
<path d="M5063.3 694.3C5064.5 691.7 5065.8 689.8 5067.1 688.6C5068.4 687.4 5069.8 687.2 5071.2 687.8C5072.5 688.4 5073.2 689.6 5073.3 691.4C5073.4 693.2 5072.8 695.4 5071.6 698C5070.4 700.6 5069.1 702.6 5067.7 703.7C5066.3 704.9 5064.9 705.1 5063.6 704.5C5062.3 703.9 5061.6 702.7 5061.5 700.9C5061.5 699.1 5062 696.9 5063.2 694.2L5063.3 694.3ZM5065 695.1C5064.4 696.4 5064 697.5 5063.8 698.5C5063.6 699.5 5063.5 700.3 5063.7 701C5063.9 701.6 5064.2 702.1 5064.7 702.3C5065.2 702.6 5065.8 702.5 5066.4 702.3C5067 702 5067.6 701.4 5068.2 700.6C5068.8 699.8 5069.4 698.7 5070 697.4C5070.6 696.1 5071 694.9 5071.2 693.9C5071.4 692.9 5071.5 692.1 5071.2 691.4C5071 690.7 5070.7 690.3 5070.2 690.1C5069.7 689.9 5069.1 689.9 5068.5 690.2C5067.9 690.5 5067.3 691.1 5066.7 691.9C5066.1 692.7 5065.5 693.8 5064.9 695.1H5065ZM5068.3 709.6L5078.1 688L5079.9 688.8L5070.1 710.4L5068.3 709.6ZM5073.3 708.7L5080.6 692.5L5086 694.9L5079.7 708.9L5082.6 710.2L5081.6 712.3L5077.1 710.3L5083.4 696.3L5081.3 695.4L5074.9 709.5L5073.2 708.7H5073.3ZM5081.2 712.2L5088.8 695.3L5090.5 696.1L5082.9 713L5081.2 712.2Z" fill="black"/>
<path d="M5074.1 675.202L5079.4 661.602L5081.3 662.302L5076 675.902L5074.1 675.202ZM5077.3 669.902L5078 668.101L5081.9 669.602C5083.2 670.102 5084.4 670.802 5085.5 671.602C5086.6 672.402 5087.6 673.402 5088.4 674.502C5089.3 675.602 5089.9 676.702 5090.5 677.902C5091 679.102 5091.3 680.202 5091.4 681.402L5089.1 682.002C5089.1 681.002 5088.8 679.902 5088.3 678.802C5087.9 677.702 5087.3 676.702 5086.6 675.702C5085.9 674.702 5085.1 673.901 5084.1 673.101C5083.2 672.401 5082.2 671.802 5081.1 671.402L5077.1 669.902H5077.3ZM5077.5 669.502L5078.2 667.702L5082.1 669.202C5083.1 669.602 5084.2 669.802 5085.4 669.902C5086.5 669.902 5087.7 669.902 5088.8 669.602C5089.9 669.302 5091 668.902 5092 668.402C5093 667.902 5093.9 667.202 5094.6 666.502L5095.9 668.402C5095 669.202 5094 669.902 5092.9 670.502C5091.8 671.102 5090.6 671.502 5089.3 671.702C5088 671.902 5086.7 672.001 5085.4 671.901C5084.1 671.801 5082.8 671.502 5081.5 671.002L5077.5 669.502ZM5078.2 657.302L5079.1 655.102L5103.6 664.602L5102.7 666.802L5078.3 657.302H5078.2Z" fill="black"/>
<path d="M5085.5 639.999C5086.1 638.299 5086.8 636.799 5087.7 635.699C5088.6 634.599 5089.6 633.799 5090.6 633.299C5091.7 632.899 5092.7 632.799 5093.9 633.299C5095 633.699 5095.9 634.4 5096.4 635.4C5096.9 636.4 5097.2 637.6 5097.2 639.1C5097.2 640.5 5096.9 642.099 5096.3 643.899C5095.7 645.599 5095 646.999 5094.1 648.199C5093.2 649.399 5092.2 650.199 5091.2 650.599C5090.1 650.999 5089 651.099 5087.9 650.599C5086.8 650.199 5086 649.5 5085.4 648.5C5084.8 647.5 5084.6 646.3 5084.6 644.8C5084.6 643.3 5084.9 641.799 5085.5 640.099V639.999ZM5087.4 640.599C5087 641.899 5086.7 643 5086.7 644.1C5086.7 645.2 5086.8 646.1 5087.2 646.8C5087.6 647.5 5088.1 647.999 5088.8 648.199C5089.6 648.499 5090.3 648.399 5091 648.099C5091.7 647.799 5092.4 647.199 5093 646.299C5093.6 645.399 5094.2 644.399 5094.6 643.099C5095 641.799 5095.3 640.7 5095.3 639.6C5095.3 638.5 5095.2 637.699 5094.8 636.899C5094.4 636.199 5093.9 635.7 5093.1 635.4C5092.4 635.1 5091.6 635.2 5090.9 635.5C5090.2 635.8 5089.5 636.4 5088.9 637.3C5088.3 638.1 5087.8 639.2 5087.3 640.5L5087.4 640.599ZM5094.9 655.799L5102.7 633.299L5104.6 634L5096.8 656.5L5094.9 655.799ZM5099.5 646.1L5100.3 643.899L5109.8 647.2L5109 649.399L5099.5 646.1Z" fill="black"/>
<path d="M5091.8 625.801L5095.1 614.801L5104.1 617.5L5101.5 626.101L5108 628.1L5107.3 630.401L5098.9 627.801L5101.5 619.201L5096.3 617.601L5093.6 626.301L5091.7 625.701L5091.8 625.801ZM5094.8 607.601L5095.5 605.301L5120.6 613.001L5119.9 615.301L5094.8 607.601ZM5099.1 614.301L5100.8 608.801L5102.7 609.401L5101 615L5099.1 614.401V614.301ZM5105.8 616.501L5107.5 611.001L5109.4 611.601L5107.7 617.201L5105.8 616.601V616.501ZM5106.9 630.301L5107.5 628.401C5107.9 627.101 5108.3 625.801 5108.6 624.701C5108.9 623.501 5109.2 622.301 5109.4 621.101C5109.7 619.901 5109.9 618.601 5110.1 617.301L5112.1 617.701C5111.9 619.101 5111.7 620.401 5111.4 621.601C5111.1 622.801 5110.9 624.001 5110.5 625.201C5110.2 626.401 5109.8 627.601 5109.4 629.001L5108.8 630.901L5106.9 630.301Z" fill="black"/>
<path d="M5098.6 598.098L5099.2 595.798L5106.8 597.899L5106.2 600.198L5098.5 598.198L5098.6 598.098ZM5105.3 599.899L5109.9 582.698L5111.8 583.198L5107.2 600.399L5105.3 599.899ZM5109.7 604.398L5115.8 581.398L5117.7 581.898L5111.6 604.899L5109.7 604.398ZM5115 602.598L5115.6 600.299L5121.6 601.898L5121 604.199L5115 602.598ZM5120.4 604.099L5125.1 586.599L5127 587.099L5122.3 604.599L5120.4 604.099Z" fill="black"/>
<path d="M5108.5 562.999C5108.8 561.799 5109.4 560.699 5110.3 559.899C5111.2 559.099 5112.4 558.598 5113.9 558.298C5115.4 558.098 5117 558.199 5118.8 558.599C5120.6 558.999 5122.1 559.599 5123.3 560.499C5124.5 561.299 5125.4 562.298 5125.9 563.398C5126.4 564.498 5126.5 565.698 5126.3 566.998C5126 568.198 5125.4 569.198 5124.5 569.998C5123.5 570.798 5122.3 571.299 5120.9 571.599C5119.4 571.799 5117.8 571.798 5116 571.398C5114.2 570.998 5112.7 570.398 5111.5 569.498C5110.3 568.698 5109.4 567.698 5108.9 566.498C5108.4 565.398 5108.3 564.199 5108.5 562.999ZM5109.2 550.698L5109.7 548.398L5135.3 554.099L5134.8 556.398L5109.2 550.698ZM5110.6 563.499C5110.4 564.299 5110.6 565.098 5111 565.798C5111.4 566.498 5112.1 567.198 5113.1 567.798C5114.1 568.398 5115.2 568.799 5116.6 569.099C5118 569.399 5119.2 569.498 5120.3 569.398C5121.4 569.298 5122.3 568.999 5123 568.499C5123.7 567.999 5124.1 567.398 5124.3 566.498C5124.5 565.698 5124.3 564.899 5123.9 564.099C5123.5 563.299 5122.8 562.698 5121.8 562.098C5120.9 561.498 5119.7 561.098 5118.3 560.798C5116.9 560.498 5115.7 560.399 5114.6 560.499C5113.5 560.599 5112.6 560.898 5111.9 561.398C5111.2 561.898 5110.8 562.598 5110.6 563.398V563.499ZM5117.6 559.199L5119.2 551.799L5121.1 552.198L5119.4 559.598L5117.5 559.199H5117.6Z" fill="black"/>
<path d="M5113.5 542.498L5115.8 530.598L5125 532.398L5123.2 541.798L5129.9 543.098L5129.4 545.498L5120.7 543.798L5122.5 534.298L5117.1 533.298L5115.3 542.798L5113.4 542.398L5113.5 542.498ZM5114.4 524.698L5114.8 522.398L5140.6 527.298L5140.2 529.598L5114.4 524.698ZM5128.7 545.398L5129.1 543.298C5129.4 541.798 5129.6 540.398 5129.8 539.098C5130 537.698 5130.2 536.298 5130.3 534.898C5130.4 533.498 5130.5 531.998 5130.6 530.398H5132.6C5132.6 532.898 5132.4 535.198 5132.1 537.198C5131.8 539.298 5131.5 541.398 5131.1 543.698L5130.7 545.798L5128.7 545.398Z" fill="black"/>
<path d="M5118 511.499L5118.3 509.599L5121 509.998C5122.6 510.298 5124.1 510.799 5125.5 511.599C5126.9 512.399 5127.9 513.399 5128.8 514.699C5129.7 515.899 5130.3 517.298 5130.6 518.898L5128.5 519.899C5128.3 518.499 5127.8 517.299 5127 516.099C5126.3 514.999 5125.4 514.099 5124.3 513.399C5123.2 512.699 5122 512.198 5120.7 511.998L5118 511.599V511.499ZM5118.1 510.999L5118.4 509.099L5121.2 509.498C5122.1 509.598 5123 509.598 5123.9 509.498C5124.8 509.298 5125.6 508.999 5126.4 508.599C5127.2 508.199 5128 507.598 5128.6 506.898C5129.3 506.198 5129.9 505.399 5130.3 504.599L5132 506.198C5131.2 507.498 5130.3 508.598 5129.1 509.498C5127.9 510.398 5126.6 510.998 5125.2 511.398C5123.8 511.798 5122.3 511.799 5120.8 511.599L5118 511.099L5118.1 510.999ZM5118.7 498.798L5119.1 496.398L5134.4 498.898L5134 501.298L5118.7 498.798ZM5123.2 505.299L5124.2 499.199L5126.2 499.498L5125.2 505.598L5123.2 505.299ZM5133.1 516.398L5135.9 499.099L5145.1 500.598L5144.7 502.999L5137.5 501.799L5135.1 516.699L5133.2 516.398H5133.1Z" fill="black"/>
<path d="M5122.8 489.7L5125 473L5127 473.3L5124.8 490L5122.8 489.7ZM5124.9 473.9L5125.2 471.5L5127.8 471.8C5128.9 471.9 5130 472.1 5131.2 472.3C5132.4 472.5 5133.7 472.7 5135.1 473.1C5136.5 473.5 5138 473.8 5139.7 474.4L5139.1 476.8C5136.7 476 5134.5 475.4 5132.6 475.1C5130.7 474.8 5129 474.5 5127.4 474.3L5124.8 474L5124.9 473.9ZM5132.1 484.2L5132.4 481.8L5142.7 483.2L5142.4 485.6L5132.1 484.2ZM5140.2 494.5L5143.3 471L5145.3 471.3L5142.2 494.8L5140.2 494.5Z" fill="black"/>
<path d="M5125.7 458.7L5125.9 456.3L5130 456.7L5130.8 449.2L5126.7 448.8L5126.9 446.4L5139.3 447.6L5138.1 459.8L5125.7 458.6V458.7ZM5125.8 440.9L5126 438.5L5143.8 440.3L5143.6 442.7L5125.8 440.9ZM5132 456.9L5136.5 457.3L5137.3 449.8L5132.8 449.4L5132.1 456.9H5132ZM5141.4 449.8L5141.6 447.7H5142.2C5143.4 447.9 5144.5 448.3 5145.5 448.9C5146.5 449.5 5147.3 450.3 5147.9 451.3C5148.6 452.3 5149.1 453.4 5149.5 454.6C5149.9 455.8 5150.2 457.1 5150.3 458.5L5148.3 459.2C5148.3 458 5148 456.9 5147.7 455.8C5147.4 454.7 5146.9 453.7 5146.4 452.9C5145.9 452 5145.2 451.3 5144.5 450.8C5143.7 450.3 5142.9 449.9 5142 449.8H5141.4ZM5141.4 449.4L5141.6 447.3H5142.2C5143.1 447.5 5144 447.3 5144.9 446.9C5145.8 446.5 5146.5 445.9 5147.2 445.2C5147.9 444.5 5148.5 443.6 5149.1 442.6C5149.6 441.6 5150.1 440.5 5150.4 439.4L5152.2 440.5C5151.8 441.8 5151.3 443 5150.7 444.1C5150 445.2 5149.3 446.2 5148.4 447C5147.5 447.8 5146.6 448.5 5145.5 448.9C5144.4 449.3 5143.3 449.5 5142.1 449.4H5141.5H5141.4Z" fill="black"/>
<path d="M5127.8 416.198L5128 413.798L5154.1 415.798L5153.9 418.198L5127.8 416.198ZM5129.1 433.098L5129.3 430.698L5145.5 431.898L5145.3 434.299L5129.1 433.098ZM5138.4 415.198L5138.8 410.398H5140.8L5140.4 415.298H5138.4V415.198ZM5144.1 434.198L5144.3 432.098C5144.4 430.198 5144.5 428.198 5144.5 426.198C5144.5 424.198 5144.3 422.099 5144 419.899H5146.1C5146.4 421.999 5146.5 424.198 5146.5 426.198C5146.5 428.198 5146.5 430.298 5146.3 432.198L5146.1 434.299H5144.1V434.198Z" fill="black"/>
<path d="M5129.4 389.9V387.5L5148.7 388.5V390.9L5129.4 389.9ZM5130.5 406.8L5131.1 395.9H5133.1L5132.6 406.9H5130.6L5130.5 406.8ZM5131 397.1V394.6C5133.4 394.7 5135.4 395.3 5137.2 396.4C5139 397.5 5140.5 399 5141.8 400.9C5143.1 402.8 5144 405 5144.7 407.6L5142.7 408.5C5142.1 406.3 5141.3 404.3 5140.3 402.7C5139.3 401.1 5138.1 399.7 5136.7 398.8C5135.3 397.9 5133.8 397.3 5132.1 397.2H5131V397.1ZM5137.4 388.6L5137.6 384H5139.7L5139.4 388.7H5137.4V388.6ZM5145.8 404.7V402.3L5153.2 402.7V405.1L5145.8 404.7ZM5152.3 405L5153.2 387.5H5155.2L5154.3 405.1H5152.3V405Z" fill="black"/>
<path d="M5130.8 363.799C5130.8 361.899 5131.1 360.299 5131.5 358.899C5131.9 357.499 5132.5 356.499 5133.3 355.699C5134.1 354.999 5135 354.599 5136 354.699C5137.1 354.699 5137.9 355.099 5138.7 355.899C5139.4 356.699 5140 357.799 5140.3 359.099C5140.7 360.499 5140.8 362.099 5140.8 363.999C5140.8 365.899 5140.5 367.499 5140.1 368.899C5139.7 370.299 5139.1 371.299 5138.3 372.099C5137.5 372.799 5136.6 373.199 5135.6 373.199C5134.5 373.199 5133.7 372.799 5132.9 371.999C5132.1 371.199 5131.6 370.199 5131.2 368.799C5130.8 367.399 5130.7 365.799 5130.7 363.899L5130.8 363.799ZM5132.7 363.799C5132.7 365.199 5132.7 366.399 5133 367.399C5133.2 368.399 5133.5 369.199 5134 369.799C5134.4 370.399 5135 370.599 5135.7 370.699C5136.3 370.699 5136.9 370.399 5137.4 369.899C5137.9 369.399 5138.2 368.599 5138.5 367.599C5138.8 366.599 5138.9 365.399 5139 363.999C5139 362.599 5139 361.399 5138.7 360.399C5138.5 359.399 5138.1 358.599 5137.7 358.099C5137.3 357.499 5136.7 357.199 5136.1 357.199C5135.4 357.199 5134.9 357.499 5134.4 357.999C5133.9 358.499 5133.6 359.299 5133.3 360.299C5133 361.299 5132.9 362.499 5132.9 363.899L5132.7 363.799ZM5139.2 369.999V367.599L5144.2 367.699V370.099L5139.2 369.999ZM5139.4 360.299V357.899L5144.4 357.999V360.399L5139.4 360.299ZM5143.3 375.899L5143.9 352.199H5145.8L5145.2 375.899H5143.3ZM5147.8 373.399L5148.2 355.299L5156.7 355.499V357.899L5150.1 357.699L5149.7 373.399H5147.8Z" fill="black"/>
<path d="M5130.6 331.302V328.902H5146.1V331.302H5130.6ZM5132.6 348.202V336.102H5143.9V348.202H5132.6ZM5134.5 338.502V345.902H5141.9V338.502H5134.5ZM5137.1 329.602V325.102H5139.1V329.602H5137.1ZM5147 337.302C5147 335.502 5147.2 334.002 5147.6 332.702C5148 331.402 5148.6 330.402 5149.3 329.702C5150 329.002 5150.9 328.602 5151.9 328.602C5152.9 328.602 5153.8 329.002 5154.5 329.702C5155.2 330.402 5155.8 331.402 5156.2 332.702C5156.6 334.002 5156.8 335.502 5156.8 337.302C5156.8 339.102 5156.6 340.601 5156.2 341.901C5155.8 343.201 5155.2 344.202 5154.5 344.902C5153.8 345.602 5152.9 345.902 5151.9 345.902C5150.9 345.902 5150 345.502 5149.3 344.802C5148.6 344.102 5148 343.102 5147.6 341.802C5147.2 340.502 5147 339.002 5147 337.202V337.302ZM5148.9 337.302C5148.9 338.602 5149 339.701 5149.2 340.601C5149.4 341.501 5149.8 342.302 5150.2 342.802C5150.6 343.302 5151.2 343.602 5151.8 343.602C5152.4 343.602 5153 343.302 5153.4 342.902C5153.8 342.402 5154.2 341.702 5154.4 340.702C5154.6 339.702 5154.8 338.602 5154.8 337.402C5154.8 336.202 5154.7 335.002 5154.5 334.102C5154.3 333.202 5153.9 332.402 5153.5 332.002C5153.1 331.502 5152.5 331.201 5151.9 331.201C5151.3 331.201 5150.7 331.502 5150.3 332.002C5149.9 332.502 5149.5 333.202 5149.3 334.102C5149.1 335.002 5148.9 336.202 5148.9 337.402V337.302Z" fill="black"/>
<path d="M5130.8 311.499C5130.8 308.599 5131.1 306.399 5131.8 304.699C5132.6 303.099 5133.7 302.199 5135.1 302.199C5136.6 302.199 5137.7 302.999 5138.5 304.599C5139.3 306.199 5139.7 308.398 5139.8 311.298C5139.8 314.198 5139.5 316.498 5138.8 318.098C5138.1 319.798 5136.9 320.598 5135.5 320.598C5134 320.598 5132.9 319.798 5132.1 318.198C5131.3 316.598 5130.9 314.299 5130.8 311.399V311.499ZM5132.6 311.499C5132.6 312.899 5132.8 314.099 5133 315.099C5133.2 316.099 5133.6 316.899 5134 317.399C5134.4 317.899 5134.9 318.198 5135.5 318.198C5136.1 318.198 5136.6 317.899 5137 317.399C5137.4 316.899 5137.7 316.099 5137.9 315.099C5138.1 314.099 5138.2 312.899 5138.1 311.499C5138.1 310.099 5137.9 308.799 5137.7 307.799C5137.5 306.799 5137.2 305.999 5136.7 305.499C5136.3 304.999 5135.8 304.699 5135.2 304.699C5134.6 304.699 5134.1 304.999 5133.7 305.499C5133.3 305.999 5133 306.799 5132.8 307.799C5132.6 308.799 5132.5 309.999 5132.6 311.499ZM5141.9 323.098L5141.4 299.398H5143.4L5143.8 323.098H5141.9ZM5146 320.199L5145.6 302.399H5151.5L5151.8 317.699H5155V319.998H5150.1L5149.8 304.699H5147.5L5147.8 320.199H5145.9H5146ZM5154.6 319.899L5154.2 301.399H5156.1L5156.5 319.899H5154.6Z" fill="black"/>
<path d="M5129 272.901V270.501L5155.1 269.301V271.701L5129 272.901ZM5132.4 289.501L5131.9 277.501L5148.8 276.701L5149.3 288.701L5132.4 289.501ZM5133.9 279.701L5134.2 287.001L5147.3 286.401L5147 279.101L5133.9 279.701ZM5139.4 270.601L5139.2 265.801H5141.2L5141.4 270.501H5139.4V270.601Z" fill="black"/>
<path d="M5130.1 262.198L5128.9 242.998H5130.8L5132 261.998H5130.1V262.198ZM5130.5 253.298V251.198H5131.5C5132.2 251.198 5132.8 250.998 5133.4 250.598C5134 250.198 5134.6 249.698 5135.1 249.098C5135.6 248.498 5136.1 247.798 5136.5 246.998C5136.9 246.198 5137.2 245.398 5137.5 244.498C5137.8 243.598 5137.9 242.698 5138 241.798L5140 242.598C5140 243.698 5139.7 244.698 5139.4 245.798C5139.1 246.798 5138.7 247.798 5138.2 248.698C5137.7 249.598 5137.1 250.398 5136.5 251.098C5135.8 251.798 5135.1 252.398 5134.3 252.798C5133.5 253.198 5132.6 253.498 5131.7 253.498H5130.6L5130.5 253.298ZM5130.5 253.898V251.798H5131.5C5132.4 251.798 5133.3 251.798 5134.2 252.198C5135 252.498 5135.9 252.998 5136.6 253.598C5137.3 254.198 5138 254.898 5138.6 255.798C5139.2 256.598 5139.7 257.498 5140.2 258.498C5140.6 259.498 5141 260.498 5141.2 261.498L5139.4 262.598C5139.2 261.698 5139 260.798 5138.6 259.898C5138.2 258.998 5137.8 258.198 5137.3 257.498C5136.8 256.798 5136.3 256.098 5135.7 255.598C5135.1 255.098 5134.5 254.598 5133.8 254.298C5133.1 253.998 5132.5 253.898 5131.8 253.898H5130.7H5130.5ZM5143.5 263.498L5142 239.898H5144L5145.5 263.398H5143.5V263.498ZM5144.1 252.898V250.498L5153.9 249.898L5154.1 252.298L5144.1 252.898Z" fill="black"/>
<path d="M5125.4 220.8L5125.2 218.4L5151.3 216.199L5151.5 218.6L5125.3 220.8H5125.4ZM5126.7 232L5126.5 229.6L5131.2 229.2L5131.4 231.6L5126.7 232ZM5131.1 238.3L5129.8 222.9L5131.8 222.7L5133.1 238.099L5131.1 238.3ZM5134.5 230.1C5134.4 228.9 5134.5 227.8 5135 226.8C5135.4 225.8 5136.1 225 5136.9 224.4C5137.7 223.8 5138.8 223.4 5139.9 223.3C5141.1 223.3 5142.1 223.3 5143.1 223.9C5144.1 224.4 5144.8 225.1 5145.4 226C5146 226.9 5146.3 228 5146.4 229.2C5146.4 230.4 5146.4 231.5 5145.9 232.5C5145.4 233.5 5144.8 234.3 5144 235C5143.2 235.7 5142.1 236 5141 236.1C5139.9 236.2 5138.8 236.1 5137.8 235.5C5136.9 235 5136.1 234.3 5135.5 233.4C5134.9 232.5 5134.6 231.4 5134.4 230.2L5134.5 230.1ZM5136 218L5135.6 213.2L5137.6 213L5138 217.8L5136 218ZM5136.5 229.9C5136.5 230.7 5136.8 231.4 5137.2 232C5137.6 232.6 5138.1 233 5138.7 233.3C5139.3 233.6 5140 233.699 5140.8 233.699C5141.6 233.699 5142.3 233.4 5142.8 233C5143.3 232.6 5143.8 232.1 5144.1 231.4C5144.4 230.8 5144.5 230 5144.4 229.3C5144.4 228.5 5144.1 227.8 5143.7 227.2C5143.3 226.6 5142.8 226.2 5142.2 225.9C5141.6 225.6 5140.9 225.5 5140.1 225.5C5139.3 225.5 5138.6 225.799 5138.1 226.199C5137.5 226.599 5137.1 227.1 5136.8 227.8C5136.5 228.5 5136.4 229.2 5136.5 229.9Z" fill="black"/>
<path d="M5125.3 209.301L5125 206.9L5132.9 206.101L5133.2 208.501L5125.3 209.301ZM5132.2 208.601L5130.3 190.901L5132.2 190.7L5134.1 208.401L5132.2 208.601ZM5137.9 211.2L5135.4 187.5L5137.4 187.301L5139.9 211.001L5137.9 211.2ZM5142.2 207.701L5142 205.301L5148.2 204.701L5148.5 207.101L5142.3 207.801L5142.2 207.701ZM5147.9 207.101L5146 189.001L5148 188.8L5149.9 206.9L5147.9 207.101Z" fill="black"/>
<path d="M5118.7 161.201L5118.4 158.801L5136 156.501L5136.3 158.901L5118.7 161.201ZM5121.8 169.102L5121.5 166.602C5123.7 166.302 5125.8 166.602 5127.7 167.202C5129.6 167.902 5131.4 169.101 5132.9 170.701C5134.5 172.301 5135.8 174.302 5136.9 176.702L5135.1 178.002C5134.1 175.902 5133 174.101 5131.7 172.701C5130.4 171.301 5129 170.302 5127.5 169.702C5126 169.102 5124.4 168.902 5122.7 169.102H5121.8ZM5123 178.201L5121.6 167.402L5123.6 167.101L5125 177.902L5123.1 178.201H5123ZM5126.7 165.801L5125.9 159.702L5127.9 159.401L5128.7 165.502L5126.7 165.801ZM5134.9 166.002L5134.6 163.901H5135.8C5136.7 163.601 5137.6 163.301 5138.3 162.701C5139 162.101 5139.7 161.402 5140.2 160.502C5140.7 159.602 5141.2 158.601 5141.5 157.501C5141.8 156.401 5142 155.302 5142 154.102L5144 154.802C5144 156.102 5143.7 157.402 5143.3 158.602C5142.9 159.802 5142.4 160.901 5141.7 161.901C5141 162.901 5140.2 163.701 5139.2 164.401C5138.2 165.001 5137.1 165.501 5135.9 165.601H5134.7L5134.9 166.002ZM5135 166.301L5134.7 164.302L5135.9 164.102C5137.1 163.902 5138.3 164.101 5139.4 164.501C5140.5 164.901 5141.5 165.501 5142.4 166.301C5143.3 167.101 5144.1 168.102 5144.8 169.202C5145.5 170.302 5146 171.502 5146.5 172.802L5144.7 174.001C5144.3 172.901 5143.9 171.801 5143.3 170.801C5142.7 169.801 5142.1 169.001 5141.3 168.201C5140.5 167.401 5139.7 166.902 5138.8 166.602C5137.9 166.202 5137 166.101 5136.1 166.201H5134.9L5135 166.301Z" fill="black"/>
<path d="M5141.4 148.1C5141.4 148.6 5141.4 149.1 5141 149.5C5140.7 149.9 5140.2 150.2 5139.7 150.3C5139.1 150.3 5138.6 150.3 5138.2 150C5137.8 149.7 5137.5 149.3 5137.5 148.7C5137.5 148.2 5137.5 147.7 5137.8 147.3C5138.1 146.9 5138.6 146.6 5139.2 146.5C5139.8 146.5 5140.3 146.5 5140.7 146.9C5141.1 147.2 5141.4 147.6 5141.4 148.1Z" fill="black"/>
<path d="M0.998047 450C0.998047 450 709.698 1571.5 1560 1518C2323 1470 3164 507 4033 727C4383.4 815.7 4863 800 4854 80" stroke="black" stroke-width="2" stroke-miterlimit="10"/>
</svg>
