<svg width="2835" height="657" viewBox="0 0 2835 657" fill="none" xmlns="http://www.w3.org/2000/svg">
<g clip-path="url(#clip0_95_562)">
<path d="M35 1C209 711 1104.1 173.9 1465.3 452.2C2250.6 1057.4 2834 118 2834 118" stroke="black" stroke-width="2" stroke-miterlimit="10"/>
<path d="M609.399 314.301L612.099 314.701L609.699 333.2L617.899 334.301L617.599 336.801L606.699 335.401L609.399 314.5V314.301Z" fill="black"/>
<path d="M631.001 316.799L633.801 317.099L639.701 338.799L636.801 338.499L635.401 333.299L626.501 332.499L624.201 337.399L621.301 337.099L631.001 316.699V316.799ZM627.701 330.099L634.901 330.699L632.201 320.199L627.701 330.099Z" fill="black"/>
<path d="M653 318.398H655.7L654.9 337.098L663.2 337.499V339.999L652.1 339.498L653 318.398Z" fill="black"/>
<path d="M674.899 319.102H677.699L685.099 340.402H682.199L680.499 335.201L671.499 335.002L669.599 340.101H666.699L674.899 319.102ZM672.399 332.601H679.599L676.199 322.502L672.399 332.601Z" fill="black"/>
<path d="M691.1 321.899H691.3L691.4 340.399H688.7L688.5 319.299H692.4L703.5 337.699H703.3L703.2 319.199H705.9L706.1 340.299H702.2L691.1 321.899Z" fill="black"/>
<path d="M709.699 329.7C709.699 328.2 709.899 326.7 710.399 325.4C710.899 324.1 711.599 322.9 712.499 321.9C713.399 320.9 714.5 320.1 715.8 319.5C717.1 318.9 718.399 318.6 719.899 318.5C721.399 318.5 722.799 318.7 724.099 319.2C725.399 319.7 726.499 320.4 727.499 321.4C728.499 322.4 729.199 323.5 729.799 324.8C730.399 326.1 730.699 327.5 730.699 329.1C730.699 330.7 730.499 332.1 729.999 333.4C729.499 334.7 728.799 335.9 727.899 336.9C726.999 337.9 725.9 338.7 724.6 339.3C723.4 339.9 721.999 340.2 720.399 340.2C718.899 340.2 717.499 340 716.199 339.5C714.899 339 713.8 338.2 712.8 337.3C711.8 336.3 711.099 335.2 710.499 333.9C709.999 332.6 709.7 331.2 709.6 329.6L709.699 329.7ZM712.599 329.6C712.599 331.2 712.999 332.6 713.699 333.8C714.399 335 715.3 336 716.5 336.7C717.7 337.4 718.999 337.7 720.499 337.7C721.999 337.7 723.299 337.3 724.399 336.5C725.499 335.7 726.4 334.7 727 333.4C727.6 332.1 727.899 330.7 727.899 329.1C727.899 327.5 727.499 326.1 726.799 324.9C726.099 323.7 725.2 322.7 724 322C722.8 321.3 721.499 321 719.999 321C718.499 321 717.199 321.4 716.099 322.2C714.999 323 714.099 324 713.499 325.3C712.899 326.6 712.599 328 712.599 329.6ZM726.4 340.9C727 340.9 727.499 340.9 727.999 340.7C728.399 340.5 728.799 340.4 729.099 340.2C729.399 340 729.5 339.9 729.5 339.9L730.699 341.8C730.699 341.8 729.999 342.5 729.299 342.9C728.599 343.3 727.7 343.5 726.5 343.5C725.7 343.5 725.1 343.5 724.6 343.3C724.1 343.2 723.599 343 723.099 342.8C722.599 342.6 722.199 342.4 721.599 342.3C721.099 342.1 720.499 342.1 719.799 342.1C719.199 342.1 718.599 342.2 718.099 342.5C717.599 342.8 717.199 343 716.899 343.2C716.599 343.4 716.4 343.6 716.4 343.6L714.999 342.1C715.699 341.4 716.399 340.9 717.299 340.5C718.099 340.1 719.1 339.9 720.3 339.8C721.1 339.8 721.899 339.8 722.499 340.1C723.199 340.3 723.799 340.5 724.399 340.7C724.999 340.9 725.7 341 726.4 341V340.9Z" fill="black"/>
<path d="M746.6 317.799H749.301L749.901 330.799C749.901 332.499 749.7 333.999 749.1 335.299C748.5 336.599 747.601 337.599 746.401 338.299C745.201 338.999 743.9 339.399 742.3 339.499C740.7 339.499 739.301 339.3 738.101 338.7C736.901 338.1 735.901 337.199 735.101 335.899C734.401 334.699 733.901 333.199 733.901 331.499L733.301 318.399H736L736.6 331.2C736.6 332.4 736.901 333.5 737.401 334.3C737.901 335.2 738.601 335.9 739.401 336.3C740.201 336.7 741.2 337 742.2 336.9C743.2 336.9 744.101 336.599 744.901 336.099C745.701 335.599 746.3 334.899 746.7 333.899C747.1 332.999 747.3 331.899 747.2 330.699L746.6 317.699V317.799Z" fill="black"/>
<path d="M754 317.501L766.5 316.801V319.301L756.9 319.801L757.3 326.601L766.9 326.101V328.501L757.5 329L757.9 335.901L767.7 335.401V337.901L755.4 338.601L754.2 317.501H754Z" fill="black"/>
<path d="M779.799 315.999L784.799 315.698C786.999 315.598 788.899 315.899 790.399 316.699C791.899 317.499 793.1 318.698 793.9 320.198C794.7 321.698 795.2 323.499 795.3 325.599C795.4 327.699 795.3 329.499 794.6 331.099C794 332.699 792.999 334.098 791.599 335.098C790.199 336.098 788.399 336.699 786.099 336.799L781.099 337.098L779.699 315.999H779.799ZM782.7 318.298L783.8 334.399H785.8C787.5 334.199 788.799 333.699 789.799 332.999C790.799 332.199 791.5 331.199 791.9 329.999C792.3 328.799 792.499 327.398 792.399 325.798C792.299 324.198 792 322.899 791.4 321.699C790.8 320.499 790 319.598 788.9 318.998C787.8 318.398 786.399 318.098 784.699 318.198H782.7V318.298Z" fill="black"/>
<path d="M798.801 314.7L811.201 313.801L811.401 316.301L801.701 317L802.2 323.801L811.801 323.101L812.001 325.501L802.401 326.201L802.901 333.101L812.601 332.401L812.801 334.901L800.401 335.8L798.801 314.7Z" fill="black"/>
<path d="M824.9 312.7L827.601 312.5L829.1 331.1L837.4 330.4L837.601 332.9L826.6 333.8L824.9 312.8V312.7Z" fill="black"/>
<path d="M841.799 311.4C841.799 311.4 842.699 311.401 842.999 311.801C843.299 312.101 843.499 312.501 843.499 313.101C843.499 313.701 843.499 314.601 843.299 315.601C843.099 316.701 842.899 317.701 842.699 318.801H841.599C841.399 318.201 841.199 317.501 840.999 316.801C840.799 316.101 840.699 315.401 840.499 314.801C840.299 314.201 840.299 313.7 840.199 313.3C840.199 312.7 840.199 312.301 840.499 311.901C840.799 311.601 841.099 311.401 841.599 311.301L841.799 311.4Z" fill="black"/>
<path d="M848.4 310.801L860.8 309.801L861 312.301L851.3 313.101L851.9 319.901L861.4 319.101L861.6 321.501L852.1 322.301L852.7 329.201L862.4 328.401L862.6 330.901L850.2 331.901L848.4 310.901V310.801Z" fill="black"/>
<path d="M884.799 307.699L886.599 328.7L883.899 328.899L882.599 313.7V311.399L882.199 313.999L878.299 328.199L875.599 328.399L869.399 315.099L868.599 312.599L868.899 314.9L870.199 330.099L867.499 330.299L865.699 309.3L869.299 308.999L876.399 325L876.699 326.099V325L881.199 308L884.799 307.699Z" fill="black"/>
<path d="M890.4 307.201L896.401 306.702C897.701 306.602 898.901 306.701 900.001 307.001C901.101 307.301 902.001 307.902 902.701 308.802C903.401 309.702 903.801 310.802 903.901 312.302C904.001 313.702 903.901 315.002 903.301 316.002C902.801 317.002 902 317.801 901 318.401C900 319.001 898.801 319.302 897.501 319.402L894.301 319.701L895.001 328.002L892.3 328.201L890.5 307.101L890.4 307.201ZM894.001 317.402L896.501 317.201C897.401 317.201 898.201 316.902 898.901 316.602C899.601 316.302 900.201 315.801 900.601 315.101C901.001 314.501 901.1 313.601 901.1 312.601C901.1 311.601 900.701 310.801 900.201 310.201C899.701 309.601 899.101 309.302 898.301 309.102C897.501 308.902 896.701 308.901 895.801 308.901L893.301 309.102L894.001 317.201V317.402Z" fill="black"/>
<path d="M907.6 305.801L910.3 305.602L912.1 326.601L909.4 326.802L907.6 305.801Z" fill="black"/>
<path d="M915.699 305.1L923.099 304.5C924.199 304.5 925.299 304.5 926.299 305C927.299 305.4 928.099 306.001 928.699 306.901C929.299 307.801 929.699 308.8 929.799 310.1C929.899 311.4 929.799 312.5 929.299 313.4C928.899 314.3 928.299 315 927.599 315.5C926.899 316 926.299 316.3 925.599 316.4L931.599 325.1L928.499 325.4L922.899 316.901L919.499 317.2L920.199 326.1L917.499 326.301L915.799 305.3L915.699 305.1ZM919.299 315L922.999 314.7C924.299 314.7 925.299 314.2 925.999 313.5C926.799 312.8 927.099 311.8 926.999 310.4C926.899 309 926.399 308.1 925.499 307.5C924.599 307 923.599 306.7 922.299 306.8L918.599 307.1L919.199 315H919.299Z" fill="black"/>
<path d="M934.299 303.5L946.699 302.5L946.899 305L937.1 305.8L937.599 312.599L947.199 311.8L947.399 314.2L937.8 315L938.3 321.9L948.099 321.1L948.3 323.6L935.9 324.6L934.199 303.5H934.299Z" fill="black"/>
<path d="M955.6 318.999C956.3 318.999 956.8 319.099 957.3 319.599C957.8 319.999 958.1 320.598 958.1 321.398C958.1 322.198 958.1 322.899 957.8 323.699C957.5 324.399 957.2 325.098 956.7 325.698C956.2 326.298 955.7 326.799 955.1 327.099L954 326.099C954 326.099 954.6 325.699 955 325.399C955.4 325.099 955.7 324.799 955.9 324.399C956.2 323.999 956.3 323.598 956.4 323.198C956.2 323.298 955.9 323.399 955.6 323.399C955.1 323.399 954.6 323.299 954.1 322.899C953.7 322.499 953.4 321.998 953.4 321.398C953.4 320.998 953.4 320.598 953.6 320.198C953.8 319.798 954 319.599 954.4 319.299C954.7 319.099 955.1 318.898 955.5 318.898L955.6 318.999Z" fill="black"/>
<path d="M970.301 300.801L973 300.602L974.3 319.201L982.601 318.601L982.801 321.101L971.8 321.902L970.301 300.801Z" fill="black"/>
<path d="M992.4 299.302L995.2 299.102L1004.4 319.702L1001.5 319.902L999.3 314.902L990.4 315.502L988.9 320.701L986 320.901L992.4 299.302ZM991.1 313.002L998.3 312.502L994.1 302.502L991.2 312.902L991.1 313.002Z" fill="black"/>
<path d="M1014.9 297.802L1017.6 297.602L1018.6 316.202L1026.9 315.702V318.202L1016 318.802L1014.8 297.702L1014.9 297.802Z" fill="black"/>
<path d="M1036.9 296.699H1039.7L1048.5 317.299H1045.6L1043.5 312.399L1034.6 312.799L1033 317.999H1030.1L1036.9 296.699ZM1035.4 310.299L1042.6 309.899L1038.5 299.899L1035.4 310.299Z" fill="black"/>
<path d="M1053.3 298.498H1053.5L1054.2 316.998H1051.5L1050.7 295.998L1054.6 295.798L1066.3 313.898H1066.1L1065.4 295.398H1068.1L1068.9 316.398L1065 316.598L1053.4 298.498H1053.3Z" fill="black"/>
<path d="M1072.5 305.799C1072.5 304.299 1072.7 302.799 1073.2 301.499C1073.7 300.199 1074.4 298.999 1075.3 297.999C1076.2 296.999 1077.3 296.199 1078.6 295.599C1079.9 294.999 1081.2 294.699 1082.7 294.699C1084.2 294.699 1085.6 294.899 1086.9 295.399C1088.2 295.899 1089.3 296.699 1090.3 297.599C1091.3 298.599 1092 299.699 1092.6 300.999C1093.2 302.299 1093.5 303.699 1093.5 305.299C1093.5 306.799 1093.3 308.299 1092.8 309.599C1092.3 310.899 1091.6 312.099 1090.7 313.099C1089.8 314.099 1088.7 314.899 1087.4 315.499C1086.2 316.099 1084.8 316.399 1083.2 316.399C1081.7 316.399 1080.3 316.199 1079 315.699C1077.7 315.199 1076.6 314.399 1075.6 313.499C1074.6 312.499 1073.9 311.399 1073.3 310.099C1072.8 308.799 1072.5 307.399 1072.4 305.799H1072.5ZM1075.4 305.699C1075.4 307.299 1075.8 308.699 1076.5 309.899C1077.2 311.099 1078.1 312.099 1079.3 312.799C1080.5 313.499 1081.8 313.9 1083.3 313.8C1084.8 313.7 1086.1 313.399 1087.2 312.599C1088.3 311.799 1089.2 310.799 1089.8 309.499C1090.4 308.199 1090.7 306.799 1090.7 305.199C1090.7 303.599 1090.3 302.199 1089.6 300.999C1088.9 299.799 1088 298.799 1086.8 298.099C1085.6 297.399 1084.3 297.099 1082.8 297.099C1081.3 297.099 1080 297.499 1078.9 298.299C1077.8 299.099 1076.9 300.1 1076.3 301.3C1075.7 302.6 1075.4 303.999 1075.4 305.599V305.699ZM1089.2 316.999C1089.8 316.999 1090.3 316.999 1090.8 316.799C1091.3 316.699 1091.6 316.5 1091.9 316.3C1092.2 316.1 1092.3 315.999 1092.3 315.999L1093.5 317.899C1093.5 317.899 1092.8 318.599 1092.1 318.999C1091.4 319.399 1090.5 319.599 1089.3 319.599C1088.5 319.599 1087.9 319.6 1087.4 319.4C1086.9 319.3 1086.4 319.099 1085.9 318.899C1085.4 318.699 1085 318.499 1084.4 318.399C1083.8 318.299 1083.3 318.199 1082.6 318.199C1081.9 318.199 1081.4 318.399 1080.9 318.599C1080.4 318.799 1080 319.099 1079.7 319.299C1079.4 319.499 1079.2 319.699 1079.2 319.699L1077.8 318.199C1078.5 317.499 1079.2 316.999 1080.1 316.599C1080.9 316.199 1081.9 315.999 1083.1 315.899C1083.9 315.899 1084.7 315.899 1085.3 316.099C1085.9 316.299 1086.6 316.499 1087.2 316.699C1087.8 316.899 1088.5 316.999 1089.2 316.999Z" fill="black"/>
<path d="M1110.1 294.401H1112.8L1113 307.501C1113 309.201 1112.7 310.7 1112 312C1111.3 313.3 1110.4 314.201 1109.2 314.901C1108 315.601 1106.6 315.901 1105.1 316.001C1103.5 316.001 1102.1 315.701 1100.9 315.001C1099.7 314.301 1098.7 313.4 1098 312.1C1097.3 310.9 1096.9 309.4 1096.9 307.6L1096.7 294.5H1099.4L1099.6 307.401C1099.6 308.601 1099.9 309.701 1100.3 310.601C1100.7 311.501 1101.4 312.2 1102.2 312.7C1103 313.2 1103.9 313.401 1104.9 313.401C1105.9 313.401 1106.8 313.1 1107.6 312.6C1108.4 312.1 1109 311.401 1109.5 310.501C1109.9 309.601 1110.2 308.501 1110.2 307.301L1110 294.301L1110.1 294.401Z" fill="black"/>
<path d="M1117.7 294.398H1130.2V296.898H1120.4V303.698H1130V306.098H1120.4V312.998H1130.2V315.498H1117.7V294.398Z" fill="black"/>
<path d="M1144.6 294.5H1149.6C1151.9 294.6 1153.7 295.1 1155.1 296.1C1156.5 297 1157.6 298.3 1158.3 299.9C1159 301.5 1159.3 303.3 1159.3 305.4C1159.3 307.5 1158.9 309.3 1158.1 310.8C1157.4 312.4 1156.3 313.6 1154.8 314.5C1153.3 315.4 1151.5 315.8 1149.2 315.8H1144.2L1144.6 294.6V294.5ZM1147.3 297.1L1147 313.2H1149C1150.7 313.2 1152 313 1153.1 312.3C1154.2 311.6 1155 310.7 1155.5 309.5C1156 308.3 1156.3 306.9 1156.4 305.4C1156.4 303.8 1156.2 302.4 1155.7 301.2C1155.2 300 1154.5 299 1153.4 298.3C1152.3 297.6 1151 297.2 1149.3 297.2H1147.3V297.1Z" fill="black"/>
<path d="M1163.7 294.898L1176.2 295.298V297.798L1166.3 297.499L1166.1 304.298L1175.7 304.598V306.998L1166 306.698L1165.8 313.598L1175.6 313.898V316.398L1163 315.998L1163.7 294.898Z" fill="black"/>
<path d="M1190.5 296H1193.2L1192.2 314.8L1200.5 315.3V317.8L1189.3 317.2L1190.5 296.1V296Z" fill="black"/>
<path d="M1207.6 297.102C1207.6 297.102 1208.4 297.302 1208.7 297.702C1209 298.002 1209.1 298.502 1209.1 299.002C1209.1 299.602 1208.9 300.402 1208.5 301.502C1208.2 302.502 1207.8 303.602 1207.5 304.602H1206.4C1206.4 303.802 1206.2 303.102 1206.2 302.402C1206.2 301.702 1206.1 301.002 1206 300.402C1206 299.802 1206 299.301 1206 298.901C1206 298.301 1206.2 297.901 1206.5 297.601C1206.8 297.301 1207.2 297.202 1207.7 297.202L1207.6 297.102Z" fill="black"/>
<path d="M1220.6 298L1223.4 298.2L1229.5 319.9L1226.6 319.7L1225.2 314.5L1216.3 313.8L1214 318.7L1211.1 318.5L1220.6 298.1V298ZM1217.4 311.3L1224.6 311.9L1221.8 301.5L1217.4 311.4V311.3Z" fill="black"/>
<path d="M1247.7 300.502L1250.4 300.801L1249.1 313.802C1248.9 315.502 1248.4 317.001 1247.6 318.201C1246.8 319.401 1245.7 320.201 1244.5 320.801C1243.2 321.301 1241.8 321.501 1240.3 321.401C1238.7 321.201 1237.4 320.802 1236.2 320.002C1235.1 319.202 1234.2 318.202 1233.6 316.802C1233 315.502 1232.8 314.002 1233 312.202L1234.3 299.102L1237 299.402L1235.7 312.302C1235.6 313.502 1235.7 314.602 1236.1 315.502C1236.5 316.402 1237 317.202 1237.8 317.802C1238.6 318.402 1239.4 318.702 1240.5 318.802C1241.5 318.802 1242.4 318.801 1243.3 318.401C1244.1 318.001 1244.8 317.401 1245.4 316.501C1246 315.701 1246.3 314.601 1246.4 313.401L1247.7 300.502Z" fill="black"/>
<path d="M1259.6 304.302L1253.9 303.602L1254.2 301.102L1268.2 302.801L1267.9 305.301L1262.3 304.601L1260 323.102L1257.3 322.801L1259.6 304.302Z" fill="black"/>
<path d="M1272.5 303.398L1279.8 304.498C1280.9 304.698 1281.9 304.999 1282.8 305.599C1283.7 306.199 1284.3 306.999 1284.7 307.999C1285.1 308.999 1285.2 310.098 1285.1 311.398C1284.9 312.698 1284.5 313.698 1283.9 314.498C1283.3 315.298 1282.6 315.799 1281.8 316.099C1281 316.399 1280.3 316.598 1279.7 316.498L1283.6 326.299L1280.5 325.898L1276.9 316.398L1273.5 315.898L1272.2 324.698L1269.5 324.299L1272.5 303.398ZM1273.8 313.898L1277.4 314.399C1278.6 314.599 1279.7 314.398 1280.6 313.898C1281.5 313.398 1282 312.499 1282.2 311.099C1282.4 309.699 1282.2 308.699 1281.4 307.999C1280.7 307.299 1279.7 306.799 1278.4 306.699L1274.7 306.199L1273.6 313.998L1273.8 313.898Z" fill="black"/>
<path d="M1291 306.102L1303.3 308.102L1302.9 310.602L1293.3 309.001L1292.2 315.801L1301.7 317.402L1301.3 319.802L1291.8 318.201L1290.7 325.002L1300.3 326.601L1299.9 329.101L1287.6 327.101L1291 306.302V306.102Z" fill="black"/>
<path d="M1317.4 310.699L1329.6 313.199L1329.1 315.6L1319.5 313.7L1318.2 320.4L1327.6 322.3L1327.1 324.699L1317.7 322.799L1316.3 329.599L1325.9 331.499L1325.4 333.899L1313.2 331.399L1317.4 310.699Z" fill="black"/>
<path d="M1342.5 326.002L1347.5 338.802L1344.1 338.002L1340.2 327.802L1332.3 335.302L1329.1 334.501L1339 325.101L1334.5 314.102L1337.9 314.902L1341.3 323.502L1348 317.202L1351.3 317.902L1342.6 325.901L1342.5 326.002Z" fill="black"/>
<path d="M1352 333.699L1352.6 331.398L1360.6 333.399L1360 335.698L1352 333.699Z" fill="black"/>
<path d="M1368.6 322.5L1380.6 325.9L1379.9 328.3L1370.5 325.699L1368.7 332.3L1377.9 334.9L1377.3 337.2L1368.1 334.6L1366.2 341.2L1375.6 343.8L1374.9 346.2L1362.9 342.8L1368.6 322.5Z" fill="black"/>
<path d="M1404.3 333.099L1397.9 353.198L1395.3 352.398L1399.9 337.898L1400.7 335.698L1399.4 337.998L1390.4 349.598L1387.8 348.799L1387.1 334.098L1387.3 331.498L1386.7 333.799L1382.1 348.298L1379.5 347.499L1385.9 327.398L1389.4 328.498L1389.9 345.998V347.098L1390.3 346.098L1400.8 331.998L1404.3 333.099Z" fill="black"/>
<path d="M1410 335.102L1415.6 337.102C1416.8 337.502 1417.9 338.102 1418.8 338.902C1419.6 339.702 1420.2 340.602 1420.5 341.702C1420.8 342.802 1420.7 344.002 1420.2 345.402C1419.7 346.802 1419 347.802 1418.1 348.502C1417.2 349.202 1416.2 349.602 1415 349.702C1413.8 349.702 1412.6 349.702 1411.4 349.202L1408.3 348.102L1405.5 356.002L1402.9 355.102L1410 335.202V335.102ZM1409 345.802L1411.3 346.602C1412.2 346.902 1413 347.002 1413.8 347.002C1414.6 347.002 1415.3 346.802 1415.9 346.402C1416.5 346.002 1417 345.302 1417.3 344.302C1417.6 343.302 1417.7 342.502 1417.5 341.802C1417.3 341.102 1416.9 340.502 1416.2 340.002C1415.6 339.502 1414.8 339.202 1414 338.802L1411.6 338.002L1408.9 345.702L1409 345.802Z" fill="black"/>
<path d="M1426.7 341.102L1429.3 342.101L1421.8 361.902L1419.2 360.901L1426.7 341.202V341.102Z" fill="black"/>
<path d="M1434.5 344L1441.3 346.8C1442.4 347.2 1443.2 347.8 1443.9 348.6C1444.6 349.4 1445 350.3 1445.2 351.4C1445.4 352.5 1445.2 353.6 1444.7 354.8C1444.2 356 1443.6 356.9 1442.8 357.5C1442 358.1 1441.2 358.5 1440.3 358.6C1439.5 358.7 1438.8 358.6 1438.2 358.6L1439.6 369L1436.7 367.8L1435.5 357.7L1432.3 356.4L1428.9 364.7L1426.4 363.7L1434.3 344.1L1434.5 344ZM1433.2 354.5L1436.6 355.9C1437.8 356.4 1438.9 356.5 1439.8 356.2C1440.7 355.9 1441.6 355.1 1442.1 353.9C1442.6 352.6 1442.6 351.5 1442.1 350.7C1441.6 349.8 1440.7 349.2 1439.6 348.7L1436.2 347.3L1433.2 354.6V354.5Z" fill="black"/>
<path d="M1452.2 351.301L1463.6 356.4L1462.6 358.701L1453.7 354.7L1450.9 361L1459.7 364.901L1458.7 367.1L1449.9 363.2L1447.1 369.5L1456 373.5L1455 375.8L1443.6 370.7L1452.2 351.4V351.301Z" fill="black"/>
<path d="M1477.6 384.101C1478.8 384.701 1479.9 385.001 1480.9 385.201C1481.9 385.301 1482.7 385.301 1483.2 385.201V387.801C1482.6 388.001 1481.6 388.001 1480.4 387.801C1479.2 387.601 1477.8 387.201 1476.3 386.401C1474.9 385.701 1473.8 384.801 1472.8 383.701C1471.9 382.601 1471.2 381.401 1470.7 380.101C1470.3 378.801 1470.1 377.401 1470.2 375.901C1470.2 374.501 1470.7 373.101 1471.4 371.701C1472.1 370.301 1473 369.201 1474.1 368.201C1475.2 367.301 1476.4 366.601 1477.8 366.101C1479.2 365.601 1480.5 365.501 1482 365.601C1483.4 365.701 1484.9 366.101 1486.2 366.801C1487.7 367.601 1488.9 368.401 1489.7 369.301C1490.6 370.201 1491.1 371.001 1491.3 371.601L1489.2 373.201C1489.2 373.201 1488.6 372.101 1487.8 371.301C1487.1 370.501 1486.2 369.901 1485 369.301C1483.9 368.801 1482.9 368.401 1481.8 368.301C1480.7 368.301 1479.7 368.301 1478.7 368.701C1477.7 369.001 1476.8 369.501 1476 370.301C1475.2 371.001 1474.5 371.901 1474 372.901C1473.5 374.001 1473.1 375.001 1473 376.101C1473 377.201 1473 378.201 1473.3 379.201C1473.6 380.201 1474.1 381.101 1474.8 381.901C1475.5 382.701 1476.4 383.401 1477.4 383.901L1477.6 384.101Z" fill="black"/>
<path d="M1490.1 381.201C1490.9 379.901 1491.8 378.701 1492.9 377.901C1494 377.001 1495.2 376.301 1496.5 375.901C1497.8 375.501 1499.2 375.401 1500.6 375.501C1502 375.701 1503.3 376.101 1504.6 376.801C1505.9 377.501 1507 378.501 1507.8 379.601C1508.6 380.701 1509.2 381.901 1509.6 383.301C1509.9 384.601 1510 386.001 1509.8 387.401C1509.6 388.801 1509.1 390.201 1508.4 391.501C1507.6 392.801 1506.7 394.001 1505.6 394.901C1504.5 395.801 1503.3 396.501 1502 396.901C1500.7 397.301 1499.3 397.401 1498 397.301C1496.7 397.201 1495.3 396.701 1493.9 396.001C1492.6 395.201 1491.5 394.301 1490.6 393.201C1489.7 392.101 1489.2 390.901 1488.8 389.501C1488.5 388.201 1488.4 386.801 1488.6 385.401C1488.8 384.001 1489.3 382.601 1490.1 381.301V381.201ZM1492.5 382.601C1491.7 384.001 1491.3 385.401 1491.3 386.801C1491.3 388.201 1491.5 389.501 1492.2 390.701C1492.8 391.901 1493.8 392.901 1495.1 393.601C1496.4 394.301 1497.8 394.701 1499.1 394.601C1500.5 394.601 1501.7 394.101 1502.9 393.301C1504.1 392.501 1505.1 391.501 1505.8 390.101C1506.6 388.701 1507 387.301 1507 385.901C1507 384.501 1506.8 383.201 1506.1 382.001C1505.5 380.801 1504.5 379.801 1503.2 379.101C1501.9 378.401 1500.6 378.001 1499.2 378.101C1497.8 378.201 1496.6 378.601 1495.4 379.401C1494.2 380.201 1493.2 381.201 1492.5 382.601Z" fill="black"/>
<path d="M1517.4 384.699L1519.7 386.099L1509.9 401.999L1517 406.399L1515.7 408.499L1506.3 402.699L1517.4 384.699Z" fill="black"/>
<path d="M1524.3 401.299C1525.2 399.999 1526.2 398.998 1527.4 398.198C1528.6 397.398 1529.8 396.798 1531.2 396.498C1532.5 396.198 1533.9 396.198 1535.3 396.498C1536.7 396.798 1538 397.299 1539.2 398.099C1540.4 398.899 1541.4 399.899 1542.2 401.099C1543 402.299 1543.4 403.499 1543.7 404.899C1543.9 406.299 1543.9 407.598 1543.6 408.998C1543.3 410.398 1542.7 411.699 1541.9 412.999C1541 414.299 1540 415.299 1538.9 416.199C1537.7 416.999 1536.5 417.599 1535.1 417.899C1533.7 418.199 1532.4 418.199 1531 417.899C1529.6 417.699 1528.3 417.099 1527.1 416.199C1525.8 415.399 1524.8 414.298 1524.1 413.198C1523.3 411.998 1522.9 410.799 1522.6 409.399C1522.4 408.099 1522.4 406.698 1522.7 405.298C1523 403.898 1523.6 402.599 1524.5 401.299H1524.3ZM1526.7 402.899C1525.8 404.199 1525.3 405.598 1525.1 406.998C1524.9 408.398 1525.1 409.699 1525.7 410.999C1526.2 412.199 1527.1 413.299 1528.4 414.099C1529.6 414.899 1531 415.399 1532.3 415.399C1533.7 415.399 1535 415.099 1536.2 414.399C1537.4 413.699 1538.5 412.698 1539.4 411.398C1540.3 410.098 1540.8 408.699 1541 407.299C1541.2 405.899 1541 404.598 1540.4 403.298C1539.9 401.998 1539 400.998 1537.7 400.198C1536.5 399.398 1535.2 398.898 1533.8 398.898C1532.4 398.898 1531.1 399.199 1529.9 399.899C1528.7 400.599 1527.6 401.599 1526.7 402.899Z" fill="black"/>
<path d="M1552.1 410.6H1552.2L1541.2 425.6L1539 424L1551.6 407L1554.7 409.3L1552.5 430.7H1552.3L1563.3 415.8L1565.5 417.4L1552.9 434.401L1549.8 432.1L1552.1 410.7V410.6Z" fill="black"/>
<path d="M1570 421L1572.2 422.7L1559.1 439.3L1556.9 437.6L1570 421Z" fill="black"/>
<path d="M1581.5 430.302L1583.7 432.102L1576.1 453.302L1573.9 451.402L1575.8 446.302L1568.9 440.502L1564.2 443.202L1561.9 441.302L1581.5 430.102V430.302ZM1571.1 439.302L1576.6 443.902L1580.4 433.802L1571.1 439.302Z" fill="black"/>
<path d="M1592.3 439.5L1594.3 441.301L1581.9 455.2L1588.1 460.7L1586.5 462.6L1578.3 455.3L1592.3 439.5Z" fill="black"/>
<path d="M1610.3 455.898L1619.7 464.099L1618.1 465.999L1610.7 459.598L1606.2 464.799L1613.4 471.099L1611.8 472.899L1604.6 466.599L1600.1 471.799L1607.5 478.198L1605.9 480.098L1596.5 471.899L1610.3 455.898Z" fill="black"/>
<path d="M1625.2 471.801L1620.8 468.2L1622.3 466.301L1633.3 475.1L1631.8 477L1627.4 473.4L1615.7 488.001L1613.6 486.301L1625.3 471.701L1625.2 471.801Z" fill="black"/>
<path d="M1643.3 482.602L1653.5 489.802L1652.1 491.802L1644.1 486.202L1640.1 491.802L1647.9 497.302L1646.5 499.302L1638.7 493.802L1634.7 499.402L1642.7 505.002L1641.3 507.002L1631.1 499.802L1643.3 482.602Z" fill="black"/>
<path d="M1658.1 496.1H1658.2L1648.2 511.8L1645.9 510.3L1657.3 492.5L1660.5 494.6L1659.8 516.1H1659.6L1669.6 500.4L1671.9 501.9L1660.5 519.7L1657.2 517.599L1658 496.1H1658.1Z" fill="black"/>
<path d="M1675.8 525.9C1676.9 526.6 1678 527 1679 527.1C1680 527.3 1680.8 527.3 1681.3 527.1V529.7C1680.5 529.8 1679.6 529.7 1678.4 529.6C1677.2 529.4 1675.8 528.9 1674.4 528C1673.1 527.2 1671.9 526.3 1671.1 525.1C1670.2 524 1669.6 522.7 1669.2 521.4C1668.8 520 1668.7 518.6 1668.9 517.2C1669.1 515.8 1669.5 514.4 1670.3 513.1C1671.1 511.8 1672 510.7 1673.2 509.8C1674.3 508.9 1675.6 508.3 1677 507.9C1678.4 507.5 1679.8 507.4 1681.2 507.6C1682.6 507.8 1684 508.3 1685.4 509C1686.8 509.8 1688 510.7 1688.8 511.7C1689.6 512.7 1690.1 513.5 1690.3 514.1L1688.1 515.5C1687.9 515 1687.5 514.3 1686.8 513.6C1686.1 512.8 1685.2 512.1 1684.1 511.4C1683.1 510.8 1682 510.4 1681 510.3C1679.9 510.2 1678.9 510.3 1677.9 510.5C1676.9 510.8 1676 511.3 1675.1 511.9C1674.3 512.6 1673.5 513.4 1673 514.5C1672.4 515.5 1672 516.6 1671.9 517.7C1671.8 518.8 1671.9 519.8 1672.1 520.8C1672.4 521.8 1672.8 522.7 1673.5 523.6C1674.2 524.4 1675 525.2 1676 525.8L1675.8 525.9Z" fill="black"/>
<path d="M1688.5 523.598C1689.2 522.198 1690.1 521.098 1691.1 520.098C1692.2 519.198 1693.4 518.398 1694.6 517.998C1695.9 517.598 1697.2 517.398 1698.6 517.398C1700 517.398 1701.3 517.898 1702.7 518.498C1704 519.198 1705.2 520.098 1706 521.098C1706.9 522.198 1707.5 523.398 1707.9 524.698C1708.3 525.998 1708.4 527.399 1708.3 528.799C1708.2 530.199 1707.8 531.598 1707.1 532.998C1706.4 534.398 1705.5 535.498 1704.5 536.498C1703.4 537.498 1702.3 538.198 1701 538.598C1699.7 539.098 1698.4 539.298 1697 539.198C1695.6 539.198 1694.2 538.699 1692.9 538.099C1691.5 537.399 1690.4 536.498 1689.5 535.398C1688.6 534.298 1688 533.098 1687.6 531.798C1687.2 530.498 1687.1 529.098 1687.2 527.698C1687.4 526.298 1687.8 524.898 1688.5 523.498V523.598ZM1691 524.798C1690.3 526.198 1690 527.598 1690 528.998C1690 530.398 1690.4 531.698 1691.1 532.898C1691.8 534.098 1692.8 534.998 1694.1 535.698C1695.4 536.398 1696.8 536.598 1698.1 536.498C1699.4 536.398 1700.7 535.899 1701.9 534.999C1703 534.199 1704 533.098 1704.7 531.698C1705.4 530.298 1705.7 528.899 1705.7 527.499C1705.7 526.099 1705.3 524.798 1704.6 523.598C1703.9 522.398 1702.9 521.498 1701.5 520.798C1700.2 520.098 1698.8 519.899 1697.5 519.999C1696.2 520.099 1694.9 520.598 1693.7 521.398C1692.5 522.198 1691.6 523.298 1690.9 524.698L1691 524.798Z" fill="black"/>
<path d="M1715.5 525.199L1722.2 528.199C1723.2 528.699 1724.1 529.299 1724.7 530.099C1725.4 530.899 1725.8 531.799 1725.9 532.899C1726 533.999 1725.9 535.1 1725.3 536.3C1724.8 537.5 1724.1 538.399 1723.3 538.899C1722.5 539.499 1721.6 539.8 1720.8 539.9C1720 539.9 1719.2 539.899 1718.7 539.699L1719.8 550.199L1717 548.899L1716.2 538.8L1713.1 537.4L1709.5 545.6L1707 544.499L1715.6 525.199H1715.5ZM1713.9 535.6L1717.3 537.099C1718.5 537.599 1719.5 537.8 1720.5 537.5C1721.5 537.3 1722.3 536.499 1722.9 535.199C1723.5 533.899 1723.5 532.899 1722.9 531.999C1722.3 531.099 1721.6 530.4 1720.4 529.9L1717 528.399L1713.8 535.6H1713.9Z" fill="black"/>
<path d="M1732.3 532.602L1743.9 537.202L1743 539.502L1733.9 535.902L1731.4 542.302L1740.3 545.902L1739.4 548.102L1730.5 544.502L1727.9 550.902L1737 554.502L1736.1 556.802L1724.5 552.202L1732.3 532.602Z" fill="black"/>
<path d="M1760.2 562.998C1761.4 563.398 1762.6 563.598 1763.6 563.598C1764.6 563.598 1765.4 563.397 1765.9 563.197L1766.3 565.798C1765.7 566.098 1764.8 566.198 1763.5 566.198C1762.2 566.198 1760.8 565.998 1759.2 565.498C1757.7 564.998 1756.4 564.298 1755.3 563.298C1754.2 562.398 1753.3 561.298 1752.7 559.998C1752.1 558.798 1751.7 557.398 1751.6 555.998C1751.5 554.598 1751.6 553.098 1752.1 551.698C1752.6 550.198 1753.3 548.998 1754.2 547.898C1755.1 546.798 1756.3 545.898 1757.5 545.298C1758.8 544.698 1760.1 544.298 1761.6 544.198C1763 544.098 1764.5 544.198 1766 544.798C1767.6 545.298 1768.9 545.998 1769.9 546.798C1770.9 547.598 1771.6 548.298 1771.9 548.798L1770 550.697C1770 550.697 1769.2 549.698 1768.4 548.998C1767.6 548.298 1766.6 547.798 1765.3 547.398C1764.2 546.998 1763.1 546.898 1762 546.998C1760.9 546.998 1759.9 547.298 1759 547.798C1758.1 548.298 1757.3 548.898 1756.6 549.698C1755.9 550.498 1755.4 551.498 1755 552.598C1754.6 553.698 1754.5 554.798 1754.5 555.898C1754.5 556.998 1754.8 557.998 1755.3 558.898C1755.8 559.798 1756.4 560.698 1757.2 561.398C1758 562.098 1759 562.598 1760.1 562.998H1760.2Z" fill="black"/>
<path d="M1776.4 548.398L1788.4 551.799L1787.7 554.199L1778.3 551.498L1776.4 558.099L1785.6 560.698L1784.9 562.999L1775.7 560.399L1773.8 566.998L1783.2 569.698L1782.5 572.098L1770.5 568.699L1776.3 548.398H1776.4Z" fill="black"/>
<path d="M1792.9 553.102L1795.6 553.802L1791 571.902L1799 573.901L1798.4 576.302L1787.7 573.601L1792.9 553.102Z" fill="black"/>
<path d="M1808 556.801L1810.7 557.401L1806.7 575.601L1814.8 577.401L1814.3 579.801L1803.5 577.401L1808 556.801Z" fill="black"/>
<path d="M1822.8 560L1835.1 562.3L1834.7 564.7L1825.1 562.9L1823.8 569.6L1833.2 571.4L1832.8 573.8L1823.4 572.1L1822.1 578.9L1831.7 580.699L1831.3 583.1L1819 580.8L1822.9 560H1822.8Z" fill="black"/>
<path d="M1848.5 564.398L1853.4 565.098C1855.6 565.398 1857.4 566.098 1858.7 567.198C1860 568.298 1860.9 569.698 1861.4 571.298C1861.9 572.998 1862 574.798 1861.7 576.798C1861.4 578.798 1860.8 580.598 1859.9 582.098C1859 583.598 1857.8 584.698 1856.2 585.398C1854.6 586.098 1852.7 586.298 1850.5 585.998L1845.6 585.298L1848.4 564.398H1848.5ZM1850.9 567.298L1848.7 583.298L1850.7 583.598C1852.3 583.798 1853.7 583.598 1854.9 583.098C1856 582.598 1856.9 581.698 1857.6 580.598C1858.3 579.498 1858.7 578.098 1858.9 576.598C1859.1 575.098 1859.1 573.598 1858.7 572.398C1858.3 571.198 1857.7 570.098 1856.8 569.198C1855.8 568.398 1854.5 567.798 1852.9 567.598L1850.9 567.298Z" fill="black"/>
<path d="M1867.3 566.898L1879.7 568.198L1879.4 570.698L1869.7 569.698L1869 576.498L1878.5 577.498L1878.2 579.898L1868.7 578.898L1868 585.798L1877.7 586.798L1877.4 589.298L1865 587.998L1867.2 566.998L1867.3 566.898Z" fill="black"/>
<path d="M1893.3 569.301L1896 569.5L1894.9 588.101L1903.2 588.601V591.101L1892 590.401L1893.3 569.301Z" fill="black"/>
<path d="M1909 578L1908.2 576.999C1908.2 576.999 1908.8 576.699 1909.1 576.399C1909.5 576.099 1909.8 575.799 1910 575.399C1910.3 574.999 1910.4 574.7 1910.4 574.3C1910.4 574.4 1910.1 574.499 1909.9 574.599C1909.7 574.699 1909.4 574.699 1909.1 574.599C1908.6 574.599 1908.2 574.399 1907.8 573.999C1907.4 573.599 1907.3 573.1 1907.3 572.5C1907.3 571.8 1907.6 571.199 1908.1 570.799C1908.6 570.399 1909.2 570.199 1909.9 570.199C1910.6 570.199 1911.2 570.499 1911.6 570.999C1912 571.499 1912.2 572.2 1912.2 573.1C1912.2 573.9 1912 574.699 1911.6 575.299C1911.3 575.899 1910.8 576.5 1910.3 576.9C1909.8 577.3 1909.3 577.599 1908.8 577.899L1909 578Z" fill="black"/>
<path d="M1922.9 570.6H1925.8L1933.2 591.9H1930.3L1928.6 586.7L1919.6 586.5L1917.6 591.5H1914.7L1922.9 570.5V570.6ZM1920.5 584.1H1927.7L1924.3 574L1920.5 584.1Z" fill="black"/>
<path d="M1949.6 570.602H1952.3L1952.5 583.702C1952.5 585.402 1952.2 586.901 1951.5 588.201C1950.8 589.501 1949.9 590.401 1948.7 591.101C1947.5 591.801 1946.1 592.101 1944.6 592.201C1943 592.201 1941.7 591.902 1940.4 591.302C1939.1 590.702 1938.2 589.701 1937.5 588.401C1936.8 587.201 1936.4 585.701 1936.4 583.901L1936.2 570.801H1938.9L1939 583.702C1939 584.902 1939.3 586.002 1939.8 586.902C1940.3 587.802 1940.9 588.501 1941.7 589.001C1942.5 589.501 1943.4 589.701 1944.4 589.701C1945.4 589.701 1946.3 589.401 1947.1 588.901C1947.9 588.401 1948.5 587.702 1949 586.802C1949.4 585.902 1949.7 584.801 1949.7 583.601L1949.5 570.602H1949.6Z" fill="black"/>
<path d="M1961.7 572.798L1956 572.998V570.498L1970 569.898V572.398L1964.4 572.598L1965.1 591.198H1962.4L1961.7 572.698V572.798Z" fill="black"/>
<path d="M1973.5 569.801L1980.9 569.301C1982 569.301 1983.1 569.301 1984.1 569.801C1985.1 570.201 1985.8 570.901 1986.5 571.701C1987.1 572.601 1987.5 573.701 1987.6 575.001C1987.7 576.301 1987.5 577.4 1987 578.3C1986.5 579.2 1986 579.901 1985.3 580.301C1984.6 580.801 1984 581.101 1983.3 581.101L1989.1 589.901L1986 590.1L1980.5 581.5L1977.1 581.701L1977.7 590.601L1975 590.8L1973.6 569.701L1973.5 569.801ZM1976.9 579.701L1980.6 579.5C1981.9 579.5 1982.9 579.001 1983.6 578.401C1984.4 577.701 1984.7 576.701 1984.6 575.301C1984.6 573.901 1984 572.901 1983.2 572.401C1982.3 571.801 1981.3 571.601 1980 571.701L1976.3 571.901L1976.8 579.801L1976.9 579.701Z" fill="black"/>
<path d="M1991.9 568.498L2004.3 567.398L2004.5 569.898L1994.8 570.798L1995.4 577.598L2005 576.698L2005.2 579.098L1995.7 579.898L1996.3 586.798L2006 585.898L2006.2 588.398L1993.8 589.498L1991.9 568.498Z" fill="black"/>
<path d="M2014.4 587.999C2013.8 587.999 2013.3 587.999 2012.8 587.499C2012.3 587.099 2012.1 586.699 2012 586.099C2012 585.499 2012 584.999 2012.4 584.499C2012.8 583.999 2013.3 583.799 2013.8 583.699C2014.4 583.699 2014.9 583.699 2015.4 584.199C2015.9 584.699 2016.1 585.099 2016.2 585.699C2016.2 586.299 2016.2 586.799 2015.7 587.299C2015.3 587.799 2014.9 587.999 2014.2 588.099L2014.4 587.999Z" fill="black"/>
<path d="M2037.5 563.701L2049.3 561.901L2049.6 563.801L2037.8 565.601L2037.5 563.701ZM2042.5 564.001L2044.3 563.701L2044.8 567C2045 568.4 2045.1 569.801 2045 571.201C2045 572.601 2044.7 573.901 2044.4 575.201C2044.1 576.501 2043.6 577.601 2043 578.701C2042.4 579.801 2041.7 580.701 2040.8 581.401L2039.1 579.901C2040.2 579.001 2041.1 577.801 2041.7 576.501C2042.3 575.201 2042.8 573.701 2043 572.101C2043.2 570.501 2043.2 569.001 2043 567.401L2042.5 564.101V564.001ZM2043 563.901L2044.8 563.601L2045.3 566.901C2045.5 568.401 2046 569.801 2046.6 571.201C2047.3 572.601 2048.1 573.801 2049.1 574.801C2050.1 575.801 2051.2 576.601 2052.5 577.101L2051.3 579.101C2049.9 578.501 2048.7 577.601 2047.6 576.501C2046.5 575.401 2045.6 573.901 2044.9 572.301C2044.2 570.701 2043.7 569.001 2043.4 567.201L2042.9 563.901H2043ZM2048.3 568.501L2053.3 567.701L2053.6 569.601L2048.6 570.401L2048.3 568.501ZM2051.2 559.101L2053.4 558.801L2057.1 582.801L2054.9 583.101L2051.2 559.101ZM2056.3 557.701L2058.6 557.301L2062.6 583.2L2060.3 583.501L2056.3 557.6V557.701Z" fill="black"/>
<path d="M2064.5 567.101L2087.9 562.701L2088.3 564.702L2064.9 569.102L2064.5 567.202V567.101ZM2065.7 557.402L2082.3 554.302L2082.7 556.202L2066.1 559.302L2065.7 557.402ZM2068.2 573.301L2086.3 569.902L2087.9 578.602L2085.5 579.001L2084.2 572.202L2068.5 575.101L2068.1 573.201L2068.2 573.301ZM2075.2 566.501L2077.6 566.102L2078.7 572.101L2076.3 572.502L2075.2 566.501ZM2080.8 554.501L2083.1 554.102L2083.5 556.002C2083.7 557.102 2083.9 558.301 2084.1 559.601C2084.3 561.001 2084.3 562.502 2084.2 564.402L2081.8 564.601C2081.8 562.801 2081.8 561.202 2081.7 559.902C2081.5 558.602 2081.3 557.401 2081.1 556.401L2080.7 554.501H2080.8Z" fill="black"/>
<path d="M2097.2 551.799C2098.5 551.499 2099.8 551.499 2100.9 551.799C2102 552.099 2103 552.599 2103.8 553.399C2104.6 554.199 2105.1 555.199 2105.4 556.399C2105.7 557.599 2105.6 558.699 2105.2 559.699C2104.8 560.699 2104.2 561.599 2103.2 562.399C2102.3 563.099 2101.1 563.599 2099.8 563.899C2098.5 564.199 2097.2 564.199 2096.1 563.899C2095 563.599 2094 563.099 2093.2 562.299C2092.4 561.499 2091.9 560.499 2091.6 559.299C2091.3 558.099 2091.4 556.999 2091.8 555.899C2092.2 554.899 2092.9 553.999 2093.8 553.299C2094.7 552.599 2095.9 552.099 2097.2 551.799ZM2093.4 571.699L2092.7 569.799C2094.3 569.399 2096 569.099 2097.8 568.599C2099.6 568.099 2101.6 567.699 2103.5 567.099C2105.5 566.499 2107.3 565.899 2109.1 565.199L2109.7 566.9C2107.9 567.7 2106 568.399 2104 568.999C2102.1 569.599 2100.2 570.099 2098.4 570.599C2096.6 570.999 2094.9 571.399 2093.4 571.799V571.699ZM2097.7 553.899C2096.8 554.099 2096.1 554.399 2095.5 554.899C2094.9 555.399 2094.4 555.999 2094.2 556.699C2093.9 557.399 2093.9 558.099 2094.1 558.899C2094.3 559.699 2094.6 560.299 2095.1 560.899C2095.6 561.399 2096.3 561.8 2097 561.9C2097.8 562.1 2098.6 562.1 2099.5 561.9C2100.4 561.7 2101.1 561.399 2101.7 560.899C2102.3 560.399 2102.7 559.799 2103 559.099C2103.3 558.399 2103.3 557.7 2103.1 556.9C2102.9 556.1 2102.6 555.499 2102 554.899C2101.4 554.299 2100.8 553.999 2100.1 553.899C2099.3 553.699 2098.5 553.699 2097.6 553.899H2097.7ZM2107.1 547.699L2109.5 547.199L2115.1 572.899L2112.8 573.399L2107.2 547.699H2107.1Z" fill="black"/>
<path d="M2127.9 544.499C2129.1 544.199 2130.3 544.199 2131.4 544.499C2132.5 544.799 2133.5 545.299 2134.3 546.099C2135.1 546.899 2135.7 547.899 2136 549.099C2136.3 550.299 2136.3 551.499 2136 552.599C2135.7 553.699 2135.1 554.599 2134.2 555.399C2133.4 556.199 2132.3 556.699 2131.1 557.099C2129.8 557.399 2128.7 557.499 2127.5 557.099C2126.3 556.699 2125.4 556.299 2124.6 555.499C2123.8 554.699 2123.2 553.699 2122.9 552.399C2122.6 551.199 2122.6 549.999 2122.9 548.899C2123.2 547.799 2123.8 546.899 2124.7 546.099C2125.5 545.299 2126.6 544.799 2127.8 544.399L2127.9 544.499ZM2128.4 546.499C2127.6 546.699 2126.9 547.099 2126.3 547.599C2125.7 548.099 2125.4 548.799 2125.1 549.499C2124.8 550.199 2124.9 550.999 2125.1 551.899C2125.3 552.699 2125.7 553.399 2126.2 553.899C2126.7 554.399 2127.4 554.799 2128.1 554.999C2128.8 555.199 2129.6 555.199 2130.4 554.999C2131.2 554.799 2131.9 554.399 2132.5 553.899C2133.1 553.399 2133.4 552.699 2133.7 551.999C2133.9 551.299 2133.9 550.499 2133.7 549.699C2133.5 548.899 2133.1 548.199 2132.6 547.599C2132.1 547.099 2131.4 546.699 2130.7 546.499C2129.9 546.299 2129.2 546.299 2128.4 546.499ZM2129.5 560.199L2131.8 559.599L2133.6 566.499L2131.3 567.099L2129.5 560.199ZM2131.1 566.299L2148 561.999L2148.5 563.899L2131.6 568.199L2131.1 566.299ZM2134.9 548.399L2141.9 546.599L2142.4 548.499L2135.4 550.299L2134.9 548.399ZM2139.1 539.799L2141.4 539.199L2146.2 557.899L2143.9 558.499L2139.1 539.799Z" fill="black"/>
<path d="M2153.3 538C2154.5 537.6 2155.7 537.7 2156.9 538.1C2158.1 538.5 2159.1 539.3 2160 540.5C2160.9 541.7 2161.6 543.1 2162.1 544.9C2162.6 546.7 2162.8 548.3 2162.6 549.8C2162.4 551.3 2162 552.5 2161.3 553.5C2160.6 554.5 2159.6 555.2 2158.4 555.5C2157.2 555.8 2156 555.8 2154.8 555.3C2153.6 554.9 2152.6 554.1 2151.7 552.9C2150.8 551.7 2150.1 550.3 2149.6 548.5C2149.1 546.7 2148.9 545.1 2149.1 543.6C2149.3 542.1 2149.7 540.9 2150.4 539.9C2151.2 538.9 2152.1 538.2 2153.3 537.9V538ZM2153.9 540.1C2153.1 540.3 2152.5 540.8 2152 541.5C2151.5 542.2 2151.3 543.1 2151.2 544.3C2151.2 545.4 2151.3 546.6 2151.7 548C2152.1 549.4 2152.6 550.5 2153.2 551.4C2153.8 552.3 2154.5 553 2155.3 553.4C2156.1 553.8 2156.9 553.8 2157.7 553.6C2158.5 553.4 2159.2 552.9 2159.6 552.2C2160 551.5 2160.3 550.501 2160.4 549.401C2160.4 548.301 2160.3 547.1 2159.9 545.7C2159.5 544.3 2159 543.2 2158.4 542.3C2157.8 541.4 2157.1 540.7 2156.3 540.4C2155.5 540 2154.7 540 2153.9 540.2V540.1ZM2161 544.1L2168.2 542L2168.7 543.9L2161.5 546L2161 544.1ZM2164.5 532.7L2166.8 532L2174 557.3L2171.7 558L2164.4 532.7H2164.5Z" fill="black"/>
<path d="M2180.6 558.599L2179.5 557.299C2180.3 556.599 2180.8 555.899 2181.1 555.099C2181.4 554.299 2181.4 553.399 2181.1 552.599L2180.1 550.399L2181.9 551.899C2181.9 551.899 2181.6 552.399 2181.4 552.499C2181.2 552.599 2181 552.699 2180.8 552.799C2180.3 552.999 2179.8 552.899 2179.4 552.799C2178.9 552.599 2178.6 552.199 2178.4 551.699C2178.2 551.099 2178.3 550.599 2178.6 550.199C2178.9 549.799 2179.3 549.499 2179.8 549.299C2180.5 549.099 2181.1 549.299 2181.6 549.599C2182.1 549.999 2182.6 550.699 2182.8 551.599C2183.2 552.899 2183.2 554.199 2182.8 555.399C2182.4 556.599 2181.6 557.699 2180.6 558.599Z" fill="black"/>
<path d="M2186.6 528.899L2197.8 525.199L2198.4 527.099L2187.2 530.799L2186.6 528.899ZM2191.1 545.999L2190.2 544.199C2191.7 543.699 2193.3 543.1 2195.1 542.5C2196.9 541.9 2198.6 541.2 2200.4 540.5C2202.2 539.8 2203.9 539.099 2205.5 538.299L2206.2 540C2204.6 540.8 2202.9 541.6 2201.1 542.4C2199.3 543.1 2197.6 543.8 2195.9 544.4C2194.2 545 2192.6 545.599 2191.1 546.099V545.999ZM2192.9 534.799L2195.2 534.099L2198 542.5L2195.7 543.299L2192.9 534.9V534.799ZM2196.9 525.5L2199.2 524.799L2199.6 526.099C2199.9 527.099 2200.3 528.399 2200.8 530.099C2201.3 531.799 2201.7 533.8 2202.1 536.2L2199.8 536.8C2199.4 534.4 2199 532.399 2198.5 530.799C2198 529.199 2197.6 527.9 2197.3 526.9L2196.9 525.6V525.5ZM2201.4 520.999L2203.7 520.199L2212 545.099L2209.7 545.899L2201.4 520.999ZM2206.5 530.899L2211.1 529.4L2211.8 531.399L2207.2 532.899L2206.5 530.899Z" fill="black"/>
<path d="M2211.2 520.701L2221.4 517.001L2222.1 518.802L2211.9 522.502L2211.2 520.701ZM2220.3 517.402L2222.5 516.601C2223.1 518.301 2223.5 520.102 2223.7 521.902C2223.9 523.702 2223.8 525.502 2223.5 527.302C2223.2 529.102 2222.5 530.901 2221.6 532.701C2220.6 534.501 2219.3 536.202 2217.6 538.002L2215.7 536.702C2217.2 535.202 2218.4 533.701 2219.3 532.101C2220.2 530.501 2220.8 529.002 2221.2 527.402C2221.6 525.802 2221.7 524.201 2221.5 522.701C2221.4 521.101 2221 519.501 2220.4 517.901V517.502L2220.3 517.402ZM2225 523.901L2231.8 521.501L2232.5 523.401L2225.7 525.801L2225 523.901ZM2227.2 511.902L2229.4 511.102L2238.3 535.801L2236.1 536.601L2227.2 511.902Z" fill="black"/>
<path d="M2246.5 505.998L2248.4 505.298L2249.3 507.698C2249.9 509.198 2250.2 510.798 2250.2 512.398C2250.2 513.998 2249.8 515.498 2249.2 516.898C2248.6 518.298 2247.7 519.498 2246.5 520.598L2244.7 519.298C2245.5 518.598 2246.1 517.798 2246.7 516.898C2247.2 515.998 2247.6 515.098 2247.9 514.198C2248.2 513.198 2248.3 512.298 2248.2 511.298C2248.1 510.298 2247.9 509.398 2247.6 508.498L2246.7 506.098L2246.5 505.998ZM2246.9 505.798L2248.8 505.098L2249.7 507.498C2250.1 508.398 2250.5 509.198 2251.1 509.898C2251.7 510.598 2252.4 511.198 2253.2 511.698C2254 512.198 2254.9 512.598 2255.9 512.798C2256.9 513.098 2257.9 513.198 2258.9 513.098L2258.5 515.298C2256.9 515.298 2255.5 515.098 2254.1 514.498C2252.7 513.998 2251.5 513.198 2250.4 512.098C2249.3 510.998 2248.5 509.798 2247.9 508.298L2247 505.898L2246.9 505.798ZM2249.6 521.798L2265.9 515.398L2269.2 523.898L2267 524.798L2264.4 518.098L2250.3 523.598L2249.6 521.798ZM2257.4 500.298L2259.6 499.398L2265.4 514.098L2263.2 514.998L2257.4 500.298Z" fill="black"/>
<path d="M2265.9 499.3L2277.2 494.5L2282 505.7L2270.7 510.5L2265.9 499.3ZM2275.7 497.3L2268.8 500.2L2272 507.9L2278.9 505L2275.7 497.3ZM2274.6 511.7L2276.8 510.8L2279.6 517.4L2277.4 518.3L2274.6 511.7ZM2277.1 517.5L2293.4 510.6L2294.2 512.4L2277.9 519.3L2277.1 517.5ZM2281.3 490.4L2283.5 489.5L2290.8 506.901L2288.6 507.8L2281.3 490.4Z" fill="black"/>
<path d="M2289.5 490.2L2300.4 485.3L2301.2 487.1L2290.3 492L2289.5 490.2ZM2294.4 489.1L2296.1 488.3L2297.5 491.3C2298.1 492.6 2298.5 493.9 2298.9 495.3C2299.3 496.7 2299.4 498 2299.4 499.3C2299.4 500.6 2299.3 501.8 2299 503C2298.7 504.2 2298.2 505.2 2297.6 506.2L2295.5 505.2C2296.3 504 2296.8 502.7 2297.1 501.2C2297.4 499.7 2297.4 498.2 2297.1 496.6C2296.9 495 2296.4 493.5 2295.8 492.1L2294.4 489V489.1ZM2294.8 488.9L2296.5 488.1L2297.9 491.1C2298.5 492.5 2299.3 493.7 2300.3 494.9C2301.3 496 2302.4 497 2303.6 497.7C2304.8 498.4 2306.1 498.9 2307.5 499L2306.9 501.2C2305.4 501 2304 500.5 2302.6 499.6C2301.3 498.7 2300 497.6 2298.9 496.3C2297.8 494.9 2296.9 493.4 2296.1 491.8L2294.7 488.8L2294.8 488.9ZM2301.2 491.9L2305.8 489.8L2306.6 491.6L2302 493.7L2301.2 491.9ZM2301.5 482.1L2303.6 481.2L2313.6 503.3L2311.5 504.2L2301.5 482.1ZM2306 479.4L2308.1 478.5L2318.9 502.4L2316.8 503.3L2306 479.4Z" fill="black"/>
<path d="M2314.8 476.702L2330 469.402L2330.8 471.202L2315.6 478.502L2314.7 476.702H2314.8ZM2316.2 486.401L2337.7 476.102L2338.6 477.902L2317.1 488.201L2316.2 486.401ZM2321.3 491.501L2337.9 483.602L2341.7 491.602L2339.5 492.601L2336.5 486.401L2322.1 493.301L2321.3 491.501ZM2326.3 483.102L2328.5 482.101L2331.1 487.601L2328.9 488.602L2326.2 483.002L2326.3 483.102ZM2328.6 470.101L2330.7 469.102L2331.5 470.801C2332 471.801 2332.5 472.902 2333 474.102C2333.5 475.402 2334 476.902 2334.4 478.702L2332.2 479.501C2331.8 477.701 2331.4 476.202 2330.9 475.002C2330.4 473.802 2329.9 472.702 2329.5 471.802L2328.7 470.101H2328.6Z" fill="black"/>
<path d="M2343.4 463.499C2344.6 462.899 2345.8 462.599 2347 462.499C2348.2 462.499 2349.2 462.698 2350.2 463.298C2351.2 463.798 2351.9 464.698 2352.5 465.798C2353.1 466.898 2353.3 467.999 2353.2 469.099C2353.1 470.199 2352.7 471.198 2352 472.198C2351.3 473.098 2350.3 473.898 2349.1 474.498C2347.9 475.098 2346.7 475.399 2345.5 475.499C2344.3 475.499 2343.2 475.298 2342.3 474.698C2341.3 474.098 2340.6 473.298 2340 472.198C2339.4 471.098 2339.2 469.998 2339.3 468.898C2339.4 467.798 2339.8 466.798 2340.6 465.798C2341.3 464.898 2342.3 464.099 2343.5 463.499H2343.4ZM2344.4 465.298C2343.6 465.698 2343 466.199 2342.5 466.799C2342 467.399 2341.7 468.099 2341.7 468.799C2341.7 469.499 2341.7 470.299 2342.1 470.999C2342.5 471.699 2343 472.298 2343.6 472.598C2344.2 472.998 2345 473.099 2345.7 473.099C2346.5 473.099 2347.3 472.899 2348.1 472.499C2348.9 472.099 2349.6 471.599 2350 470.999C2350.5 470.399 2350.7 469.698 2350.8 468.998C2350.8 468.298 2350.8 467.499 2350.4 466.799C2350 466.099 2349.5 465.498 2348.9 465.198C2348.3 464.798 2347.5 464.698 2346.8 464.698C2346 464.698 2345.2 464.898 2344.4 465.298ZM2344.7 483.699L2343.5 481.998C2344.9 481.298 2346.5 480.498 2348.2 479.598C2349.9 478.698 2351.6 477.699 2353.4 476.699C2355.2 475.699 2356.8 474.599 2358.4 473.499L2359.4 474.999C2357.8 476.199 2356.1 477.398 2354.4 478.398C2352.7 479.498 2351 480.399 2349.3 481.299C2347.6 482.199 2346.1 482.999 2344.7 483.699ZM2351.9 456.998L2354.1 455.898L2366 479.299L2363.9 480.399L2352 456.998H2351.9Z" fill="black"/>
<path d="M2370.8 448.999C2371.9 448.399 2373.1 448.1 2374.2 448.1C2375.4 448.1 2376.4 448.399 2377.4 448.999C2378.4 449.599 2379.2 450.399 2379.8 451.499C2380.4 452.599 2380.7 453.7 2380.6 454.9C2380.6 456 2380.2 457.1 2379.6 458.1C2379 459.1 2378.1 459.9 2377 460.5C2375.9 461.1 2374.7 461.399 2373.6 461.399C2372.4 461.399 2371.4 461.1 2370.4 460.5C2369.4 459.9 2368.6 459.1 2368 458C2367.4 456.9 2367.1 455.799 2367.2 454.599C2367.2 453.499 2367.6 452.399 2368.2 451.399C2368.8 450.399 2369.7 449.599 2370.9 448.999H2370.8ZM2371.8 450.899C2371 451.299 2370.5 451.8 2370.1 452.5C2369.7 453.2 2369.5 453.799 2369.4 454.599C2369.4 455.399 2369.6 456.1 2370 456.9C2370.4 457.6 2370.9 458.2 2371.6 458.6C2372.3 459 2373 459.2 2373.7 459.2C2374.4 459.2 2375.2 459 2376 458.6C2376.7 458.2 2377.3 457.699 2377.7 456.999C2378.1 456.299 2378.3 455.6 2378.4 454.9C2378.4 454.1 2378.2 453.399 2377.8 452.599C2377.4 451.799 2376.9 451.299 2376.2 450.899C2375.6 450.499 2374.8 450.299 2374.1 450.299C2373.3 450.299 2372.6 450.499 2371.9 450.899H2371.8ZM2376.2 463.899L2378.3 462.799L2381.7 469.099L2379.6 470.199L2376.2 463.899ZM2378.6 451.1L2384.9 447.699L2385.8 449.4L2379.5 452.799L2378.6 451.1ZM2379.2 469.4L2394.5 461.1L2395.4 462.799L2380.1 471.1L2379.2 469.4ZM2380.5 441.8L2382.6 440.699L2391.8 457.699L2389.7 458.8L2380.5 441.8Z" fill="black"/>
<path d="M2393.5 436.8C2394.6 436.2 2395.8 435.899 2397 436.099C2398.2 436.199 2399.4 436.799 2400.6 437.699C2401.8 438.599 2402.8 439.899 2403.7 441.499C2404.6 443.099 2405.2 444.699 2405.4 446.099C2405.6 447.599 2405.4 448.9 2405 450C2404.5 451.1 2403.7 451.999 2402.6 452.699C2401.5 453.299 2400.3 453.599 2399.1 453.399C2397.9 453.199 2396.7 452.7 2395.5 451.8C2394.3 450.9 2393.3 449.6 2392.4 448C2391.5 446.4 2390.9 444.899 2390.7 443.399C2390.5 441.899 2390.7 440.599 2391.1 439.499C2391.6 438.399 2392.4 437.5 2393.5 436.8ZM2394.6 438.7C2393.9 439.1 2393.4 439.7 2393.1 440.5C2392.8 441.3 2392.8 442.299 2393.1 443.399C2393.3 444.499 2393.8 445.7 2394.5 446.9C2395.2 448.1 2396 449.099 2396.8 449.799C2397.6 450.499 2398.5 451 2399.3 451.2C2400.1 451.4 2400.9 451.199 2401.6 450.899C2402.3 450.499 2402.8 449.799 2403.1 448.999C2403.4 448.199 2403.4 447.199 2403.1 446.099C2402.9 444.999 2402.4 443.899 2401.7 442.599C2401 441.399 2400.2 440.399 2399.4 439.699C2398.6 438.999 2397.7 438.499 2396.9 438.299C2396.1 438.099 2395.3 438.3 2394.5 438.7H2394.6ZM2402.4 440.799L2408.9 436.999L2409.9 438.7L2403.4 442.5L2402.4 440.799ZM2403.1 428.899L2405.2 427.699L2418.3 450.5L2416.2 451.699L2403.1 428.899Z" fill="black"/>
<path d="M2425 450.2L2423.7 449.2C2424.3 448.4 2424.6 447.5 2424.7 446.7C2424.7 445.8 2424.7 445 2424.1 444.3L2422.6 442.4L2424.7 443.4C2424.7 443.4 2424.5 443.9 2424.4 444.1C2424.3 444.3 2424.1 444.5 2423.9 444.6C2423.5 444.9 2423 445 2422.5 444.9C2422 444.9 2421.6 444.5 2421.3 444C2421 443.5 2420.9 443 2421.1 442.5C2421.3 442 2421.6 441.599 2422.1 441.399C2422.7 440.999 2423.3 441 2423.9 441.3C2424.5 441.6 2425.1 442.1 2425.6 443C2426.3 444.2 2426.6 445.4 2426.5 446.7C2426.4 448 2425.9 449.2 2425.1 450.3L2425 450.2Z" fill="black"/>
<path d="M2425 419.102L2439.3 410.202L2440.3 411.902L2426 420.802L2425 419.102ZM2432.1 435.402L2452.2 422.902L2453.3 424.602L2433.2 437.102L2432.1 435.402ZM2438.2 410.902L2440.2 409.602L2441.6 411.802C2442.2 412.702 2442.8 413.702 2443.4 414.802C2444 415.902 2444.7 417.102 2445.4 418.402C2446.1 419.802 2446.8 421.302 2447.5 423.102L2445.3 424.202C2444.7 422.502 2444 421.002 2443.3 419.602C2442.6 418.302 2442 417.102 2441.3 416.002C2440.7 414.902 2440.1 413.902 2439.5 413.002L2438.1 410.802L2438.2 410.902Z" fill="black"/>
<path d="M2445.8 405.602L2455.9 398.902L2461.1 406.702L2453.1 412.002L2456.9 417.802L2454.9 419.102L2450.1 411.702L2458.1 406.402L2455.1 401.802L2447 407.102L2445.9 405.502L2445.8 405.602ZM2454.4 418.502L2456.2 417.302C2457.4 416.502 2458.6 415.702 2459.8 414.902C2460.9 414.102 2462.1 413.202 2463.2 412.402C2464.3 411.502 2465.4 410.502 2466.6 409.502L2467.9 411.002C2466.1 412.602 2464.4 414.102 2462.8 415.302C2461.1 416.502 2459.3 417.802 2457.4 419.102L2455.6 420.302L2454.5 418.602L2454.4 418.502ZM2459.2 393.902L2461.2 392.602L2475.7 414.502L2473.7 415.802L2459.3 393.902H2459.2Z" fill="black"/>
<path d="M2468.4 390.898L2482.3 381.299L2483.4 382.898L2469.5 392.499L2468.4 390.898ZM2476.6 407.098L2496.1 393.599L2497.2 395.298L2477.7 408.799L2476.6 407.098ZM2478.8 394.098L2480.8 392.698L2486.7 401.199L2484.8 402.598L2478.9 394.098H2478.8ZM2481.5 381.799L2483.5 380.398L2485 382.499C2485.6 383.399 2486.3 384.298 2486.9 385.298C2487.6 386.298 2488.2 387.399 2489 388.699C2489.7 389.899 2490.4 391.399 2491.2 392.999L2489 394.198C2488 391.798 2487 389.898 2485.9 388.298C2484.9 386.698 2483.9 385.298 2483 383.898L2481.5 381.799Z" fill="black"/>
<path d="M2494.4 372.401L2501.5 367.101L2502.7 368.702L2497.5 372.601L2502.6 379.501L2500.7 380.901L2494.4 372.401ZM2500.2 380.101L2501.4 379.201C2502.1 378.701 2502.7 378.201 2503.4 377.701C2504 377.201 2504.7 376.601 2505.3 376.001C2505.9 375.401 2506.5 374.801 2507.1 374.101L2508.5 375.602C2507.9 376.302 2507.2 377.001 2506.6 377.601C2506 378.201 2505.3 378.802 2504.7 379.302C2504 379.802 2503.4 380.301 2502.7 380.901L2501.5 381.802L2500.3 380.201L2500.2 380.101ZM2502.8 366.101L2510.2 360.602L2511.4 362.201L2506 366.202L2511.2 373.201L2509.3 374.601L2502.9 366.001L2502.8 366.101ZM2503.8 388.301L2522.9 374.101L2524.1 375.701L2505 389.901L2503.8 388.301ZM2508.6 373.901L2516.2 368.301L2517.4 369.901L2509.8 375.501L2508.6 373.901ZM2509 377.601L2510.9 376.202L2514.7 381.401L2512.8 382.801L2509 377.601Z" fill="black"/>
<path d="M2520 353.2L2529.5 345.601L2530.7 347.1L2523.1 353.2L2531.9 364.201L2530 365.7L2520 353.101V353.2ZM2529.5 365.001L2531.1 363.701C2532.4 362.701 2533.5 361.801 2534.5 360.901C2535.5 360.001 2536.5 359.2 2537.4 358.3C2538.3 357.4 2539.2 356.501 2540 355.501L2541.5 356.901C2540.6 357.901 2539.7 358.901 2538.8 359.801C2537.9 360.701 2536.9 361.601 2535.9 362.501C2534.9 363.401 2533.7 364.401 2532.4 365.401L2530.8 366.701L2529.5 365.1V365.001ZM2531.4 340.8L2533.3 339.301L2549.7 359.801L2547.8 361.301L2531.4 340.8ZM2539.3 347.7L2543.1 344.701L2544.3 346.301L2540.5 349.301L2539.2 347.7H2539.3Z" fill="black"/>
<path d="M2541.1 334L2554.6 322.5L2558.8 327.5L2547.1 337.4L2549.4 340.099L2547.6 341.6L2544.2 337.5L2555.9 327.599L2554.1 325.5L2542.4 335.4L2541.2 333.9L2541.1 334ZM2547.3 341.2L2561.2 329.4L2562.4 330.8L2548.5 342.599L2547.3 341.2ZM2547.7 346.4L2565.8 331L2567.1 332.5L2549 347.9L2547.7 346.4ZM2552.7 347.4L2554.5 345.8L2558.3 350.3L2556.5 351.9L2552.7 347.4ZM2556 351.4L2569.9 339.6L2571.2 341.1L2557.3 352.9L2556 351.4Z" fill="black"/>
<path d="M2565.4 316.102L2574.2 308.002L2575.5 309.402L2566.7 317.502L2565.4 316.002V316.102ZM2569.8 313.502L2571.2 312.202L2573.5 314.702C2574.5 315.702 2575.3 316.902 2576 318.102C2576.7 319.302 2577.3 320.502 2577.7 321.702C2578.1 322.902 2578.4 324.202 2578.5 325.402C2578.5 326.602 2578.5 327.801 2578.2 328.901L2575.9 328.602C2576.3 327.202 2576.4 325.802 2576.2 324.302C2576 322.802 2575.5 321.402 2574.8 320.002C2574.1 318.602 2573.2 317.302 2572.1 316.102L2569.8 313.602V313.502ZM2570.1 313.102L2571.4 311.902L2573.7 314.402C2574.7 315.502 2575.9 316.502 2577.2 317.202C2578.5 318.002 2579.9 318.502 2581.2 318.802C2582.6 319.102 2584 319.102 2585.3 318.802V321.102C2584 321.402 2582.5 321.302 2580.9 321.002C2579.4 320.602 2577.8 319.901 2576.4 319.001C2574.9 318.101 2573.6 316.902 2572.3 315.602L2570 313.102H2570.1ZM2574.3 304.601L2576 303.102L2592.4 321.002L2590.7 322.502L2574.3 304.601ZM2577.1 314.001L2580.8 310.602L2582.1 312.101L2578.4 315.502L2577.1 314.001ZM2577.7 300.602L2579.4 299.102L2597.2 318.401L2595.5 319.902L2577.7 300.602Z" fill="black"/>
<path d="M2585.5 295L2597.5 283.199L2598.9 284.6L2586.9 296.4L2585.5 295ZM2589.9 303.7L2606.8 287L2608.2 288.4L2591.3 305.099L2589.9 303.7ZM2596.4 284.2L2598.1 282.5L2599.4 283.9C2600.2 284.7 2601 285.6 2601.9 286.6C2602.8 287.6 2603.7 288.9 2604.7 290.5L2602.8 292C2601.8 290.4 2600.9 289.199 2600.1 288.199C2599.2 287.199 2598.4 286.4 2597.7 285.6L2596.4 284.2ZM2596.4 306.8L2609.5 293.9L2615.7 300.2L2614 301.9L2609.1 297L2597.7 308.199L2596.3 306.8H2596.4ZM2598.4 297.2L2600.1 295.5L2604.4 299.9L2602.7 301.6L2598.4 297.2Z" fill="black"/>
<path d="M2608.4 272.8C2609.3 271.8 2610.4 271.1 2611.5 270.7C2612.6 270.3 2613.7 270.2 2614.8 270.4C2615.9 270.6 2616.9 271.1 2617.8 272C2618.7 272.8 2619.3 273.8 2619.5 274.9C2619.8 276 2619.7 277.1 2619.4 278.2C2619.1 279.3 2618.4 280.4 2617.5 281.4C2616.6 282.4 2615.6 283.1 2614.5 283.5C2613.4 283.9 2612.3 284 2611.2 283.9C2610.1 283.7 2609.1 283.2 2608.2 282.3C2607.3 281.5 2606.7 280.501 2606.5 279.401C2606.2 278.301 2606.3 277.2 2606.6 276.1C2606.9 275 2607.6 273.9 2608.5 272.9L2608.4 272.8ZM2609.9 274.2C2609.3 274.8 2608.9 275.501 2608.6 276.301C2608.4 277.101 2608.3 277.8 2608.6 278.5C2608.8 279.2 2609.2 279.9 2609.8 280.4C2610.4 281 2611 281.3 2611.8 281.4C2612.6 281.5 2613.3 281.4 2614 281.2C2614.7 280.9 2615.4 280.5 2616 279.8C2616.6 279.1 2617 278.4 2617.3 277.7C2617.5 277 2617.6 276.2 2617.3 275.5C2617.1 274.8 2616.7 274.2 2616.2 273.6C2615.6 273 2615 272.7 2614.2 272.6C2613.4 272.5 2612.7 272.6 2612 272.8C2611.3 273.1 2610.6 273.5 2610 274.2H2609.9ZM2614.2 263.801L2615.9 262L2635.1 280L2633.5 281.7L2614.3 263.7L2614.2 263.801ZM2616.5 291.4L2614.8 290.2C2615.9 289 2617.1 287.701 2618.4 286.301C2619.7 284.901 2621 283.4 2622.3 281.8C2623.6 280.2 2624.8 278.7 2625.9 277.1L2627.3 278.2C2626.2 279.9 2625 281.5 2623.8 283.1C2622.5 284.7 2621.3 286.2 2620 287.6C2618.7 289 2617.6 290.3 2616.5 291.4Z" fill="black"/>
<path d="M2629.4 249.202C2630.2 248.202 2631.2 247.502 2632.2 247.102C2633.3 246.702 2634.4 246.602 2635.5 246.702C2636.6 246.902 2637.7 247.401 2638.6 248.201C2639.6 249.001 2640.3 250.002 2640.6 251.102C2640.9 252.202 2641 253.302 2640.8 254.402C2640.6 255.502 2640 256.601 2639.2 257.601C2638.4 258.601 2637.4 259.302 2636.3 259.702C2635.2 260.102 2634.1 260.201 2633 260.101C2631.9 259.901 2630.8 259.402 2629.8 258.602C2628.8 257.802 2628.2 256.902 2627.8 255.802C2627.4 254.702 2627.4 253.602 2627.6 252.502C2627.8 251.402 2628.4 250.302 2629.2 249.302L2629.4 249.202ZM2631 250.602C2630.5 251.202 2630.1 251.902 2630 252.702C2629.9 253.402 2630 254.202 2630.1 254.902C2630.4 255.602 2630.8 256.302 2631.5 256.802C2632.1 257.302 2632.8 257.702 2633.6 257.802C2634.4 257.902 2635.1 257.801 2635.8 257.601C2636.5 257.301 2637.1 256.902 2637.7 256.202C2638.2 255.602 2638.6 254.902 2638.7 254.102C2638.8 253.302 2638.7 252.602 2638.5 251.902C2638.2 251.202 2637.8 250.502 2637.1 250.002C2636.4 249.402 2635.7 249.102 2635 249.002C2634.2 248.902 2633.5 249.002 2632.8 249.202C2632.1 249.502 2631.5 249.902 2630.9 250.602H2631ZM2635.9 238.901L2637.4 237.102L2652.2 249.501L2650.7 251.302L2635.9 238.901ZM2637.5 248.302L2642.1 242.802L2643.6 244.102L2639 249.602L2637.5 248.302ZM2639.9 261.102L2641.4 259.302L2646.9 263.901L2645.4 265.701L2639.9 261.102ZM2644.8 265.101L2656 251.802L2657.5 253.102L2646.3 266.401L2644.8 265.101Z" fill="black"/>
<path d="M2646.2 229.1C2647 228.1 2647.9 227.4 2649.1 227.1C2650.3 226.8 2651.6 226.8 2653 227.1C2654.4 227.5 2655.9 228.301 2657.4 229.401C2658.9 230.501 2660 231.701 2660.8 233.001C2661.6 234.301 2661.9 235.501 2661.9 236.801C2661.9 238.001 2661.5 239.2 2660.7 240.2C2659.9 241.2 2659 241.9 2657.8 242.2C2656.6 242.5 2655.3 242.5 2653.9 242.2C2652.5 241.8 2651 241.101 2649.5 239.901C2648 238.801 2646.9 237.601 2646.1 236.301C2645.3 235.001 2645 233.801 2645 232.501C2645 231.301 2645.4 230.1 2646.2 229.1ZM2647.9 230.401C2647.4 231.101 2647.2 231.8 2647.2 232.7C2647.2 233.6 2647.6 234.401 2648.2 235.401C2648.8 236.301 2649.7 237.201 2650.8 238.101C2651.9 238.901 2653 239.601 2654.1 239.901C2655.2 240.201 2656.1 240.3 2657 240.2C2657.8 240 2658.5 239.6 2659 239C2659.5 238.3 2659.7 237.601 2659.7 236.701C2659.7 235.801 2659.3 235 2658.7 234C2658.1 233.1 2657.2 232.201 2656.1 231.301C2655 230.501 2653.9 229.9 2652.8 229.5C2651.7 229.1 2650.8 229.101 2650 229.201C2649.2 229.401 2648.5 229.801 2648 230.501L2647.9 230.401ZM2651.9 218.2L2653.3 216.301L2674.2 232.2L2672.8 234.1L2651.9 218.2ZM2656 229.401L2660.6 223.4L2662.1 224.6L2657.5 230.601L2655.9 229.401H2656Z" fill="black"/>
<path d="M2677.5 224.202C2677.5 224.202 2676.8 224.902 2676.3 225.002C2675.8 225.002 2675.3 225.001 2674.8 224.601C2674.3 224.201 2674 223.801 2673.9 223.301C2673.9 222.801 2673.9 222.302 2674.2 221.902C2674.5 221.502 2674.9 221.202 2675.4 221.102C2675.9 221.102 2676.4 221.101 2676.9 221.501C2677.4 221.801 2677.7 222.301 2677.8 222.801C2677.8 223.301 2677.8 223.802 2677.5 224.202Z" fill="black"/>
<path d="M18.5005 212.801L20.0004 215.101L4.50055 225.501L9.10046 232.401L7.00055 233.801L0.900391 224.601L18.4004 212.901L18.5005 212.801Z" fill="black"/>
<path d="M15.6 235.5C15 235.9 14.5001 236.5 14.1001 237.1C13.7001 237.7 13.6 238.4 13.7 239.2C13.7 240 14.1 240.7 14.6 241.5C15.1 242.2 15.4999 242.7 16.0999 243C16.6999 243.3 17.1002 243.6 17.6002 243.7C18.1002 243.8 18.5001 243.9 18.8001 243.8L18.2001 245.9C17.6001 245.9 17.0002 245.9 16.4002 245.6C15.8002 245.4 15.2 245.1 14.6 244.6C14 244.1 13.4 243.4 12.8 242.6C12 241.4 11.6 240.3 11.5 239.1C11.5 237.9 11.7001 236.8 12.2001 235.7C12.8001 234.6 13.6002 233.7 14.8002 232.9C15.9002 232.2 16.9 231.7 18.1 231.6C19.2 231.4 20.3002 231.6 21.4002 232.1C22.5002 232.6 23.4002 233.4 24.2002 234.6C24.9002 235.7 25.3001 236.7 25.4001 237.8C25.4001 238.9 25.3002 239.9 24.8002 240.9C24.3002 241.9 23.5002 242.8 22.3002 243.5C22.3002 243.5 22.1001 243.6 21.9001 243.7C21.7001 243.8 21.6 243.9 21.5 243.9L15.6 235.3V235.5ZM21.7002 240.7C21.7002 240.7 22.4 240.1 22.7 239.6C23 239.1 23.1001 238.5 23.2001 237.9C23.2001 237.3 22.9 236.6 22.4 235.8C21.9 235 21.3001 234.5 20.7001 234.2C20.1001 233.9 19.5002 233.8 18.9002 233.9C18.3002 233.9 17.8 234.1 17.4 234.3L21.7002 240.6V240.7Z" fill="black"/>
<path d="M32.5992 246.801C32.9992 247.401 33.2991 247.901 33.4991 248.501C33.6991 249.101 33.899 249.601 33.999 250.001C33.999 250.501 34.0991 250.801 34.0991 251.001H31.9992C31.9992 251.001 31.9991 250.401 31.8991 249.801C31.7991 249.201 31.4989 248.601 31.0989 248.101C30.6989 247.501 30.1991 247.101 29.6991 246.801C29.1991 246.501 28.6992 246.601 28.1992 246.801C27.6992 247.101 27.4992 247.6 27.5992 248.2C27.5992 248.8 27.7992 249.601 28.1992 250.401C28.4992 251.101 28.6991 251.801 28.7991 252.501C28.8991 253.201 28.8991 253.801 28.7991 254.401C28.5991 255.001 28.1991 255.601 27.4991 256.101C26.8991 256.501 26.2991 256.801 25.5991 256.801C24.9991 256.801 24.3991 256.801 23.7991 256.501C23.1991 256.201 22.6991 255.901 22.1991 255.401C21.6991 254.901 21.199 254.401 20.799 253.801C20.299 253.101 19.9991 252.501 19.6991 251.901C19.4991 251.301 19.2992 250.7 19.1992 250.2C19.1992 249.7 19.1992 249.301 19.1992 249.101L21.499 248.9C21.499 248.9 21.499 249.801 21.499 250.501C21.599 251.201 21.899 251.901 22.399 252.501C22.899 253.201 23.4991 253.7 24.0991 253.9C24.6991 254.1 25.299 254.101 25.799 253.701C26.199 253.401 26.399 253.1 26.499 252.7C26.499 252.3 26.499 251.9 26.499 251.4C26.399 250.9 26.1991 250.501 25.9991 250.001C25.7991 249.501 25.599 249.001 25.499 248.501C25.399 248.001 25.2991 247.5 25.2991 247C25.2991 246.5 25.3992 246.001 25.6992 245.601C25.8992 245.201 26.299 244.801 26.799 244.401C27.399 244.001 28.0991 243.8 28.7991 243.9C29.4991 243.9 30.199 244.301 30.899 244.701C31.599 245.201 32.199 245.801 32.699 246.501L32.5992 246.801Z" fill="black"/>
<path d="M33.2994 271L31.5996 268.7L49.3996 255.699L51.0994 258L33.2994 271Z" fill="black"/>
<path d="M42.3999 283.399L44.5001 281.9C44.5001 281.9 43.8001 282 43.2001 281.9C42.6001 281.8 41.9 281.7 41.2 281.3C40.5 281 39.8001 280.399 39.2001 279.599C38.5001 278.599 38.0001 277.599 37.9001 276.399C37.8001 275.299 37.9 274.2 38.4 273.1C38.9 272 39.6999 270.999 40.7999 270.199C41.8999 269.399 43.0999 268.9 44.2999 268.7C45.4999 268.5 46.5999 268.699 47.6999 269.099C48.7999 269.499 49.6001 270.3 50.4001 271.2C51.0001 272 51.3 272.699 51.5 273.499C51.6 274.299 51.7 274.9 51.5 275.6C51.4 276.2 51.2001 276.6 51.0001 276.9L52.9999 275.399L54.5999 277.599L44.1 285.5L42.5 283.299L42.3999 283.399ZM42.5 272.5C41.7 273.1 41.2 273.699 40.9 274.499C40.6 275.299 40.5 276 40.6 276.8C40.6 277.6 41.0002 278.199 41.4002 278.899C41.9002 279.599 42.5001 279.999 43.2001 280.299C43.9001 280.599 44.6001 280.7 45.4001 280.5C46.2001 280.4 46.8999 280.099 47.6999 279.499C48.3999 278.999 48.9999 278.299 49.2999 277.599C49.5999 276.899 49.8 276.099 49.7 275.399C49.7 274.699 49.3002 273.999 48.9002 273.299C48.4002 272.699 47.9 272.2 47.2 271.9C46.5 271.6 45.6999 271.499 44.8999 271.599C44.0999 271.599 43.3001 271.999 42.6001 272.599L42.5 272.5Z" fill="black"/>
<path d="M62 286.702C62.5 287.402 62.8999 288.201 63.0999 289.001C63.2999 289.901 63.2998 290.701 62.9998 291.601C62.6998 292.501 62.0997 293.301 61.0997 294.101L54.5998 299.101L52.9 296.902L58.9 292.201C59.9 291.401 60.4999 290.601 60.5999 289.701C60.6999 288.801 60.3998 288.102 59.8998 287.302C59.4998 286.802 58.9998 286.402 58.3998 286.202C57.7998 286.002 57.1 285.901 56.4 286.001C55.7 286.001 54.9999 286.402 54.3999 286.902L48.6998 291.302L47 289.101L57.3998 281.102L59.0999 283.301L57.3 284.701C57.3 284.701 58.0998 284.501 58.6998 284.601C59.2998 284.601 59.8999 284.901 60.5999 285.201C61.1999 285.501 61.8 286.001 62.3 286.601L62 286.702Z" fill="black"/>
<path d="M55.8992 312.202C55.2992 311.402 54.7993 310.602 54.3993 309.802C53.9993 309.002 53.7992 308.303 53.6992 307.503C53.6992 306.803 53.6993 306.103 53.7993 305.503L56.2993 305.802C56.2993 305.802 56.0991 306.502 56.0991 307.002C56.0991 307.502 56.0994 308.003 56.3994 308.603C56.5994 309.203 56.9994 309.903 57.5994 310.603C58.1994 311.303 58.7992 311.802 59.5992 312.102C60.2992 312.402 60.9992 312.402 61.7992 312.202C62.4992 312.002 63.2994 311.703 63.8994 311.203L64.1994 310.902L65.8992 313.003L65.3994 313.402C64.2994 314.302 63.0994 314.803 61.9994 315.003C60.7994 315.103 59.6992 315.002 58.6992 314.502C57.5992 314.002 56.6992 313.202 55.8992 312.202ZM64.0993 311.103L66.0991 309.502C66.0991 309.502 65.3994 309.602 64.7994 309.602C64.1994 309.602 63.4993 309.402 62.7993 309.102C62.0993 308.802 61.3991 308.303 60.7991 307.503C59.9991 306.603 59.5993 305.503 59.3993 304.403C59.1993 303.303 59.3994 302.203 59.7994 301.103C60.1994 300.003 60.9992 299.003 62.0992 298.103C63.1992 297.203 64.2991 296.702 65.4991 296.502C66.6991 296.302 67.7994 296.503 68.8994 296.803C69.9994 297.203 70.8993 297.903 71.5993 298.803C72.1993 299.503 72.5993 300.302 72.7993 301.002C72.9993 301.802 72.9994 302.403 72.8994 303.103C72.8994 303.703 72.6993 304.103 72.4993 304.403L74.3993 302.902L76.0991 305.003L65.8992 313.202L64.1994 311.103H64.0993ZM63.7993 300.202C63.0993 300.802 62.5994 301.502 62.2994 302.202C61.9994 302.902 61.8992 303.702 62.0992 304.502C62.1992 305.202 62.4991 305.902 62.9991 306.502C63.4991 307.102 64.0994 307.602 64.7994 307.802C65.4994 308.102 66.1994 308.103 66.9994 308.003C67.7994 307.903 68.4992 307.503 69.2992 306.903C69.9992 306.303 70.4991 305.703 70.7991 304.903C71.0991 304.203 71.1991 303.402 71.0991 302.702C71.0991 302.002 70.6992 301.303 70.1992 300.603C69.6992 300.003 69.0992 299.603 68.3992 299.303C67.6992 299.003 66.8991 298.902 66.0991 299.002C65.2991 299.102 64.4993 299.502 63.7993 300.102V300.202Z" fill="black"/>
<path d="M75.6997 314.902C74.5997 315.802 73.9996 316.701 73.7996 317.701C73.4996 318.701 73.7995 319.602 74.5995 320.602C75.3995 321.502 76.2997 322.002 77.2997 321.902C78.2997 321.902 79.2997 321.302 80.3997 320.502L85.4995 316.302L87.2997 318.401L81.8996 322.901C80.8996 323.701 79.8996 324.301 78.7996 324.501C77.6996 324.701 76.6997 324.702 75.6997 324.302C74.6997 323.902 73.6996 323.201 72.7996 322.201C71.8996 321.201 71.3995 320.101 71.1995 319.001C70.9995 317.901 71.1996 316.901 71.5996 315.901C71.9996 314.901 72.6995 314.002 73.6995 313.102L79.0996 308.602L80.8996 310.701L75.7995 315.002L75.6997 314.902Z" fill="black"/>
<path d="M85.9997 327.9C85.3997 328.4 84.9996 329 84.6996 329.7C84.3996 330.4 84.3997 331.1 84.4997 331.8C84.5997 332.5 84.9997 333.3 85.6997 334C86.1997 334.6 86.7997 335.1 87.2997 335.3C87.8997 335.6 88.3997 335.7 88.8997 335.8C89.3997 335.8 89.7997 335.8 90.0997 335.8L89.6996 337.9C89.0996 337.9 88.4996 337.9 87.7996 337.9C87.1996 337.8 86.5996 337.5 85.8996 337.1C85.2996 336.7 84.5997 336.1 83.8997 335.3C82.9997 334.2 82.3996 333.099 82.1996 331.999C81.9996 330.799 82.0996 329.7 82.4996 328.6C82.8996 327.5 83.6996 326.5 84.6996 325.5C85.6996 324.7 86.6996 324.1 87.7996 323.8C88.8996 323.5 89.9995 323.499 91.0995 323.899C92.1995 324.299 93.1997 325 94.1997 326C94.9997 327 95.5995 328 95.7995 329.1C95.9995 330.2 95.8996 331.2 95.5996 332.3C95.1996 333.4 94.4997 334.3 93.4997 335.2C93.4997 335.2 93.2996 335.3 93.0996 335.5C92.8996 335.6 92.7995 335.7 92.6995 335.8L85.8996 328L85.9997 327.9ZM92.6995 332.4C92.6995 332.4 93.2997 331.7 93.4997 331.2C93.6997 330.7 93.7996 330.1 93.6996 329.4C93.6996 328.7 93.2995 328.1 92.6995 327.4C92.0995 326.7 91.4995 326.2 90.7995 326C90.1995 325.8 89.5995 325.8 88.9995 326C88.3995 326.1 87.9997 326.3 87.5997 326.6L92.5997 332.4H92.6995Z" fill="black"/>
<path d="M104.301 337.201C104.801 337.701 105.101 338.201 105.401 338.801C105.701 339.301 105.901 339.801 106.101 340.301C106.301 340.801 106.301 341.101 106.301 341.301L104.301 341.701C104.301 341.701 104.301 341.001 104.001 340.401C103.801 339.801 103.501 339.301 103.001 338.801C102.501 338.201 102.001 337.901 101.401 337.701C100.801 337.501 100.301 337.701 99.9006 338.001C99.5006 338.401 99.4009 338.901 99.5009 339.501C99.6009 340.101 99.9008 340.801 100.401 341.601C100.801 342.301 101.001 342.901 101.301 343.601C101.501 344.301 101.601 344.901 101.501 345.601C101.401 346.201 101.001 346.801 100.401 347.401C99.8008 347.901 99.2006 348.201 98.6006 348.401C98.0006 348.501 97.4007 348.401 96.8007 348.401C96.2007 348.201 95.6007 347.901 95.0007 347.501C94.4007 347.101 93.9008 346.601 93.5008 346.101C93.0008 345.501 92.5007 344.901 92.2007 344.301C91.9007 343.701 91.7007 343.201 91.5007 342.701C91.4007 342.201 91.3008 341.901 91.3008 341.601L93.5008 341.101C93.5008 341.101 93.5008 342.001 93.8008 342.701C94.0008 343.401 94.4006 344.001 94.9006 344.601C95.5006 345.301 96.1007 345.701 96.8007 345.801C97.4007 345.901 98.0008 345.801 98.5008 345.401C98.8008 345.101 99.0007 344.701 99.0007 344.401C99.0007 344.001 99.0008 343.601 98.8008 343.201C98.6008 342.801 98.4007 342.301 98.1007 341.801C97.8007 341.301 97.6006 340.901 97.4006 340.401C97.2006 339.901 97.1006 339.401 97.1006 338.901C97.1006 338.401 97.1008 337.901 97.3008 337.401C97.5008 336.901 97.8008 336.501 98.2008 336.101C98.8008 335.601 99.4008 335.301 100.101 335.301C100.801 335.301 101.501 335.501 102.301 335.901C103.001 336.301 103.701 336.801 104.301 337.501V337.201Z" fill="black"/>
<path d="M109.601 372.302L116.201 365.902C116.201 365.902 115.501 366.102 114.901 366.202C114.301 366.202 113.601 366.202 112.801 365.802C112.001 365.502 111.301 365.002 110.601 364.302C109.801 363.402 109.201 362.402 108.901 361.402C108.601 360.302 108.701 359.202 109.101 358.102C109.501 357.002 110.101 355.902 111.101 355.002C112.101 354.002 113.201 353.402 114.301 353.002C115.401 352.702 116.501 352.602 117.601 353.002C118.701 353.302 119.601 353.802 120.501 354.702C121.201 355.402 121.601 356.102 121.901 356.902C122.201 357.702 122.301 358.402 122.301 359.002C122.301 359.602 122.201 360.102 122.001 360.402L123.801 358.702L125.801 360.702L111.601 374.502L109.701 372.502L109.601 372.302ZM112.701 363.102C113.301 363.702 113.901 364.102 114.701 364.302C115.401 364.502 116.201 364.502 117.001 364.302C117.801 364.102 118.501 363.702 119.201 363.002C119.901 362.402 120.301 361.702 120.501 360.902C120.701 360.102 120.801 359.402 120.501 358.602C120.301 357.802 119.901 357.202 119.401 356.602C118.901 356.102 118.301 355.702 117.501 355.502C116.801 355.302 116.001 355.302 115.301 355.502C114.601 355.702 113.801 356.102 113.101 356.802C112.401 357.502 112.001 358.202 111.701 358.902C111.401 359.602 111.501 360.402 111.701 361.102C111.901 361.802 112.201 362.402 112.701 363.002V363.102Z" fill="black"/>
<path d="M125.8 369.901C124.8 370.901 124.3 371.901 124.1 372.901C124 373.901 124.3 374.801 125.2 375.701C126.1 376.601 127 376.901 128 376.701C129 376.501 130 375.901 130.9 375.001L135.5 370.301L137.5 372.201L132.6 377.201C131.7 378.101 130.7 378.801 129.7 379.101C128.7 379.501 127.6 379.501 126.6 379.201C125.5 378.901 124.5 378.301 123.5 377.401C122.5 376.501 121.9 375.501 121.6 374.401C121.3 373.301 121.3 372.301 121.6 371.301C121.9 370.201 122.5 369.301 123.4 368.301L128.3 363.301L130.3 365.201L125.7 369.901H125.8Z" fill="black"/>
<path d="M137.5 381.902C137 382.502 136.6 383.102 136.4 383.802C136.2 384.502 136.2 385.202 136.4 385.902C136.6 386.602 137.1 387.302 137.8 388.002C138.4 388.502 139 388.902 139.6 389.102C140.2 389.302 140.7 389.402 141.2 389.402C141.7 389.402 142.1 389.402 142.4 389.302V391.402C141.6 391.502 141 391.602 140.4 391.502C139.8 391.502 139.1 391.202 138.4 390.902C137.7 390.602 137 390.002 136.2 389.302C135.2 388.302 134.5 387.302 134.1 386.202C133.8 385.002 133.7 383.902 134.1 382.702C134.4 381.502 135.1 380.402 136 379.402C136.9 378.502 137.9 377.802 138.9 377.402C140 377.002 141.1 376.902 142.2 377.202C143.3 377.402 144.4 378.002 145.5 379.002C146.4 379.902 147.1 380.802 147.4 381.902C147.7 382.902 147.8 384.001 147.4 385.101C147 386.201 146.5 387.201 145.6 388.201C145.6 388.201 145.4 388.402 145.3 388.502C145.1 388.702 145 388.802 145 388.802L137.4 381.702L137.5 381.902ZM144.6 385.602C144.6 385.602 145.1 384.802 145.3 384.302C145.5 383.802 145.5 383.202 145.3 382.502C145.1 381.802 144.8 381.202 144.1 380.602C143.4 380.002 142.7 379.602 142.1 379.502C141.4 379.402 140.8 379.502 140.3 379.602C139.8 379.802 139.3 380.102 139 380.402L144.6 385.602Z" fill="black"/>
<path d="M145.899 406.999C145.399 406.499 144.999 406.099 144.699 405.599C144.399 405.199 144.299 404.799 144.199 404.599L146.399 403.699C146.399 403.699 146.399 404.099 146.599 404.199C146.599 404.399 146.899 404.599 147.199 404.799C147.599 405.099 147.899 405.199 148.299 405.199C148.699 405.199 149.099 404.999 149.499 404.599C149.899 404.299 150.299 403.799 150.799 403.299L160.099 392.5L162.199 394.299L152.399 405.599C151.699 406.399 150.999 406.999 150.299 407.399C149.599 407.799 148.899 407.999 148.099 407.999C147.399 407.999 146.599 407.6 145.899 406.9V406.999ZM163.999 390.099C163.999 390.099 163.399 389.299 163.399 388.899C163.399 388.399 163.499 387.999 163.799 387.599C163.999 387.399 164.299 387.199 164.599 387.099C164.899 387.099 165.199 386.999 165.499 387.099C165.799 387.099 166.099 387.3 166.399 387.5C166.699 387.7 166.799 387.999 166.899 388.299C166.899 388.599 166.999 388.899 166.899 389.199C166.899 389.499 166.699 389.8 166.499 390C166.199 390.4 165.799 390.599 165.299 390.599C164.799 390.599 164.399 390.499 163.999 390.199V390.099Z" fill="black"/>
<path d="M162.8 404.301C162.3 404.901 162 405.601 161.8 406.301C161.6 407.001 161.7 407.701 162 408.401C162.3 409.101 162.8 409.801 163.5 410.401C164.1 410.901 164.7 411.301 165.3 411.401C165.9 411.501 166.4 411.601 166.9 411.601C167.4 411.601 167.8 411.601 168.1 411.401V413.601C167.5 413.801 166.9 413.801 166.2 413.801C165.5 413.801 164.9 413.601 164.2 413.301C163.5 413.001 162.8 412.501 162 411.801C160.9 410.901 160.2 409.901 159.8 408.801C159.4 407.701 159.3 406.501 159.6 405.401C159.9 404.201 160.4 403.101 161.3 402.001C162.1 401.001 163.1 400.301 164.1 399.801C165.2 399.301 166.3 399.201 167.4 399.401C168.6 399.601 169.7 400.101 170.7 401.001C171.7 401.801 172.4 402.701 172.8 403.801C173.2 404.801 173.3 405.901 173.1 407.001C172.9 408.101 172.3 409.201 171.5 410.201C171.5 410.201 171.3 410.401 171.2 410.501C171.1 410.701 170.9 410.801 170.9 410.801L162.9 404.201L162.8 404.301ZM170.1 407.601C170.1 407.601 170.6 406.801 170.7 406.201C170.8 405.601 170.8 405.001 170.7 404.401C170.5 403.801 170.1 403.201 169.4 402.601C168.7 402.001 168 401.701 167.3 401.601C166.6 401.601 166 401.601 165.5 401.801C165 402.001 164.5 402.301 164.2 402.701L170.1 407.601Z" fill="black"/>
<path d="M175.8 430.902L173.6 429.203L185.5 413.402L187.8 415.102L186.3 417.102C186.3 417.102 187 416.702 187.6 416.602C188.2 416.602 188.9 416.603 189.7 416.703C190.5 416.903 191.3 417.302 192 417.802C193 418.502 193.7 419.402 194.1 420.402C194.5 421.402 194.6 422.503 194.4 423.703C194.2 424.803 193.7 426.002 192.9 427.102C192.1 428.202 191.1 429.002 190 429.502C188.9 430.002 187.8 430.202 186.7 430.102C185.6 430.002 184.5 429.603 183.6 428.803C182.8 428.203 182.2 427.503 181.9 426.803C181.5 426.103 181.3 425.402 181.3 424.702C181.3 424.102 181.3 423.602 181.3 423.402L175.8 430.802V430.902ZM190.7 425.603C191.3 424.803 191.6 424.102 191.7 423.302C191.8 422.502 191.7 421.803 191.4 421.103C191.1 420.403 190.7 419.803 190.1 419.403C189.4 418.903 188.7 418.602 188 418.502C187.2 418.502 186.5 418.503 185.7 418.803C185 419.103 184.3 419.702 183.8 420.402C183.2 421.202 182.9 421.902 182.8 422.702C182.7 423.502 182.8 424.203 183.1 424.903C183.4 425.603 183.9 426.203 184.6 426.703C185.2 427.103 185.9 427.403 186.6 427.503C187.3 427.503 188.1 427.502 188.8 427.102C189.5 426.802 190.2 426.203 190.7 425.503V425.603Z" fill="black"/>
<path d="M201 440.902L202.5 438.803C202.5 438.803 201.9 439.103 201.3 439.303C200.7 439.403 200 439.503 199.2 439.303C198.4 439.303 197.6 438.902 196.8 438.302C195.8 437.602 195.1 436.702 194.6 435.702C194.1 434.702 193.9 433.603 194.1 432.403C194.2 431.203 194.7 430.002 195.5 428.902C196.3 427.802 197.2 426.902 198.3 426.402C199.4 425.902 200.5 425.702 201.6 425.802C202.7 425.902 203.8 426.302 204.8 427.002C205.6 427.502 206.2 428.203 206.5 428.803C206.8 429.403 207.1 430.102 207.2 430.702C207.2 431.302 207.2 431.802 207.2 432.102L208.6 430.102L210.9 431.703L203.4 442.503L201.2 440.902H201ZM197.6 430.603C197.1 431.403 196.8 432.203 196.7 433.003C196.7 433.803 196.7 434.602 197.1 435.202C197.4 435.902 197.9 436.403 198.5 436.903C199.2 437.403 199.9 437.602 200.6 437.702C201.3 437.702 202.1 437.702 202.8 437.202C203.5 436.802 204.1 436.303 204.7 435.503C205.2 434.703 205.5 434.002 205.6 433.202C205.7 432.402 205.6 431.703 205.3 431.003C205 430.303 204.5 429.703 203.8 429.303C203.2 428.903 202.5 428.603 201.7 428.503C200.9 428.503 200.2 428.502 199.4 428.902C198.6 429.302 198 429.803 197.5 430.603H197.6Z" fill="black"/>
<path d="M209.8 446.801L207.5 445.301L214.7 434.301L217 435.8L215.8 437.7C215.8 437.7 216.3 437.3 216.9 437.1C217.4 436.9 218 436.901 218.7 436.901C219.4 436.901 220.1 437.2 220.8 437.7C221.3 438 221.7 438.401 222 438.801C222.3 439.201 222.5 439.501 222.6 439.701L220.4 441.001C220.4 441.001 220.2 440.5 220 440.2C219.8 439.9 219.4 439.601 219 439.301C218.4 438.901 217.8 438.8 217.1 438.9C216.4 439 215.8 439.2 215.3 439.6C214.7 440 214.3 440.4 214 440.8L210 446.901L209.8 446.801Z" fill="black"/>
<path d="M220.099 453.399L217.699 451.9L229.399 433.199L231.799 434.699L220.099 453.399Z" fill="black"/>
<path d="M229 451.903C228.6 452.603 228.4 453.302 228.3 454.002C228.3 454.702 228.4 455.403 228.8 456.103C229.2 456.803 229.8 457.302 230.6 457.802C231.3 458.202 231.9 458.503 232.6 458.603C233.2 458.603 233.8 458.603 234.3 458.603C234.8 458.503 235.2 458.402 235.4 458.202L235.7 460.302C235.1 460.602 234.5 460.702 233.9 460.802C233.3 460.802 232.6 460.803 231.9 460.603C231.2 460.403 230.4 460.002 229.5 459.502C228.3 458.802 227.4 457.903 226.8 456.903C226.2 455.903 226 454.703 226 453.503C226 452.303 226.5 451.103 227.2 449.903C227.9 448.803 228.7 447.903 229.6 447.303C230.6 446.703 231.6 446.402 232.8 446.402C234 446.402 235.2 446.803 236.4 447.503C237.5 448.203 238.3 449.003 238.9 449.903C239.4 450.803 239.7 451.903 239.7 453.003C239.7 454.103 239.3 455.302 238.6 456.402C238.6 456.402 238.5 456.603 238.4 456.803C238.3 457.003 238.2 457.103 238.1 457.203L229.2 451.903H229ZM236.8 454.002C236.8 454.002 237.2 453.102 237.2 452.602C237.2 452.002 237.2 451.402 236.9 450.902C236.6 450.302 236.1 449.803 235.3 449.303C234.5 448.803 233.8 448.603 233.1 448.603C232.4 448.603 231.8 448.803 231.3 449.103C230.8 449.403 230.4 449.702 230.1 450.102L236.7 454.002H236.8Z" fill="black"/>
<path d="M241.1 466.301C240.6 466.001 240.2 465.601 240.1 465.001C239.9 464.401 240 463.901 240.3 463.401C240.6 462.901 241 462.501 241.6 462.401C242.2 462.201 242.7 462.301 243.2 462.601C243.7 462.901 244.1 463.301 244.2 463.901C244.4 464.501 244.2 465.001 244 465.601C243.7 466.101 243.3 466.401 242.7 466.601C242.1 466.801 241.6 466.601 241 466.401L241.1 466.301Z" fill="black"/>
<path d="M269.1 472.3L270.799 473.1C272.199 473.7 273.7 474.3 275.2 474.9C276.8 475.5 278.5 476 280.3 476.4L279.6 478.7C277.7 478.2 275.9 477.7 274.3 477.1C272.7 476.5 271.2 475.9 269.8 475.2L268.1 474.4L269.1 472.3ZM275.5 458L277.9 459.1L271 474.3L268.599 473.2L275.5 458ZM289.4 461.2L291.7 462.2L280.6 486.6L278.299 485.6L289.4 461.2ZM295.7 463.3L298 464.4L286 490.8L283.7 489.7L295.7 463.3ZM286.4 472.1L291.5 474.4L290.6 476.4L285.5 474.1L286.4 472.1Z" fill="black"/>
<path d="M313.101 473.602L315.501 474.502C314.501 477.102 313.201 479.402 311.401 481.402C309.701 483.402 307.501 485.102 305.001 486.402C302.501 487.702 299.401 488.502 296.001 488.902L295.301 486.502C298.301 486.202 300.901 485.502 303.201 484.502C305.501 483.402 307.501 482.002 309.101 480.302C310.701 478.602 312.001 476.502 312.901 474.102V473.702L313.101 473.602ZM303.101 469.902L314.401 474.202L313.601 476.302L302.301 472.002L303.101 469.902ZM321.101 473.402L323.601 474.302L313.401 501.402L310.901 500.502L321.101 473.402ZM318.701 485.002L323.701 486.902L322.901 489.002L317.901 487.102L318.701 485.002Z" fill="black"/>
<path d="M335 506.102L353.6 511.501L353 513.501L334.4 508.102L335 506.102ZM337.5 497.201L355.2 502.302L353.4 508.501L338.3 504.101L337.3 507.402L334.8 506.702L336.3 501.501L351.401 505.801L352.1 503.301L336.9 498.901L337.4 497.001L337.5 497.201ZM345 487.502C347 488.102 348.5 489.001 349.5 490.101C350.5 491.301 350.8 492.501 350.3 494.001C349.8 495.501 349 496.402 347.5 496.802C346.1 497.302 344.3 497.201 342.3 496.601C340.3 496.001 338.8 495.101 337.8 494.001C336.8 492.801 336.5 491.601 337 490.101C337.4 488.701 338.3 487.802 339.8 487.302C341.3 486.802 343 486.902 345 487.502ZM337.7 481.902L354.1 486.601L353.5 488.602L337.1 483.901L337.7 481.902ZM344.5 489.402C343.2 489.002 342.1 489.002 341.2 489.202C340.3 489.502 339.7 490.001 339.5 490.801C339.3 491.601 339.5 492.402 340.1 493.102C340.7 493.802 341.7 494.301 343 494.701C344.3 495.101 345.4 495.102 346.3 494.902C347.2 494.602 347.8 494.101 348 493.301C348.2 492.501 348 491.701 347.4 491.001C346.8 490.301 345.8 489.802 344.5 489.402ZM345.5 481.102L348 481.802L346.8 486.001L344.3 485.301L345.5 481.102ZM357.5 484.802L360.1 485.502L355.7 500.901L353.2 500.201L357.6 484.802H357.5ZM357 491.902L362.2 493.401L361.6 495.502L356.401 494.001L357 491.902Z" fill="black"/>
<path d="M372.999 501.401L398.599 506.702L398.2 508.802L372.6 503.501L372.999 501.401ZM373.2 516.302L393.2 520.401L392.799 522.402L372.799 518.201L373.2 516.202V516.302ZM375.1 507.001L394.299 511.001L392.999 517.502L376.4 514.101L375.7 517.402L373.2 516.902L374.299 511.702L390.899 515.101L391.499 512.502L374.8 509.001L375.199 507.001H375.1ZM386.4 493.702L388.699 494.202L388.5 495.002C388.3 495.902 387.999 496.702 387.399 497.302C386.899 498.002 386.199 498.501 385.299 499.001C384.499 499.501 383.5 499.801 382.5 500.101C381.5 500.301 380.3 500.502 379.2 500.602C378 500.602 376.799 500.602 375.599 500.502L375.199 498.401C376.299 498.501 377.299 498.601 378.299 498.501C379.299 498.501 380.299 498.401 381.199 498.201C382.099 498.001 382.899 497.802 383.599 497.402C384.299 497.102 384.9 496.702 385.4 496.202C385.9 495.702 386.2 495.201 386.3 494.601L386.499 493.802L386.4 493.702ZM377.6 491.102L398.5 495.401L398.099 497.502L377.2 493.201L377.6 491.102ZM384.2 505.301L386.799 505.801L385.899 510.101L383.299 509.601L384.2 505.301ZM387.099 493.901L389.4 494.402L389.2 495.301C389.1 495.901 389.2 496.501 389.4 497.101C389.6 497.701 389.999 498.301 390.599 498.901C391.099 499.501 391.8 500.002 392.5 500.602C393.3 501.102 394.1 501.601 395 502.101C395.9 502.501 396.899 502.901 397.999 503.201L396.7 505.002C395.5 504.602 394.399 504.202 393.299 503.702C392.199 503.202 391.3 502.602 390.4 501.902C389.6 501.302 388.8 500.602 388.2 499.802C387.6 499.002 387.2 498.202 387 497.402C386.8 496.602 386.7 495.702 387 494.802L387.2 494.001L387.099 493.901Z" fill="black"/>
<path d="M420.2 500.1C421.6 500.3 422.8 500.9 423.8 501.8C424.8 502.8 425.5 504 425.9 505.6C426.3 507.2 426.4 509 426.1 511C425.8 513 425.3 514.8 424.5 516.2C423.7 517.6 422.7 518.7 421.5 519.3C420.3 520 419 520.2 417.6 520C416.2 519.8 415 519.2 414 518.3C413 517.3 412.3 516.1 411.9 514.5C411.5 512.9 411.4 511.1 411.7 509.1C412 507.1 412.5 505.3 413.3 503.9C414.1 502.5 415.1 501.4 416.3 500.8C417.5 500.1 418.8 499.9 420.2 500.1ZM419.9 502.5C419 502.4 418.1 502.5 417.3 503.1C416.5 503.6 415.8 504.4 415.3 505.5C414.7 506.6 414.4 507.9 414.2 509.5C414 511 414 512.4 414.2 513.6C414.4 514.8 414.9 515.8 415.5 516.5C416.1 517.2 416.9 517.7 417.8 517.8C418.7 517.9 419.6 517.8 420.4 517.2C421.2 516.6 421.9 515.8 422.4 514.7C422.9 513.6 423.3 512.3 423.5 510.7C423.7 509.2 423.7 507.8 423.5 506.6C423.3 505.4 422.8 504.4 422.2 503.7C421.6 503 420.8 502.6 419.9 502.4V502.5ZM432.3 499.5L434.9 499.9L431 528.6L428.4 528.2L432.3 499.5ZM432.8 511.2L438.1 511.901L437.8 514.1L432.5 513.4L432.8 511.2Z" fill="black"/>
<path d="M441 515.402L467.2 517.601L467.001 519.802L440.9 517.601L441.1 515.402H441ZM443.4 527.001L463.4 528.702L463.201 530.902L443.201 529.202L443.4 527.001ZM443.901 520.802L446.5 521.002L445.9 527.802L443.3 527.601L443.901 520.802ZM445 509.702L464.6 511.401L464.4 513.502L444.801 511.902L445 509.802V509.702ZM445.701 502.102L448.3 502.302L447.601 511.002L445 510.802L445.701 502.102Z" fill="black"/>
<path d="M488.299 505.701C489.699 505.701 490.999 506.102 492.099 506.702C493.199 507.302 494.099 508.202 494.699 509.302C495.299 510.402 495.599 511.602 495.599 513.002C495.599 514.402 495.199 515.602 494.499 516.702C493.799 517.802 492.899 518.602 491.799 519.202C490.699 519.802 489.399 520.102 487.999 520.002C486.599 520.002 485.299 519.601 484.199 519.001C483.099 518.401 482.199 517.501 481.599 516.401C480.999 515.301 480.699 514.101 480.699 512.601C480.699 511.201 481.099 510.001 481.799 508.901C482.499 507.801 483.399 507.001 484.499 506.401C485.599 505.801 486.899 505.602 488.299 505.602V505.701ZM488.299 508.002C487.399 508.002 486.499 508.202 485.799 508.502C485.099 508.802 484.499 509.401 483.999 510.201C483.499 510.901 483.299 511.801 483.299 512.701C483.299 513.601 483.499 514.501 483.899 515.201C484.299 515.901 484.899 516.502 485.599 516.902C486.299 517.302 487.199 517.601 488.099 517.601C488.999 517.601 489.899 517.401 490.599 517.001C491.399 516.601 491.999 516.102 492.399 515.302C492.799 514.602 493.099 513.802 493.099 512.802C493.099 511.802 492.899 511.002 492.499 510.302C492.099 509.602 491.499 509.002 490.799 508.602C490.099 508.202 489.199 507.902 488.299 507.902V508.002ZM485.199 529.902L504.499 530.402V532.601L485.199 532.101V529.902ZM485.299 522.902H487.899L487.699 530.801H485.099L485.299 522.902ZM494.699 512.001L502.599 512.202V514.402L494.599 514.202V512.001H494.699ZM501.599 504.102H504.299L503.799 525.502H501.099L501.599 504.102Z" fill="black"/>
<path d="M518.1 506.402C519.5 506.402 520.8 506.802 521.9 507.602C523 508.402 523.9 509.603 524.5 511.103C525.1 512.603 525.5 514.402 525.5 516.402C525.5 518.502 525.3 520.203 524.7 521.803C524.1 523.303 523.3 524.503 522.2 525.403C521.1 526.303 519.9 526.703 518.5 526.703C517.1 526.703 515.9 526.303 514.7 525.503C513.5 524.703 512.7 523.502 512.1 522.002C511.5 520.502 511.1 518.703 511.1 516.703C511.1 514.603 511.3 512.903 511.9 511.303C512.5 509.803 513.3 508.602 514.4 507.702C515.5 506.902 516.7 506.402 518.1 506.402ZM518.1 508.703C517.2 508.703 516.4 509.103 515.7 509.703C515 510.303 514.5 511.303 514.1 512.403C513.7 513.603 513.6 514.902 513.6 516.502C513.6 518.102 513.8 519.403 514.3 520.603C514.7 521.703 515.3 522.602 516 523.302C516.7 523.902 517.5 524.203 518.5 524.203C519.4 524.203 520.3 523.802 520.9 523.202C521.6 522.602 522.1 521.603 522.5 520.503C522.9 519.403 523.1 518.002 523 516.402C523 514.802 522.8 513.503 522.3 512.303C521.9 511.203 521.3 510.302 520.6 509.602C519.9 509.002 519.1 508.703 518.1 508.703ZM524.5 515.102H532.8V517.102H524.5V515.102ZM531.5 503.902H534.1L534.6 532.802H532L531.5 503.902Z" fill="black"/>
<path d="M540.801 515.8L566.901 514.4V516.5L540.901 517.9V515.8H540.801ZM543.601 504.5L562.801 503.5V505.6L546.301 506.5L546.601 512.7H544.001L543.601 504.5ZM544.001 511.1L563.501 510.1V512.2L544.101 513.2V511.1H544.001ZM544.201 520.3L563.801 519.2L564.201 526L547.301 526.9L547.501 530.6H544.901L544.601 525.1L561.501 524.2V521.5L544.401 522.4V520.3H544.201ZM544.801 530L565.201 528.9V531L544.901 532.1V530H544.801Z" fill="black"/>
<path d="M575.3 528.401C574.7 528.401 574.2 528.302 573.7 527.902C573.2 527.502 573 527.001 572.9 526.401C572.9 525.801 573 525.202 573.4 524.802C573.8 524.402 574.3 524.102 574.9 524.102C575.5 524.102 576 524.201 576.5 524.601C576.9 525.001 577.2 525.502 577.2 526.102C577.2 526.702 577.1 527.201 576.7 527.701C576.3 528.201 575.8 528.402 575.2 528.502L575.3 528.401Z" fill="black"/>
</g>
<defs>
<clipPath id="clip0_95_562">
<rect width="2835" height="657" fill="white"/>
</clipPath>
</defs>
</svg>
