<svg width="2884" height="990" viewBox="0 0 2884 990" fill="none" xmlns="http://www.w3.org/2000/svg">
<g clip-path="url(#clip0_79_583)">
<path d="M2879 430.001C2879 406.001 1870 -121.999 1075 86.0013C585.7 214.001 750.1 739.701 1116 620.001C1336 548.001 1321 277.001 987 271.001C320.4 259.001 1 989.001 1 989.001" stroke="black" stroke-width="2" stroke-miterlimit="10"/>
<path d="M2296.2 134.601V137.201H2293.6V132.001H2291V124.301H2293.6V129.501H2296.2V132.101H2301.4V134.701H2309.1V132.101H2311.7V121.801H2309.1V119.201H2306.5V116.601H2303.9V114.001H2298.7V111.401H2296.1V108.801H2293.5V98.5007H2296.1V95.9007H2298.7V93.3008H2314.2V98.5007H2316.8V103.701H2314.2V101.101H2311.6V98.5007H2309V95.9007H2301.3V98.5007H2298.7V106.201H2301.3V108.801H2303.9V111.401H2309.1V114.001H2311.7V116.601H2314.3V119.201H2316.9V132.101H2314.3V134.701H2311.7V137.301H2298.8V134.701H2296.2V134.601Z" fill="black"/>
<path d="M2324.6 137.201V134.601H2327.2V101.001H2322V98.4007H2327.2V95.8008H2332.4V111.301H2335V113.901H2332.4V134.601H2335V137.201H2324.7H2324.6ZM2342.7 137.201V134.601H2345.3V113.901H2342.7V111.301H2334.9V108.701H2345.2V111.301H2347.8V113.901H2350.4V134.601H2353V137.201H2342.7Z" fill="black"/>
<path d="M2360.8 137.202V134.602H2366V113.902H2360.8V111.302H2366V108.702H2371.2V134.502H2376.4V137.102H2360.9L2360.8 137.202ZM2365.9 98.4023H2371.1V103.602H2365.9V98.4023Z" fill="black"/>
<path d="M2389.2 137.202V134.601H2391.8V113.902H2386.6V111.301H2391.8V108.702H2397V111.301H2399.6V108.702H2404.8V106.102H2410V108.702H2412.6V113.902H2407.4V111.301H2402.2V113.902H2399.6V116.501H2397V134.601H2399.6V137.202H2389.3H2389.2Z" fill="black"/>
<path d="M2422.8 137.201V134.601H2428V101.001H2422.8V98.4007H2428V95.8008H2433.2V134.601H2438.4V137.201H2422.9H2422.8Z" fill="black"/>
<path d="M2451.2 134.601V129.401H2448.6V116.501H2451.2V111.301H2456.4V116.501H2453.8V121.701H2469.3V116.501H2466.7V111.301H2471.9V116.501H2474.5V124.301H2453.8V129.501H2456.4V134.701H2451.2V134.601ZM2456.3 108.801H2466.6V111.401H2456.3V108.801ZM2471.8 132.001V134.601H2469.2V137.201H2456.3V134.601H2469.2V132.001H2471.8V129.401H2474.4V132.001H2471.8Z" fill="black"/>
<path d="M2487.3 108.801V114.001H2489.9V121.702H2492.5V126.902H2495.1V124.301H2497.7V116.501H2500.3V108.801H2497.7V106.202H2508V108.801H2505.4V111.402H2502.8V119.102H2500.2V126.902H2497.6V134.601H2495V139.802H2492.4V142.401H2489.8V145.002H2482V142.401H2479.4V137.202H2484.6V142.401H2487.2V139.802H2489.8V137.202H2492.4V132.002H2489.8V126.801H2487.2V121.602H2484.6V113.902H2482V108.702H2479.4V106.102H2489.7V108.702H2487.1L2487.3 108.801Z" fill="black"/>
<path d="M2541.6 132.001V98.4007H2539V95.8008H2557.1V98.4007H2562.3V101.001H2564.9V106.201H2567.5V126.901H2564.9V132.101H2562.3V134.701H2557.1V132.101H2559.7V126.901H2562.3V106.201H2559.7V101.001H2557.1V98.4007H2546.8V134.601H2557.1V137.201H2539V134.601H2541.6V132.001Z" fill="black"/>
<path d="M2598.4 134.599V137.199H2593.2V134.599H2588V131.999H2590.6V121.699H2588V124.299H2582.8V126.899H2580.2V134.599H2588V137.199H2575.1V134.599H2572.5V126.899H2575.1V124.299H2580.3V121.699H2585.5V119.099H2590.7V113.899H2588.1V111.299H2580.3V113.899H2577.7V119.099H2572.5V113.899H2575.1V111.299H2577.7V108.699H2590.6V111.299H2593.2V113.899H2595.8V131.999H2601V134.599H2598.4Z" fill="black"/>
<path d="M2603.6 142.302V134.601H2606.2V132.002H2608.8V129.402H2606.2V124.202H2608.8V119.001H2606.2V111.301H2608.8V108.702H2611.4V106.102H2621.7V108.702H2626.9V106.102H2632.1V111.301H2626.9V119.001H2624.3V121.602H2621.7V124.202H2611.4V129.402H2626.9V132.002H2629.5V134.601H2632.1V139.802H2629.5V142.401H2626.9V145.002H2606.2V142.401H2603.6V142.302ZM2624.3 142.302V139.702H2626.9V134.502H2624.3V131.902H2611.4V134.502H2608.8V142.202H2624.3V142.302ZM2619.1 121.702V119.102H2621.7V111.402H2619.1V108.801H2613.9V111.402H2611.3V119.102H2613.9V121.702H2619.1Z" fill="black"/>
<path d="M2639.7 137.201V134.601H2644.9V101.001H2639.7V98.4007H2644.9V95.8008H2650.1V134.601H2655.3V137.201H2639.8H2639.7Z" fill="black"/>
<path d="M2670.8 137.202V134.602H2676V113.902H2670.8V111.302H2676V108.702H2681.2V134.502H2686.4V137.102H2670.9L2670.8 137.202ZM2675.9 98.4023H2681.1V103.602H2675.9V98.4023Z" fill="black"/>
<path d="M2699.2 134.601V137.202H2696.6V126.902H2699.2V129.502H2701.8V132.101H2704.4V134.702H2714.7V132.101H2717.3V126.902H2714.7V124.301H2707V121.702H2701.8V119.102H2699.2V116.501H2696.6V111.301H2699.2V108.702H2701.8V106.102H2714.7V108.702H2717.3V106.102H2719.9V111.301H2722.5V116.501H2719.9V113.902H2717.3V111.301H2712.1V108.702H2704.3V111.301H2701.7V116.501H2706.9V119.102H2714.6V121.702H2719.8V126.902H2722.4V134.601H2719.8V137.202H2701.7V134.601H2699.1H2699.2Z" fill="black"/>
<path d="M2727.6 137.201V134.601H2730.2V101.001H2725V98.4007H2730.2V95.8008H2735.4V111.301H2738V113.901H2735.4V134.601H2738V137.201H2727.7H2727.6ZM2745.7 137.201V134.601H2748.3V113.901H2745.7V111.301H2738V108.701H2748.3V111.301H2750.9V113.901H2753.5V134.601H2756.1V137.201H2745.8H2745.7Z" fill="black"/>
<path d="M2171.9 140.6C2166.7 132.8 2164 124.7 2164 116.5C2164 52.7 2325 1 2523.5 1C2722 1 2883 52.7 2883 116.5C2883 176 2742.9 225 2562.9 231.3C2550 231.8 2536.8 232 2523.5 232" stroke="black" stroke-width="2" stroke-miterlimit="10"/>
</g>
<defs>
<clipPath id="clip0_79_583">
<rect width="2884" height="990" fill="white"/>
</clipPath>
</defs>
</svg>
