<svg width="3373" height="1204" viewBox="0 0 3373 1204" fill="none" xmlns="http://www.w3.org/2000/svg">
<g clip-path="url(#clip0_91_252)">
<path d="M588.1 1.19922C576.4 22.0992 1198.2 976.199 1993.4 1183.5C2482.8 1311.1 2596.5 772.199 2218.8 697.699C1991.7 652.899 1872.2 896.599 2160.6 1065.2C2736.2 1401.7 3371.8 921.199 3371.8 921.199" stroke="black" stroke-width="2" stroke-miterlimit="10"/>
<path d="M360.501 48C162.001 48 1 99.6999 1 163.5C1 227.3 162.001 279 360.501 279C529.901 279 671.9 241.4 710 190.7" stroke="black" stroke-width="2" stroke-miterlimit="10"/>
<path d="M226.2 178.402V181.001H223.6V175.802H221V168.101H223.6V173.302H226.2V175.902H231.4V178.501H239.101V175.902H241.701V165.601H239.101V163.001H236.5V160.401H233.9V157.802H228.7V155.202H226.1V152.601H223.5V142.301H226.1V139.701H228.7V137.102H244.201V142.301H246.801V147.501H244.201V144.901H241.601V142.301H239V139.701H231.3V142.301H228.7V150.101H231.3V152.702H233.9V155.302H239.101V157.901H241.701V160.501H244.301V163.101H246.901V176.001H244.301V178.601H241.701V181.201H228.8V178.601H226.2V178.402Z" fill="black"/>
<path d="M257.2 178.403V173.203H254.602V157.703H257.2V152.502H262.401V149.902H272.701V152.502H277.901V157.703H280.501V173.203H277.901V178.403H272.701V181.002H262.401V178.403H257.2ZM270.101 178.403V175.803H272.701V173.203H275.301V157.703H272.701V155.103H270.101V152.502H264.901V155.103H262.301V157.703H259.7V173.203H262.301V175.803H264.901V178.403H270.101Z" fill="black"/>
<path d="M290.701 181.001V178.402H295.9V144.801H290.701V142.201H295.9V139.602H301.1V178.402H306.301V181.001H290.801H290.701Z" fill="black"/>
<path d="M321.699 181.003V178.404H326.899V157.704H321.699V155.104H326.899V152.503H332.1V178.304H337.299V180.904H321.799L321.699 181.003ZM326.899 142.203H332.1V147.403H326.899V142.203Z" fill="black"/>
<path d="M396.7 142.201V175.802H394.1V178.402H391.5V181.001H381.2V178.402H378.6V173.201H383.8V178.402H389V175.802H391.6V142.201H386.4V139.602H401.9V142.201H396.7Z" fill="black"/>
<path d="M412.2 178.4V173.2H409.602V160.3H412.2V155.1H417.401V160.3H414.801V165.5H430.301V160.3H427.701V155.1H432.901V160.3H435.501V168.1H414.801V173.3H417.401V178.5H412.2V178.4ZM417.301 152.5H427.601V155.1H417.301V152.5ZM432.801 175.8V178.4H430.201V181H417.301V178.4H430.201V175.8H432.801V173.2H435.401V175.8H432.801Z" fill="black"/>
<path d="M443.2 178.403V173.203H440.6V157.703H443.2V152.502H448.399V149.902H458.699V152.502H463.899V157.703H466.499V173.203H463.899V178.403H458.699V181.002H448.399V178.403H443.2ZM456.099 178.403V175.803H458.699V173.203H461.299V157.703H458.699V155.103H456.099V152.502H450.899V155.103H448.3V157.703H445.7V173.203H448.3V175.803H450.899V178.403H456.099Z" fill="black"/>
<path d="M469 181V178.4H471.6V157.7H469V155.1H471.6V152.5H476.8V155.1H479.4V152.5H489.699V155.1H492.3V157.7H494.9V178.4H497.5V181H487.199V178.4H489.8V160.3H487.199V157.7H479.5V160.3H476.9V178.4H479.5V181H469.2H469Z" fill="black"/>
</g>
<defs>
<clipPath id="clip0_91_252">
<rect width="3373" height="1204" fill="white"/>
</clipPath>
</defs>
</svg>
