<svg width="515" height="952" viewBox="0 0 515 952" fill="none" xmlns="http://www.w3.org/2000/svg">
<path d="M513.02 1H1.08984V951H513.02V1Z" fill="white" stroke="black" stroke-width="2" stroke-miterlimit="10"/>
<path d="M410.89 54H103.22V514H410.89V54Z" fill="white" stroke="black" stroke-width="2" stroke-miterlimit="10"/>
<path d="M410.89 546H103.22V898H410.89V546Z" fill="white" stroke="black" stroke-width="2" stroke-miterlimit="10"/>
<path d="M60.7402 595H43.2502C33.1702 595 24.9902 586.83 24.9902 576.74V471.26C24.9902 461.18 33.1602 453 43.2502 453H60.7402C70.8202 453 79.0002 461.17 79.0002 471.26V576.75C79.0002 586.83 70.8302 595 60.7402 595Z" fill="white" stroke="black" stroke-width="2" stroke-miterlimit="10"/>
<path d="M43 532.03V528.96C43 524.01 47.01 520 51.96 520H137.53C142.48 520 146.49 524.01 146.49 528.96V532.03C146.49 536.98 142.48 540.99 137.53 540.99H51.96C47.01 540.99 43 536.98 43 532.03Z" fill="white" stroke="black" stroke-width="2" stroke-miterlimit="10"/>
</svg>
