<svg width="228" height="42" viewBox="0 0 228 42" fill="none" xmlns="http://www.w3.org/2000/svg">
<path d="M2.2301 6.41034L2.28015 4.50037L0.650146 5.51038L0.330078 4.93036L2.02014 4.0304L0.330078 3.13037L0.650146 2.55035L2.28015 3.56036L2.2301 1.65039H2.89014L2.84009 3.56036L4.47009 2.55035L4.79016 3.13037L3.1001 4.0304L4.79016 4.93036L4.47009 5.51038L2.84009 4.50037L2.89014 6.41034H2.2301Z" fill="black"/>
<path d="M7.11108 1.38092V3.31091H10.2611V1.38092H10.9911V6.54089H6.37109V1.38092H7.11108ZM7.11108 5.93091H10.2611V3.90094H7.11108V5.93091ZM8.47107 7.6109V10.4409H7.73108V7.6109H8.47107ZM14.6011 10.1609V10.7909H7.73108V10.1609H14.6011ZM13.8611 3.6709V4.3009H10.7511V3.6709H13.8611ZM14.3511 0.710938V8.3609H13.6111V0.710938H14.3511Z" fill="black"/>
<path d="M19.0409 1.29041C19.5409 1.29041 20.0009 1.3904 20.4009 1.6004C20.8009 1.8104 21.1208 2.1004 21.3508 2.4704C21.5808 2.8404 21.7008 3.27042 21.7008 3.74042C21.7008 4.22042 21.5808 4.64044 21.3508 5.01044C21.1208 5.38044 20.8109 5.67043 20.4009 5.88043C20.0009 6.09043 19.5509 6.19043 19.0409 6.19043C18.5309 6.19043 18.0809 6.09043 17.6709 5.88043C17.2609 5.67043 16.9508 5.38044 16.7208 5.01044C16.4908 4.64044 16.3809 4.21042 16.3809 3.74042C16.3809 3.27042 16.4908 2.8404 16.7208 2.4704C16.9508 2.1004 17.2609 1.8004 17.6709 1.6004C18.0709 1.4004 18.5309 1.29041 19.0409 1.29041ZM19.0409 1.93042C18.6709 1.93042 18.3409 2.01041 18.0409 2.17041C17.7409 2.33041 17.5108 2.55043 17.3408 2.82043C17.1708 3.10043 17.0908 3.41043 17.0908 3.75043C17.0908 4.10043 17.1708 4.41042 17.3408 4.68042C17.5108 4.96042 17.7409 5.17044 18.0309 5.33044C18.3309 5.49044 18.6609 5.56042 19.0309 5.56042C19.3909 5.56042 19.7209 5.49044 20.0209 5.33044C20.3109 5.17044 20.5508 4.96042 20.7208 4.68042C20.8908 4.40042 20.9708 4.09043 20.9708 3.75043C20.9708 3.41043 20.8908 3.10043 20.7208 2.82043C20.5508 2.54043 20.3209 2.32041 20.0209 2.17041C19.7209 2.02041 19.4009 1.93042 19.0409 1.93042ZM24.7308 7.38043V11.0305H23.9908V7.98041H17.8208V7.38043H24.7308ZM24.2208 2.26044V2.89044H21.0109V2.26044H24.2208ZM24.2208 4.61041V5.24042H21.0109V4.61041H24.2208ZM24.7308 0.69043V6.77045H23.9908V0.69043H24.7308Z" fill="black"/>
<path d="M31.891 1.82043C31.891 2.81043 31.721 3.74043 31.381 4.63043C31.041 5.52043 30.521 6.33044 29.811 7.08044C29.101 7.83044 28.201 8.47043 27.121 9.00043L26.7109 8.42041C27.6809 7.94041 28.501 7.37044 29.161 6.70044C29.821 6.04044 30.321 5.30043 30.661 4.50043C30.991 3.70043 31.161 2.84042 31.161 1.93042V1.82043H31.891ZM31.531 1.82043V2.45044H27.151V1.82043H31.531ZM34.531 0.69043V11.0305H33.791V0.69043H34.531ZM36.281 4.98041V5.61041H34.3409V4.98041H36.281Z" fill="black"/>
<path d="M40.8702 4.58008C40.7602 4.58008 40.6503 4.55005 40.5503 4.49005C40.4503 4.43005 40.3802 4.36007 40.3202 4.26007C40.2602 4.16007 40.2402 4.06007 40.2402 3.95007C40.2402 3.84007 40.2602 3.73008 40.3202 3.64008C40.3802 3.55008 40.4503 3.47003 40.5503 3.41003C40.6503 3.35003 40.7502 3.33008 40.8702 3.33008C40.9802 3.33008 41.0803 3.36003 41.1803 3.41003C41.2703 3.47003 41.3503 3.54008 41.4103 3.64008C41.4703 3.74008 41.5002 3.84007 41.5002 3.95007C41.5002 4.06007 41.4703 4.17007 41.4103 4.26007C41.3503 4.35007 41.2803 4.43005 41.1803 4.49005C41.0903 4.55005 40.9802 4.58008 40.8702 4.58008ZM40.8702 8.88007C40.7602 8.88007 40.6503 8.85004 40.5503 8.79004C40.4503 8.73004 40.3802 8.66006 40.3202 8.56006C40.2602 8.47006 40.2402 8.36006 40.2402 8.25006C40.2402 8.14006 40.2602 8.03006 40.3202 7.94006C40.3802 7.85006 40.4503 7.77008 40.5503 7.71008C40.6503 7.65008 40.7502 7.63007 40.8702 7.63007C40.9802 7.63007 41.0803 7.66008 41.1803 7.71008C41.2703 7.77008 41.3503 7.84006 41.4103 7.94006C41.4703 8.04006 41.5002 8.14006 41.5002 8.25006C41.5002 8.36006 41.4703 8.47006 41.4103 8.56006C41.3503 8.65006 41.2803 8.73004 41.1803 8.79004C41.0903 8.85004 40.9802 8.88007 40.8702 8.88007Z" fill="black"/>
<path d="M55.1693 9.01025V9.66022H45.6992V9.01025H55.1693ZM54.2292 1.78027V2.41022H46.5692V1.78027H54.2292ZM54.2092 6.18024V6.79022H46.5792V6.18024H54.2092ZM49.0093 2.35022V6.26025H48.2793V2.35022H49.0093ZM52.5193 2.35022V6.26025H51.7893V2.35022H52.5193Z" fill="black"/>
<path d="M61.1992 1.35089V4.04089H57.2893V6.09094H56.5593V3.44092H60.4692V1.96094H56.5293V1.34094H61.1992V1.35089ZM57.3492 5.66089C58.3192 5.66089 59.1793 5.64094 59.9293 5.59094C60.6793 5.54094 61.4493 5.45092 62.2693 5.32092L62.3392 5.95093C61.5192 6.08093 60.7292 6.17089 59.9692 6.22089C59.2092 6.27089 58.3392 6.29089 57.3492 6.29089H56.5593V5.66089H57.3492ZM60.8292 7.31091C61.5292 7.31091 62.1293 7.38094 62.6393 7.53094C63.1493 7.68094 63.5393 7.8909 63.8093 8.1709C64.0793 8.4509 64.2192 8.78089 64.2192 9.16089C64.2192 9.54089 64.0893 9.88094 63.8093 10.1509C63.5393 10.4309 63.1493 10.6409 62.6393 10.7809C62.1293 10.9309 61.5292 11.0009 60.8292 11.0009C60.1292 11.0009 59.5193 10.9309 59.0093 10.7809C58.4993 10.6309 58.1092 10.4209 57.8392 10.1509C57.5692 9.88094 57.4293 9.54089 57.4293 9.16089C57.4293 8.78089 57.5692 8.44089 57.8392 8.16089C58.1092 7.88089 58.4993 7.67094 59.0093 7.52094C59.5193 7.37094 60.1292 7.31091 60.8292 7.31091ZM60.8292 7.90094C60.2892 7.90094 59.8093 7.9509 59.4093 8.0509C59.0093 8.1509 58.6992 8.30091 58.4792 8.49091C58.2692 8.68091 58.1593 8.90089 58.1593 9.16089C58.1593 9.42089 58.2592 9.64093 58.4792 9.83093C58.6992 10.0209 59.0093 10.1609 59.4093 10.2709C59.8093 10.3709 60.2892 10.4209 60.8292 10.4209C61.3692 10.4209 61.8493 10.3709 62.2493 10.2709C62.6493 10.1709 62.9593 10.0209 63.1793 9.83093C63.3993 9.64093 63.5093 9.42089 63.5093 9.16089C63.5093 8.91089 63.3993 8.68091 63.1793 8.49091C62.9593 8.30091 62.6493 8.1609 62.2493 8.0509C61.8393 7.9509 61.3692 7.90094 60.8292 7.90094ZM64.1293 0.710938V6.96094H63.3893V0.710938H64.1293ZM65.7393 3.35089V3.9809H63.8793V3.35089H65.7393Z" fill="black"/>
<path d="M75.9193 8.96045V9.59045H66.4492V8.96045H75.9193ZM71.3993 2.27045C71.3993 2.98045 71.1893 3.64042 70.7693 4.24042C70.3493 4.84042 69.8192 5.35044 69.1892 5.76044C68.5492 6.17044 67.9093 6.46042 67.2593 6.62042L66.9093 6.00043C67.4793 5.88043 68.0593 5.65046 68.6593 5.28046C69.2593 4.92046 69.7593 4.47043 70.1593 3.94043C70.5593 3.41043 70.7593 2.85044 70.7593 2.26044V1.44043H71.4093V2.27045H71.3993ZM71.5193 2.27045C71.5193 2.86045 71.7193 3.41044 72.1293 3.95044C72.5393 4.48044 73.0393 4.93041 73.6393 5.29041C74.2393 5.65041 74.8293 5.89043 75.3893 6.00043L75.0293 6.62042C74.3793 6.46042 73.7392 6.17044 73.0992 5.76044C72.4592 5.35044 71.9293 4.84041 71.5093 4.23041C71.0893 3.62041 70.8793 2.96044 70.8893 2.26044V1.44043H71.5193V2.27045Z" fill="black"/>
<path d="M79.5795 1.52045C80.0795 1.52045 80.5195 1.67045 80.8995 1.96045C81.2895 2.25045 81.5896 2.67045 81.7996 3.21045C82.0096 3.75045 82.1195 4.38045 82.1295 5.09045C82.1295 5.81045 82.0196 6.4304 81.7996 6.9704C81.5796 7.5104 81.2795 7.9304 80.8995 8.2204C80.5095 8.5104 80.0695 8.6604 79.5795 8.6604C79.0795 8.6604 78.6395 8.5104 78.2495 8.2204C77.8595 7.9304 77.5595 7.5104 77.3395 6.9704C77.1195 6.4304 77.0195 5.80045 77.0195 5.09045C77.0195 4.37045 77.1195 3.75045 77.3395 3.21045C77.5595 2.67045 77.8595 2.25045 78.2495 1.96045C78.6395 1.67045 79.0795 1.52045 79.5795 1.52045ZM79.5795 2.17041C79.2195 2.17041 78.8995 2.30041 78.6195 2.54041C78.3395 2.79041 78.1195 3.13043 77.9595 3.57043C77.7995 4.01043 77.7295 4.52045 77.7295 5.09045C77.7295 5.66045 77.8095 6.17041 77.9595 6.61041C78.1195 7.05041 78.3395 7.40044 78.6195 7.64044C78.8995 7.89044 79.2195 8.01044 79.5795 8.01044C79.9395 8.01044 80.2596 7.89044 80.5396 7.64044C80.8196 7.39044 81.0395 7.05041 81.1995 6.61041C81.3595 6.17041 81.4395 5.66045 81.4395 5.09045C81.4395 4.52045 81.3595 4.02044 81.1995 3.58044C81.0395 3.14044 80.8196 2.80042 80.5396 2.55042C80.2596 2.30042 79.9395 2.17041 79.5795 2.17041ZM84.9495 4.71045V5.33044H81.8695V4.71045H84.9495ZM85.3495 0.69043V11.0404H84.6195V0.69043H85.3495Z" fill="black"/>
<path d="M87.2695 8.06042C88.1095 8.06042 88.8895 8.06042 89.6095 8.05042C90.3295 8.04042 91.0995 8.01044 91.8995 7.95044C92.6995 7.90044 93.4596 7.82045 94.1696 7.71045L94.2395 8.27045C93.4995 8.41045 92.7395 8.51043 91.9395 8.57043C91.1395 8.63043 90.3995 8.68043 89.7195 8.69043C89.0395 8.70043 88.2595 8.71045 87.3895 8.71045L87.2695 8.06042ZM90.5995 1.4704C91.1295 1.4704 91.6095 1.57045 92.0295 1.77045C92.4495 1.97045 92.7695 2.25041 93.0095 2.61041C93.2395 2.97041 93.3595 3.39041 93.3595 3.86041C93.3595 4.33041 93.2395 4.75041 93.0095 5.11041C92.7795 5.47041 92.4495 5.75044 92.0295 5.95044C91.6095 6.15044 91.1395 6.25043 90.5995 6.25043C90.0595 6.25043 89.5795 6.15044 89.1595 5.95044C88.7395 5.75044 88.4096 5.4704 88.1796 5.1004C87.9396 4.7404 87.8295 4.32041 87.8295 3.86041C87.8295 3.39041 87.9396 2.98042 88.1796 2.62042C88.4096 2.26042 88.7395 1.98045 89.1595 1.77045C89.5795 1.56045 90.0595 1.4704 90.5995 1.4704ZM90.5995 2.12042C90.1995 2.12042 89.8496 2.19045 89.5396 2.34045C89.2296 2.49045 88.9896 2.70045 88.8096 2.96045C88.6396 3.22045 88.5496 3.52041 88.5596 3.86041C88.5596 4.19041 88.6395 4.49044 88.8195 4.76044C88.9995 5.03044 89.2396 5.23043 89.5496 5.38043C89.8596 5.53043 90.2095 5.6004 90.6095 5.6004C90.9995 5.6004 91.3495 5.53043 91.6595 5.38043C91.9695 5.23043 92.2095 5.02044 92.3895 4.76044C92.5695 4.50044 92.6495 4.20041 92.6495 3.86041C92.6495 3.53041 92.5595 3.23045 92.3895 2.96045C92.2195 2.70045 91.9695 2.49045 91.6595 2.34045C91.3395 2.20045 90.9895 2.12042 90.5995 2.12042ZM95.6195 0.69043V11.0404H94.8795V0.69043H95.6195Z" fill="black"/>
<path d="M104.921 2.05042C104.921 2.96042 104.791 3.82043 104.541 4.63043C104.291 5.44043 103.871 6.21041 103.291 6.92041C102.711 7.63041 101.941 8.25046 100.981 8.78046L100.551 8.24042C101.421 7.76042 102.131 7.20043 102.681 6.57043C103.221 5.93043 103.621 5.25044 103.861 4.51044C104.101 3.77044 104.221 2.99041 104.221 2.17041V2.05042H104.921ZM104.471 2.05042V2.68042H100.881V2.05042H104.471ZM106.951 0.970398V10.4904H106.251V0.970398H106.951ZM108.851 4.95044V5.57043H106.731V4.95044H108.851ZM109.281 0.69043V11.0305H108.551V0.69043H109.281Z" fill="black"/>
<path d="M111.57 6.54047C111.57 5.55047 111.69 4.62047 111.95 3.73047C112.2 2.85047 112.57 2.01047 113.06 1.23047H113.78C113.51 1.65047 113.27 2.16048 113.07 2.74048C112.86 3.33048 112.7 3.95046 112.58 4.60046C112.46 5.26046 112.4 5.90052 112.4 6.53052C112.4 7.16052 112.46 7.80051 112.58 8.46051C112.7 9.12051 112.86 9.7405 113.07 10.3205C113.28 10.9105 113.52 11.4105 113.78 11.8305H113.06C112.57 11.0505 112.2 10.2205 111.95 9.33051C111.7 8.46051 111.57 7.53047 111.57 6.54047Z" fill="black"/>
<path d="M117.541 10.2507C116.971 10.2507 116.481 10.1107 116.051 9.83069C115.621 9.55069 115.291 9.16064 115.061 8.66064C114.831 8.16064 114.711 7.60064 114.711 6.97064C114.711 6.33064 114.831 5.77069 115.071 5.27069C115.311 4.77069 115.641 4.38065 116.071 4.10065C116.501 3.82065 116.991 3.68066 117.541 3.68066C117.971 3.68066 118.361 3.76066 118.711 3.93066C119.061 4.10066 119.351 4.33068 119.581 4.63068C119.801 4.93068 119.941 5.28065 120.001 5.67065H119.201C119.151 5.44065 119.051 5.2207 118.901 5.0307C118.751 4.8407 118.561 4.68068 118.331 4.57068C118.101 4.46068 117.841 4.4007 117.561 4.4007C117.161 4.4007 116.811 4.51064 116.501 4.72064C116.191 4.94064 115.951 5.24067 115.781 5.62067C115.611 6.01067 115.521 6.45068 115.521 6.95068C115.521 7.46068 115.601 7.90065 115.771 8.29065C115.941 8.68065 116.181 8.99068 116.481 9.20068C116.781 9.41068 117.141 9.5307 117.551 9.5307C117.821 9.5307 118.071 9.48067 118.301 9.37067C118.531 9.26067 118.721 9.12066 118.871 8.93066C119.021 8.74066 119.131 8.51067 119.191 8.25067H119.991C119.941 8.64067 119.801 8.9807 119.581 9.2807C119.361 9.5807 119.081 9.82066 118.731 9.99066C118.371 10.1707 117.981 10.2507 117.541 10.2507Z" fill="black"/>
<path d="M122.13 6.17084V10.1208H121.33V1.63086H122.13V4.76086H122.2C122.3 4.53086 122.44 4.34085 122.61 4.18085C122.78 4.02085 122.99 3.90085 123.24 3.81085C123.49 3.72085 123.77 3.68085 124.08 3.68085C124.52 3.68085 124.9 3.77087 125.22 3.95087C125.54 4.13087 125.8 4.39084 125.98 4.74084C126.16 5.09084 126.25 5.51086 126.25 6.01086V10.1208H125.45V6.06085C125.45 5.72085 125.39 5.42084 125.26 5.17084C125.13 4.92084 124.95 4.73088 124.71 4.59088C124.47 4.46088 124.19 4.39087 123.87 4.39087C123.54 4.39087 123.24 4.46083 122.97 4.60083C122.71 4.74083 122.5 4.95083 122.35 5.22083C122.2 5.49083 122.13 5.81084 122.13 6.17084Z" fill="black"/>
<path d="M128.391 2.67078C128.281 2.67078 128.191 2.64082 128.101 2.59082C128.011 2.54082 127.941 2.47081 127.881 2.39081C127.831 2.31081 127.801 2.21078 127.801 2.11078C127.801 2.01078 127.831 1.92081 127.881 1.83081C127.931 1.75081 128.001 1.6808 128.101 1.6308C128.191 1.5808 128.291 1.55078 128.391 1.55078C128.491 1.55078 128.591 1.5808 128.681 1.6308C128.771 1.6808 128.841 1.75081 128.891 1.83081C128.941 1.91081 128.971 2.01078 128.971 2.11078C128.971 2.21078 128.941 2.31081 128.891 2.39081C128.841 2.47081 128.771 2.54082 128.681 2.59082C128.581 2.65082 128.491 2.67078 128.391 2.67078ZM127.981 10.1208V3.7608H128.781V10.1208H127.981Z" fill="black"/>
<path d="M133.1 10.2502C132.51 10.2502 132 10.1102 131.56 9.84021C131.12 9.57021 130.78 9.18018 130.54 8.68018C130.3 8.18018 130.18 7.62015 130.18 6.97015C130.18 6.33015 130.3 5.76019 130.54 5.26019C130.78 4.76019 131.11 4.3602 131.54 4.0802C131.96 3.8002 132.45 3.66016 133 3.66016C133.48 3.66016 133.93 3.77018 134.34 4.00018C134.75 4.23018 135.08 4.58017 135.33 5.05017C135.58 5.52017 135.71 6.10016 135.71 6.79016V7.17017H130.73V6.47015H134.9C134.9 6.08015 134.82 5.72021 134.66 5.40021C134.5 5.08021 134.28 4.8302 133.99 4.6402C133.7 4.4502 133.38 4.36017 133.01 4.36017C132.62 4.36017 132.28 4.46017 131.97 4.67017C131.66 4.88017 131.43 5.15018 131.26 5.50018C131.09 5.85018 131.01 6.22019 131.01 6.63019V7.06018C131.01 7.55018 131.1 7.99017 131.27 8.36017C131.44 8.73017 131.69 9.02015 132.01 9.22015C132.33 9.42015 132.7 9.5202 133.13 9.5202C133.41 9.5202 133.65 9.48021 133.87 9.40021C134.08 9.32021 134.27 9.2102 134.41 9.0802C134.55 8.9502 134.67 8.81016 134.75 8.66016H135.61C135.51 8.96016 135.35 9.23021 135.12 9.46021C134.89 9.70021 134.61 9.8902 134.27 10.0202C133.93 10.1502 133.52 10.2502 133.1 10.2502Z" fill="black"/>
<path d="M137.89 6.17065V10.1207H137.09V3.76068H137.87V4.77069H137.94C138.04 4.55069 138.18 4.35067 138.36 4.19067C138.54 4.03067 138.75 3.90067 138.99 3.81067C139.24 3.72067 139.51 3.68066 139.82 3.68066C140.25 3.68066 140.63 3.77068 140.95 3.95068C141.28 4.13068 141.53 4.40067 141.71 4.75067C141.89 5.10067 141.98 5.52069 141.98 6.02069V10.1307H141.18V6.07068C141.18 5.73068 141.12 5.44067 140.99 5.19067C140.86 4.94067 140.68 4.74066 140.44 4.61066C140.2 4.48066 139.93 4.41064 139.61 4.41064C139.28 4.41064 138.99 4.48067 138.73 4.62067C138.47 4.76067 138.27 4.97066 138.12 5.24066C137.97 5.51066 137.89 5.81065 137.89 6.17065Z" fill="black"/>
<path d="M145.55 6.55072C145.55 7.54072 145.42 8.47072 145.17 9.36072C144.92 10.2407 144.55 11.0807 144.06 11.8607H143.34C143.61 11.4407 143.85 10.9307 144.05 10.3507C144.26 9.76071 144.42 9.14072 144.54 8.49072C144.66 7.83072 144.72 7.19073 144.72 6.56073C144.72 5.93073 144.66 5.29074 144.54 4.63074C144.42 3.97074 144.26 3.35075 144.05 2.77075C143.84 2.18075 143.6 1.68074 143.34 1.26074H144.06C144.55 2.04074 144.91 2.87074 145.17 3.76074C145.42 4.63074 145.55 5.56072 145.55 6.55072Z" fill="black"/>
<path d="M156.63 6.04028V6.65033H147.16V6.04028H156.63ZM149.17 7.77032V10.3203H148.44V7.77032H149.17ZM155.58 10.1403V10.7703H148.43V10.1403H155.58ZM149.22 1.07031V4.2403H148.49V1.07031H149.22ZM155.52 3.92029V4.53033H148.49V3.92029H155.52Z" fill="black"/>
<path d="M161.73 1.2309V5.34094H160.98V1.2309H161.73ZM161.791 5.04089C162.601 5.04089 163.4 5.00091 164.19 4.93091C164.97 4.86091 165.78 4.74092 166.61 4.57092L166.71 5.20093C165.86 5.37093 165.04 5.49091 164.25 5.56091C163.46 5.63091 162.641 5.6709 161.801 5.6709H161V5.04089H161.791ZM168.5 7.14093V10.8709H162.021V7.14093H168.5ZM162.74 7.74091V10.2609H167.781V7.74091H162.74ZM168.5 0.710938V6.5509H167.76V0.710938H168.5ZM170.12 3.13092V3.77094H168.32V3.13092H170.12Z" fill="black"/>
<path d="M174.15 2.42041C174.15 3.06041 174.02 3.6604 173.77 4.2204C173.52 4.7804 173.18 5.2604 172.74 5.6604C172.3 6.0604 171.81 6.3804 171.24 6.6004L170.84 5.99042C171.35 5.80042 171.81 5.54042 172.22 5.18042C172.63 4.82042 172.95 4.41042 173.18 3.93042C173.41 3.45042 173.53 2.9504 173.53 2.4104V1.29041H174.13V2.42041H174.15ZM175.96 7.15045C176.67 7.15045 177.28 7.23043 177.8 7.38043C178.32 7.53043 178.71 7.75041 178.98 8.04041C179.25 8.33041 179.39 8.68045 179.39 9.09045C179.39 9.49045 179.25 9.83042 178.98 10.1204C178.71 10.4104 178.31 10.6305 177.8 10.7805C177.29 10.9305 176.67 11.0104 175.96 11.0104C175.25 11.0104 174.63 10.9305 174.12 10.7805C173.61 10.6305 173.21 10.4104 172.94 10.1204C172.67 9.83042 172.53 9.49045 172.53 9.09045C172.53 8.68045 172.66 8.33041 172.94 8.04041C173.22 7.75041 173.61 7.53043 174.13 7.38043C174.63 7.22043 175.25 7.15045 175.96 7.15045ZM175.96 7.75043C175.41 7.75043 174.94 7.8004 174.53 7.9104C174.12 8.0204 173.81 8.17042 173.59 8.37042C173.37 8.57042 173.26 8.81044 173.26 9.08044C173.26 9.35044 173.37 9.58045 173.59 9.77045C173.81 9.97045 174.12 10.1204 174.53 10.2304C174.94 10.3404 175.42 10.3904 175.96 10.3904C176.51 10.3904 176.98 10.3404 177.39 10.2304C177.8 10.1204 178.11 9.97045 178.33 9.77045C178.55 9.57045 178.66 9.34044 178.66 9.08044C178.66 8.81044 178.55 8.57042 178.33 8.37042C178.11 8.17042 177.8 8.0104 177.39 7.9104C176.98 7.8004 176.5 7.75043 175.96 7.75043ZM174.27 2.40045C174.27 2.89045 174.38 3.35041 174.61 3.79041C174.84 4.23041 175.16 4.62044 175.56 4.95044C175.96 5.28044 176.41 5.53045 176.9 5.71045L176.48 6.29041C175.94 6.08041 175.46 5.7904 175.03 5.4104C174.6 5.0304 174.27 4.58042 174.03 4.06042C173.79 3.54042 173.66 2.99044 173.66 2.39044V1.29041H174.27V2.40045ZM178.8 3.00043V3.62042H176.19V3.00043H178.8ZM179.35 0.69043V6.84045H178.61V0.69043H179.35Z" fill="black"/>
<path d="M189.299 1.49042V6.03046H184.609V1.49042H189.299ZM185.339 2.1004V5.4104H188.579V2.1004H185.339ZM189.229 7.15045C189.939 7.15045 190.549 7.23043 191.069 7.38043C191.589 7.53043 191.979 7.75041 192.249 8.04041C192.519 8.33041 192.659 8.68045 192.659 9.09045C192.659 9.49045 192.519 9.83042 192.249 10.1204C191.979 10.4104 191.579 10.6305 191.069 10.7805C190.559 10.9305 189.939 11.0104 189.229 11.0104C188.519 11.0104 187.899 10.9305 187.389 10.7805C186.879 10.6305 186.479 10.4104 186.209 10.1204C185.939 9.83042 185.799 9.49045 185.799 9.09045C185.799 8.68045 185.929 8.33041 186.209 8.04041C186.489 7.75041 186.879 7.53043 187.399 7.38043C187.909 7.22043 188.519 7.15045 189.229 7.15045ZM189.229 7.74042C188.679 7.74042 188.199 7.8004 187.789 7.9104C187.379 8.0204 187.069 8.17043 186.849 8.38043C186.629 8.59043 186.519 8.82045 186.519 9.09045C186.519 9.36045 186.629 9.59046 186.849 9.78046C187.069 9.98046 187.389 10.1304 187.789 10.2404C188.199 10.3504 188.669 10.4005 189.219 10.4005C189.769 10.4005 190.239 10.3504 190.649 10.2404C191.059 10.1304 191.369 9.98046 191.589 9.78046C191.809 9.58046 191.919 9.35045 191.919 9.09045C191.919 8.82045 191.809 8.58043 191.589 8.38043C191.369 8.18043 191.059 8.0204 190.649 7.9104C190.259 7.8004 189.779 7.74042 189.229 7.74042ZM192.209 2.44043V3.06042H189.059V2.44043H192.209ZM192.219 4.48041V5.1004H189.049V4.48041H192.219ZM192.629 0.69043V6.84045H191.889V0.69043H192.629Z" fill="black"/>
<path d="M197.729 3.61041C197.729 4.32041 197.599 5.02044 197.329 5.70044C197.059 6.39044 196.709 7.00042 196.269 7.55042C195.829 8.10042 195.349 8.50041 194.829 8.79041L194.359 8.20044C194.839 7.95044 195.289 7.5904 195.709 7.1004C196.129 6.6104 196.469 6.06044 196.729 5.45044C196.989 4.84044 197.119 4.22041 197.119 3.61041V1.62042H197.729V3.61041ZM197.839 3.61041C197.839 4.20041 197.959 4.78042 198.219 5.37042C198.479 5.96042 198.819 6.48044 199.239 6.95044C199.659 7.41044 200.109 7.76043 200.589 8.00043L200.119 8.59045C199.609 8.31045 199.129 7.92045 198.689 7.40045C198.249 6.88045 197.899 6.29043 197.629 5.63043C197.369 4.97043 197.239 4.30041 197.239 3.61041V1.62042H197.839V3.61041ZM202.439 0.69043V11.0305H201.699V0.69043H202.439ZM204.229 4.96045V5.61041H202.269V4.96045H204.229Z" fill="black"/>
<path d="M207.879 1.52045C208.389 1.52045 208.839 1.6704 209.229 1.9704C209.629 2.2704 209.939 2.6804 210.159 3.2204C210.379 3.7604 210.489 4.3804 210.489 5.1004C210.489 5.8204 210.379 6.44041 210.159 6.98041C209.939 7.52041 209.629 7.94041 209.229 8.23041C208.829 8.52041 208.379 8.67041 207.879 8.67041C207.369 8.67041 206.919 8.52041 206.529 8.23041C206.139 7.94041 205.829 7.52041 205.609 6.98041C205.389 6.44041 205.279 5.8104 205.279 5.1004C205.279 4.3804 205.389 3.7604 205.609 3.2204C205.829 2.6804 206.139 2.2604 206.529 1.9704C206.919 1.6704 207.369 1.52045 207.879 1.52045ZM207.879 2.17041C207.509 2.17041 207.179 2.30041 206.899 2.54041C206.609 2.79041 206.389 3.13043 206.229 3.57043C206.069 4.01043 205.989 4.52045 205.989 5.09045C205.989 5.66045 206.069 6.16041 206.229 6.61041C206.389 7.06041 206.609 7.40044 206.899 7.64044C207.189 7.89044 207.519 8.01044 207.879 8.01044C208.239 8.01044 208.569 7.89044 208.859 7.64044C209.149 7.39044 209.369 7.05041 209.529 6.61041C209.689 6.17041 209.769 5.66045 209.769 5.09045C209.769 4.52045 209.689 4.02043 209.529 3.57043C209.369 3.13043 209.139 2.78041 208.859 2.54041C208.579 2.30041 208.249 2.17041 207.879 2.17041ZM213.339 0.69043V11.0404H212.599V0.69043H213.339Z" fill="black"/>
<path d="M220.3 1.75043V8.38043H215.66V1.75043H220.3ZM216.4 2.3504V7.77045H219.59V2.3504H216.4ZM223.33 3.2204V3.8504H219.97V3.2204H223.33ZM223.33 6.09045V6.71045H219.97V6.09045H223.33ZM223.75 0.69043V11.0404H223.02V0.69043H223.75Z" fill="black"/>
<path d="M227.12 9.40039L226.27 12.4404H225.59L226.24 9.40039H227.12Z" fill="black"/>
<path d="M2.96033 16.5204C3.46033 16.5204 3.9004 16.6704 4.2804 16.9604C4.6704 17.2504 4.97042 17.6704 5.18042 18.2104C5.39042 18.7504 5.50038 19.3805 5.51038 20.0905C5.51038 20.8105 5.40042 21.4304 5.18042 21.9704C4.96042 22.5104 4.6604 22.9304 4.2804 23.2204C3.8904 23.5104 3.45033 23.6604 2.96033 23.6604C2.46033 23.6604 2.02037 23.5104 1.63037 23.2204C1.24037 22.9304 0.940337 22.5104 0.720337 21.9704C0.500337 21.4304 0.400391 20.8005 0.400391 20.0905C0.400391 19.3705 0.500337 18.7504 0.720337 18.2104C0.940337 17.6704 1.24037 17.2504 1.63037 16.9604C2.01037 16.6704 2.46033 16.5204 2.96033 16.5204ZM2.96033 17.1704C2.60033 17.1704 2.28037 17.3004 2.00037 17.5404C1.72037 17.7904 1.50033 18.1304 1.34033 18.5704C1.18033 19.0104 1.11035 19.5205 1.11035 20.0905C1.11035 20.6605 1.19033 21.1704 1.34033 21.6104C1.50033 22.0504 1.72037 22.4004 2.00037 22.6404C2.28037 22.8904 2.60033 23.0104 2.96033 23.0104C3.32033 23.0104 3.64041 22.8904 3.92041 22.6404C4.20041 22.3904 4.42032 22.0504 4.58032 21.6104C4.74032 21.1704 4.82031 20.6605 4.82031 20.0905C4.82031 19.5205 4.74032 19.0204 4.58032 18.5804C4.42032 18.1404 4.20041 17.8004 3.92041 17.5504C3.63041 17.3004 3.31033 17.1704 2.96033 17.1704ZM8.19031 18.0704V18.7004H4.9104V18.0704H8.19031ZM8.19031 21.3604V21.9904H4.9104V21.3604H8.19031ZM8.72034 15.6904V26.0404H7.99036V15.6904H8.72034Z" fill="black"/>
<path d="M13.8901 17.4204C13.8901 18.0604 13.7601 18.6604 13.5101 19.2204C13.2601 19.7804 12.9201 20.2604 12.4801 20.6604C12.0401 21.0604 11.5501 21.3804 10.9801 21.6004L10.5801 20.9904C11.0901 20.8004 11.5501 20.5404 11.9601 20.1804C12.3701 19.8204 12.6902 19.4104 12.9202 18.9304C13.1502 18.4504 13.2701 17.9504 13.2701 17.4104V16.2904H13.8701V17.4204H13.8901ZM15.7001 22.1505C16.4101 22.1505 17.0202 22.2304 17.5402 22.3804C18.0602 22.5304 18.4501 22.7504 18.7201 23.0404C18.9901 23.3304 19.1301 23.6805 19.1301 24.0905C19.1301 24.4905 18.9901 24.8304 18.7201 25.1204C18.4501 25.4104 18.0502 25.6305 17.5402 25.7805C17.0302 25.9305 16.4101 26.0104 15.7001 26.0104C14.9901 26.0104 14.3701 25.9305 13.8601 25.7805C13.3501 25.6305 12.9502 25.4104 12.6802 25.1204C12.4102 24.8304 12.2701 24.4905 12.2701 24.0905C12.2701 23.6805 12.4002 23.3304 12.6802 23.0404C12.9602 22.7504 13.3501 22.5304 13.8701 22.3804C14.3801 22.2204 14.9901 22.1505 15.7001 22.1505ZM15.7001 22.7504C15.1501 22.7504 14.6801 22.8004 14.2701 22.9104C13.8601 23.0204 13.5501 23.1704 13.3301 23.3704C13.1101 23.5704 13.0001 23.8104 13.0001 24.0804C13.0001 24.3504 13.1101 24.5804 13.3301 24.7704C13.5501 24.9704 13.8601 25.1204 14.2701 25.2304C14.6801 25.3404 15.1601 25.3904 15.7001 25.3904C16.2501 25.3904 16.7201 25.3404 17.1301 25.2304C17.5401 25.1204 17.8501 24.9704 18.0701 24.7704C18.2901 24.5704 18.4001 24.3404 18.4001 24.0804C18.4001 23.8104 18.2901 23.5704 18.0701 23.3704C17.8501 23.1704 17.5401 23.0104 17.1301 22.9104C16.7301 22.8004 16.2501 22.7504 15.7001 22.7504ZM14.0201 17.4005C14.0201 17.8905 14.1301 18.3504 14.3601 18.7904C14.5901 19.2304 14.9102 19.6204 15.3102 19.9504C15.7102 20.2804 16.1601 20.5304 16.6501 20.7104L16.2301 21.2904C15.6901 21.0804 15.2102 20.7904 14.7802 20.4104C14.3502 20.0304 14.0202 19.5804 13.7802 19.0604C13.5402 18.5404 13.4102 17.9904 13.4102 17.3904V16.2904H14.0201V17.4005ZM18.5502 18.0004V18.6204H15.9401V18.0004H18.5502ZM19.1001 15.6904V21.8405H18.3601V15.6904H19.1001Z" fill="black"/>
<path d="M29.0397 16.4904V21.0305H24.3496V16.4904H29.0397ZM25.0796 17.1004V20.4104H28.3196V17.1004H25.0796ZM28.9796 22.1505C29.6896 22.1505 30.2996 22.2304 30.8196 22.3804C31.3396 22.5304 31.7296 22.7504 31.9996 23.0404C32.2696 23.3304 32.4097 23.6805 32.4097 24.0905C32.4097 24.4905 32.2696 24.8304 31.9996 25.1204C31.7296 25.4104 31.3296 25.6305 30.8196 25.7805C30.3096 25.9305 29.6896 26.0104 28.9796 26.0104C28.2696 26.0104 27.6496 25.9305 27.1396 25.7805C26.6296 25.6305 26.2296 25.4104 25.9596 25.1204C25.6896 24.8304 25.5497 24.4905 25.5497 24.0905C25.5497 23.6805 25.6796 23.3304 25.9596 23.0404C26.2396 22.7504 26.6297 22.5304 27.1497 22.3804C27.6497 22.2204 28.2696 22.1505 28.9796 22.1505ZM28.9796 22.7404C28.4296 22.7404 27.9497 22.8004 27.5397 22.9104C27.1297 23.0204 26.8196 23.1704 26.5996 23.3804C26.3796 23.5904 26.2697 23.8205 26.2697 24.0905C26.2697 24.3605 26.3796 24.5905 26.5996 24.7805C26.8196 24.9805 27.1397 25.1304 27.5397 25.2404C27.9497 25.3504 28.4196 25.4005 28.9696 25.4005C29.5196 25.4005 29.9897 25.3504 30.3997 25.2404C30.8097 25.1304 31.1196 24.9805 31.3396 24.7805C31.5596 24.5805 31.6697 24.3505 31.6697 24.0905C31.6697 23.8205 31.5596 23.5804 31.3396 23.3804C31.1196 23.1804 30.8097 23.0204 30.3997 22.9104C29.9997 22.8004 29.5196 22.7404 28.9796 22.7404ZM31.9496 17.4404V18.0604H28.7997V17.4404H31.9496ZM31.9596 19.4804V20.1004H28.7897V19.4804H31.9596ZM32.3796 15.6904V21.8405H31.6396V15.6904H32.3796Z" fill="black"/>
<path d="M37.4696 18.6104C37.4696 19.3204 37.3396 20.0204 37.0696 20.7004C36.7996 21.3904 36.4496 22.0004 36.0096 22.5504C35.5696 23.1004 35.0896 23.5004 34.5696 23.7904L34.0996 23.2004C34.5796 22.9504 35.0296 22.5904 35.4496 22.1004C35.8696 21.6104 36.2096 21.0604 36.4696 20.4504C36.7296 19.8404 36.8596 19.2204 36.8596 18.6104V16.6204H37.4696V18.6104ZM37.5896 18.6104C37.5896 19.2004 37.7096 19.7804 37.9696 20.3704C38.2296 20.9604 38.5696 21.4804 38.9896 21.9504C39.4096 22.4104 39.8596 22.7604 40.3396 23.0004L39.8696 23.5905C39.3596 23.3105 38.8796 22.9205 38.4396 22.4005C37.9996 21.8805 37.6496 21.2904 37.3796 20.6304C37.1196 19.9704 36.9896 19.3004 36.9896 18.6104V16.6204H37.5896V18.6104ZM42.1797 15.6904V26.0305H41.4396V15.6904H42.1797ZM43.9696 19.9604V20.6104H42.0096V19.9604H43.9696Z" fill="black"/>
<path d="M44.4707 23.0905H45.0508C45.7808 23.0805 46.4807 23.0704 47.1407 23.0504C47.8007 23.0304 48.4708 23.0004 49.1608 22.9504C49.8508 22.9104 50.4907 22.8404 51.0907 22.7604L51.1508 23.3304C50.4608 23.4404 49.7407 23.5304 48.9807 23.5804C48.2207 23.6404 47.4908 23.6704 46.7908 23.6904C46.0908 23.7104 45.3607 23.7104 44.6207 23.7104L44.4707 23.0905ZM47.7307 16.3904C48.2607 16.3904 48.7207 16.4904 49.1407 16.6904C49.5507 16.8904 49.8807 17.1705 50.1107 17.5305C50.3407 17.8905 50.4607 18.3104 50.4607 18.7704C50.4607 19.2404 50.3407 19.6504 50.1107 20.0104C49.8807 20.3704 49.5507 20.6504 49.1407 20.8504C48.7307 21.0504 48.2607 21.1505 47.7307 21.1505C47.2007 21.1505 46.7208 21.0504 46.3108 20.8504C45.9008 20.6504 45.5707 20.3704 45.3407 20.0104C45.1107 19.6504 45.0007 19.2304 45.0007 18.7604C45.0007 18.2904 45.1107 17.8804 45.3407 17.5104C45.5707 17.1404 45.8908 16.8704 46.3108 16.6704C46.7208 16.4904 47.2007 16.3904 47.7307 16.3904ZM47.7307 17.0305C47.3407 17.0305 47.0007 17.1104 46.6907 17.2604C46.3807 17.4104 46.1507 17.6204 45.9707 17.8804C45.8007 18.1504 45.7207 18.4505 45.7207 18.7805C45.7207 19.1105 45.8007 19.4104 45.9707 19.6804C46.1407 19.9504 46.3807 20.1504 46.6907 20.3004C47.0007 20.4504 47.3407 20.5204 47.7307 20.5204C48.1107 20.5204 48.4507 20.4504 48.7607 20.3004C49.0607 20.1504 49.3007 19.9404 49.4707 19.6804C49.6407 19.4104 49.7307 19.1105 49.7307 18.7805C49.7307 18.4505 49.6407 18.1504 49.4707 17.8804C49.3007 17.6104 49.0607 17.4104 48.7607 17.2604C48.4607 17.1104 48.1107 17.0305 47.7307 17.0305ZM48.1007 20.9005V23.3704H47.3607V20.9005H48.1007ZM52.5208 15.6904V26.0305H51.7908V15.6904H52.5208ZM54.2908 20.0404V20.6704H52.3307V20.0404H54.2908Z" fill="black"/>
<path d="M59.1602 16.2309V20.3409H58.4102V16.2309H59.1602ZM59.2101 20.0409C60.0201 20.0409 60.8201 20.0009 61.6101 19.9309C62.3901 19.8609 63.2002 19.7409 64.0302 19.5709L64.1301 20.2009C63.2801 20.3709 62.4602 20.4909 61.6702 20.5609C60.8802 20.6309 60.0601 20.6709 59.2201 20.6709H58.4202V20.0409H59.2101ZM65.9302 22.1409V25.8709H59.4501V22.1409H65.9302ZM60.1702 22.7409V25.2609H65.2101V22.7409H60.1702ZM65.9302 15.7109V21.5509H65.1901V15.7109H65.9302ZM67.5402 18.1309V18.7709H65.7401V18.1309H67.5402Z" fill="black"/>
<path d="M71.5697 17.4204C71.5697 18.0604 71.4397 18.6604 71.1897 19.2204C70.9397 19.7804 70.5998 20.2604 70.1598 20.6604C69.7198 21.0604 69.2298 21.3804 68.6598 21.6004L68.2598 20.9904C68.7698 20.8004 69.2298 20.5404 69.6398 20.1804C70.0498 19.8204 70.3697 19.4104 70.5997 18.9304C70.8297 18.4504 70.9497 17.9504 70.9497 17.4104V16.2904H71.5498V17.4204H71.5697ZM73.3798 22.1505C74.0898 22.1505 74.6997 22.2304 75.2197 22.3804C75.7397 22.5304 76.1298 22.7504 76.3998 23.0404C76.6698 23.3304 76.8098 23.6805 76.8098 24.0905C76.8098 24.4905 76.6698 24.8304 76.3998 25.1204C76.1298 25.4104 75.7297 25.6305 75.2197 25.7805C74.7097 25.9305 74.0898 26.0104 73.3798 26.0104C72.6698 26.0104 72.0498 25.9305 71.5398 25.7805C71.0298 25.6305 70.6297 25.4104 70.3597 25.1204C70.0897 24.8304 69.9497 24.4905 69.9497 24.0905C69.9497 23.6805 70.0797 23.3304 70.3597 23.0404C70.6397 22.7504 71.0298 22.5304 71.5498 22.3804C72.0598 22.2204 72.6698 22.1505 73.3798 22.1505ZM73.3798 22.7504C72.8298 22.7504 72.3597 22.8004 71.9497 22.9104C71.5397 23.0204 71.2298 23.1704 71.0098 23.3704C70.7898 23.5704 70.6798 23.8104 70.6798 24.0804C70.6798 24.3504 70.7898 24.5804 71.0098 24.7704C71.2298 24.9704 71.5397 25.1204 71.9497 25.2304C72.3597 25.3404 72.8398 25.3904 73.3798 25.3904C73.9298 25.3904 74.3998 25.3404 74.8098 25.2304C75.2198 25.1204 75.5298 24.9704 75.7498 24.7704C75.9698 24.5704 76.0797 24.3404 76.0797 24.0804C76.0797 23.8104 75.9698 23.5704 75.7498 23.3704C75.5298 23.1704 75.2198 23.0104 74.8098 22.9104C74.3998 22.8004 73.9298 22.7504 73.3798 22.7504ZM71.6897 17.4005C71.6897 17.8905 71.7998 18.3504 72.0298 18.7904C72.2598 19.2304 72.5797 19.6204 72.9797 19.9504C73.3797 20.2804 73.8297 20.5304 74.3197 20.7104L73.8998 21.2904C73.3598 21.0804 72.8797 20.7904 72.4497 20.4104C72.0197 20.0304 71.6897 19.5804 71.4497 19.0604C71.2097 18.5404 71.0797 17.9904 71.0797 17.3904V16.2904H71.6897V17.4005ZM76.2297 18.0004V18.6204H73.6198V18.0004H76.2297ZM76.7798 15.6904V21.8405H76.0398V15.6904H76.7798Z" fill="black"/>
<path d="M86.7192 16.4904V21.0305H82.0293V16.4904H86.7192ZM82.7593 17.1004V20.4104H85.9993V17.1004H82.7593ZM86.6593 22.1505C87.3693 22.1505 87.9793 22.2304 88.4993 22.3804C89.0193 22.5304 89.4093 22.7504 89.6793 23.0404C89.9493 23.3304 90.0892 23.6805 90.0892 24.0905C90.0892 24.4905 89.9493 24.8304 89.6793 25.1204C89.4093 25.4104 89.0093 25.6305 88.4993 25.7805C87.9893 25.9305 87.3693 26.0104 86.6593 26.0104C85.9493 26.0104 85.3292 25.9305 84.8192 25.7805C84.3092 25.6305 83.9093 25.4104 83.6393 25.1204C83.3693 24.8304 83.2292 24.4905 83.2292 24.0905C83.2292 23.6805 83.3593 23.3304 83.6393 23.0404C83.9193 22.7504 84.3092 22.5304 84.8292 22.3804C85.3292 22.2204 85.9493 22.1505 86.6593 22.1505ZM86.6593 22.7404C86.1093 22.7404 85.6292 22.8004 85.2192 22.9104C84.8092 23.0204 84.4993 23.1704 84.2793 23.3804C84.0593 23.5904 83.9492 23.8205 83.9492 24.0905C83.9492 24.3605 84.0593 24.5905 84.2793 24.7805C84.4993 24.9805 84.8192 25.1304 85.2192 25.2404C85.6292 25.3504 86.0993 25.4005 86.6493 25.4005C87.1993 25.4005 87.6692 25.3504 88.0792 25.2404C88.4892 25.1304 88.7993 24.9805 89.0193 24.7805C89.2393 24.5805 89.3492 24.3505 89.3492 24.0905C89.3492 23.8205 89.2393 23.5804 89.0193 23.3804C88.7993 23.1804 88.4892 23.0204 88.0792 22.9104C87.6792 22.8004 87.1993 22.7404 86.6593 22.7404ZM89.6293 17.4404V18.0604H86.4792V17.4404H89.6293ZM89.6393 19.4804V20.1004H86.4692V19.4804H89.6393ZM90.0493 15.6904V21.8405H89.3093V15.6904H90.0493Z" fill="black"/>
<path d="M95.1493 18.6104C95.1493 19.3204 95.0193 20.0204 94.7493 20.7004C94.4793 21.3904 94.1292 22.0004 93.6892 22.5504C93.2492 23.1004 92.7693 23.5004 92.2493 23.7904L91.7793 23.2004C92.2593 22.9504 92.7093 22.5904 93.1293 22.1004C93.5493 21.6104 93.8893 21.0604 94.1493 20.4504C94.4093 19.8404 94.5393 19.2204 94.5393 18.6104V16.6204H95.1493V18.6104ZM95.2693 18.6104C95.2693 19.2004 95.3893 19.7804 95.6493 20.3704C95.9093 20.9604 96.2493 21.4804 96.6693 21.9504C97.0893 22.4104 97.5393 22.7604 98.0193 23.0004L97.5493 23.5905C97.0393 23.3105 96.5593 22.9205 96.1193 22.4005C95.6793 21.8805 95.3293 21.2904 95.0593 20.6304C94.7993 19.9704 94.6693 19.3004 94.6693 18.6104V16.6204H95.2693V18.6104ZM99.8593 15.6904V26.0305H99.1193V15.6904H99.8593ZM101.649 19.9604V20.6104H99.6892V19.9604H101.649Z" fill="black"/>
<path d="M107.59 16.8204C107.59 17.8104 107.42 18.7404 107.08 19.6304C106.74 20.5204 106.22 21.3304 105.51 22.0804C104.8 22.8304 103.9 23.4704 102.82 24.0004L102.41 23.4204C103.38 22.9404 104.2 22.3704 104.86 21.7004C105.52 21.0404 106.02 20.3004 106.36 19.5004C106.69 18.7004 106.86 17.8404 106.86 16.9304V16.8204H107.59ZM107.24 16.8204V17.4504H102.86V16.8204H107.24ZM110.24 15.6904V26.0305H109.5V15.6904H110.24ZM111.98 19.9804V20.6104H110.04V19.9804H111.98Z" fill="black"/>
<path d="M118.85 17.2805C118.85 17.9205 118.72 18.5204 118.48 19.0804C118.24 19.6304 117.9 20.1104 117.47 20.5204C117.04 20.9204 116.54 21.2304 115.99 21.4404L115.6 20.8504C116.11 20.6604 116.56 20.3904 116.96 20.0404C117.36 19.6904 117.68 19.2704 117.91 18.8004C118.14 18.3304 118.26 17.8204 118.26 17.2904V16.1804H118.86V17.2805H118.85ZM120.3 22.2904V26.0404H119.56V22.9005H116.95V22.2904H120.3ZM118.96 17.3104C118.96 17.7804 119.07 18.2404 119.3 18.6804C119.53 19.1204 119.84 19.5105 120.24 19.8405C120.64 20.1705 121.08 20.4304 121.57 20.6004L121.17 21.1904C120.63 20.9904 120.15 20.6904 119.72 20.3004C119.29 19.9104 118.95 19.4604 118.71 18.9504C118.46 18.4304 118.34 17.8904 118.34 17.3104V16.1704H118.95V17.3104H118.96ZM124.08 22.2904V26.0404H123.34V22.9005H120.82V22.2904H124.08ZM123.53 17.8604V18.5004H120.92V17.8604H123.53ZM124.08 15.6904V21.7004H123.34V15.6904H124.08Z" fill="black"/>
<path d="M128.879 16.4509C129.389 16.4509 129.839 16.5609 130.249 16.7709C130.659 16.9809 130.969 17.2809 131.209 17.6609C131.439 18.0409 131.559 18.4709 131.559 18.9609C131.559 19.4509 131.439 19.8809 131.209 20.2709C130.979 20.6509 130.659 20.9509 130.249 21.1609C129.849 21.3709 129.389 21.4809 128.879 21.4709C128.379 21.4709 127.919 21.3709 127.509 21.1609C127.099 20.9509 126.779 20.6509 126.549 20.2709C126.319 19.8909 126.199 19.4509 126.199 18.9609C126.199 18.4709 126.319 18.0409 126.549 17.6609C126.779 17.2809 127.099 16.9809 127.509 16.7709C127.909 16.5509 128.369 16.4509 128.879 16.4509ZM128.879 17.0909C128.509 17.0909 128.179 17.1709 127.879 17.3309C127.579 17.4909 127.349 17.7109 127.179 18.0009C127.009 18.2809 126.929 18.6009 126.929 18.9509C126.929 19.3009 127.009 19.6209 127.179 19.9109C127.349 20.1909 127.579 20.4209 127.879 20.5809C128.179 20.7409 128.509 20.8209 128.879 20.8209C129.249 20.8209 129.579 20.7409 129.879 20.5809C130.179 20.4209 130.409 20.2009 130.579 19.9109C130.749 19.6309 130.839 19.3109 130.839 18.9509C130.839 18.6009 130.749 18.2809 130.579 18.0009C130.409 17.7209 130.169 17.4909 129.879 17.3309C129.569 17.1709 129.239 17.0909 128.879 17.0909ZM128.569 22.5209V25.3509H127.839V22.5209H128.569ZM134.769 25.1609V25.7909H127.829V25.1609H134.769ZM134.439 15.7109V23.3109H133.699V15.7109H134.439Z" fill="black"/>
<path d="M148.631 21.1107V21.7407H139.211V21.1107H148.631ZM147.461 22.8506V26.0307H146.711V23.4607H140.261V22.8506H147.461ZM141.211 15.9307V17.2107H146.651V15.9307H147.391V19.7507H140.481V15.9307H141.211ZM141.211 19.1407H146.651V17.7906H141.211V19.1407ZM144.291 19.4807V21.3506H143.561V19.4807H144.291Z" fill="black"/>
<path d="M159.01 21.5806V22.2106H149.59V21.5806H159.01ZM154.57 16.7106C154.57 17.3306 154.37 17.9006 153.96 18.4006C153.55 18.9106 153.03 19.3306 152.4 19.6606C151.77 19.9906 151.11 20.2206 150.43 20.3406L150.12 19.7306C150.72 19.6406 151.31 19.4506 151.9 19.1706C152.49 18.8806 152.97 18.5306 153.36 18.1006C153.74 17.6706 153.94 17.2106 153.94 16.7206V16.1006H154.59V16.7106H154.57ZM154.65 22.0406V26.0406H153.92V22.0406H154.65ZM154.68 16.7106C154.68 17.1906 154.87 17.6506 155.26 18.0806C155.65 18.5106 156.14 18.8706 156.73 19.1606C157.32 19.4506 157.91 19.6406 158.5 19.7306L158.19 20.3406C157.51 20.2206 156.85 19.9906 156.22 19.6606C155.58 19.3306 155.06 18.9006 154.65 18.4006C154.24 17.9006 154.04 17.3306 154.04 16.7206V16.1006H154.68V16.7106Z" fill="black"/>
<path d="M160.02 23.0604C160.86 23.0604 161.639 23.0604 162.359 23.0504C163.079 23.0404 163.85 23.0104 164.65 22.9504C165.45 22.9004 166.21 22.8204 166.92 22.7104L166.99 23.2704C166.25 23.4104 165.489 23.5104 164.689 23.5704C163.889 23.6304 163.149 23.6804 162.469 23.6904C161.789 23.7004 161.01 23.7104 160.14 23.7104L160.02 23.0604ZM163.359 16.4704C163.889 16.4704 164.37 16.5704 164.79 16.7704C165.21 16.9704 165.53 17.2504 165.77 17.6104C166 17.9704 166.12 18.3904 166.12 18.8604C166.12 19.3304 166 19.7504 165.77 20.1104C165.54 20.4704 165.21 20.7504 164.79 20.9504C164.37 21.1504 163.899 21.2504 163.359 21.2504C162.819 21.2504 162.34 21.1504 161.92 20.9504C161.5 20.7504 161.169 20.4704 160.939 20.1004C160.699 19.7404 160.589 19.3204 160.589 18.8604C160.589 18.3904 160.699 17.9804 160.939 17.6204C161.169 17.2604 161.5 16.9804 161.92 16.7704C162.34 16.5604 162.819 16.4704 163.359 16.4704ZM163.359 17.1204C162.959 17.1204 162.61 17.1905 162.3 17.3405C161.99 17.4905 161.749 17.7004 161.569 17.9604C161.399 18.2204 161.309 18.5204 161.319 18.8604C161.319 19.1904 161.399 19.4904 161.579 19.7604C161.759 20.0304 162 20.2304 162.31 20.3804C162.62 20.5304 162.97 20.6004 163.37 20.6004C163.76 20.6004 164.11 20.5304 164.42 20.3804C164.73 20.2304 164.97 20.0204 165.15 19.7604C165.33 19.5004 165.41 19.2004 165.41 18.8604C165.41 18.5304 165.32 18.2304 165.15 17.9604C164.98 17.7004 164.73 17.4905 164.42 17.3405C164.09 17.2005 163.749 17.1204 163.359 17.1204ZM168.38 15.6904V26.0404H167.64V15.6904H168.38Z" fill="black"/>
<path d="M176.72 17.4504C176.72 18.0404 176.59 18.5904 176.34 19.1004C176.09 19.6104 175.73 20.0604 175.29 20.4404C174.84 20.8204 174.34 21.1104 173.79 21.3104L173.41 20.7204C173.91 20.5504 174.37 20.3104 174.78 19.9804C175.19 19.6504 175.52 19.2704 175.76 18.8304C176 18.3904 176.12 17.9304 176.12 17.4504V16.5905H176.72V17.4504ZM179.34 16.4204V17.0404H173.61V16.4204H179.34ZM175.83 21.8104V23.1604H181V21.8104H181.73V25.8804H175.1V21.8104H175.83ZM175.83 25.2604H181V23.7604H175.83V25.2604ZM176.86 17.4504C176.86 17.9104 176.98 18.3404 177.22 18.7604C177.46 19.1704 177.79 19.5405 178.2 19.8405C178.62 20.1505 179.07 20.3804 179.58 20.5404L179.2 21.1304C178.64 20.9404 178.14 20.6704 177.7 20.3104C177.25 19.9504 176.9 19.5305 176.64 19.0305C176.38 18.5405 176.25 18.0104 176.25 17.4504V16.5905H176.87V17.4504H176.86ZM181.74 15.6904V21.2805H181V15.6904H181.74Z" fill="black"/>
<path d="M188.711 16.6107V17.2407H184.861V21.0207H184.131V16.6107H188.711ZM184.911 20.6707C185.651 20.6707 186.291 20.6607 186.811 20.6507C187.331 20.6307 187.821 20.6007 188.291 20.5507C188.761 20.5007 189.221 20.4307 189.701 20.3307L189.801 20.9607C189.061 21.1007 188.341 21.1907 187.621 21.2507C186.911 21.3007 186.001 21.3307 184.911 21.3207H184.131V20.6907H184.911V20.6707ZM185.991 22.4407V25.4307H185.261V22.4407H185.991ZM192.171 25.1606V25.7906H185.261V25.1606H192.171ZM191.661 15.6807V23.1807H190.921V15.6807H191.661ZM193.281 18.8506V19.4807H191.421V18.8506H193.281Z" fill="black"/>
<path d="M203.41 21.2003V21.8103H193.99V21.2003H203.41ZM198.69 16.0703C199.42 16.0703 200.06 16.1503 200.61 16.3103C201.16 16.4703 201.57 16.7103 201.87 17.0103C202.17 17.3103 202.31 17.6803 202.31 18.1003C202.31 18.5203 202.16 18.8903 201.87 19.2003C201.57 19.5103 201.15 19.7403 200.61 19.9003C200.07 20.0603 199.43 20.1403 198.69 20.1403C197.95 20.1403 197.31 20.0603 196.77 19.9003C196.22 19.7403 195.8 19.5003 195.51 19.2003C195.22 18.8903 195.07 18.5303 195.07 18.1003C195.07 17.6803 195.22 17.3203 195.51 17.0103C195.8 16.7003 196.22 16.4703 196.77 16.3103C197.31 16.1503 197.95 16.0703 198.69 16.0703ZM195.98 22.7903V25.3403H195.23V22.7903H195.98ZM202.37 25.1603V25.7903H195.24V25.1603H202.37ZM198.69 16.6703C198.11 16.6703 197.61 16.7303 197.18 16.8503C196.75 16.9703 196.41 17.1303 196.18 17.3503C195.95 17.5603 195.83 17.8103 195.83 18.1003C195.83 18.3903 195.94 18.6403 196.18 18.8603C196.42 19.0803 196.75 19.2403 197.18 19.3603C197.61 19.4803 198.12 19.5303 198.69 19.5303C199.26 19.5303 199.77 19.4703 200.2 19.3603C200.63 19.2503 200.97 19.0803 201.2 18.8603C201.43 18.6403 201.55 18.3903 201.55 18.1003C201.55 17.8203 201.43 17.5703 201.2 17.3503C200.96 17.1403 200.63 16.9703 200.2 16.8503C199.77 16.7303 199.27 16.6703 198.69 16.6703Z" fill="black"/>
<path d="M1.48047 31.2309V35.3409H0.730469V31.2309H1.48047ZM1.53052 35.0409C2.34052 35.0409 3.14054 35.0009 3.93054 34.9309C4.71054 34.8609 5.52046 34.7409 6.35046 34.5709L6.45044 35.2009C5.60044 35.3709 4.78048 35.4909 3.99048 35.5609C3.20048 35.6309 2.38053 35.6709 1.54053 35.6709H0.740479V35.0409H1.53052ZM8.25049 37.1409V40.8709H1.77051V37.1409H8.25049ZM2.49048 37.7409V40.2609H7.53052V37.7409H2.49048ZM8.25049 30.7109V36.5509H7.5105V30.7109H8.25049ZM9.86047 33.1309V33.7709H8.06055V33.1309H9.86047Z" fill="black"/>
<path d="M13.8901 32.4204C13.8901 33.0604 13.7601 33.6604 13.5101 34.2204C13.2601 34.7804 12.9201 35.2604 12.4801 35.6604C12.0401 36.0604 11.5501 36.3804 10.9801 36.6004L10.5801 35.9904C11.0901 35.8004 11.5501 35.5404 11.9601 35.1804C12.3701 34.8204 12.6902 34.4104 12.9202 33.9304C13.1502 33.4504 13.2701 32.9504 13.2701 32.4104V31.2904H13.8701V32.4204H13.8901ZM15.7001 37.1505C16.4101 37.1505 17.0202 37.2304 17.5402 37.3804C18.0602 37.5304 18.4501 37.7504 18.7201 38.0404C18.9901 38.3304 19.1301 38.6805 19.1301 39.0905C19.1301 39.4905 18.9901 39.8304 18.7201 40.1204C18.4501 40.4104 18.0502 40.6305 17.5402 40.7805C17.0302 40.9305 16.4101 41.0104 15.7001 41.0104C14.9901 41.0104 14.3701 40.9305 13.8601 40.7805C13.3501 40.6305 12.9502 40.4104 12.6802 40.1204C12.4102 39.8304 12.2701 39.4905 12.2701 39.0905C12.2701 38.6805 12.4002 38.3304 12.6802 38.0404C12.9602 37.7504 13.3501 37.5304 13.8701 37.3804C14.3801 37.2204 14.9901 37.1505 15.7001 37.1505ZM15.7001 37.7504C15.1501 37.7504 14.6801 37.8004 14.2701 37.9104C13.8601 38.0204 13.5501 38.1704 13.3301 38.3704C13.1101 38.5704 13.0001 38.8104 13.0001 39.0804C13.0001 39.3504 13.1101 39.5804 13.3301 39.7704C13.5501 39.9704 13.8601 40.1204 14.2701 40.2304C14.6801 40.3404 15.1601 40.3904 15.7001 40.3904C16.2501 40.3904 16.7201 40.3404 17.1301 40.2304C17.5401 40.1204 17.8501 39.9704 18.0701 39.7704C18.2901 39.5704 18.4001 39.3404 18.4001 39.0804C18.4001 38.8104 18.2901 38.5704 18.0701 38.3704C17.8501 38.1704 17.5401 38.0104 17.1301 37.9104C16.7301 37.8004 16.2501 37.7504 15.7001 37.7504ZM14.0201 32.4005C14.0201 32.8905 14.1301 33.3504 14.3601 33.7904C14.5901 34.2304 14.9102 34.6204 15.3102 34.9504C15.7102 35.2804 16.1601 35.5304 16.6501 35.7104L16.2301 36.2904C15.6901 36.0804 15.2102 35.7904 14.7802 35.4104C14.3502 35.0304 14.0202 34.5804 13.7802 34.0604C13.5402 33.5404 13.4102 32.9904 13.4102 32.3904V31.2904H14.0201V32.4005ZM18.5502 33.0004V33.6204H15.9401V33.0004H18.5502ZM19.1001 30.6904V36.8405H18.3601V30.6904H19.1001Z" fill="black"/>
<path d="M30.4193 38.9802V39.6102H20.9492V38.9802H30.4193ZM25.6493 31.4102C26.3593 31.4102 27.0092 31.5302 27.5792 31.7602C28.1492 31.9902 28.5893 32.3202 28.9193 32.7502C29.2393 33.1702 29.4093 33.6602 29.4093 34.2102C29.4093 34.7702 29.2493 35.2602 28.9193 35.6802C28.5893 36.1002 28.1492 36.4302 27.5792 36.6602C27.0092 36.8902 26.3693 37.0002 25.6493 37.0002C24.9393 37.0002 24.2992 36.8902 23.7292 36.6602C23.1592 36.4302 22.7193 36.1002 22.3893 35.6802C22.0693 35.2502 21.9093 34.7602 21.9093 34.2102C21.9093 33.6602 22.0693 33.1702 22.3893 32.7502C22.7093 32.3302 23.1592 32.0002 23.7292 31.7602C24.2992 31.5202 24.9393 31.4102 25.6493 31.4102ZM25.6493 32.0102C25.0793 32.0102 24.5592 32.1002 24.0892 32.2902C23.6292 32.4802 23.2593 32.7402 22.9893 33.0702C22.7293 33.4002 22.5892 33.7802 22.5992 34.2002C22.5992 34.6202 22.7293 35.0002 22.9893 35.3302C23.2593 35.6602 23.6192 35.9202 24.0792 36.1102C24.5392 36.3002 25.0593 36.3902 25.6393 36.3902C26.2093 36.3902 26.7292 36.3002 27.1992 36.1102C27.6692 35.9202 28.0293 35.6702 28.2893 35.3302C28.5593 35.0002 28.6892 34.6202 28.6892 34.2002C28.6892 33.7802 28.5593 33.4002 28.2893 33.0702C28.0193 32.7402 27.6592 32.4802 27.1992 32.2902C26.7392 32.1002 26.2293 32.0102 25.6493 32.0102Z" fill="black"/>
<path d="M40.7904 39.0703V39.7003H31.3203V39.0703H40.7904ZM39.5703 31.4902V34.5103H33.2804V36.7103H32.5504V33.9003H38.8403V32.1202H32.5104V31.4902H39.5703ZM39.8104 36.3702V37.0002H32.5504V36.3802H39.8104V36.3702ZM36.3904 36.7603V39.3502H35.6604V36.7603H36.3904Z" fill="black"/>
<path d="M54.0696 39.1002V39.7302H44.5996V39.1002H54.0696ZM53.1296 31.7002V32.3202H45.4696V31.7002H53.1296ZM53.1096 35.8502V36.4702H45.4796V35.8502H53.1096ZM47.9097 32.1902V36.0102H47.1797V32.1902H47.9097ZM48.0796 36.2702V39.3002H47.3396V36.2702H48.0796ZM51.2697 36.2802V39.3102H50.5297V36.2802H51.2697ZM51.4197 32.1902V36.0102H50.6896V32.1902H51.4197Z" fill="black"/>
<path d="M60.8802 32.0302V32.6502H54.9902V32.0302H60.8802ZM57.9502 33.2802C58.4102 33.2802 58.8103 33.3602 59.1603 33.5202C59.5103 33.6802 59.7802 33.9102 59.9802 34.2102C60.1802 34.5102 60.2803 34.8502 60.2803 35.2302C60.2803 35.6202 60.1802 35.9602 59.9802 36.2602C59.7802 36.5602 59.5103 36.7902 59.1603 36.9502C58.8103 37.1102 58.4102 37.1902 57.9502 37.1902C57.4902 37.1902 57.0902 37.1102 56.7402 36.9502C56.3902 36.7902 56.1103 36.5602 55.9203 36.2602C55.7303 35.9602 55.6302 35.6202 55.6302 35.2302C55.6302 34.8402 55.7203 34.5002 55.9203 34.2102C56.1103 33.9102 56.3902 33.6902 56.7402 33.5202C57.0902 33.3502 57.4902 33.2802 57.9502 33.2802ZM57.9502 33.8802C57.6302 33.8802 57.3502 33.9402 57.1002 34.0602C56.8502 34.1802 56.6603 34.3402 56.5303 34.5402C56.3903 34.7402 56.3302 34.9802 56.3302 35.2402C56.3302 35.5102 56.3903 35.7402 56.5303 35.9502C56.6603 36.1602 56.8602 36.3202 57.1002 36.4302C57.3402 36.5402 57.6302 36.6002 57.9502 36.6002C58.2702 36.6002 58.5503 36.5402 58.8003 36.4302C59.0503 36.3202 59.2402 36.1602 59.3802 35.9502C59.5202 35.7402 59.5902 35.5102 59.5902 35.2402C59.5902 34.9802 59.5202 34.7502 59.3802 34.5402C59.2402 34.3402 59.0503 34.1802 58.8003 34.0602C58.5503 33.9402 58.2702 33.8802 57.9502 33.8802ZM57.6202 37.8902V40.4702H56.8802V37.8902H57.6202ZM63.7502 40.1602V40.7902H56.8802V40.1602H63.7502ZM58.3202 30.7002V32.4302H57.5902V30.7002H58.3202ZM63.0902 33.5102V34.1402H60.8402V33.5102H63.0902ZM63.0902 35.6702V36.2802H60.8402V35.6702H63.0902ZM63.5002 30.7102V38.6002H62.7603V30.7102H63.5002Z" fill="black"/>
<path d="M71.5607 32.0309V32.6509H65.3906V32.0309H71.5607ZM68.4706 33.2809C68.9606 33.2809 69.3806 33.3609 69.7506 33.5209C70.1206 33.6809 70.4106 33.9009 70.6206 34.1909C70.8306 34.4809 70.9307 34.8109 70.9307 35.2009C70.9307 35.5809 70.8306 35.9109 70.6206 36.2009C70.4106 36.4909 70.1206 36.7109 69.7506 36.8609C69.3806 37.0109 68.9506 37.0909 68.4706 37.0909C67.9806 37.0909 67.5507 37.0109 67.1707 36.8609C66.7907 36.7109 66.5107 36.4909 66.3007 36.2009C66.0907 35.9109 65.9906 35.5809 66.0006 35.2009C66.0006 34.8209 66.1007 34.4809 66.3007 34.1909C66.5007 33.9009 66.7907 33.6809 67.1707 33.5209C67.5507 33.3609 67.9806 33.2809 68.4706 33.2809ZM68.4706 33.8709C68.1206 33.8709 67.8006 33.9209 67.5406 34.0309C67.2706 34.1409 67.0707 34.2909 66.9207 34.4909C66.7707 34.6909 66.7006 34.9209 66.7006 35.1809C66.7006 35.4409 66.7707 35.6609 66.9207 35.8609C67.0707 36.0609 67.2706 36.2109 67.5406 36.3109C67.8106 36.4209 68.1206 36.4709 68.4706 36.4709C68.8106 36.4709 69.1206 36.4209 69.3906 36.3109C69.6606 36.2009 69.8606 36.0509 70.0106 35.8609C70.1606 35.6709 70.2306 35.4409 70.2406 35.1809C70.2406 34.9209 70.1606 34.6909 70.0106 34.4909C69.8606 34.2909 69.6606 34.1409 69.3906 34.0309C69.1306 33.9309 68.8206 33.8709 68.4706 33.8709ZM67.7306 37.8209V40.4109H67.0006V37.8209H67.7306ZM73.9106 40.1609V40.7909H67.0006V40.1609H73.9106ZM68.8406 30.7109V32.3609H68.1106V30.7109H68.8406ZM73.4106 30.7109V38.4709H72.6707V30.7109H73.4106ZM75.0006 34.1909V34.8209H73.1506V34.1909H75.0006Z" fill="black"/>
<path d="M81.0197 31.7204V32.3304H76.9297V38.0604H76.1996V31.7104H81.0197V31.7204ZM76.9896 37.7904C78.0196 37.7904 78.8996 37.7704 79.6296 37.7104C80.3596 37.6604 81.1096 37.5604 81.8596 37.4204L81.9596 38.0704C81.1796 38.2104 80.4196 38.3104 79.6896 38.3504C78.9596 38.3904 78.0496 38.4204 76.9796 38.4204H76.1797V37.7805H76.9896V37.7904ZM83.6896 30.6904V41.0404H82.9496V30.6904H83.6896ZM85.4796 34.8704V35.5004H83.5197V34.8704H85.4796Z" fill="black"/>
<path d="M87.1202 40.1807C87.0102 40.1807 86.9003 40.1507 86.8003 40.0907C86.7003 40.0307 86.6302 39.9607 86.5702 39.8607C86.5102 39.7707 86.4902 39.6607 86.4902 39.5507C86.4902 39.4407 86.5102 39.3307 86.5702 39.2407C86.6302 39.1507 86.7003 39.0707 86.8003 39.0107C86.9003 38.9507 87.0002 38.9307 87.1202 38.9307C87.2302 38.9307 87.3303 38.9607 87.4303 39.0107C87.5203 39.0707 87.6003 39.1407 87.6603 39.2407C87.7203 39.3407 87.7502 39.4407 87.7502 39.5507C87.7502 39.6607 87.7203 39.7707 87.6603 39.8607C87.6003 39.9507 87.5303 40.0307 87.4303 40.0907C87.3403 40.1507 87.2402 40.1807 87.1202 40.1807Z" fill="black"/>
</svg>
