<svg width="209" height="42" viewBox="0 0 209 42" fill="none" xmlns="http://www.w3.org/2000/svg">
<path d="M2.59924 5.92822L2.64929 4.01807L1.01929 5.02783L0.699219 4.44824L2.38928 3.54785L0.699219 2.64795L1.01929 2.06787L2.64929 3.07812L2.59924 1.16797H3.25928L3.20923 3.07812L4.83923 2.06787L5.1593 2.64795L3.46924 3.54785L5.1593 4.44824L4.83923 5.02783L3.20923 4.01807L3.25928 5.92822H2.59924Z" fill="black"/>
<path d="M18.5696 8.53857V9.18848H9.09961V8.53857H18.5696ZM17.6296 1.30859V1.92871H9.9696V1.30859H17.6296ZM17.6096 5.7085V6.31836H9.97961V5.7085H17.6096ZM12.4097 1.86865V5.77832H11.6797V1.86865H12.4097ZM15.9197 1.86865V5.77832H15.1896V1.86865H15.9197Z" fill="black"/>
<path d="M24.5996 0.878418V3.56836H20.6896V5.61865H19.9596V2.96875H23.8696V1.48877H19.9297V0.868652H24.5996V0.878418ZM20.7496 5.18848C21.7196 5.18848 22.5796 5.16865 23.3296 5.11865C24.0796 5.06865 24.8497 4.97863 25.6697 4.84863L25.7396 5.47852C24.9196 5.60852 24.1296 5.69854 23.3696 5.74854C22.6096 5.79854 21.7396 5.81836 20.7496 5.81836H19.9596V5.18848H20.7496ZM24.2296 6.82861C24.9296 6.82861 25.5297 6.89834 26.0397 7.04834C26.5497 7.19834 26.9396 7.40848 27.2096 7.68848C27.4796 7.96848 27.6196 8.29871 27.6196 8.67871C27.6196 9.05871 27.4896 9.39871 27.2096 9.67871C26.9396 9.95871 26.5497 10.1686 26.0397 10.3086C25.5297 10.4586 24.9296 10.5283 24.2296 10.5283C23.5296 10.5283 22.9197 10.4586 22.4097 10.3086C21.8997 10.1586 21.5096 9.94871 21.2396 9.67871C20.9696 9.40871 20.8296 9.06871 20.8296 8.67871C20.8296 8.28871 20.9696 7.95871 21.2396 7.67871C21.5096 7.39871 21.8997 7.18857 22.4097 7.03857C22.9197 6.88857 23.5296 6.82861 24.2296 6.82861ZM24.2296 7.42871C23.6896 7.42871 23.2097 7.47861 22.8097 7.57861C22.4097 7.67861 22.0996 7.82855 21.8796 8.01855C21.6696 8.20855 21.5597 8.42871 21.5597 8.67871C21.5597 8.93871 21.6596 9.15863 21.8796 9.34863C22.0996 9.53863 22.4097 9.67857 22.8097 9.78857C23.2097 9.88857 23.6896 9.93848 24.2296 9.93848C24.7696 9.93848 25.2497 9.88857 25.6497 9.78857C26.0497 9.68857 26.3596 9.53863 26.5796 9.34863C26.7996 9.15863 26.9097 8.93871 26.9097 8.67871C26.9097 8.42871 26.7996 8.20855 26.5796 8.01855C26.3596 7.82855 26.0497 7.67861 25.6497 7.57861C25.2397 7.47861 24.7696 7.42871 24.2296 7.42871ZM27.5297 0.228516V6.47852H26.7897V0.228516H27.5297ZM29.1396 2.87842V3.49854H27.2797V2.87842H29.1396Z" fill="black"/>
<path d="M39.3196 8.479V9.10889H29.8496V8.479H39.3196ZM34.7997 1.78906C34.7997 2.49906 34.5897 3.15879 34.1697 3.75879C33.7497 4.35879 33.2196 4.86881 32.5896 5.27881C31.9496 5.68881 31.3097 5.97916 30.6597 6.13916L30.3097 5.51904C30.8797 5.39904 31.4597 5.15883 32.0597 4.79883C32.6597 4.43883 33.1597 3.98898 33.5597 3.45898C33.9597 2.92898 34.1597 2.36881 34.1597 1.77881V0.958984H34.8097V1.78906H34.7997ZM34.9097 1.78906C34.9097 2.37906 35.1097 2.92924 35.5197 3.46924C35.9297 3.99924 36.4297 4.44885 37.0297 4.81885C37.6297 5.17885 38.2197 5.41881 38.7797 5.52881L38.4197 6.14893C37.7697 5.98893 37.1296 5.69906 36.4896 5.28906C35.8496 4.87906 35.3197 4.36879 34.8997 3.75879C34.4797 3.14879 34.2697 2.48906 34.2797 1.78906V0.969238H34.9097V1.78906Z" fill="black"/>
<path d="M42.9799 1.03857C43.4799 1.03857 43.9199 1.18852 44.2999 1.47852C44.6799 1.76852 44.9898 2.18852 45.1998 2.72852C45.4198 3.26852 45.5199 3.8984 45.5299 4.6084C45.5299 5.3284 45.4198 5.94877 45.1998 6.48877C44.9798 7.02877 44.6799 7.44877 44.2999 7.73877C43.9099 8.02877 43.4699 8.17871 42.9799 8.17871C42.4799 8.17871 42.0399 8.02877 41.6499 7.73877C41.2599 7.44877 40.9599 7.02877 40.7399 6.48877C40.5299 5.94877 40.4199 5.3184 40.4199 4.6084C40.4199 3.8984 40.5199 3.26852 40.7399 2.72852C40.9499 2.18852 41.2599 1.76852 41.6499 1.47852C42.0399 1.18852 42.4799 1.04857 42.9799 1.03857ZM42.9799 1.69873C42.6199 1.69873 42.2999 1.82836 42.0199 2.06836C41.7399 2.31836 41.5199 2.65863 41.3599 3.09863C41.1999 3.53863 41.1299 4.04865 41.1299 4.61865C41.1299 5.18865 41.2099 5.69867 41.3599 6.13867C41.5199 6.57867 41.7399 6.92846 42.0199 7.16846C42.2999 7.40846 42.6199 7.53857 42.9799 7.53857C43.3399 7.53857 43.6598 7.41846 43.9398 7.16846C44.2198 6.91846 44.4399 6.57867 44.5999 6.13867C44.7599 5.69867 44.8398 5.18865 44.8398 4.61865C44.8398 4.04865 44.7599 3.5484 44.5999 3.1084C44.4399 2.6684 44.2198 2.31861 43.9398 2.07861C43.6598 1.82861 43.3399 1.69873 42.9799 1.69873ZM48.3499 4.23877V4.8584H45.2699V4.23877H48.3499ZM48.7499 0.21875V10.5786H48.0199V0.21875H48.7499Z" fill="black"/>
<path d="M60.0696 8.59961V9.22949H50.5996V8.59961H60.0696ZM58.8396 1.01953V4.03955H52.5497V6.23975H51.8196V3.42969H58.1096V1.64941H51.7797V1.01953H58.8396ZM59.0796 5.89941V6.51953H51.8196V5.89941H59.0796ZM55.6697 6.28955V8.87939H54.9396V6.28955H55.6697Z" fill="black"/>
<path d="M66.2292 1.13867C66.6692 1.13867 67.0593 1.27836 67.3893 1.56836C67.7193 1.85836 67.9793 2.26834 68.1593 2.79834C68.3393 3.32834 68.4392 3.95846 68.4392 4.66846C68.4392 5.37846 68.3393 6.00834 68.1593 6.54834C67.9793 7.07834 67.7193 7.49857 67.3893 7.78857C67.0593 8.07857 66.6692 8.21875 66.2292 8.21875C65.7892 8.21875 65.3992 8.07857 65.0692 7.78857C64.7392 7.49857 64.4793 7.08834 64.2993 6.54834C64.1193 6.00834 64.0293 5.38846 64.0293 4.66846C64.0293 3.95846 64.1193 3.32834 64.2993 2.79834C64.4793 2.26834 64.7392 1.85836 65.0692 1.56836C65.3992 1.27836 65.7892 1.13867 66.2292 1.13867ZM66.2292 1.81836C65.9192 1.81836 65.6593 1.93871 65.4293 2.17871C65.1993 2.41871 65.0293 2.74871 64.8993 3.17871C64.7793 3.60871 64.7192 4.10846 64.7192 4.66846C64.7192 5.22846 64.7793 5.72846 64.8993 6.16846C65.0193 6.59846 65.1993 6.93846 65.4293 7.16846C65.6593 7.39846 65.9292 7.51855 66.2292 7.51855C66.5292 7.51855 66.7993 7.39846 67.0293 7.16846C67.2593 6.93846 67.4393 6.59846 67.5593 6.16846C67.6793 5.73846 67.7493 5.23846 67.7493 4.66846C67.7493 4.09846 67.6893 3.60871 67.5593 3.17871C67.4293 2.74871 67.2593 2.41871 67.0293 2.17871C66.7993 1.93871 66.5292 1.81836 66.2292 1.81836ZM70.1992 2.79834V3.41846H68.0393V2.79834H70.1992ZM70.1992 5.91846V6.54834H68.0393V5.91846H70.1992ZM70.6693 0.458496V10.0186H69.9592V0.458496H70.6693ZM72.7092 0.21875V10.5586H71.9893V0.21875H72.7092Z" fill="black"/>
<path d="M74.3184 7.58838C75.1584 7.58838 75.9384 7.58861 76.6584 7.57861C77.3784 7.56861 78.1484 7.53852 78.9484 7.47852C79.7484 7.41852 80.5084 7.34877 81.2184 7.23877L81.2885 7.78857C80.5485 7.92857 79.7884 8.02838 78.9884 8.08838C78.1884 8.14838 77.4484 8.1985 76.7684 8.2085C76.0884 8.2185 75.3084 8.22852 74.4384 8.22852L74.3184 7.58838ZM77.6484 0.998535C78.1784 0.998535 78.6584 1.09834 79.0784 1.29834C79.4984 1.49834 79.8185 1.77867 80.0585 2.13867C80.2985 2.49867 80.4084 2.91867 80.4084 3.38867C80.4084 3.85867 80.2885 4.26867 80.0585 4.63867C79.8285 5.00867 79.4984 5.27852 79.0784 5.47852C78.6584 5.67852 78.1884 5.77832 77.6484 5.77832C77.1084 5.77832 76.6284 5.67852 76.2084 5.47852C75.7884 5.27852 75.4584 4.99867 75.2284 4.63867C74.9884 4.27867 74.8784 3.85844 74.8784 3.39844C74.8784 2.92844 74.9884 2.51869 75.2284 2.15869C75.4584 1.79869 75.7884 1.51836 76.2084 1.31836C76.6284 1.09836 77.1084 0.998535 77.6484 0.998535ZM77.6484 1.64844C77.2484 1.64844 76.8984 1.71865 76.5884 1.86865C76.2784 2.01865 76.0384 2.22877 75.8584 2.48877C75.6884 2.74877 75.5984 3.04867 75.6084 3.38867C75.6084 3.71867 75.6884 4.01832 75.8684 4.27832C76.0384 4.54832 76.2884 4.74844 76.5984 4.89844C76.9084 5.04844 77.2584 5.11865 77.6584 5.11865C78.0484 5.11865 78.3984 5.04844 78.7084 4.89844C79.0184 4.74844 79.2584 4.53832 79.4384 4.27832C79.6084 4.01832 79.6984 3.71867 79.6984 3.38867C79.6984 3.05867 79.6084 2.75877 79.4384 2.48877C79.2684 2.22877 79.0184 2.01865 78.7084 1.86865C78.3984 1.71865 78.0384 1.64844 77.6484 1.64844ZM82.6685 0.21875V10.5786H81.9285V0.21875H82.6685Z" fill="black"/>
<path d="M94.0793 5.07812V5.67822H84.6094V5.07812H94.0793ZM92.8794 6.60791V8.71826H86.5294V10.0581H85.7994V8.16797H92.1494V7.16797H85.7794V6.59814H92.8794V6.60791ZM93.2294 9.83789V10.3979H85.7994V9.83789H93.2294ZM92.8394 0.578125V2.61816H86.5894V3.83789H85.8594V2.08789H92.0994V1.12793H85.8193V0.578125H92.8394ZM93.0194 3.63818V4.19824H85.8594V3.63818H93.0194Z" fill="black"/>
<path d="M103.149 0.90918C103.149 1.75918 102.949 2.51898 102.559 3.20898C102.169 3.89898 101.609 4.489 100.869 4.979C100.139 5.469 99.2592 5.85916 98.2292 6.13916L97.9492 5.52881C98.8692 5.27881 99.6592 4.94881 100.319 4.52881C100.979 4.10881 101.489 3.61885 101.839 3.06885C102.189 2.50885 102.369 1.89926 102.369 1.23926V0.90918H103.149ZM102.769 0.90918V1.52881H98.3893V0.90918H102.769ZM103.019 7.33887C103.019 7.86887 102.839 8.34906 102.489 8.78906C102.139 9.22906 101.679 9.59893 101.119 9.89893C100.559 10.1989 99.9493 10.4091 99.3093 10.5391L98.9993 9.94922C99.5593 9.84922 100.099 9.6792 100.619 9.4292C101.139 9.1792 101.559 8.86879 101.889 8.50879C102.219 8.14879 102.379 7.75912 102.389 7.34912V6.99902H103.019V7.33887ZM106.149 6.729V7.33887H99.3793V6.729H106.149ZM103.159 7.33887C103.159 7.73887 103.319 8.12926 103.649 8.48926C103.979 8.84926 104.399 9.15895 104.919 9.41895C105.439 9.67895 105.979 9.84922 106.539 9.94922L106.239 10.5288C105.599 10.3988 104.989 10.1892 104.429 9.88916C103.859 9.58916 103.399 9.21881 103.049 8.77881C102.699 8.33881 102.519 7.85887 102.519 7.33887V6.99902H103.149V7.33887H103.159ZM105.959 0.199219V6.19922H105.219V0.199219H105.959ZM107.559 2.96924V3.59912H105.749V2.96924H107.559Z" fill="black"/>
<path d="M117.699 6.48926V7.10889H108.279V6.48926H117.699ZM113.279 2.23926C113.279 2.81926 113.079 3.33908 112.679 3.80908C112.279 4.27908 111.769 4.669 111.149 4.979C110.529 5.289 109.869 5.49914 109.189 5.61914L108.909 5.00879C109.489 4.92879 110.079 4.75926 110.649 4.48926C111.219 4.22926 111.699 3.89879 112.069 3.50879C112.439 3.11879 112.629 2.69902 112.629 2.24902V1.96924H113.279V2.23926ZM116.779 1.52881V2.14893H109.219V1.52881H116.779ZM113.359 0.208984V1.75879H112.629V0.208984H113.359ZM113.359 6.75879V10.5688H112.629V6.75879H113.359ZM113.359 2.23926C113.359 2.68926 113.539 3.09926 113.909 3.48926C114.279 3.87926 114.749 4.20924 115.319 4.46924C115.889 4.72924 116.469 4.90926 117.059 4.98926L116.779 5.59912C116.099 5.47912 115.449 5.26898 114.819 4.95898C114.199 4.64898 113.689 4.25906 113.299 3.78906C112.909 3.31906 112.709 2.799 112.709 2.229V1.94922H113.349V2.23926H113.359Z" fill="black"/>
<path d="M121.41 1.03857C121.91 1.03857 122.35 1.18852 122.73 1.47852C123.11 1.76852 123.42 2.18852 123.63 2.72852C123.85 3.26852 123.95 3.8984 123.96 4.6084C123.96 5.3284 123.85 5.94877 123.63 6.48877C123.41 7.02877 123.11 7.44877 122.73 7.73877C122.34 8.02877 121.9 8.17871 121.41 8.17871C120.91 8.17871 120.47 8.02877 120.08 7.73877C119.69 7.44877 119.39 7.02877 119.17 6.48877C118.96 5.94877 118.85 5.3184 118.85 4.6084C118.85 3.8984 118.95 3.26852 119.17 2.72852C119.38 2.18852 119.69 1.76852 120.08 1.47852C120.47 1.18852 120.91 1.04857 121.41 1.03857ZM121.41 1.69873C121.05 1.69873 120.73 1.82836 120.45 2.06836C120.17 2.31836 119.95 2.65863 119.79 3.09863C119.63 3.53863 119.56 4.04865 119.56 4.61865C119.56 5.18865 119.64 5.69867 119.79 6.13867C119.95 6.57867 120.17 6.92846 120.45 7.16846C120.73 7.40846 121.05 7.53857 121.41 7.53857C121.77 7.53857 122.09 7.41846 122.37 7.16846C122.65 6.91846 122.87 6.57867 123.03 6.13867C123.19 5.69867 123.27 5.18865 123.27 4.61865C123.27 4.04865 123.19 3.5484 123.03 3.1084C122.87 2.6684 122.65 2.31861 122.37 2.07861C122.09 1.82861 121.77 1.69873 121.41 1.69873ZM126.78 4.23877V4.8584H123.7V4.23877H126.78ZM127.18 0.21875V10.5786H126.45V0.21875H127.18Z" fill="black"/>
<path d="M135.19 1.8584C135.19 2.4984 135.06 3.10869 134.82 3.65869C134.57 4.21869 134.24 4.69865 133.8 5.11865C133.37 5.52865 132.88 5.84836 132.33 6.06836L131.93 5.46875C132.44 5.27875 132.89 4.99867 133.29 4.63867C133.69 4.27867 134 3.85842 134.23 3.37842C134.46 2.89842 134.57 2.38863 134.58 1.84863V0.73877H135.2V1.8584H135.19ZM136.69 6.83838C137.39 6.83838 138 6.90859 138.5 7.05859C139.01 7.19859 139.39 7.40848 139.66 7.68848C139.93 7.96848 140.06 8.29871 140.06 8.67871C140.06 9.06871 139.93 9.39871 139.66 9.67871C139.39 9.94871 139 10.1686 138.5 10.3086C138 10.4486 137.39 10.5283 136.69 10.5283C135.98 10.5283 135.38 10.4586 134.87 10.3086C134.36 10.1686 133.97 9.94871 133.7 9.67871C133.43 9.40871 133.3 9.06871 133.3 8.67871C133.3 8.28871 133.43 7.95848 133.7 7.68848C133.97 7.41848 134.36 7.20859 134.87 7.05859C135.38 6.91859 135.99 6.83838 136.69 6.83838ZM136.69 7.44873C136.15 7.44873 135.68 7.49863 135.27 7.59863C134.86 7.69863 134.56 7.84832 134.34 8.02832C134.12 8.21832 134.02 8.42871 134.02 8.67871C134.02 8.93871 134.12 9.15863 134.34 9.34863C134.56 9.53863 134.87 9.67832 135.27 9.77832C135.67 9.87832 136.14 9.92871 136.69 9.92871C137.23 9.92871 137.7 9.87832 138.1 9.77832C138.5 9.67832 138.81 9.52863 139.02 9.34863C139.24 9.15863 139.34 8.93871 139.34 8.67871C139.34 8.42871 139.23 8.21832 139.01 8.02832C138.79 7.83832 138.48 7.69863 138.08 7.59863C137.7 7.49863 137.23 7.44873 136.69 7.44873ZM135.29 1.90869C135.29 2.37869 135.41 2.83832 135.64 3.27832C135.87 3.71832 136.19 4.10848 136.59 4.43848C136.99 4.76848 137.43 5.02873 137.92 5.19873L137.51 5.78857C136.98 5.58857 136.5 5.28869 136.07 4.90869C135.64 4.52869 135.3 4.06859 135.06 3.55859C134.82 3.04859 134.69 2.49846 134.69 1.91846V0.758301H135.29V1.90869ZM139.98 0.21875V6.55859H139.24V0.21875H139.98ZM141.58 2.99854V3.62842H139.77V2.99854H141.58Z" fill="black"/>
<path d="M146.589 1.49854V2.11865H143.449V7.56836H142.709V1.49854H146.589ZM143.369 7.28857C144.239 7.28857 144.959 7.26852 145.519 7.22852C146.079 7.18852 146.649 7.10852 147.219 6.97852L147.299 7.6084C146.719 7.7384 146.139 7.8184 145.569 7.8584C144.999 7.8984 144.269 7.92871 143.369 7.92871H142.719V7.28857H143.369ZM148.719 0.46875V10.0083H148.029V0.46875H148.719ZM150.609 4.42871V5.04834H148.499V4.42871H150.609ZM151.109 0.21875V10.5586H150.399V0.21875H151.109Z" fill="black"/>
<path d="M153.9 0.858398V2.52832H157.2V0.858398H157.93V5.59863H153.18V0.858398H153.9ZM153.9 4.98877H157.2V3.12842H153.9V4.98877ZM157.45 6.76855C158.15 6.76855 158.75 6.83877 159.26 6.98877C159.77 7.13877 160.16 7.34842 160.42 7.62842C160.69 7.90842 160.82 8.24867 160.82 8.63867C160.82 9.03867 160.69 9.36869 160.42 9.65869C160.15 9.93869 159.76 10.1586 159.26 10.3086C158.75 10.4586 158.15 10.5386 157.45 10.5386C156.75 10.5386 156.14 10.4586 155.63 10.3086C155.12 10.1586 154.73 9.93869 154.46 9.65869C154.19 9.37869 154.06 9.03867 154.06 8.63867C154.06 8.24867 154.19 7.90842 154.46 7.62842C154.73 7.34842 155.12 7.12877 155.63 6.98877C156.14 6.83877 156.74 6.76855 157.45 6.76855ZM157.45 7.36865C156.91 7.36865 156.44 7.41832 156.03 7.52832C155.62 7.63832 155.32 7.77852 155.1 7.97852C154.88 8.16852 154.78 8.39869 154.78 8.65869C154.78 8.91869 154.88 9.14838 155.1 9.33838C155.32 9.53838 155.63 9.67857 156.03 9.78857C156.43 9.89857 156.9 9.93848 157.45 9.93848C157.99 9.93848 158.46 9.88857 158.86 9.78857C159.26 9.68857 159.57 9.53838 159.79 9.33838C160.01 9.14838 160.12 8.91869 160.12 8.65869C160.12 8.39869 160.01 8.17852 159.79 7.97852C159.57 7.78852 159.26 7.63832 158.86 7.52832C158.45 7.41832 157.98 7.36865 157.45 7.36865ZM160.74 0.21875V6.47852H160V0.21875H160.74ZM162.34 2.87842V3.51855H160.53V2.87842H162.34Z" fill="black"/>
<path d="M172.479 4.79004V5.3999H163.059V4.79004H172.479ZM167.759 0.410156C168.519 0.410156 169.168 0.480117 169.708 0.620117C170.248 0.760117 170.668 0.95998 170.948 1.22998C171.238 1.49998 171.379 1.82996 171.379 2.20996C171.379 2.59996 171.238 2.9302 170.948 3.2002C170.658 3.4702 170.248 3.67982 169.708 3.81982C169.168 3.95982 168.519 4.02979 167.759 4.02979C166.999 4.02979 166.349 3.95982 165.809 3.81982C165.269 3.67982 164.848 3.4802 164.568 3.2002C164.278 2.9302 164.139 2.59996 164.139 2.20996C164.139 1.82996 164.278 1.49998 164.568 1.22998C164.858 0.95998 165.269 0.760117 165.809 0.620117C166.349 0.480117 166.999 0.410156 167.759 0.410156ZM171.249 6.39014V8.6001H164.979V9.97998H164.259V8.04004H170.529V6.97998H164.229V6.3999H171.249V6.39014ZM171.568 9.81982V10.4199H164.249V9.81982H171.568ZM167.759 0.990234C167.169 0.990234 166.669 1.04014 166.229 1.14014C165.799 1.24014 165.469 1.38006 165.239 1.56006C165.009 1.74006 164.899 1.95996 164.899 2.20996C164.899 2.46996 165.009 2.69012 165.239 2.87012C165.469 3.05012 165.799 3.20004 166.229 3.29004C166.659 3.39004 167.169 3.43994 167.759 3.43994C168.349 3.43994 168.859 3.39004 169.289 3.29004C169.719 3.19004 170.049 3.05012 170.279 2.87012C170.509 2.68012 170.629 2.45996 170.629 2.20996C170.629 1.95996 170.509 1.74006 170.279 1.56006C170.049 1.38006 169.719 1.24014 169.279 1.14014C168.859 1.03014 168.349 0.990234 167.759 0.990234Z" fill="black"/>
<path d="M185.788 6.40869V7.01855H176.318V6.40869H185.788ZM178.298 0.648438V2.15869H183.798V0.648438H184.538V5.06836H177.568V0.648438H178.298ZM178.298 4.46875H183.798V2.77832H178.298V4.46875ZM181.398 6.66846V10.5586H180.668V6.66846H181.398Z" fill="black"/>
<path d="M196.16 5.07812V5.67822H186.689V5.07812H196.16ZM194.959 6.60791V8.71826H188.609V10.0581H187.88V8.16797H194.229V7.16797H187.859V6.59814H194.959V6.60791ZM195.31 9.83789V10.3979H187.88V9.83789H195.31ZM194.93 0.578125V2.61816H188.68V3.83789H187.949V2.08789H194.189V1.12793H187.91V0.578125H194.93ZM195.109 3.63818V4.19824H187.949V3.63818H195.109Z" fill="black"/>
<path d="M202.6 1.53857V2.16846H201.04V7.51855H200.35V1.53857H202.6ZM200.74 7.15869C201.03 7.15869 201.34 7.13865 201.66 7.11865C201.98 7.08865 202.33 7.02848 202.69 6.93848L202.77 7.58838C202.37 7.67838 202.01 7.73855 201.68 7.76855C201.35 7.79855 201.04 7.80859 200.74 7.80859H200.35V7.17871H200.74V7.15869ZM205.37 1.53857V2.16846H203.75V7.47852H203.07V1.53857H205.37ZM203.48 7.15869C203.86 7.15869 204.22 7.1384 204.56 7.1084C204.9 7.0784 205.25 6.99867 205.62 6.88867L205.71 7.53857C205.32 7.64857 204.94 7.71854 204.6 7.74854C204.26 7.77854 203.88 7.78857 203.48 7.78857H203.07V7.15869H203.48ZM206.81 0.46875V10.0283H206.11V0.46875H206.81ZM208.48 4.51855V5.13867H206.52V4.51855H208.48ZM208.93 0.21875V10.5586H208.22V0.21875H208.93Z" fill="black"/>
<path d="M3.32947 16.0386C3.82947 16.0386 4.26954 16.1885 4.64954 16.4785C5.02954 16.7685 5.33956 17.1885 5.54956 17.7285C5.76956 18.2685 5.86952 18.8984 5.87952 19.6084C5.87952 20.3284 5.76956 20.9488 5.54956 21.4888C5.32956 22.0288 5.02954 22.4488 4.64954 22.7388C4.25954 23.0288 3.81947 23.1787 3.32947 23.1787C2.82947 23.1787 2.38951 23.0288 1.99951 22.7388C1.60951 22.4488 1.30948 22.0288 1.08948 21.4888C0.879478 20.9488 0.769531 20.3184 0.769531 19.6084C0.769531 18.8984 0.869478 18.2685 1.08948 17.7285C1.29948 17.1885 1.60951 16.7685 1.99951 16.4785C2.38951 16.1885 2.82947 16.0486 3.32947 16.0386ZM3.32947 16.6987C2.96947 16.6987 2.64951 16.8284 2.36951 17.0684C2.08951 17.3184 1.86947 17.6586 1.70947 18.0986C1.54947 18.5386 1.47949 19.0487 1.47949 19.6187C1.47949 20.1887 1.55947 20.6987 1.70947 21.1387C1.86947 21.5787 2.08951 21.9285 2.36951 22.1685C2.64951 22.4085 2.96947 22.5386 3.32947 22.5386C3.68947 22.5386 4.00955 22.4185 4.28955 22.1685C4.56955 21.9185 4.78946 21.5787 4.94946 21.1387C5.10946 20.6987 5.18945 20.1887 5.18945 19.6187C5.18945 19.0487 5.10946 18.5484 4.94946 18.1084C4.78946 17.6684 4.56955 17.3186 4.28955 17.0786C4.00955 16.8286 3.68947 16.6987 3.32947 16.6987ZM8.56946 17.5884V18.2188H5.28955V17.5884H8.56946ZM8.56946 20.8887V21.5186H5.28955V20.8887H8.56946ZM9.08948 15.2188V25.5786H8.3595V15.2188H9.08948Z" fill="black"/>
<path d="M14.269 16.9385C14.269 17.5785 14.139 18.1788 13.889 18.7388C13.639 19.2988 13.299 19.7785 12.859 20.1885C12.419 20.5985 11.929 20.9084 11.359 21.1284L10.959 20.5186C11.469 20.3386 11.929 20.0685 12.339 19.7085C12.749 19.3485 13.0691 18.9385 13.2991 18.4585C13.5291 17.9785 13.649 17.4785 13.649 16.9385V15.8184H14.249V16.9385H14.269ZM16.069 21.6685C16.779 21.6685 17.3891 21.7484 17.9091 21.8984C18.4291 22.0484 18.819 22.2686 19.089 22.5586C19.359 22.8486 19.499 23.1984 19.499 23.6084C19.499 24.0084 19.359 24.3587 19.089 24.6387C18.819 24.9187 18.4191 25.1483 17.9091 25.2983C17.3991 25.4483 16.779 25.5283 16.069 25.5283C15.359 25.5283 14.739 25.4483 14.229 25.2983C13.719 25.1483 13.3191 24.9287 13.0491 24.6387C12.7791 24.3487 12.639 24.0084 12.639 23.6084C12.639 23.1984 12.7691 22.8486 13.0491 22.5586C13.3291 22.2686 13.719 22.0484 14.239 21.8984C14.749 21.7484 15.359 21.6685 16.069 21.6685ZM16.069 22.2783C15.519 22.2783 15.049 22.3285 14.639 22.4385C14.229 22.5485 13.919 22.6984 13.699 22.8984C13.479 23.0984 13.369 23.3384 13.369 23.6084C13.369 23.8784 13.479 24.1083 13.699 24.2983C13.919 24.4983 14.229 24.6483 14.639 24.7583C15.049 24.8683 15.529 24.9185 16.069 24.9185C16.619 24.9185 17.089 24.8683 17.499 24.7583C17.909 24.6483 18.219 24.4983 18.439 24.2983C18.659 24.0983 18.769 23.8684 18.769 23.6084C18.769 23.3384 18.659 23.0984 18.439 22.8984C18.219 22.6984 17.909 22.5385 17.499 22.4385C17.099 22.3285 16.619 22.2783 16.069 22.2783ZM14.389 16.9185C14.389 17.4085 14.499 17.8686 14.729 18.3086C14.959 18.7486 15.2791 19.1387 15.6791 19.4688C16.0791 19.7988 16.529 20.0485 17.019 20.2285L16.599 20.8086C16.059 20.5986 15.579 20.3087 15.149 19.9287C14.719 19.5487 14.389 19.0986 14.149 18.5786C13.909 18.0586 13.7791 17.5087 13.7791 16.9087V15.8086H14.389V16.9185ZM18.9191 17.5283V18.1484H16.3091V17.5283H18.9191ZM19.469 15.2188V21.3687H18.729V15.2188H19.469Z" fill="black"/>
<path d="M30.7501 20.7202V21.3301H21.3301V20.7202H30.7501ZM26.0302 15.5898C26.7602 15.5898 27.4001 15.6701 27.9501 15.8301C28.5001 15.9901 28.9101 16.2198 29.2101 16.5298C29.5101 16.8398 29.6501 17.2001 29.6501 17.6201C29.6501 18.0401 29.5001 18.4102 29.2101 18.7202C28.9101 19.0302 28.4901 19.2599 27.9501 19.4199C27.4101 19.5799 26.7702 19.6602 26.0302 19.6602C25.2902 19.6602 24.6501 19.5799 24.1101 19.4199C23.5601 19.2599 23.1401 19.0202 22.8501 18.7202C22.5601 18.4102 22.4102 18.0501 22.4102 17.6201C22.4102 17.2001 22.5601 16.8398 22.8501 16.5298C23.1401 16.2198 23.5601 15.9901 24.1101 15.8301C24.6401 15.6701 25.2902 15.5898 26.0302 15.5898ZM23.3102 22.3198V24.8701H22.5602V22.3198H23.3102ZM29.7001 24.6899V25.3101H22.5701V24.6899H29.7001ZM26.0302 16.2002C25.4502 16.2002 24.9501 16.2599 24.5201 16.3799C24.0901 16.4999 23.7501 16.6599 23.5201 16.8799C23.2901 17.0999 23.1702 17.3399 23.1702 17.6299C23.1702 17.9199 23.2801 18.1701 23.5201 18.3901C23.7501 18.6001 24.0901 18.7699 24.5201 18.8799C24.9501 18.9999 25.4602 19.0498 26.0302 19.0498C26.6002 19.0498 27.1102 18.9899 27.5402 18.8799C27.9702 18.7699 28.3102 18.6001 28.5402 18.3901C28.7802 18.1701 28.8901 17.9199 28.8901 17.6299C28.8901 17.3499 28.7702 17.0999 28.5402 16.8799C28.3102 16.6599 27.9702 16.4999 27.5402 16.3799C27.1102 16.2599 26.6002 16.2002 26.0302 16.2002Z" fill="black"/>
<path d="M35.1487 16.1602H36.1287L39.1587 23.46H39.2386L42.2687 16.1602H43.2386V24.6499H42.4486V17.8901H42.3787L39.5587 24.6499H38.8087L35.9886 17.8799H35.9287V24.6499H35.1387V16.1602H35.1487Z" fill="black"/>
<path d="M49.1384 21.5293C49.1084 21.5293 49.0484 21.5396 48.9584 21.5396C48.8784 21.5496 48.7684 21.5496 48.6484 21.5596C48.4184 21.5696 48.1984 21.5894 47.9684 21.6094C47.7484 21.6294 47.5484 21.6394 47.3984 21.6494C46.8384 21.6894 46.4284 21.8095 46.1484 22.0195C45.8784 22.2295 45.7384 22.5196 45.7384 22.8896C45.7384 23.1396 45.7985 23.3495 45.9185 23.5195C46.0385 23.6895 46.2085 23.8294 46.4185 23.9194C46.6285 24.0094 46.8784 24.0596 47.1584 24.0596C47.5384 24.0596 47.8684 23.9796 48.1484 23.8096C48.4284 23.6396 48.6485 23.4196 48.8085 23.1396C48.9685 22.8596 49.0385 22.5497 49.0385 22.2197V20.2695C49.0385 19.9795 48.9784 19.7393 48.8584 19.5293C48.7384 19.3193 48.5584 19.1696 48.3284 19.0596C48.0984 18.9496 47.8184 18.8896 47.4884 18.8896C47.2184 18.8896 46.9684 18.9293 46.7484 19.0093C46.5284 19.0893 46.3484 19.1994 46.2084 19.3394C46.0684 19.4794 45.9685 19.6496 45.9185 19.8496H45.0884C45.1284 19.5196 45.2584 19.2295 45.4784 18.9795C45.6984 18.7295 45.9784 18.5296 46.3284 18.3896C46.6784 18.2496 47.0684 18.1797 47.5084 18.1797C47.8884 18.1797 48.2484 18.2396 48.5884 18.3696C48.9284 18.4896 49.2184 18.7196 49.4584 19.0396C49.6884 19.3596 49.8085 19.7896 49.8085 20.3296V24.6294H49.0184V23.6494H48.9784C48.8784 23.8494 48.7484 24.0297 48.5684 24.1997C48.3884 24.3697 48.1784 24.5094 47.9084 24.6094C47.6484 24.7194 47.3484 24.7695 47.0084 24.7695C46.6184 24.7695 46.2584 24.6896 45.9384 24.5396C45.6184 24.3896 45.3685 24.1696 45.1785 23.8696C44.9985 23.5796 44.8984 23.2294 44.8984 22.8394C44.8984 22.2294 45.1084 21.7695 45.5284 21.4795C45.9484 21.1895 46.5184 21.0095 47.2384 20.9595C47.4484 20.9395 47.6884 20.9297 47.9584 20.9097C48.2284 20.8897 48.4884 20.8794 48.7284 20.8594C48.8184 20.8594 48.8884 20.8496 48.9484 20.8496C49.0084 20.8496 49.0484 20.8394 49.0784 20.8394L49.1384 21.5293Z" fill="black"/>
<path d="M53.88 24.7798C53.37 24.7798 52.91 24.6401 52.51 24.3701C52.11 24.1001 51.8 23.71 51.58 23.21C51.36 22.71 51.25 22.1402 51.25 21.4902C51.25 20.8402 51.36 20.27 51.58 19.77C51.8 19.27 52.11 18.8899 52.51 18.6099C52.91 18.3299 53.37 18.2002 53.89 18.2002C54.23 18.2002 54.53 18.2601 54.78 18.3701C55.03 18.4901 55.23 18.63 55.37 18.79C55.52 18.96 55.65 19.1501 55.77 19.3701C55.78 19.3901 55.79 19.3999 55.79 19.4199C55.8 19.4399 55.8099 19.4502 55.8199 19.4702H55.88V16.1602H56.6801V24.6499H55.91V23.5H55.8199C55.8099 23.51 55.81 23.53 55.8 23.54C55.79 23.55 55.79 23.5601 55.78 23.5801C55.66 23.8101 55.53 23.9999 55.37 24.1699C55.22 24.3399 55.02 24.4899 54.77 24.6099C54.53 24.7199 54.23 24.7798 53.88 24.7798ZM53.99 24.0498C54.39 24.0498 54.73 23.9402 55.02 23.7202C55.31 23.5002 55.5301 23.2001 55.6801 22.8101C55.8301 22.4201 55.91 21.97 55.91 21.46C55.91 20.96 55.8399 20.5099 55.6899 20.1299C55.5399 19.7499 55.32 19.45 55.03 19.23C54.74 19.02 54.4 18.9102 54 18.9102C53.59 18.9102 53.24 19.0202 52.95 19.2402C52.66 19.4602 52.44 19.7699 52.29 20.1499C52.14 20.5299 52.0601 20.97 52.0601 21.46C52.0601 21.95 52.14 22.39 52.29 22.79C52.44 23.18 52.66 23.49 52.95 23.71C53.23 23.94 53.58 24.0498 53.99 24.0498Z" fill="black"/>
<path d="M62.5798 21.5293C62.5498 21.5293 62.4899 21.5396 62.3999 21.5396C62.3199 21.5496 62.2098 21.5496 62.0898 21.5596C61.8598 21.5696 61.6399 21.5894 61.4099 21.6094C61.1899 21.6294 60.9898 21.6394 60.8398 21.6494C60.2798 21.6894 59.8698 21.8095 59.5898 22.0195C59.3198 22.2295 59.1799 22.5196 59.1799 22.8896C59.1799 23.1396 59.2399 23.3495 59.3599 23.5195C59.4799 23.6895 59.6499 23.8294 59.8599 23.9194C60.0699 24.0094 60.3199 24.0596 60.5999 24.0596C60.9799 24.0596 61.3098 23.9796 61.5898 23.8096C61.8698 23.6396 62.0899 23.4196 62.2499 23.1396C62.4099 22.8596 62.4799 22.5497 62.4799 22.2197V20.2695C62.4799 19.9795 62.4199 19.7393 62.2999 19.5293C62.1799 19.3193 61.9999 19.1696 61.7699 19.0596C61.5399 18.9496 61.2599 18.8896 60.9299 18.8896C60.6599 18.8896 60.4098 18.9293 60.1898 19.0093C59.9698 19.0893 59.7899 19.1994 59.6499 19.3394C59.5099 19.4794 59.4099 19.6496 59.3599 19.8496H58.5299C58.5699 19.5196 58.6999 19.2295 58.9199 18.9795C59.1399 18.7295 59.4199 18.5296 59.7699 18.3896C60.1199 18.2496 60.5098 18.1797 60.9498 18.1797C61.3298 18.1797 61.6899 18.2396 62.0299 18.3696C62.3699 18.4896 62.6599 18.7196 62.8999 19.0396C63.1299 19.3596 63.2499 19.7896 63.2499 20.3296V24.6294H62.4598V23.6494H62.4199C62.3199 23.8494 62.1899 24.0297 62.0099 24.1997C61.8299 24.3697 61.6199 24.5094 61.3499 24.6094C61.0899 24.7194 60.7898 24.7695 60.4498 24.7695C60.0598 24.7695 59.6999 24.6896 59.3799 24.5396C59.0599 24.3896 58.8099 24.1696 58.6199 23.8696C58.4399 23.5796 58.3398 23.2294 58.3398 22.8394C58.3398 22.2294 58.5498 21.7695 58.9698 21.4795C59.3898 21.1895 59.9599 21.0095 60.6799 20.9595C60.8899 20.9395 61.1299 20.9297 61.3999 20.9097C61.6699 20.8897 61.9299 20.8794 62.1699 20.8594C62.2599 20.8594 62.3299 20.8496 62.3899 20.8496C62.4499 20.8496 62.4899 20.8394 62.5199 20.8394L62.5798 21.5293Z" fill="black"/>
<path d="M65.0098 24.6489V18.2891H65.7898V19.2788H65.8597C65.9897 18.9388 66.1998 18.6793 66.4998 18.4893C66.7998 18.2993 67.1498 18.209 67.5598 18.209C67.8498 18.209 68.0997 18.2591 68.3197 18.3491C68.5397 18.4391 68.7298 18.5693 68.8898 18.7393C69.0498 18.9093 69.1798 19.1189 69.2698 19.3589H69.3297C69.4297 19.1289 69.5697 18.919 69.7397 18.749C69.9197 18.579 70.1298 18.4491 70.3798 18.3491C70.6298 18.2491 70.9097 18.209 71.2097 18.209C71.5997 18.209 71.9397 18.289 72.2297 18.459C72.5197 18.629 72.7398 18.8692 72.8998 19.1992C73.0598 19.5292 73.1298 19.9192 73.1298 20.3892V24.6489H72.3297V20.3989C72.3297 19.9189 72.2097 19.5488 71.9597 19.2988C71.7097 19.0488 71.3797 18.9292 70.9497 18.9292C70.6397 18.9292 70.3698 18.9989 70.1498 19.1289C69.9298 19.2589 69.7598 19.4492 69.6398 19.6792C69.5198 19.9092 69.4597 20.179 69.4597 20.479V24.6592H68.6498V20.3389C68.6498 20.0589 68.5997 19.8091 68.4897 19.5991C68.3797 19.3891 68.2298 19.2289 68.0198 19.1089C67.8098 18.9889 67.5698 18.939 67.2998 18.939C67.0198 18.939 66.7598 19.0089 66.5298 19.1489C66.2998 19.2889 66.1197 19.4893 65.9897 19.7393C65.8597 19.9893 65.7898 20.2791 65.7898 20.5991V24.6592H65.0098V24.6489Z" fill="black"/>
<path d="M77.4688 24.7793C76.8788 24.7793 76.3688 24.6396 75.9288 24.3696C75.4888 24.0996 75.1488 23.7095 74.9088 23.2095C74.6688 22.7095 74.5488 22.1495 74.5488 21.4995C74.5488 20.8595 74.6688 20.2896 74.9088 19.7896C75.1488 19.2896 75.4788 18.8994 75.9088 18.6094C76.3288 18.3294 76.8188 18.1895 77.3688 18.1895C77.8488 18.1895 78.2987 18.3093 78.7087 18.5293C79.1187 18.7593 79.4487 19.1096 79.6987 19.5796C79.9487 20.0496 80.0787 20.6293 80.0787 21.3193V21.6997H75.0988V20.9995H79.2688C79.2688 20.6095 79.1888 20.2497 79.0288 19.9297C78.8688 19.6097 78.6488 19.3594 78.3588 19.1694C78.0688 18.9794 77.7488 18.8896 77.3788 18.8896C76.9888 18.8896 76.6487 18.9897 76.3387 19.1997C76.0287 19.4097 75.7988 19.6793 75.6288 20.0293C75.4588 20.3793 75.3788 20.7497 75.3788 21.1597V21.5894C75.3788 22.0794 75.4688 22.5196 75.6388 22.8896C75.8088 23.2596 76.0588 23.5495 76.3788 23.7495C76.6988 23.9495 77.0688 24.0493 77.4988 24.0493C77.7788 24.0493 78.0188 24.0097 78.2388 23.9297C78.4488 23.8497 78.6388 23.7394 78.7788 23.6094C78.9188 23.4794 79.0388 23.3395 79.1188 23.1895H79.9788C79.8788 23.4895 79.7188 23.7597 79.4888 23.9897C79.2588 24.2297 78.9788 24.4093 78.6388 24.5493C78.2588 24.7093 77.8787 24.7793 77.4688 24.7793Z" fill="black"/>
<path d="M81.8984 26.3682V15.7578H84.0984V16.438H82.6685V25.688H84.0984V26.3682H81.8984Z" fill="black"/>
<path d="M90.1199 16.2783V22.8887H85.4199V16.2783H90.1199ZM86.1299 16.8784V22.2686H89.3799V16.8784H86.1299ZM92.9099 15.2188V25.5586H92.1699V15.2188H92.9099ZM94.6998 19.4185V20.0586H92.7399V19.4185H94.6998Z" fill="black"/>
<path d="M100.41 15.9385V16.5586H96.5796V20.1587H95.8496V15.9385H100.41ZM96.6296 19.7983C97.3596 19.7983 97.9796 19.7886 98.5096 19.7686C99.0396 19.7486 99.5296 19.7087 99.9996 19.6587C100.46 19.6087 100.93 19.5385 101.42 19.4385L101.52 20.0586C101.02 20.1586 100.54 20.2283 100.07 20.2783C99.5996 20.3283 99.0996 20.3687 98.5696 20.3887C98.0396 20.4087 97.3996 20.4185 96.6396 20.4185H95.8596V19.7886H96.6296V19.7983ZM103.38 21.6787V25.4087H96.9197V21.6787H103.38ZM97.6396 22.2886V24.7886H102.64V22.2886H97.6396ZM103.38 15.2188V21.0986H102.64V15.2188H103.38ZM104.98 17.8184V18.4487H103.17V17.8184H104.98Z" fill="black"/>
<path d="M107.829 15.7695V26.3794H105.629V25.6997H107.059V16.4497H105.629V15.7695H107.829Z" fill="black"/>
<path d="M1.84961 30.7485V34.8584H1.09961V30.7485H1.84961ZM1.90967 34.5586C2.71967 34.5586 3.51969 34.5187 4.30969 34.4487C5.08969 34.3787 5.89961 34.2584 6.72961 34.0884L6.82959 34.7188C5.97959 34.8888 5.15963 35.0086 4.36963 35.0786C3.57963 35.1486 2.75968 35.1885 1.91968 35.1885H1.11963V34.5586H1.90967ZM8.61963 36.6685V40.3984H2.13965V36.6685H8.61963ZM2.85962 37.2686V39.7886H7.89966V37.2686H2.85962ZM8.61963 30.2285V36.0684H7.87964V30.2285H8.61963ZM10.2396 32.6587V33.2983H8.43958V32.6587H10.2396Z" fill="black"/>
<path d="M14.269 31.9385C14.269 32.5785 14.139 33.1788 13.889 33.7388C13.639 34.2988 13.299 34.7785 12.859 35.1885C12.419 35.5985 11.929 35.9084 11.359 36.1284L10.959 35.5186C11.469 35.3386 11.929 35.0685 12.339 34.7085C12.749 34.3485 13.0691 33.9385 13.2991 33.4585C13.5291 32.9785 13.649 32.4785 13.649 31.9385V30.8184H14.249V31.9385H14.269ZM16.069 36.6685C16.779 36.6685 17.3891 36.7484 17.9091 36.8984C18.4291 37.0484 18.819 37.2686 19.089 37.5586C19.359 37.8486 19.499 38.1984 19.499 38.6084C19.499 39.0084 19.359 39.3587 19.089 39.6387C18.819 39.9187 18.4191 40.1483 17.9091 40.2983C17.3991 40.4483 16.779 40.5283 16.069 40.5283C15.359 40.5283 14.739 40.4483 14.229 40.2983C13.719 40.1483 13.3191 39.9287 13.0491 39.6387C12.7791 39.3487 12.639 39.0084 12.639 38.6084C12.639 38.1984 12.7691 37.8486 13.0491 37.5586C13.3291 37.2686 13.719 37.0484 14.239 36.8984C14.749 36.7484 15.359 36.6685 16.069 36.6685ZM16.069 37.2783C15.519 37.2783 15.049 37.3285 14.639 37.4385C14.229 37.5485 13.919 37.6984 13.699 37.8984C13.479 38.0984 13.369 38.3384 13.369 38.6084C13.369 38.8784 13.479 39.1083 13.699 39.2983C13.919 39.4983 14.229 39.6483 14.639 39.7583C15.049 39.8683 15.529 39.9185 16.069 39.9185C16.619 39.9185 17.089 39.8683 17.499 39.7583C17.909 39.6483 18.219 39.4983 18.439 39.2983C18.659 39.0983 18.769 38.8684 18.769 38.6084C18.769 38.3384 18.659 38.0984 18.439 37.8984C18.219 37.6984 17.909 37.5385 17.499 37.4385C17.099 37.3285 16.619 37.2783 16.069 37.2783ZM14.389 31.9185C14.389 32.4085 14.499 32.8686 14.729 33.3086C14.959 33.7486 15.2791 34.1387 15.6791 34.4688C16.0791 34.7988 16.529 35.0485 17.019 35.2285L16.599 35.8086C16.059 35.5986 15.579 35.3087 15.149 34.9287C14.719 34.5487 14.389 34.0986 14.149 33.5786C13.909 33.0586 13.7791 32.5087 13.7791 31.9087V30.8086H14.389V31.9185ZM18.9191 32.5283V33.1484H16.3091V32.5283H18.9191ZM19.469 30.2188V36.3687H18.729V30.2188H19.469Z" fill="black"/>
<path d="M30.7501 35.7202V36.3301H21.3301V35.7202H30.7501ZM26.0302 30.5898C26.7602 30.5898 27.4001 30.6701 27.9501 30.8301C28.5001 30.9901 28.9101 31.2198 29.2101 31.5298C29.5101 31.8398 29.6501 32.2001 29.6501 32.6201C29.6501 33.0401 29.5001 33.4102 29.2101 33.7202C28.9101 34.0302 28.4901 34.2599 27.9501 34.4199C27.4101 34.5799 26.7702 34.6602 26.0302 34.6602C25.2902 34.6602 24.6501 34.5799 24.1101 34.4199C23.5601 34.2599 23.1401 34.0202 22.8501 33.7202C22.5601 33.4102 22.4102 33.0501 22.4102 32.6201C22.4102 32.2001 22.5601 31.8398 22.8501 31.5298C23.1401 31.2198 23.5601 30.9901 24.1101 30.8301C24.6401 30.6701 25.2902 30.5898 26.0302 30.5898ZM23.3102 37.3198V39.8701H22.5602V37.3198H23.3102ZM29.7001 39.6899V40.3101H22.5701V39.6899H29.7001ZM26.0302 31.2002C25.4502 31.2002 24.9501 31.2599 24.5201 31.3799C24.0901 31.4999 23.7501 31.6599 23.5201 31.8799C23.2901 32.0999 23.1702 32.3399 23.1702 32.6299C23.1702 32.9199 23.2801 33.1701 23.5201 33.3901C23.7501 33.6001 24.0901 33.7699 24.5201 33.8799C24.9501 33.9999 25.4602 34.0498 26.0302 34.0498C26.6002 34.0498 27.1102 33.9899 27.5402 33.8799C27.9702 33.7699 28.3102 33.6001 28.5402 33.3901C28.7802 33.1701 28.8901 32.9199 28.8901 32.6299C28.8901 32.3499 28.7702 32.0999 28.5402 31.8799C28.3102 31.6599 27.9702 31.4999 27.5402 31.3799C27.1102 31.2599 26.6002 31.2002 26.0302 31.2002Z" fill="black"/>
<path d="M35.1487 31.1602H36.1287L39.1587 38.46H39.2386L42.2687 31.1602H43.2386V39.6499H42.4486V32.8901H42.3787L39.5587 39.6499H38.8087L35.9886 32.8799H35.9287V39.6499H35.1387V31.1602H35.1487Z" fill="black"/>
<path d="M47.609 39.7793C47.059 39.7793 46.569 39.6394 46.149 39.3594C45.729 39.0794 45.389 38.6897 45.149 38.1997C44.909 37.6997 44.7891 37.1297 44.7891 36.4897C44.7891 35.8497 44.909 35.2793 45.149 34.7793C45.389 34.2793 45.719 33.8894 46.149 33.6094C46.579 33.3294 47.069 33.1895 47.609 33.1895C48.149 33.1895 48.649 33.3294 49.079 33.6094C49.509 33.8894 49.839 34.2793 50.079 34.7793C50.319 35.2793 50.439 35.8497 50.439 36.4897C50.439 37.1297 50.319 37.6997 50.079 38.1997C49.839 38.6997 49.509 39.0894 49.079 39.3594C48.649 39.6394 48.159 39.7793 47.609 39.7793ZM47.609 39.0596C48.029 39.0596 48.399 38.9497 48.699 38.7197C48.999 38.4897 49.239 38.1796 49.389 37.7896C49.549 37.3996 49.629 36.9695 49.629 36.4995C49.629 36.0295 49.549 35.5897 49.389 35.1997C49.229 34.8097 48.999 34.4995 48.689 34.2695C48.379 34.0395 48.019 33.9194 47.599 33.9194C47.179 33.9194 46.809 34.0395 46.509 34.2695C46.209 34.4995 45.969 34.8097 45.819 35.1997C45.659 35.5897 45.579 36.0195 45.579 36.4995C45.579 36.9695 45.659 37.3996 45.819 37.7896C45.979 38.1796 46.209 38.4897 46.509 38.7197C46.829 38.9497 47.189 39.0596 47.609 39.0596Z" fill="black"/>
<path d="M52.6301 35.6992V39.6489H51.8301V33.2891H52.6101V34.2988H52.6802C52.7802 34.0788 52.9201 33.8792 53.1001 33.7192C53.2801 33.5592 53.4901 33.4289 53.7301 33.3389C53.9801 33.2489 54.2502 33.209 54.5602 33.209C54.9902 33.209 55.3701 33.299 55.6901 33.479C56.0201 33.659 56.2701 33.9288 56.4501 34.2788C56.6301 34.6288 56.7201 35.0488 56.7201 35.5488V39.6592H55.9202V35.5991C55.9202 35.2591 55.8601 34.9692 55.7301 34.7192C55.6001 34.4692 55.4202 34.2692 55.1802 34.1392C54.9402 34.0092 54.6701 33.939 54.3501 33.939C54.0201 33.939 53.7301 34.0089 53.4701 34.1489C53.2101 34.2889 53.0101 34.499 52.8601 34.769C52.7101 35.039 52.6301 35.3292 52.6301 35.6992Z" fill="black"/>
<path d="M61.9596 34.8589C61.8896 34.5589 61.7396 34.3189 61.4996 34.1489C61.2596 33.9789 60.9496 33.8892 60.5696 33.8892C60.2896 33.8892 60.0396 33.9388 59.8196 34.0288C59.5996 34.1188 59.4297 34.2489 59.3097 34.4189C59.1897 34.5789 59.1196 34.7692 59.1196 34.9692C59.1196 35.2192 59.2097 35.4189 59.3997 35.5889C59.5897 35.7589 59.8696 35.8893 60.2596 35.9893L61.2296 36.229C61.7696 36.359 62.1696 36.5691 62.4396 36.8491C62.7096 37.1291 62.8396 37.4889 62.8396 37.9189C62.8396 38.2789 62.7397 38.5989 62.5497 38.8789C62.3597 39.1589 62.0796 39.3791 61.7296 39.5391C61.3696 39.6991 60.9396 39.7788 60.4496 39.7788C59.9996 39.7788 59.6097 39.7091 59.2797 39.5791C58.9497 39.4491 58.6796 39.2493 58.4796 38.9893C58.2796 38.7293 58.1496 38.4091 58.0996 38.0391H58.9396C58.9996 38.3891 59.1597 38.6488 59.4097 38.8188C59.6597 38.9988 59.9996 39.0791 60.4396 39.0791C60.7596 39.0791 61.0397 39.029 61.2797 38.939C61.5197 38.849 61.6996 38.7188 61.8296 38.5488C61.9596 38.3788 62.0297 38.189 62.0297 37.959C62.0297 37.699 61.9396 37.4888 61.7596 37.3188C61.5796 37.1488 61.2997 37.0192 60.9297 36.9292L59.9596 36.6992C59.4296 36.5792 59.0196 36.3691 58.7396 36.0791C58.4596 35.7891 58.3196 35.4388 58.3196 35.0088C58.3196 34.6588 58.4096 34.3388 58.5996 34.0688C58.7896 33.7888 59.0497 33.5792 59.3997 33.4292C59.7397 33.2792 60.1296 33.1992 60.5696 33.1992C60.9796 33.1992 61.3397 33.2692 61.6497 33.4092C61.9597 33.5492 62.2097 33.7393 62.3997 33.9893C62.5897 34.2393 62.6996 34.5289 62.7496 34.8589H61.9596Z" fill="black"/>
<path d="M64.6584 32.1982C64.5484 32.1982 64.4584 32.1682 64.3684 32.1182C64.2784 32.0682 64.2084 31.998 64.1484 31.918C64.0884 31.838 64.0684 31.7382 64.0684 31.6382C64.0684 31.5382 64.0984 31.4479 64.1484 31.3579C64.1984 31.2779 64.2684 31.2082 64.3684 31.1582C64.4584 31.1082 64.5584 31.0781 64.6584 31.0781C64.7584 31.0781 64.8584 31.1082 64.9484 31.1582C65.0384 31.2082 65.1084 31.2779 65.1584 31.3579C65.2084 31.4379 65.2384 31.5382 65.2384 31.6382C65.2384 31.7382 65.2084 31.838 65.1584 31.918C65.1084 31.998 65.0384 32.0682 64.9484 32.1182C64.8584 32.1682 64.7584 32.1982 64.6584 32.1982ZM64.2484 39.6479V33.2881H65.0485V39.6479H64.2484Z" fill="black"/>
<path d="M69.3693 39.7793C68.7793 39.7793 68.2692 39.6396 67.8292 39.3696C67.3892 39.0996 67.0493 38.7095 66.8093 38.2095C66.5693 37.7095 66.4492 37.1495 66.4492 36.4995C66.4492 35.8595 66.5693 35.2896 66.8093 34.7896C67.0493 34.2896 67.3793 33.8994 67.8093 33.6094C68.2293 33.3294 68.7193 33.1895 69.2693 33.1895C69.7493 33.1895 70.1993 33.3093 70.6093 33.5293C71.0193 33.7593 71.3492 34.1096 71.5992 34.5796C71.8492 35.0496 71.9792 35.6293 71.9792 36.3193V36.6997H66.9993V35.9995H71.1693C71.1693 35.6095 71.0893 35.2497 70.9293 34.9297C70.7693 34.6097 70.5493 34.3594 70.2593 34.1694C69.9693 33.9794 69.6493 33.8896 69.2793 33.8896C68.8893 33.8896 68.5493 33.9897 68.2393 34.1997C67.9293 34.4097 67.6993 34.6793 67.5293 35.0293C67.3593 35.3793 67.2793 35.7497 67.2793 36.1597V36.5894C67.2793 37.0794 67.3693 37.5196 67.5393 37.8896C67.7093 38.2596 67.9593 38.5495 68.2793 38.7495C68.5993 38.9495 68.9693 39.0493 69.3993 39.0493C69.6793 39.0493 69.9193 39.0097 70.1393 38.9297C70.3493 38.8497 70.5393 38.7394 70.6793 38.6094C70.8193 38.4794 70.9393 38.3395 71.0193 38.1895H71.8793C71.7793 38.4895 71.6193 38.7597 71.3893 38.9897C71.1593 39.2297 70.8793 39.4093 70.5393 39.5493C70.1593 39.7093 69.7893 39.7793 69.3693 39.7793Z" fill="black"/>
<path d="M77.4094 37.1782V33.2778H78.1993V39.6382H77.4094V38.5781H77.3494C77.2494 38.7981 77.1094 38.998 76.9294 39.168C76.7494 39.338 76.5394 39.4779 76.2894 39.5679C76.0394 39.6679 75.7594 39.708 75.4594 39.708C75.0494 39.708 74.6894 39.618 74.3694 39.438C74.0594 39.258 73.8094 38.9882 73.6294 38.6382C73.4494 38.2882 73.3594 37.8682 73.3594 37.3682V33.2578H74.1594V37.3179C74.1594 37.6379 74.2194 37.918 74.3494 38.168C74.4794 38.418 74.6594 38.6083 74.8894 38.7383C75.1194 38.8683 75.3893 38.938 75.6893 38.938C75.9793 38.938 76.2494 38.868 76.5194 38.728C76.7894 38.588 76.9994 38.3882 77.1594 38.1182C77.3294 37.8682 77.4094 37.5482 77.4094 37.1782Z" fill="black"/>
<path d="M79.9199 39.6489V33.2891H80.6998V34.269H80.7499C80.8399 34.059 80.9599 33.869 81.1299 33.709C81.2999 33.549 81.4999 33.4191 81.7299 33.3291C81.9599 33.2391 82.2098 33.1992 82.4698 33.1992C82.5398 33.1992 82.6099 33.1992 82.6799 33.1992C82.7499 33.1992 82.8199 33.209 82.8799 33.209V34.019C82.8299 34.009 82.7599 33.9993 82.6699 33.9893C82.5799 33.9793 82.4999 33.9692 82.4099 33.9692C82.0899 33.9692 81.7999 34.0392 81.5399 34.1792C81.2799 34.3192 81.0799 34.509 80.9299 34.749C80.7799 34.989 80.7098 35.2688 80.7098 35.5688V39.6489H79.9199Z" fill="black"/>
<path d="M84.3594 41.3682V30.7578H86.5594V31.438H85.1294V40.688H86.5594V41.3682H84.3594Z" fill="black"/>
<path d="M96.8899 38.5V39.1299H87.4199V38.5H96.8899ZM95.6799 31.1602V35.98H88.5798V31.1602H95.6799ZM89.2899 31.77V35.3799H94.9598V31.77H89.2899Z" fill="black"/>
<path d="M107.249 36.1997V36.8193H97.7793V36.1997H107.249ZM102.779 31.2295C102.779 31.8595 102.579 32.4295 102.169 32.9395C101.759 33.4495 101.249 33.8695 100.609 34.2095C99.9793 34.5395 99.3193 34.7694 98.6393 34.8994L98.3292 34.2793C98.9192 34.1893 99.5092 33.9995 100.099 33.7095C100.689 33.4195 101.169 33.0594 101.559 32.6294C101.939 32.1994 102.139 31.7297 102.139 31.2397V30.6196H102.789V31.2295H102.779ZM101.029 36.5293V40.6494H100.289V36.5293H101.029ZM102.889 31.2295C102.889 31.7195 103.079 32.1794 103.469 32.6094C103.859 33.0394 104.349 33.4097 104.939 33.6997C105.529 33.9897 106.119 34.1895 106.699 34.2695L106.389 34.8896C105.709 34.7596 105.059 34.5295 104.419 34.1895C103.789 33.8495 103.259 33.4294 102.859 32.9194C102.459 32.4094 102.249 31.8395 102.249 31.2295V30.6094H102.889V31.2295ZM104.749 36.5293V40.6494H104.009V36.5293H104.749Z" fill="black"/>
<path d="M110.3 30.7695V41.3794H108.1V40.6997H109.53V31.4497H108.1V30.7695H110.3Z" fill="black"/>
<path d="M121.529 38.5996V39.2295H112.059V38.5996H121.529ZM120.309 31.0195V34.0396H114.019V36.2397H113.289V33.4297H119.578V31.6494H113.249V31.0195H120.309ZM120.549 35.8994V36.5195H113.289V35.8994H120.549ZM117.129 36.2896V38.8794H116.399V36.2896H117.129Z" fill="black"/>
<path d="M128.819 33.5186C128.819 34.1986 128.669 34.8786 128.389 35.5586C128.109 36.2386 127.729 36.8384 127.269 37.3584C126.809 37.8884 126.319 38.2783 125.809 38.5483L125.369 37.9585C125.839 37.7285 126.289 37.3784 126.729 36.8984C127.169 36.4184 127.519 35.8783 127.789 35.2783C128.059 34.6783 128.199 34.0886 128.209 33.5186V31.6387H128.829V33.5186H128.819ZM131.489 31.2983V31.9287H125.679V31.2983H131.489ZM128.939 33.5186C128.939 34.0886 129.079 34.6585 129.349 35.2285C129.619 35.7885 129.979 36.2988 130.419 36.7388C130.859 37.1788 131.329 37.5088 131.809 37.7188L131.389 38.3086C130.849 38.0586 130.349 37.6887 129.879 37.1987C129.409 36.7087 129.039 36.1483 128.759 35.5083C128.479 34.8683 128.339 34.2083 128.339 33.5283V31.6484H128.949V33.5186H128.939ZM133.819 30.2188V40.5586H133.079V30.2188H133.819Z" fill="black"/>
<path d="M139.269 32.3892C139.269 32.9792 139.139 33.5291 138.879 34.0391C138.619 34.5591 138.269 34.9989 137.829 35.3789C137.389 35.7589 136.889 36.0493 136.339 36.2393L135.959 35.6592C136.459 35.4892 136.909 35.2389 137.319 34.9189C137.729 34.5889 138.049 34.209 138.289 33.769C138.529 33.329 138.649 32.8692 138.649 32.3892V31.9189H139.259V32.3892H139.269ZM141.839 31.5591V32.1689H136.179V31.5591H141.839ZM140.779 36.8291C141.499 36.8291 142.109 36.8991 142.629 37.0391C143.149 37.1791 143.549 37.3889 143.819 37.6689C144.099 37.9489 144.239 38.2792 144.239 38.6592C144.239 39.0492 144.099 39.3892 143.819 39.6592C143.539 39.9392 143.149 40.1488 142.629 40.2988C142.109 40.4488 141.489 40.519 140.779 40.519C140.059 40.519 139.439 40.4488 138.919 40.2988C138.399 40.1488 137.999 39.9392 137.719 39.6592C137.439 39.3792 137.299 39.0492 137.299 38.6592C137.299 38.2692 137.439 37.9389 137.719 37.6689C137.999 37.3889 138.389 37.1791 138.919 37.0391C139.439 36.8991 140.059 36.8291 140.779 36.8291ZM140.779 37.4292C140.219 37.4292 139.739 37.4791 139.329 37.5791C138.919 37.6791 138.599 37.8288 138.379 38.0088C138.159 38.1988 138.049 38.4089 138.049 38.6689C138.049 38.9289 138.159 39.1491 138.379 39.3491C138.599 39.5391 138.919 39.6788 139.329 39.7788C139.739 39.8788 140.219 39.9292 140.779 39.9292C141.339 39.9292 141.819 39.8788 142.229 39.7788C142.639 39.6788 142.959 39.5291 143.179 39.3491C143.399 39.1591 143.509 38.9289 143.509 38.6689C143.509 38.4189 143.399 38.199 143.179 38.019C142.959 37.829 142.639 37.6889 142.229 37.5889C141.819 37.4789 141.339 37.4292 140.779 37.4292ZM139.399 30.209V31.8389H138.659V30.209H139.399ZM139.379 32.3892C139.379 32.8392 139.499 33.2589 139.749 33.6689C139.999 34.0689 140.329 34.4192 140.739 34.7192C141.159 35.0192 141.619 35.2389 142.129 35.3989L141.769 35.979C141.209 35.809 140.699 35.5492 140.239 35.1992C139.779 34.8492 139.429 34.4392 139.169 33.9492C138.909 33.4592 138.779 32.9492 138.779 32.3892V31.9189H139.389V32.3892H139.379ZM144.219 30.229V36.5991H143.479V30.229H144.219Z" fill="black"/>
<path d="M152.299 31.5483V32.1685H146.129V31.5483H152.299ZM149.209 32.7983C149.699 32.7983 150.119 32.8786 150.489 33.0386C150.859 33.1986 151.149 33.4185 151.359 33.7085C151.569 33.9985 151.669 34.3288 151.669 34.7188C151.669 35.0987 151.569 35.4288 151.359 35.7188C151.149 36.0087 150.859 36.2284 150.489 36.3784C150.119 36.5284 149.689 36.6084 149.209 36.6084C148.719 36.6084 148.289 36.5284 147.909 36.3784C147.529 36.2284 147.249 36.0087 147.039 35.7188C146.829 35.4288 146.729 35.0987 146.739 34.7188C146.739 34.3388 146.839 33.9985 147.039 33.7085C147.239 33.4185 147.529 33.1986 147.909 33.0386C148.279 32.8786 148.719 32.7983 149.209 32.7983ZM149.209 33.3984C148.859 33.3984 148.539 33.4486 148.279 33.5586C148.019 33.6686 147.809 33.8186 147.659 34.0186C147.509 34.2186 147.439 34.4485 147.439 34.7085C147.439 34.9685 147.509 35.1887 147.659 35.3887C147.809 35.5787 148.009 35.7384 148.279 35.8384C148.549 35.9384 148.859 35.9985 149.209 35.9985C149.549 35.9985 149.859 35.9484 150.129 35.8384C150.399 35.7284 150.599 35.5787 150.749 35.3887C150.899 35.1887 150.969 34.9685 150.979 34.7085C150.979 34.4485 150.899 34.2186 150.749 34.0186C150.599 33.8186 150.399 33.6686 150.129 33.5586C149.859 33.4486 149.559 33.3984 149.209 33.3984ZM148.469 37.3486V39.9385H147.739V37.3486H148.469ZM154.649 39.6885V40.3086H147.739V39.6885H154.649ZM149.579 30.2285V31.8784H148.849V30.2285H149.579ZM154.139 30.2285V37.9888H153.399V30.2285H154.139ZM155.739 33.7085V34.3384H153.889V33.7085H155.739Z" fill="black"/>
<path d="M161.76 31.2485V31.8584H157.67V37.5884H156.94V31.2388H161.76V31.2485ZM157.73 37.3184C158.76 37.3184 159.64 37.2988 160.37 37.2388C161.1 37.1888 161.85 37.0887 162.6 36.9487L162.7 37.5986C161.92 37.7386 161.16 37.8384 160.43 37.8784C159.69 37.9284 158.79 37.9487 157.72 37.9487H156.92V37.3086H157.73V37.3184ZM164.42 30.2188V40.5786H163.68V30.2188H164.42ZM166.21 34.3887V35.0186H164.25V34.3887H166.21Z" fill="black"/>
<path d="M167.859 39.709C167.749 39.709 167.639 39.6791 167.539 39.6191C167.439 39.5591 167.369 39.4892 167.309 39.3892C167.249 39.2892 167.229 39.1891 167.229 39.0791C167.229 38.9691 167.249 38.859 167.309 38.769C167.369 38.669 167.439 38.5991 167.539 38.5391C167.639 38.4791 167.739 38.459 167.859 38.459C167.969 38.459 168.069 38.4891 168.169 38.5391C168.259 38.5991 168.339 38.669 168.399 38.769C168.459 38.859 168.489 38.9691 168.489 39.0791C168.489 39.1891 168.459 39.2992 168.399 39.3892C168.339 39.4792 168.269 39.5591 168.169 39.6191C168.079 39.6791 167.969 39.709 167.859 39.709Z" fill="black"/>
</svg>
