<svg width="101" height="45" viewBox="0 0 101 45" fill="none" xmlns="http://www.w3.org/2000/svg">
<path d="M20.3199 17.3994C20.4599 17.5894 20.52 17.8294 20.52 18.1094C20.52 18.2694 20.51 18.3995 20.5 18.4995L20.21 18.5396C20.07 18.1896 19.8599 17.9596 19.5699 17.8696C19.2799 17.7696 18.84 17.7295 18.25 17.7295H5.15002C4.57002 17.7295 4.12996 17.7796 3.82996 17.8696C3.53996 17.9696 3.31994 18.1896 3.18994 18.5396L2.90002 18.4995C2.89002 18.3995 2.88 18.2694 2.88 18.1094C2.88 17.8194 2.94996 17.5894 3.07996 17.3994C3.20996 17.2094 3.42996 17.0296 3.70996 16.8696C3.41996 16.7096 3.20996 16.5294 3.07996 16.3394C2.93996 16.1494 2.88 15.9094 2.88 15.6294C2.88 15.4694 2.89002 15.3397 2.90002 15.2397L3.18994 15.1997C3.32994 15.5497 3.53996 15.7796 3.82996 15.8696C4.11996 15.9596 4.56002 16.0093 5.15002 16.0093H18.25C18.83 16.0093 19.2699 15.9596 19.5699 15.8696C19.8599 15.7696 20.08 15.5497 20.21 15.1997L20.5 15.2397C20.51 15.3397 20.52 15.4694 20.52 15.6294C20.52 15.9194 20.4499 16.1494 20.3199 16.3394C20.1799 16.5294 19.9699 16.7096 19.6899 16.8696C19.9699 17.0396 20.1799 17.2094 20.3199 17.3994ZM3.38 12.2593C3.79 12.1593 4.14004 11.9293 4.42004 11.5693C4.71004 11.1993 4.84998 10.7793 4.84998 10.2993V2.99951C4.45998 3.11951 4.18003 3.3793 4.03003 3.7793L3.75 3.73975C3.74 3.64975 3.72998 3.51961 3.72998 3.34961C3.72998 3.05961 3.80005 2.82965 3.93005 2.63965C4.07005 2.44965 4.28006 2.26937 4.56006 2.10938C4.27006 1.94938 4.06005 1.76959 3.93005 1.57959C3.79005 1.38959 3.72998 1.14963 3.72998 0.869629C3.72998 0.709629 3.74 0.579492 3.75 0.479492L4.03003 0.439453C4.17003 0.799453 4.38005 1.02965 4.68005 1.13965C4.98005 1.24965 5.40999 1.29932 5.98999 1.29932H16.97C17.54 1.29932 17.98 1.24965 18.27 1.13965C18.57 1.02965 18.79 0.799453 18.92 0.439453L19.21 0.479492C19.22 0.569492 19.23 0.699629 19.23 0.869629C19.23 1.15963 19.16 1.38959 19.03 1.57959C18.89 1.76959 18.68 1.94938 18.4 2.10938C18.69 2.26937 18.9 2.44965 19.03 2.63965C19.17 2.82965 19.23 3.06961 19.23 3.34961C19.23 3.50961 19.22 3.63975 19.21 3.73975L18.92 3.7793C18.78 3.4293 18.56 3.18957 18.26 3.05957C17.95 2.93957 17.52 2.87939 16.96 2.87939H6.88V5.97949H16.35C16.91 5.97949 17.34 5.91957 17.65 5.80957C17.96 5.68957 18.1801 5.45937 18.3101 5.10938L18.6 5.14941C18.61 5.23941 18.62 5.36953 18.62 5.51953C18.62 5.79953 18.5501 6.03973 18.4301 6.21973C18.3001 6.39973 18.09 6.57975 17.79 6.73975C18.09 6.89975 18.3001 7.07928 18.4301 7.25928C18.5601 7.43928 18.62 7.67947 18.62 7.95947C18.62 8.10947 18.61 8.22959 18.6 8.32959L18.3101 8.36963C18.1701 8.01963 17.95 7.77967 17.65 7.65967C17.34 7.53967 16.91 7.48975 16.35 7.48975H6.88V10.7095H16.96C17.52 10.7095 17.95 10.6493 18.26 10.5293C18.57 10.4093 18.79 10.1693 18.92 9.81934L19.21 9.85938C19.22 9.95938 19.23 10.0795 19.23 10.2495C19.23 10.5395 19.16 10.7695 19.03 10.9595C18.89 11.1495 18.68 11.3297 18.4 11.4897C18.69 11.6497 18.9 11.8295 19.03 12.0195C19.17 12.2095 19.23 12.4495 19.23 12.7295C19.23 12.8895 19.22 13.0196 19.21 13.1196L18.92 13.1597C18.78 12.8097 18.57 12.5697 18.27 12.4697C17.97 12.3597 17.54 12.3096 16.97 12.3096H7.08997C6.50997 12.3096 6.1 12.0397 5.87 11.4897C5.73 11.8797 5.50005 12.1694 5.18005 12.3594C4.85005 12.5394 4.48996 12.6396 4.07996 12.6396C3.81996 12.6396 3.60005 12.6096 3.43005 12.5596L3.38 12.2593ZM4.14001 16.9697H19.28V16.7695H4.14001V16.9697ZM17.99 1.96973H4.96997V2.16943H17.99V1.96973ZM5.96997 10.7095V2.86963H5.77002V10.7095H5.96997ZM17.38 6.82959V6.62939H6.89001V6.82959H17.38ZM17.99 11.6094V11.4097H6.89001V11.6094H17.99Z" fill="black"/>
<path d="M24.01 11.6001C23.68 11.7801 23.32 11.8799 22.91 11.8799C22.65 11.8799 22.43 11.8498 22.26 11.7998L22.22 11.5098C22.61 11.4098 22.96 11.1798 23.25 10.8198C23.54 10.4498 23.6899 10.0398 23.6899 9.56982V6.95996C23.3599 6.96996 23.1101 7.0201 22.9301 7.1001C22.7501 7.1801 22.61 7.33984 22.5 7.58984L22.21 7.5498C22.18 7.4198 22.17 7.32002 22.17 7.27002C22.17 7.04002 22.23 6.83014 22.36 6.64014C22.49 6.45014 22.67 6.30996 22.9 6.20996C22.67 6.10996 22.49 5.96979 22.36 5.77979C22.23 5.58979 22.17 5.3799 22.17 5.1499C22.17 5.0899 22.18 4.99986 22.21 4.85986L22.5 4.81982C22.61 5.07982 22.76 5.25008 22.96 5.33008C23.16 5.41008 23.45 5.4502 23.85 5.4502H28.16V2.60986H24.92C24.42 2.60986 24.03 2.65977 23.76 2.75977C23.49 2.85977 23.28 3.0799 23.15 3.3999L22.86 3.35986C22.85 3.27986 22.84 3.15977 22.84 3.00977C22.84 2.71977 22.91 2.48982 23.04 2.31982C23.18 2.13982 23.39 1.9901 23.67 1.8501C23.39 1.7101 23.17 1.55988 23.04 1.37988C22.9 1.19988 22.84 0.969941 22.84 0.689941C22.84 0.539941 22.85 0.419844 22.86 0.339844L23.15 0.299805C23.29 0.629805 23.49 0.840176 23.76 0.930176C24.03 1.02018 24.42 1.06982 24.92 1.06982H27.84C28.42 1.06982 28.8301 1.34014 29.0601 1.89014C29.2001 1.49014 29.43 1.21002 29.75 1.02002C30.08 0.84002 30.44 0.75 30.85 0.75C31.11 0.75 31.33 0.780078 31.5 0.830078L31.54 1.12012C31.15 1.21012 30.8 1.45006 30.51 1.81006C30.22 2.18006 30.0699 2.5898 30.0699 3.0498V5.43994C30.4099 5.42994 30.67 5.3798 30.86 5.2998C31.04 5.2198 31.19 5.06006 31.3 4.81006L31.59 4.8501C31.62 4.9901 31.63 5.08014 31.63 5.14014C31.63 5.37014 31.5599 5.58002 31.4399 5.77002C31.3099 5.96002 31.13 6.1002 30.9 6.2002C31.13 6.2902 31.3099 6.43988 31.4399 6.62988C31.5699 6.81988 31.63 7.02977 31.63 7.25977C31.63 7.31977 31.62 7.41004 31.59 7.54004L31.3 7.58008C31.19 7.32008 31.04 7.14982 30.84 7.06982C30.64 6.98982 30.35 6.9502 29.95 6.9502H25.6V10.0098H29.64C30.08 10.0098 30.4299 9.95986 30.6899 9.85986C30.9499 9.75986 31.16 9.54021 31.29 9.22021L31.58 9.25977C31.59 9.33977 31.6 9.45986 31.6 9.60986C31.6 9.89986 31.53 10.1298 31.4 10.2998C31.27 10.4698 31.05 10.63 30.77 10.77C31.06 10.91 31.27 11.0602 31.4 11.2402C31.54 11.4202 31.6 11.6502 31.6 11.9302C31.6 12.0802 31.59 12.1998 31.58 12.2798L31.29 12.3198C31.15 11.9898 30.96 11.7799 30.7 11.6899C30.44 11.5899 30.09 11.5498 29.64 11.5498H25.9301C25.3401 11.5498 24.94 11.28 24.71 10.73C24.57 11.12 24.34 11.4101 24.01 11.6001ZM30.36 6.1001H23.4399V6.2998H30.36V6.1001ZM39.95 16.1401C39.96 16.2301 39.97 16.3698 39.97 16.5298C39.97 16.8098 39.9 17.0502 39.77 17.2402C39.63 17.4302 39.42 17.61 39.14 17.77C39.42 17.93 39.64 18.1098 39.77 18.2998C39.91 18.4898 39.97 18.7298 39.97 19.0098C39.97 19.1698 39.96 19.2999 39.95 19.3999L39.66 19.4399C39.52 19.0899 39.31 18.86 39.02 18.77C38.73 18.68 38.29 18.6299 37.7 18.6299H27.52C26.93 18.6299 26.53 18.3601 26.29 17.8101C26.17 18.1901 25.94 18.4699 25.62 18.6499C25.29 18.8299 24.93 18.9199 24.54 18.9199C24.26 18.9199 24.02 18.8898 23.85 18.8398L23.8101 18.5498C24.2201 18.4598 24.57 18.2199 24.85 17.8599C25.13 17.4999 25.28 17.0698 25.28 16.5898V15.04C25.28 14.55 25.1701 14.1298 24.9301 13.7598C24.7001 13.3998 24.39 13.1701 24.01 13.0801L24.05 12.79C24.29 12.72 24.53 12.6899 24.74 12.6899C25.09 12.6899 25.4099 12.7599 25.6899 12.9199C25.9699 13.0699 26.17 13.2999 26.29 13.6099C26.41 13.2999 26.61 13.0699 26.89 12.9199C27.17 12.7699 27.48 12.6899 27.84 12.6899C28.06 12.6899 28.29 12.72 28.53 12.79L28.5699 13.0801C28.1899 13.1801 27.88 13.3998 27.65 13.7598C27.42 14.1198 27.3 14.55 27.3 15.04V16.9399H37.6899C38.2599 16.9399 38.7 16.89 39 16.79C39.3 16.69 39.52 16.4599 39.65 16.1099L39.95 16.1401ZM24.0699 1.72998V1.93018H28.15V1.72998H24.0699ZM24.54 10.02H24.75V6.95996H24.54V10.02ZM30.36 10.8701V10.6602H25.6V10.8701H30.36ZM26.1899 16.9302H26.4V14.0098H26.1899V16.9302ZM27.3199 17.8901H38.73V17.6802H27.3199V17.8901ZM29.21 2.60986H29.01V5.4502H29.21V2.60986ZM39.13 12.4399C39.13 12.9199 39.25 13.3302 39.49 13.6802C39.73 14.0302 40.02 14.2499 40.38 14.3599L40.34 14.6499C40.16 14.6899 39.97 14.71 39.75 14.71C39.4 14.71 39.08 14.6402 38.79 14.4902C38.51 14.3502 38.3001 14.1201 38.1801 13.8101C38.0601 14.1201 37.8499 14.3502 37.5699 14.4902C37.2899 14.6302 36.97 14.71 36.61 14.71C36.41 14.71 36.21 14.6899 36.02 14.6499L35.98 14.3599C36.33 14.2499 36.63 14.0202 36.87 13.6802C37.11 13.3302 37.23 12.9199 37.23 12.4399V7.2998H35.76H34.88V12.77C34.88 13.18 34.96 13.5198 35.11 13.7998C35.27 14.0798 35.47 14.2699 35.73 14.3799L35.6899 14.6499C35.5299 14.6799 35.3999 14.6899 35.3199 14.6899C35.0199 14.6899 34.74 14.61 34.47 14.46C34.21 14.31 34.0201 14.1101 33.9301 13.8501C33.8401 14.1101 33.66 14.31 33.41 14.46C33.16 14.61 32.8801 14.6899 32.5601 14.6899C32.4701 14.6899 32.33 14.6799 32.17 14.6499L32.13 14.3799C32.39 14.2699 32.6 14.0798 32.75 13.7998C32.91 13.5198 32.98 13.18 32.98 12.77V2.12012C32.98 1.71012 32.9 1.36984 32.75 1.08984C32.59 0.809844 32.39 0.619766 32.13 0.509766L32.17 0.25C32.33 0.22 32.4601 0.209961 32.5601 0.209961C32.8701 0.209961 33.15 0.290176 33.41 0.430176C33.66 0.580176 33.8401 0.790039 33.9301 1.04004C34.0201 0.780039 34.2 0.580176 34.46 0.430176C34.72 0.280176 34.9999 0.209961 35.3199 0.209961C35.3999 0.209961 35.5299 0.22 35.6899 0.25L35.73 0.509766C35.47 0.619766 35.26 0.809844 35.11 1.08984C34.95 1.36984 34.88 1.71012 34.88 2.12012V5.58984H35.76H37.23V2.2998C37.23 1.8198 37.11 1.40982 36.87 1.06982C36.63 0.729824 36.34 0.500137 35.98 0.390137L36.02 0.100098C36.2 0.0600977 36.39 0.0400391 36.61 0.0400391C36.96 0.0400391 37.2799 0.11 37.5699 0.25C37.8599 0.39 38.0601 0.620176 38.1801 0.930176C38.3001 0.620176 38.51 0.39 38.79 0.25C39.08 0.11 39.4 0.0400391 39.75 0.0400391C39.95 0.0400391 40.15 0.0600977 40.34 0.100098L40.38 0.390137C40.03 0.500137 39.73 0.729824 39.49 1.06982C39.25 1.40982 39.13 1.8298 39.13 2.2998V12.4399ZM33.83 13.4399H34.03V1.43994H33.83V13.4399ZM34.87 6.33984V6.54004H37.22V6.33984H34.87ZM38.0699 13.3999H38.27V1.33984H38.0699V13.3999Z" fill="black"/>
<path d="M59.09 17.4004C59.23 17.5904 59.29 17.8304 59.29 18.1104C59.29 18.2704 59.28 18.4005 59.27 18.5005L58.98 18.5405C58.84 18.1905 58.63 17.9606 58.34 17.8706C58.05 17.7706 57.61 17.7305 57.02 17.7305H43.92C43.34 17.7305 42.9 17.7806 42.6 17.8706C42.31 17.9706 42.09 18.1905 41.96 18.5405L41.67 18.5005C41.66 18.4005 41.65 18.2704 41.65 18.1104C41.65 17.8204 41.72 17.5904 41.85 17.4004C41.98 17.2104 42.2 17.0306 42.48 16.8706C42.19 16.7106 41.98 16.5303 41.85 16.3403C41.71 16.1503 41.65 15.9104 41.65 15.6304C41.65 15.4704 41.66 15.3407 41.67 15.2407L41.96 15.2007C42.1 15.5507 42.31 15.7806 42.6 15.8706C42.89 15.9606 43.33 16.0103 43.92 16.0103H57.02C57.6 16.0103 58.04 15.9606 58.34 15.8706C58.63 15.7706 58.85 15.5507 58.98 15.2007L59.27 15.2407C59.28 15.3407 59.29 15.4704 59.29 15.6304C59.29 15.9204 59.22 16.1503 59.09 16.3403C58.95 16.5303 58.74 16.7106 58.46 16.8706C58.74 17.0406 58.96 17.2104 59.09 17.4004ZM42.49 10.7603C42.31 10.5503 42.19 10.2305 42.13 9.81055L42.39 9.69043C42.61 10.0004 42.9101 10.1606 43.3101 10.1606C43.5801 10.1606 43.98 10.0804 44.49 9.92041C45.1 9.73041 45.8 9.40066 46.58 8.93066C47.36 8.46066 48.04 7.92055 48.6 7.31055C49.16 6.70055 49.45 6.09072 49.45 5.49072V3.18066C49.45 2.69066 49.31 2.26063 49.02 1.89062C48.73 1.52062 48.39 1.29068 47.98 1.20068L48.02 0.910645C48.26 0.840645 48.51 0.810547 48.75 0.810547C49.14 0.810547 49.5001 0.890527 49.8101 1.04053C50.1201 1.19053 50.34 1.42047 50.46 1.73047C50.58 1.42047 50.8 1.19053 51.11 1.04053C51.42 0.890527 51.78 0.810547 52.17 0.810547C52.41 0.810547 52.66 0.850645 52.9 0.910645L52.9399 1.20068C52.5299 1.30068 52.18 1.53062 51.9 1.89062C51.62 2.26063 51.47 2.69066 51.47 3.18066V5.49072C51.47 6.09072 51.7499 6.69055 52.3199 7.31055C52.8799 7.92055 53.56 8.46066 54.34 8.93066C55.12 9.40066 55.8201 9.73041 56.4301 9.92041C56.9501 10.0804 57.34 10.1606 57.61 10.1606C58 10.1606 58.31 10.0004 58.53 9.69043L58.8 9.81055C58.74 10.2305 58.6299 10.5503 58.4399 10.7603C58.2599 10.9703 57.9699 11.1207 57.5699 11.2207C57.9399 11.5607 58.12 11.9103 58.12 12.2803C58.12 12.5003 58.0599 12.7505 57.9399 13.0405L57.65 13.0205C57.62 12.7605 57.54 12.5506 57.4 12.3906C57.26 12.2306 57.1 12.1005 56.92 12.0205C56.74 11.9405 56.43 11.8104 55.98 11.6304C54.8 11.1804 53.66 10.5703 52.58 9.78027C51.5 9.00027 50.79 8.18033 50.45 7.34033C50.11 8.18033 49.3999 9.00027 48.3199 9.78027C47.2399 10.5603 46.11 11.1804 44.92 11.6304C44.85 11.6604 44.65 11.7404 44.3 11.8804C43.95 12.0204 43.7 12.1704 43.53 12.3604C43.37 12.5404 43.27 12.7605 43.24 13.0205L42.95 13.0405C42.83 12.7505 42.77 12.5003 42.77 12.2803C42.77 11.9103 42.9499 11.5607 43.3199 11.2207C42.9599 11.1207 42.67 10.9703 42.49 10.7603ZM42.91 16.9707H58.05V16.7705H42.91V16.9707ZM50.38 5.08057C50.38 5.80057 50.05 6.57037 49.4 7.38037C48.75 8.19037 47.91 8.92031 46.9 9.57031C45.89 10.2203 44.86 10.6904 43.83 10.9604L43.87 11.1704C44.82 10.9304 45.77 10.5107 46.72 9.93066C47.67 9.35066 48.48 8.70045 49.17 7.96045C49.86 7.23045 50.3 6.50029 50.49 5.80029C50.68 6.51029 51.1201 7.23045 51.8101 7.96045C52.5001 8.69045 53.31 9.35066 54.26 9.93066C55.21 10.5107 56.15 10.9204 57.11 11.1704L57.15 10.9604C56.12 10.6904 55.09 10.2303 54.08 9.57031C53.07 8.92031 52.23 8.19037 51.58 7.38037C50.93 6.57037 50.6 5.81057 50.6 5.08057V2.14062H50.4V5.08057H50.38Z" fill="black"/>
<path d="M63.09 10.5698C62.61 10.7098 62.24 10.8698 61.97 11.0698C61.7 11.2698 61.53 11.5299 61.48 11.8599L61.1899 11.8799C61.0999 11.6699 61.05 11.46 61.05 11.23C61.05 10.99 61.11 10.7601 61.22 10.5601C61.33 10.3601 61.49 10.1898 61.7 10.0498C61.32 9.9498 61.03 9.78004 60.84 9.54004C60.65 9.29004 60.53 8.96004 60.47 8.54004L60.74 8.41992C60.89 8.63992 61.06 8.80014 61.25 8.89014C61.44 8.99014 61.6699 9.02979 61.9399 9.02979C62.0499 9.02979 62.23 9.02023 62.47 8.99023C63.08 8.88023 63.55 8.66986 63.88 8.35986C64.21 8.04986 64.43 7.62984 64.54 7.08984C64.65 6.55984 64.71 5.86023 64.71 4.99023V2.75H63.28C62.72 2.75 62.29 2.80992 61.98 2.91992C61.67 3.03992 61.4499 3.27012 61.3199 3.62012L61.03 3.58008C61.02 3.49008 61.01 3.34994 61.01 3.18994C61.01 2.90994 61.08 2.66998 61.21 2.47998C61.35 2.28998 61.56 2.1102 61.84 1.9502C61.55 1.7902 61.34 1.60992 61.21 1.41992C61.08 1.22992 61.01 0.989961 61.01 0.709961C61.01 0.549961 61.02 0.419824 61.03 0.319824L61.3199 0.279785C61.4599 0.629785 61.67 0.860195 61.96 0.950195C62.25 1.0402 62.69 1.08984 63.28 1.08984H68.01C68.59 1.08984 69.03 1.0402 69.33 0.950195C69.63 0.860195 69.84 0.629785 69.97 0.279785L70.26 0.319824C70.27 0.419824 70.28 0.549961 70.28 0.709961C70.28 0.999961 70.2099 1.22992 70.0699 1.41992C69.9299 1.60992 69.7199 1.7902 69.4399 1.9502C69.7299 2.1102 69.9399 2.28998 70.0699 2.47998C70.2099 2.66998 70.28 2.90994 70.28 3.18994C70.28 3.34994 70.27 3.48008 70.26 3.58008L69.97 3.62012C69.83 3.27012 69.6101 3.02992 69.3101 2.91992C69.0001 2.80992 68.57 2.75 68.01 2.75H66.58V4.99023C66.58 5.86023 66.64 6.55984 66.75 7.08984C66.87 7.61984 67.09 8.03986 67.41 8.35986C67.74 8.66986 68.2099 8.88023 68.8199 8.99023C69.0599 9.02023 69.24 9.02979 69.35 9.02979C69.62 9.02979 69.85 8.98014 70.04 8.89014C70.23 8.80014 70.4 8.63992 70.55 8.41992L70.8199 8.54004C70.7599 8.96004 70.64 9.29004 70.45 9.54004C70.26 9.78004 69.97 9.9498 69.59 10.0498C69.79 10.1898 69.9499 10.3601 70.0699 10.5601C70.1799 10.7601 70.24 10.99 70.24 11.23C70.24 11.46 70.19 11.6799 70.1 11.8799L69.8101 11.8599C69.7601 11.5299 69.5899 11.2698 69.3199 11.0698C69.0499 10.8698 68.67 10.7098 68.2 10.5698C66.84 10.2398 65.98 9.59988 65.63 8.62988C65.31 9.58988 64.45 10.2398 63.09 10.5698ZM62.11 10.0601C64.41 9.61006 65.59 8.39016 65.66 6.41016C65.73 8.40016 66.91 9.61006 69.21 10.0601L69.25 9.8999C68.46 9.7399 67.8101 9.49994 67.3101 9.18994C66.8101 8.87994 66.42 8.41982 66.16 7.81982C65.89 7.21982 65.76 6.43018 65.76 5.43018V2.74023H65.55V5.43018C65.55 6.42018 65.42 7.21982 65.15 7.81982C64.89 8.41982 64.5 8.86994 64 9.18994C63.5 9.49994 62.8501 9.7399 62.0601 9.8999L62.11 10.0601ZM62.27 1.79004V2H69.05V1.79004H62.27ZM78.72 16.1401C78.73 16.2301 78.74 16.3698 78.74 16.5298C78.74 16.8098 78.67 17.0502 78.54 17.2402C78.4 17.4302 78.19 17.61 77.91 17.77C78.19 17.93 78.41 18.1098 78.54 18.2998C78.68 18.4898 78.74 18.7298 78.74 19.0098C78.74 19.1698 78.73 19.2999 78.72 19.3999L78.4301 19.4399C78.2901 19.0899 78.08 18.86 77.79 18.77C77.5 18.68 77.06 18.6299 76.47 18.6299H66.29C65.7 18.6299 65.3001 18.3601 65.0601 17.8101C64.9401 18.1901 64.71 18.4699 64.39 18.6499C64.06 18.8299 63.7001 18.9199 63.3101 18.9199C63.0301 18.9199 62.79 18.8898 62.62 18.8398L62.58 18.5498C62.99 18.4598 63.34 18.2199 63.62 17.8599C63.9 17.4999 64.05 17.0698 64.05 16.5898V14.6699C64.05 14.1799 63.94 13.7599 63.7 13.3999C63.47 13.0399 63.16 12.81 62.78 12.71L62.8199 12.4199C63.0599 12.3499 63.3 12.3198 63.51 12.3198C63.86 12.3198 64.18 12.3998 64.46 12.5498C64.74 12.6998 64.9401 12.9302 65.0601 13.2402C65.1801 12.9302 65.38 12.6998 65.66 12.5498C65.94 12.3998 66.25 12.3198 66.61 12.3198C66.83 12.3198 67.06 12.3499 67.3 12.4199L67.34 12.71C66.96 12.81 66.65 13.0299 66.42 13.3999C66.19 13.7599 66.0699 14.1799 66.0699 14.6699V16.9399H76.46C77.03 16.9399 77.47 16.89 77.77 16.79C78.07 16.69 78.29 16.4599 78.42 16.1099L78.72 16.1401ZM64.97 16.9302H65.1801V13.6401H64.97V16.9302ZM66.09 17.8701H77.5V17.6699H66.09V17.8701ZM72.03 2.12012C72.03 1.71012 71.95 1.36984 71.8 1.08984C71.64 0.809844 71.4401 0.619766 71.1801 0.509766L71.22 0.25C71.38 0.22 71.51 0.209961 71.61 0.209961C71.92 0.209961 72.21 0.290176 72.46 0.430176C72.71 0.580176 72.88 0.790039 72.98 1.04004C73.07 0.780039 73.25 0.580176 73.51 0.430176C73.77 0.280176 74.05 0.209961 74.37 0.209961C74.45 0.209961 74.57 0.22 74.74 0.25L74.78 0.509766C74.52 0.619766 74.31 0.809844 74.16 1.08984C74 1.36984 73.9301 1.71012 73.9301 2.12012V12.77C73.9301 13.18 74.01 13.5198 74.16 13.7998C74.32 14.0798 74.52 14.2699 74.78 14.3799L74.74 14.6499C74.58 14.6799 74.45 14.6899 74.37 14.6899C74.07 14.6899 73.79 14.61 73.52 14.46C73.26 14.31 73.07 14.1101 72.98 13.8501C72.89 14.1101 72.71 14.31 72.46 14.46C72.21 14.61 71.92 14.6899 71.61 14.6899C71.52 14.6899 71.39 14.6799 71.22 14.6499L71.1801 14.3799C71.4401 14.2699 71.65 14.0798 71.8 13.7998C71.96 13.5198 72.03 13.18 72.03 12.77V6.6499H70.26C69.99 6.6499 69.77 6.67998 69.6 6.72998C69.43 6.77998 69.3 6.89006 69.22 7.06006L68.9301 6.97998C68.9301 6.33998 69.2 5.95984 69.75 5.83984C69.21 5.71984 68.9301 5.3402 68.9301 4.7002L69.22 4.62012C69.3 4.78012 69.43 4.8902 69.6 4.9502C69.77 5.0102 69.99 5.02979 70.26 5.02979H72.03V2.12012ZM70.15 5.72998V5.93018H72.03V5.72998H70.15ZM73.0699 1.43994H72.87V13.4399H73.0699V1.43994ZM77.91 12.4399C77.91 12.9199 78.01 13.3302 78.21 13.6802C78.41 14.0302 78.65 14.2499 78.95 14.3599L78.91 14.6499C78.75 14.6899 78.56 14.71 78.36 14.71C78.03 14.71 77.74 14.6402 77.49 14.4902C77.24 14.3502 77.06 14.1201 76.95 13.8101C76.84 14.1201 76.66 14.3502 76.41 14.4902C76.16 14.6302 75.87 14.71 75.54 14.71C75.34 14.71 75.15 14.6899 74.99 14.6499L74.95 14.3599C75.25 14.2499 75.4999 14.0202 75.6899 13.6802C75.8899 13.3302 75.99 12.9199 75.99 12.4399V2.2998C75.99 1.8198 75.8899 1.40982 75.6899 1.06982C75.4899 0.719824 75.24 0.500137 74.95 0.390137L74.99 0.100098C75.15 0.0600977 75.34 0.0400391 75.54 0.0400391C75.87 0.0400391 76.16 0.11 76.41 0.25C76.66 0.39 76.84 0.620176 76.95 0.930176C77.06 0.620176 77.24 0.39 77.49 0.25C77.74 0.11 78.03 0.0400391 78.36 0.0400391C78.56 0.0400391 78.75 0.0600977 78.91 0.100098L78.95 0.390137C78.65 0.500137 78.4 0.729824 78.21 1.06982C78.01 1.41982 77.91 1.8298 77.91 2.2998V12.4399ZM76.85 13.3999H77.05V1.33984H76.85V13.3999Z" fill="black"/>
<path d="M92.09 15.2002C92.1 15.2902 92.11 15.4198 92.11 15.5898C92.11 15.8798 92.04 16.1098 91.91 16.2998C91.77 16.4898 91.56 16.6701 91.28 16.8301C91.57 16.9901 91.78 17.1699 91.91 17.3599C92.05 17.5499 92.11 17.7898 92.11 18.0698C92.11 18.2298 92.1 18.36 92.09 18.46L91.8 18.5C91.66 18.15 91.45 17.9201 91.16 17.8301C90.87 17.7301 90.43 17.6899 89.84 17.6899H84.25C83.67 17.6899 83.26 17.4201 83.03 16.8701C82.89 17.2601 82.66 17.5502 82.34 17.7402C82.01 17.9202 81.65 18.02 81.24 18.02C80.98 18.02 80.76 17.9899 80.59 17.9399L80.55 17.6499C80.96 17.5499 81.31 17.32 81.59 16.96C81.88 16.59 82.02 16.1699 82.02 15.6899V2.87012C81.63 2.98012 81.35 3.2201 81.2 3.6001L80.92 3.56006C80.91 3.47006 80.9 3.32992 80.9 3.16992C80.9 2.88992 80.97 2.64996 81.1 2.45996C81.24 2.26996 81.45 2.09018 81.73 1.93018C81.44 1.77018 81.23 1.5899 81.1 1.3999C80.97 1.2099 80.9 0.969941 80.9 0.689941C80.9 0.529941 80.91 0.399805 80.92 0.299805L81.2 0.259766C81.34 0.609766 81.55 0.840176 81.84 0.930176C82.13 1.02018 82.57 1.06982 83.16 1.06982H89.85C90.43 1.06982 90.87 1.02018 91.17 0.930176C91.46 0.840176 91.6801 0.609766 91.8101 0.259766L92.1 0.299805C92.11 0.399805 92.12 0.529941 92.12 0.689941C92.12 0.979941 92.05 1.2099 91.92 1.3999C91.78 1.5899 91.57 1.77018 91.29 1.93018C91.58 2.09018 91.79 2.26996 91.92 2.45996C92.06 2.64996 92.12 2.88992 92.12 3.16992C92.12 3.32992 92.11 3.46006 92.1 3.56006L91.8101 3.6001C91.6701 3.2501 91.46 3.02018 91.17 2.93018C90.88 2.84018 90.44 2.79004 89.85 2.79004H84.03V15.9702H89.85C90.43 15.9702 90.87 15.9201 91.17 15.8301C91.46 15.7401 91.6801 15.5102 91.8101 15.1602L92.09 15.2002ZM90.87 1.83008H82.14V2.02979H90.87V1.83008ZM82.9301 2.79004V15.9702H83.13V2.79004H82.9301ZM84.03 16.9302H90.87V16.73H84.03V16.9302ZM96.6 16.8501C96.6 17.3301 96.74 17.7501 97.03 18.1201C97.32 18.4901 97.6599 18.7201 98.0699 18.8101L98.03 19.1001C97.79 19.1701 97.54 19.2002 97.3 19.2002C96.91 19.2002 96.55 19.1202 96.24 18.9702C95.93 18.8202 95.71 18.5898 95.59 18.2798C95.47 18.5898 95.2499 18.8202 94.9399 18.9702C94.6299 19.1202 94.27 19.2002 93.88 19.2002C93.64 19.2002 93.39 19.1701 93.15 19.1001L93.11 18.8101C93.52 18.7101 93.87 18.4801 94.15 18.1201C94.44 17.7501 94.58 17.3301 94.58 16.8501V10.1602H91.99C91.27 10.1602 90.7501 10.2098 90.4301 10.2998C90.1101 10.3898 89.88 10.6202 89.75 10.9702L89.47 10.9302C89.46 10.8302 89.45 10.71 89.45 10.54C89.45 10.25 89.52 10.0201 89.65 9.83008C89.79 9.64008 90 9.4598 90.28 9.2998C89.99 9.1398 89.78 8.96002 89.65 8.77002C89.51 8.58002 89.45 8.34006 89.45 8.06006C89.45 7.90006 89.46 7.76992 89.47 7.66992L89.75 7.62988C89.89 7.97988 90.1101 8.2098 90.4301 8.2998C90.7501 8.39981 91.27 8.43994 91.99 8.43994H94.58V2.35986C94.58 1.87986 94.44 1.45984 94.15 1.08984C93.86 0.719844 93.52 0.489902 93.11 0.399902L93.15 0.109863C93.39 0.0398633 93.64 0.00976562 93.88 0.00976562C94.27 0.00976562 94.6299 0.0902344 94.9399 0.240234C95.2499 0.390234 95.47 0.620176 95.59 0.930176C95.71 0.620176 95.93 0.390234 96.24 0.240234C96.55 0.0902344 96.91 0.00976562 97.3 0.00976562C97.54 0.00976562 97.79 0.0398633 98.03 0.109863L98.0699 0.399902C97.6599 0.499902 97.32 0.729844 97.03 1.08984C96.74 1.45984 96.6 1.87986 96.6 2.35986V16.8501ZM90.66 9.2002V9.41016H94.5601V9.2002H90.66ZM95.48 17.8701H95.6899V1.33984H95.48V17.8701Z" fill="black"/>
<path d="M3.18005 30.6294H4.48999V29.4995H0.48999V27.9297H1.81995V26.5996H10.11V28.1494H8.76001V29.4995H6.08997V42.9697H4.73999V44.2993H3.18994V30.6294H3.18005Z" fill="black"/>
<path d="M11.85 29.4995H10.52V27.9297H11.85V26.5996H17.4399V27.9297H18.79V30.6294H20.14V34.8794H18.8101V36.0195H20.14V42.9697H18.79V44.2993H17.24V36.2295H15.91V34.6797H17.21V29.5093H14.76V42.9795H13.41V44.3096H11.84V29.4995H11.85Z" fill="black"/>
<path d="M20.5601 34.6797H21.89V30.6396H23.24V27.9395H24.59V26.6094H26.16V27.9395H27.49V30.6396H28.84V34.6797H30.1899V42.9697H28.84V44.2993H27.29V40.2793H23.47V42.9697H22.12V44.2993H20.5699V34.6797H20.5601ZM23.46 34.8696V37.3394H27.25V34.8696H25.92V30.8496H24.8V34.8696H23.46Z" fill="black"/>
<path d="M31.9301 29.5093H30.6V26.6094H34.84V29.2793H36.1899V31.9497H37.3101V27.9297H38.66V26.5996H40.21V44.2896H38.66V41.6196H37.3101V38.9297H35.96V36.2593H34.84V42.9697H33.49V44.2896H31.92V29.5093H31.9301Z" fill="black"/>
<path d="M41.97 42.9697H40.64V41.3994H41.97V40.0693H43.54V41.3994H47.33V38.9297H46V37.5796H44.65V36.2295H43.3V34.8794H41.95V33.5293H40.62V29.2793H41.95V27.9297H43.3V26.5996H47.54V27.9297H48.89V29.4995H47.54V30.8296H45.99V29.4995H43.52V31.9697H44.87V33.3193H46.22V34.6694H47.55V36.0195H48.9V37.3696H50.25V41.6196H48.9V42.9697H46.23V44.2896H41.96V42.9697H41.97Z" fill="black"/>
<path d="M53.36 42.9697H52.01V40.2695H50.6801V29.2793H52.01V27.9297H54.7V26.5996H58.9399V27.9297H60.29V30.8296H58.9399V32.1797H57.39V29.5093H53.5699V40.0596H54.92V41.4097H57.37V37.5894H56.0601V36.0396H58.9399V37.3896H60.29V41.6396H58.9399V42.9897H57.59V44.3096H53.35V42.9697H53.36Z" fill="black"/>
<path d="M62.05 36.2197H60.72V34.6694H62.05V29.5093H60.72V27.9395H62.05V26.6094H70.34V28.1597H68.99V29.5093H64.97V33.3296H70.34V34.8794H68.99V36.2295H64.97V41.4097H70.34V42.9795H68.99V44.2993H62.05V36.2197Z" fill="black"/>
<path d="M72.09 29.5093H70.76V26.6094H75V29.2793H76.35V31.9497H77.47V27.9297H78.8199V26.5996H80.37V44.2896H78.8199V41.6196H77.47V38.9297H76.12V36.2593H75V42.9697H73.65V44.2896H72.08V29.5093H72.09Z" fill="black"/>
<path d="M82.13 29.4995H80.8V27.9297H82.13V26.5996H87.72V27.9297H89.0699V30.6294H90.42V34.8794H89.09V36.0195H90.42V42.9697H89.0699V44.2993H87.52V36.2295H86.1899V34.6797H87.5V29.5093H85.05V42.9795H83.7V44.3096H82.13V29.4995Z" fill="black"/>
<path d="M92.17 36.2197H90.84V34.6694H92.17V29.5093H90.84V27.9395H92.17V26.6094H100.46V28.1597H99.11V29.5093H95.09V33.3296H100.46V34.8794H99.11V36.2295H95.09V41.4097H100.46V42.9795H99.11V44.2993H92.17V36.2197Z" fill="black"/>
</svg>
