<svg width="259" height="46" viewBox="0 0 259 46" fill="none" xmlns="http://www.w3.org/2000/svg">
<path d="M22.2 10.5498C21.4 9.93981 20.9 8.99018 20.71 7.68018C20.64 7.34018 20.52 7.0799 20.33 6.8999C20.15 6.7199 19.81 6.59979 19.32 6.52979V6.2002C19.81 6.1302 20.15 6.01008 20.33 5.83008C20.51 5.65008 20.64 5.3998 20.71 5.0498C20.9 3.7398 21.4 2.79018 22.2 2.18018C23 1.58018 24.17 1.27002 25.71 1.27002C27.26 1.27002 28.44 1.57994 29.24 2.18994C30.04 2.79994 30.53 3.7498 30.71 5.0498C30.78 5.3898 30.9 5.65008 31.09 5.83008C31.27 6.01008 31.61 6.1302 32.1 6.2002V6.52979C31.61 6.59979 31.27 6.7199 31.09 6.8999C30.91 7.0799 30.78 7.34018 30.71 7.68018C30.53 8.97018 30.04 9.92004 29.24 10.54C28.44 11.15 27.26 11.46 25.71 11.46C24.18 11.46 23.01 11.1598 22.2 10.5498ZM36.59 15.8301C36.77 15.9801 37.04 16.0801 37.41 16.1401V16.4702C37.04 16.5202 36.77 16.6298 36.59 16.7798C36.41 16.9298 36.23 17.2001 36.04 17.6001C35.63 18.4101 34.88 19.0801 33.77 19.5801C32.67 20.0801 31.14 20.3398 29.18 20.3398C27.22 20.3398 25.69 20.0901 24.59 19.5801C23.49 19.0801 22.73 18.4201 22.33 17.6001C22.14 17.2001 21.95 16.9298 21.78 16.7798C21.6 16.6298 21.33 16.5302 20.96 16.4702V16.1401C21.33 16.0901 21.6 15.9801 21.78 15.8301C21.96 15.6801 22.14 15.4098 22.33 15.0098C22.74 14.1898 23.49 13.5298 24.59 13.0298C25.69 12.5298 27.22 12.2798 29.18 12.2798C31.14 12.2798 32.67 12.5298 33.77 13.0298C34.87 13.5298 35.63 14.1898 36.04 15.0098C36.23 15.4098 36.41 15.6801 36.59 15.8301ZM23.36 2.3999C22.77 2.6599 22.32 3.11023 22.02 3.74023C21.72 4.37023 21.57 5.24988 21.57 6.37988C21.57 7.50988 21.72 8.39002 22.02 9.02002C22.32 9.65002 22.77 10.0999 23.36 10.3599C23.95 10.6199 24.74 10.75 25.72 10.75C26.7 10.75 27.48 10.6199 28.08 10.3599C28.67 10.0999 29.12 9.66002 29.42 9.02002C29.72 8.39002 29.87 7.50988 29.87 6.37988C29.87 5.24988 29.72 4.37023 29.42 3.74023C29.12 3.11023 28.67 2.6599 28.08 2.3999C27.49 2.1399 26.7 2.00977 25.72 2.00977C24.74 2.00977 23.95 2.1399 23.36 2.3999ZM23.48 10.1899C22.92 9.94994 22.49 9.52992 22.21 8.91992C21.93 8.31992 21.79 7.46988 21.79 6.37988C21.79 5.28988 21.93 4.44984 22.21 3.83984C22.49 3.22984 22.91 2.80982 23.48 2.56982C24.05 2.32982 24.79 2.20996 25.71 2.20996C26.64 2.20996 27.38 2.32982 27.94 2.56982C28.5 2.80982 28.93 3.22984 29.22 3.83984C29.51 4.44984 29.65 5.28988 29.65 6.37988C29.65 7.46988 29.51 8.31992 29.22 8.91992C28.93 9.52992 28.51 9.94994 27.94 10.1899C27.37 10.4299 26.63 10.5498 25.71 10.5498C24.79 10.5398 24.04 10.4199 23.48 10.1899ZM23.08 5.93018C23.3 6.07018 23.67 6.16021 24.2 6.22021V6.5498C23.67 6.6098 23.3 6.69984 23.08 6.83984C22.86 6.97984 22.75 7.1802 22.75 7.4502C22.75 8.2502 22.98 8.84021 23.44 9.22021C23.9 9.60021 24.66 9.79004 25.7 9.79004C26.75 9.79004 27.5 9.60021 27.96 9.22021C28.42 8.84021 28.65 8.2502 28.65 7.4502C28.65 7.1802 28.54 6.96984 28.32 6.83984C28.1 6.69984 27.73 6.6098 27.2 6.5498V6.22021C27.73 6.16021 28.1 6.07018 28.32 5.93018C28.54 5.79018 28.65 5.58982 28.65 5.31982C28.65 4.51982 28.42 3.9298 27.96 3.5498C27.5 3.1698 26.74 2.97998 25.7 2.97998C24.65 2.97998 23.9 3.1698 23.44 3.5498C22.98 3.9298 22.75 4.51982 22.75 5.31982C22.75 5.58982 22.86 5.80018 23.08 5.93018ZM33.94 18.8101C34.97 18.2801 35.49 17.4398 35.49 16.2998C35.49 15.1598 34.97 14.32 33.94 13.79C32.91 13.26 31.32 12.9902 29.18 12.9902C27.04 12.9902 25.46 13.25 24.43 13.79C23.4 14.32 22.88 15.1598 22.88 16.2998C22.88 17.4398 23.4 18.2801 24.43 18.8101C25.46 19.3401 27.05 19.6099 29.18 19.6099C31.32 19.5999 32.9 19.3401 33.94 18.8101ZM33.8 13.9399C34.79 14.4399 35.29 15.2198 35.29 16.2998C35.29 17.3798 34.79 18.1602 33.8 18.6602C32.81 19.1602 31.27 19.3999 29.19 19.3999C27.11 19.3999 25.57 19.1502 24.58 18.6602C23.59 18.1602 23.09 17.3798 23.09 16.2998C23.09 15.2298 23.59 14.4399 24.58 13.9399C25.57 13.4399 27.11 13.2002 29.19 13.2002C31.26 13.2002 32.8 13.4399 33.8 13.9399ZM33.99 16.7798C33.87 16.6898 33.68 16.6301 33.42 16.6001C33.15 16.5701 32.73 16.5202 32.14 16.4702V16.1401C32.72 16.0901 33.15 16.0398 33.42 16.0098C33.68 15.9798 33.88 15.9201 33.99 15.8301C34.1 15.7401 34.14 15.6202 34.1 15.4502C34.03 15.2302 33.81 14.9998 33.45 14.7598C33.08 14.5098 32.54 14.3099 31.82 14.1499C31.1 13.9899 30.22 13.8999 29.19 13.8999C28.16 13.8999 27.28 13.9799 26.56 14.1499C25.84 14.3099 25.29 14.5198 24.93 14.7598C24.56 14.9998 24.34 15.2402 24.28 15.4502C24.24 15.6102 24.28 15.7401 24.39 15.8301C24.5 15.9201 24.7 15.9798 24.96 16.0098C25.23 16.0398 25.65 16.0901 26.24 16.1401V16.4702C25.66 16.5202 25.23 16.5701 24.96 16.6001C24.7 16.6401 24.5 16.6998 24.39 16.7798C24.27 16.8698 24.24 16.9902 24.28 17.1602C24.35 17.3802 24.57 17.6101 24.93 17.8501C25.3 18.0901 25.84 18.3 26.56 18.46C27.28 18.62 28.16 18.7002 29.19 18.7002C30.22 18.7002 31.1 18.62 31.82 18.46C32.54 18.3 33.09 18.0901 33.45 17.8501C33.82 17.6001 34.03 17.3702 34.1 17.1602C34.14 16.9902 34.1 16.8698 33.99 16.7798ZM35.41 5.33984V7.37988H35.7C36.28 7.37988 36.72 7.33023 37.02 7.24023C37.31 7.14023 37.53 6.91982 37.66 6.56982L37.95 6.60986C37.96 6.69986 37.97 6.83 37.97 7C37.97 7.28 37.9 7.51996 37.77 7.70996C37.63 7.89996 37.42 8.08023 37.14 8.24023C37.43 8.40023 37.64 8.58002 37.77 8.77002C37.91 8.96002 37.97 9.19998 37.97 9.47998C37.97 9.63998 37.96 9.77012 37.95 9.87012L37.66 9.91016C37.52 9.56016 37.31 9.33023 37.02 9.24023C36.73 9.14023 36.29 9.1001 35.7 9.1001H35.41V9.5498C35.41 10.0298 35.55 10.4498 35.84 10.8198C36.12 11.1898 36.47 11.4198 36.88 11.5098L36.84 11.7998C36.6 11.8698 36.35 11.8999 36.11 11.8999C35.72 11.8999 35.36 11.8199 35.05 11.6699C34.74 11.5199 34.52 11.29 34.4 10.98C34.28 11.29 34.06 11.5199 33.75 11.6699C33.44 11.8199 33.08 11.8999 32.69 11.8999C32.45 11.8999 32.2 11.8698 31.96 11.7998L31.92 11.5098C32.33 11.4198 32.67 11.1798 32.96 10.8198C33.25 10.4498 33.39 10.0298 33.39 9.5498V3.3501C33.39 2.8701 33.25 2.45008 32.96 2.08008C32.67 1.71008 32.33 1.48014 31.92 1.39014L31.96 1.1001C32.2 1.0301 32.45 1 32.69 1C33.08 1 33.44 1.08021 33.75 1.22021C34.06 1.37021 34.28 1.60016 34.4 1.91016C34.52 1.60016 34.74 1.37021 35.05 1.22021C35.36 1.07021 35.72 1 36.11 1C36.35 1 36.6 1.0301 36.84 1.1001L36.88 1.39014C36.47 1.48014 36.12 1.72008 35.84 2.08008C35.55 2.45008 35.41 2.8701 35.41 3.3501V3.64014H35.7C36.28 3.64014 36.72 3.59 37.02 3.5C37.31 3.4 37.53 3.18008 37.66 2.83008L37.95 2.87012C37.96 2.96012 37.97 3.08977 37.97 3.25977C37.97 3.53977 37.9 3.78021 37.77 3.97021C37.63 4.16021 37.42 4.34 37.14 4.5C37.43 4.66 37.64 4.83979 37.77 5.02979C37.91 5.21979 37.97 5.46023 37.97 5.74023C37.97 5.90023 37.96 6.02988 37.95 6.12988L37.66 6.16992C37.52 5.81992 37.31 5.59 37.02 5.5C36.73 5.4 36.29 5.35986 35.7 5.35986H35.41V5.33984ZM34.28 10.5601H34.48V2.31982H34.28V10.5601ZM36.71 4.58008V4.37988H35.41V4.58008H36.71ZM36.71 8.33984V8.14014H35.41V8.33984H36.71Z" fill="black"/>
<path d="M44.14 9.36035C43.57 9.81035 42.81 10.1404 41.85 10.3604C41.36 10.4704 40.95 10.6306 40.63 10.8506C40.3 11.0706 40.11 11.3304 40.06 11.6304L39.77 11.6504C39.67 11.4504 39.63 11.2305 39.63 11.0005C39.63 10.7505 39.69 10.5306 39.81 10.3306C39.93 10.1306 40.09 9.96031 40.3 9.82031C39.92 9.72031 39.63 9.56055 39.44 9.31055C39.25 9.07055 39.13 8.73055 39.07 8.31055L39.33 8.19043C39.49 8.41043 39.67 8.56039 39.85 8.65039C40.03 8.74039 40.26 8.78027 40.53 8.78027C40.82 8.78027 41.09 8.75068 41.37 8.70068C42.36 8.56068 43.11 8.22041 43.61 7.67041C44.11 7.12041 44.36 6.33053 44.36 5.29053V3.76025C44.36 3.28025 44.21 2.86072 43.92 2.49072C43.63 2.12072 43.28 1.89029 42.87 1.80029L42.91 1.51025C43.15 1.44025 43.4 1.41064 43.64 1.41064C44.03 1.41064 44.39 1.48063 44.7 1.64062C45.01 1.79062 45.23 2.02057 45.35 2.33057C45.47 2.02057 45.69 1.79062 46 1.64062C46.31 1.49063 46.67 1.41064 47.06 1.41064C47.3 1.41064 47.55 1.44025 47.79 1.51025L47.83 1.80029C47.42 1.89029 47.07 2.13072 46.77 2.49072C46.47 2.86072 46.32 3.28025 46.32 3.76025V5.29053C46.32 6.32053 46.57 7.12041 47.09 7.67041C47.6 8.22041 48.35 8.56068 49.34 8.70068C49.61 8.76068 49.89 8.78027 50.18 8.78027C50.45 8.78027 50.68 8.74039 50.86 8.65039C51.04 8.56039 51.22 8.41043 51.38 8.19043L51.64 8.31055C51.59 8.73055 51.46 9.07055 51.27 9.31055C51.08 9.56055 50.79 9.72031 50.41 9.82031C50.61 9.96031 50.78 10.1306 50.9 10.3306C51.02 10.5306 51.08 10.7605 51.08 11.0005C51.08 11.2305 51.03 11.4504 50.94 11.6504L50.65 11.6304C50.6 11.3304 50.41 11.0706 50.08 10.8506C49.75 10.6306 49.35 10.4704 48.86 10.3604C47.91 10.1404 47.14 9.81061 46.56 9.37061C45.98 8.93061 45.56 8.45066 45.3 7.93066C45.12 8.44066 44.71 8.91035 44.14 9.36035ZM56.46 15.7705C56.63 15.9305 56.9 16.0406 57.27 16.1006V16.4106C56.9 16.4706 56.63 16.5707 56.46 16.7407C56.29 16.9007 56.1 17.1806 55.9 17.5806C55.48 18.4006 54.71 19.0603 53.6 19.5703C52.49 20.0803 50.94 20.3403 48.94 20.3403C46.94 20.3403 45.38 20.0903 44.28 19.5703C43.17 19.0603 42.41 18.4006 41.98 17.5806C41.78 17.1906 41.59 16.9107 41.42 16.7407C41.25 16.5807 40.98 16.4706 40.61 16.4106V16.1006C40.98 16.0506 41.25 15.9405 41.42 15.7705C41.59 15.6105 41.78 15.3307 41.98 14.9307C42.4 14.1107 43.17 13.4504 44.28 12.9404C45.39 12.4304 46.94 12.1704 48.94 12.1704C50.94 12.1704 52.49 12.4204 53.6 12.9404C54.71 13.4504 55.47 14.1107 55.9 14.9307C56.1 15.3307 56.29 15.6005 56.46 15.7705ZM40.71 9.85059C41.87 9.69059 42.9 9.31047 43.8 8.73047C44.71 8.15047 45.23 7.36035 45.36 6.36035C45.5 7.35035 46.02 8.14047 46.93 8.73047C47.84 9.32047 48.88 9.69059 50.05 9.85059L50.09 9.69043C48.72 9.46043 47.6 9.02035 46.74 8.36035C45.88 7.71035 45.45 6.78057 45.45 5.58057V2.7207H45.24V5.58057C45.24 6.78057 44.82 7.70035 43.97 8.36035C43.13 9.01035 42.02 9.45043 40.64 9.69043L40.71 9.85059ZM53.76 18.8003C54.81 18.2603 55.34 17.4107 55.34 16.2407C55.34 15.0807 54.81 14.2407 53.76 13.7007C52.71 13.1607 51.1 12.8906 48.93 12.8906C46.77 12.8906 45.16 13.1607 44.1 13.7007C43.05 14.2407 42.52 15.0807 42.52 16.2407C42.52 17.4107 43.05 18.2603 44.1 18.8003C45.15 19.3403 46.76 19.6104 48.93 19.6104C51.1 19.6004 52.71 19.3303 53.76 18.8003ZM53.62 13.8506C54.63 14.3506 55.14 15.1507 55.14 16.2407C55.14 17.3307 54.63 18.1306 53.62 18.6406C52.61 19.1506 51.04 19.4106 48.94 19.4106C46.83 19.4106 45.27 19.1606 44.26 18.6406C43.25 18.1306 42.74 17.3307 42.74 16.2407C42.74 15.1507 43.25 14.3606 44.26 13.8506C45.27 13.3506 46.83 13.1006 48.94 13.1006C51.04 13.0906 52.61 13.3506 53.62 13.8506ZM53.84 16.7207C53.72 16.6307 53.53 16.5705 53.27 16.5405C53 16.5105 52.58 16.4606 51.99 16.4106V16.1006C52.58 16.0506 53 16.0007 53.27 15.9707C53.53 15.9407 53.72 15.8805 53.84 15.7905C53.96 15.7005 53.99 15.5706 53.95 15.3906C53.88 15.1606 53.66 14.9207 53.29 14.6807C52.91 14.4407 52.36 14.2403 51.63 14.0703C50.9 13.9003 50 13.8105 48.94 13.8105C47.88 13.8105 46.98 13.8903 46.25 14.0703C45.52 14.2403 44.96 14.4407 44.59 14.6807C44.22 14.9207 44 15.1506 43.93 15.3906C43.89 15.5706 43.93 15.7005 44.04 15.7905C44.16 15.8805 44.35 15.9407 44.61 15.9707C44.87 16.0107 45.3 16.0506 45.89 16.1006V16.4106C45.3 16.4706 44.88 16.5105 44.61 16.5405C44.34 16.5705 44.15 16.6407 44.04 16.7207C43.93 16.8007 43.89 16.9406 43.93 17.1206C44 17.3506 44.22 17.5906 44.59 17.8306C44.97 18.0706 45.52 18.2704 46.25 18.4404C46.98 18.6104 47.88 18.6904 48.94 18.6904C50 18.6904 50.9 18.6104 51.63 18.4404C52.36 18.2704 52.92 18.0706 53.29 17.8306C53.66 17.5906 53.88 17.3606 53.95 17.1206C54 16.9406 53.96 16.8007 53.84 16.7207ZM49.26 6.93066C49.23 6.56066 49.28 6.27029 49.41 6.05029C49.54 5.83029 49.76 5.66053 50.07 5.54053C49.76 5.42053 49.54 5.25027 49.41 5.03027C49.28 4.81027 49.23 4.52039 49.26 4.15039L49.55 4.09033C49.66 4.35033 49.84 4.52033 50.08 4.59033C50.32 4.67033 50.7 4.70068 51.2 4.70068H53.47V3.33057C53.47 2.85057 53.33 2.43055 53.04 2.06055C52.75 1.69055 52.41 1.46061 52 1.37061L52.04 1.08057C52.28 1.01057 52.53 0.980469 52.77 0.980469C53.16 0.980469 53.52 1.06068 53.83 1.20068C54.14 1.35068 54.36 1.58062 54.48 1.89062C54.6 1.58062 54.82 1.35068 55.13 1.20068C55.44 1.05068 55.8 0.980469 56.19 0.980469C56.43 0.980469 56.68 1.01057 56.92 1.08057L56.96 1.37061C56.55 1.46061 56.21 1.70055 55.92 2.06055C55.63 2.43055 55.49 2.85057 55.49 3.33057V9.43066C55.49 9.91066 55.63 10.3307 55.92 10.7007C56.21 11.0707 56.55 11.3006 56.96 11.3906L56.92 11.6807C56.68 11.7507 56.43 11.7803 56.19 11.7803C55.8 11.7803 55.44 11.7003 55.13 11.5503C54.82 11.4003 54.6 11.1704 54.48 10.8604C54.36 11.1704 54.14 11.4003 53.83 11.5503C53.52 11.7003 53.16 11.7803 52.77 11.7803C52.53 11.7803 52.28 11.7507 52.04 11.6807L52 11.3906C52.41 11.2906 52.76 11.0607 53.04 10.7007C53.33 10.3307 53.47 9.91066 53.47 9.43066V6.37061H51.2C50.7 6.37061 50.32 6.41047 50.08 6.48047C49.84 6.56047 49.66 6.72047 49.55 6.98047L49.26 6.93066ZM53.47 5.44043H50.49V5.64062H53.47V5.44043ZM54.59 2.32031H54.38V10.4604H54.59V2.32031Z" fill="black"/>
<path d="M68.94 10.52C68.44 10.6 68.09 10.77 67.89 11.04C67.69 11.3 67.59 11.6599 67.57 12.1099C67.52 13.8999 67.33 15.3201 67.01 16.3501C66.69 17.3801 66.24 18.1198 65.66 18.5498C65.08 18.9798 64.35 19.2002 63.47 19.2002C62.59 19.2002 61.86 18.9798 61.28 18.5498C60.7 18.1098 60.25 17.3801 59.93 16.3501C59.61 15.3201 59.42 13.8999 59.37 12.1099C59.36 11.6599 59.25 11.3 59.05 11.04C58.85 10.77 58.5 10.6 58 10.52V10.1899C58.5 10.1099 58.85 9.93992 59.05 9.66992C59.25 9.39992 59.35 9.0501 59.37 8.6001C59.42 6.8001 59.61 5.38986 59.93 4.35986C60.25 3.32986 60.7 2.5899 61.28 2.1499C61.86 1.7199 62.59 1.5 63.47 1.5C64.35 1.5 65.08 1.7199 65.66 2.1499C66.24 2.5899 66.69 3.31986 67.01 4.35986C67.33 5.38986 67.52 6.8101 67.57 8.6001C67.58 9.0501 67.69 9.40992 67.89 9.66992C68.09 9.92992 68.44 10.1099 68.94 10.1899V10.52ZM65.33 17.8599C65.8 17.4199 66.16 16.6102 66.4 15.4302C66.64 14.2502 66.77 12.5599 66.77 10.3599C66.77 8.14986 66.65 6.46004 66.4 5.29004C66.16 4.11004 65.8 3.29986 65.33 2.85986C64.86 2.41986 64.24 2.2002 63.46 2.2002C62.68 2.2002 62.06 2.41986 61.59 2.85986C61.12 3.29986 60.76 4.11004 60.52 5.29004C60.28 6.47004 60.15 8.15986 60.15 10.3599C60.15 12.5599 60.27 14.2502 60.52 15.4302C60.76 16.6102 61.12 17.4199 61.59 17.8599C62.06 18.2999 62.68 18.52 63.46 18.52C64.24 18.52 64.86 18.2999 65.33 17.8599ZM65.21 3.02979C65.65 3.44979 65.99 4.24014 66.22 5.39014C66.45 6.54014 66.57 8.19986 66.57 10.3599C66.57 12.5199 66.45 14.1801 66.22 15.3301C65.99 16.4801 65.65 17.2699 65.21 17.6899C64.77 18.1099 64.19 18.3198 63.46 18.3198C62.74 18.3198 62.16 18.1099 61.71 17.6899C61.27 17.2699 60.93 16.4801 60.7 15.3301C60.47 14.1801 60.35 12.5199 60.35 10.3599C60.35 8.19986 60.47 6.54014 60.7 5.39014C60.93 4.24014 61.27 3.44979 61.71 3.02979C62.15 2.60979 62.73 2.3999 63.46 2.3999C64.19 2.3999 64.77 2.60979 65.21 3.02979ZM65.41 10.9399C65.25 10.7199 64.98 10.58 64.61 10.52V10.1899C64.98 10.1399 65.24 10 65.41 9.77002C65.57 9.54002 65.65 9.23984 65.65 8.83984C65.65 7.35984 65.58 6.21992 65.45 5.41992C65.31 4.61992 65.09 4.06023 64.78 3.74023C64.47 3.41023 64.03 3.25 63.47 3.25C62.91 3.25 62.48 3.41023 62.16 3.74023C61.85 4.07023 61.62 4.62992 61.49 5.41992C61.35 6.21992 61.29 7.35984 61.29 8.83984C61.29 9.23984 61.37 9.54002 61.53 9.77002C61.69 9.99002 61.96 10.1299 62.33 10.1899V10.52C61.96 10.58 61.7 10.7099 61.53 10.9399C61.37 11.1599 61.29 11.4701 61.29 11.8701C61.29 13.3501 61.36 14.49 61.49 15.29C61.63 16.09 61.85 16.6502 62.16 16.9702C62.47 17.3002 62.91 17.46 63.47 17.46C64.03 17.46 64.46 17.3002 64.78 16.9702C65.09 16.6402 65.32 16.08 65.45 15.29C65.59 14.49 65.65 13.3501 65.65 11.8701C65.65 11.4801 65.57 11.1699 65.41 10.9399ZM63.63 7.14014C63.63 7.93014 63.65 8.5302 63.69 8.9502C63.73 9.3602 63.8 9.66986 63.91 9.85986C64.02 10.0499 64.17 10.18 64.36 10.25V10.4902C64.17 10.5602 64.02 10.6899 63.91 10.8799C63.8 11.0699 63.73 11.3798 63.69 11.7998C63.65 12.2198 63.63 12.8201 63.63 13.6001H63.3C63.3 12.8201 63.28 12.2298 63.24 11.7998C63.2 11.3798 63.13 11.0699 63.02 10.8799C62.91 10.6899 62.76 10.5602 62.57 10.4902V10.25C62.76 10.18 62.91 10.0499 63.02 9.85986C63.13 9.66986 63.2 9.3702 63.24 8.9502C63.28 8.5302 63.3 7.93014 63.3 7.14014H63.63ZM75.59 17.8901C75.59 18.3701 75.71 18.7801 75.95 19.1201C76.19 19.4701 76.48 19.6898 76.84 19.7998L76.8 20.0898C76.61 20.1298 76.41 20.1499 76.21 20.1499C75.86 20.1499 75.54 20.0799 75.25 19.9399C74.97 19.7999 74.76 19.5698 74.64 19.2598C74.52 19.5698 74.31 19.7999 74.03 19.9399C73.75 20.0799 73.43 20.1499 73.07 20.1499C72.87 20.1499 72.67 20.1298 72.48 20.0898L72.44 19.7998C72.79 19.6898 73.09 19.4601 73.33 19.1201C73.57 18.7701 73.69 18.3601 73.69 17.8901V11.2002H72H71.33V17.79C71.33 18.2 71.42 18.5398 71.6 18.8198C71.78 19.0998 72.01 19.2899 72.29 19.3799L72.25 19.6401C72.13 19.6801 72 19.7002 71.86 19.7002C71.57 19.7002 71.29 19.62 71 19.48C70.72 19.33 70.51 19.1301 70.39 18.8701C70.27 19.1301 70.06 19.33 69.78 19.48C69.49 19.63 69.21 19.7002 68.92 19.7002C68.78 19.7002 68.65 19.6801 68.53 19.6401L68.49 19.3799C68.78 19.2799 69.01 19.0998 69.18 18.8198C69.35 18.5398 69.45 18.2 69.45 17.79V3.2998C69.45 2.8898 69.36 2.55002 69.18 2.27002C69 1.99002 68.77 1.79996 68.49 1.70996L68.53 1.4502C68.65 1.4102 68.78 1.39014 68.92 1.39014C69.21 1.39014 69.49 1.45986 69.78 1.60986C70.07 1.75986 70.27 1.96021 70.39 2.22021C70.51 1.96021 70.72 1.75986 71 1.60986C71.29 1.45986 71.57 1.39014 71.86 1.39014C72 1.39014 72.12 1.4102 72.25 1.4502L72.29 1.70996C72 1.80996 71.77 1.99002 71.6 2.27002C71.42 2.55002 71.33 2.8898 71.33 3.2998V9.47998H72H73.67V3.27002C73.67 2.79002 73.55 2.38004 73.31 2.04004C73.07 1.69004 72.78 1.46986 72.42 1.35986L72.46 1.06982C72.64 1.02982 72.83 1.00977 73.05 1.00977C73.4 1.00977 73.72 1.08021 74.01 1.22021C74.3 1.36021 74.5 1.5899 74.62 1.8999C74.74 1.5899 74.95 1.36021 75.23 1.22021C75.52 1.08021 75.84 1.00977 76.19 1.00977C76.39 1.00977 76.59 1.02982 76.78 1.06982L76.82 1.35986C76.47 1.46986 76.17 1.70004 75.93 2.04004C75.69 2.39004 75.57 2.80002 75.57 3.27002V17.8901H75.59ZM70.28 18.46H70.48V2.62012H70.28V18.46ZM71.32 10.2402V10.4399H73.67V10.2402H71.32ZM74.53 18.8501H74.73V2.31982H74.53V18.8501Z" fill="black"/>
<path d="M90.06 16.3999C90 16.8199 89.88 17.1599 89.69 17.3999C89.5 17.6399 89.21 17.8102 88.83 17.9102C89.2 18.2602 89.38 18.6202 89.38 18.9902C89.38 19.2102 89.32 19.4602 89.2 19.7402L88.91 19.7202C88.88 19.4902 88.78 19.2999 88.61 19.1499C88.44 18.9999 88.16 18.8201 87.78 18.6001C87.71 18.5601 87.64 18.5202 87.56 18.4702C87.48 18.4202 87.38 18.3598 87.27 18.2998C86.34 17.7198 85.58 17.0002 84.98 16.1602C84.38 15.3202 84 14.52 83.84 13.75C83.68 14.51 83.3 15.3102 82.7 16.1602C82.1 17.0002 81.34 17.7198 80.41 18.2998C80.3 18.3698 80.21 18.4302 80.12 18.4702C80.04 18.5202 79.96 18.5601 79.9 18.6001C79.52 18.8201 79.24 18.9999 79.07 19.1499C78.9 19.2999 78.8 19.4902 78.77 19.7202L78.48 19.7402C78.36 19.4502 78.3 19.2002 78.3 18.9902C78.3 18.6102 78.48 18.2502 78.85 17.9102C78.47 17.8202 78.18 17.6499 77.99 17.3999C77.8 17.1499 77.68 16.8199 77.62 16.3999L77.89 16.2798C78.12 16.6098 78.42 16.77 78.79 16.77C79.1 16.77 79.48 16.6499 79.91 16.4199C80.66 16.0199 81.34 15.2501 81.94 14.0801C82.54 12.9201 82.85 11.2298 82.85 9.02979V3.75977H80.44C79.86 3.75977 79.42 3.8099 79.12 3.8999C78.83 3.9999 78.61 4.21982 78.48 4.56982L78.19 4.52979C78.18 4.43979 78.17 4.31014 78.17 4.14014C78.17 3.86014 78.24 3.62018 78.37 3.43018C78.51 3.24018 78.72 3.0599 79 2.8999C78.71 2.7399 78.5 2.56012 78.37 2.37012C78.23 2.18012 78.17 1.94016 78.17 1.66016C78.17 1.50016 78.18 1.37002 78.19 1.27002L78.48 1.22998C78.62 1.57998 78.83 1.8099 79.12 1.8999C79.41 1.9999 79.85 2.04004 80.44 2.04004H87.22C87.8 2.04004 88.24 1.9899 88.54 1.8999C88.83 1.8099 89.05 1.57998 89.18 1.22998L89.47 1.27002C89.48 1.37002 89.49 1.50016 89.49 1.66016C89.49 1.95016 89.42 2.18012 89.29 2.37012C89.15 2.56012 88.94 2.7399 88.66 2.8999C88.95 3.0599 89.16 3.24018 89.29 3.43018C89.43 3.62018 89.49 3.86014 89.49 4.14014C89.49 4.30014 89.48 4.42979 89.47 4.52979L89.18 4.56982C89.04 4.21982 88.83 3.9899 88.54 3.8999C88.25 3.8099 87.81 3.75977 87.22 3.75977H84.81V9.02979C84.81 11.2398 85.11 12.9201 85.72 14.0801C86.33 15.2401 87 16.0199 87.75 16.4199C88.18 16.6499 88.56 16.77 88.87 16.77C89.24 16.77 89.54 16.6098 89.77 16.2798L90.06 16.3999ZM88.46 17.71C87.15 17.18 86.08 16.2198 85.23 14.8198C84.38 13.4298 83.95 11.65 83.95 9.47998V3.75977H83.74V9.47998C83.74 11.64 83.32 13.4198 82.46 14.8198C81.61 16.2098 80.53 17.18 79.23 17.71L79.31 17.8701C80.47 17.4101 81.46 16.5902 82.29 15.4302C83.12 14.2702 83.64 12.7802 83.84 10.9702C84.04 12.7802 84.56 14.2702 85.39 15.4302C86.22 16.5902 87.21 17.4101 88.37 17.8701L88.46 17.71ZM79.44 2.81006V3.00977H88.26V2.81006H79.44ZM95.91 10.8701C96.05 11.0601 96.11 11.3001 96.11 11.5801C96.11 11.7401 96.1 11.8702 96.09 11.9702L95.8 12.0098C95.66 11.6598 95.45 11.4298 95.16 11.3398C94.87 11.2498 94.43 11.2002 93.84 11.2002H93.55V17.8301C93.55 18.3101 93.69 18.7301 93.98 19.1001C94.26 19.4701 94.61 19.7 95.02 19.79L94.98 20.0801C94.74 20.1501 94.49 20.1802 94.25 20.1802C93.86 20.1802 93.5 20.1102 93.19 19.9502C92.88 19.8002 92.66 19.5698 92.54 19.2598C92.42 19.5698 92.2 19.8002 91.89 19.9502C91.58 20.1002 91.22 20.1802 90.83 20.1802C90.59 20.1802 90.34 20.1501 90.1 20.0801L90.06 19.79C90.47 19.7 90.81 19.4601 91.1 19.1001C91.39 18.7301 91.53 18.3101 91.53 17.8301V3.33984C91.53 2.85984 91.39 2.43982 91.1 2.06982C90.81 1.69982 90.47 1.46988 90.06 1.37988L90.1 1.08984C90.34 1.01984 90.59 0.990234 90.83 0.990234C91.22 0.990234 91.58 1.06996 91.89 1.20996C92.2 1.35996 92.42 1.5899 92.54 1.8999C92.66 1.5899 92.88 1.35996 93.19 1.20996C93.5 1.05996 93.86 0.990234 94.25 0.990234C94.49 0.990234 94.74 1.01984 94.98 1.08984L95.02 1.37988C94.61 1.46988 94.26 1.70982 93.98 2.06982C93.69 2.43982 93.55 2.85984 93.55 3.33984V9.47998H93.84C94.42 9.47998 94.86 9.42984 95.16 9.33984C95.45 9.24984 95.67 9.01992 95.8 8.66992L96.09 8.70996C96.1 8.79996 96.11 8.9301 96.11 9.1001C96.11 9.3901 96.04 9.62006 95.91 9.81006C95.77 10.0001 95.56 10.1798 95.28 10.3398C95.57 10.4998 95.78 10.6801 95.91 10.8701ZM92.44 18.8501H92.64V2.31982H92.44V18.8501ZM93.57 10.4399H94.87V10.2402H93.57V10.4399Z" fill="black"/>
<path d="M101.61 19.4805C101.6 19.3805 101.59 19.2503 101.59 19.0903C101.59 18.8003 101.66 18.5704 101.79 18.3804C101.93 18.1904 102.14 18.0106 102.42 17.8506C102.13 17.6906 101.92 17.5103 101.79 17.3203C101.65 17.1303 101.59 16.8904 101.59 16.6104C101.59 16.4504 101.6 16.3207 101.61 16.2207L101.9 16.1807C102.04 16.5307 102.25 16.7606 102.54 16.8506C102.83 16.9506 103.27 16.9907 103.86 16.9907H116.96C117.54 16.9907 117.98 16.9406 118.28 16.8506C118.57 16.7506 118.79 16.5307 118.92 16.1807L119.21 16.2207C119.22 16.3107 119.23 16.4404 119.23 16.6104C119.23 16.9004 119.16 17.1303 119.03 17.3203C118.89 17.5103 118.68 17.6906 118.4 17.8506C118.69 18.0106 118.9 18.1904 119.03 18.3804C119.17 18.5704 119.23 18.8103 119.23 19.0903C119.23 19.2503 119.22 19.3805 119.21 19.4805L118.92 19.5205C118.78 19.1705 118.57 18.9406 118.28 18.8506C117.99 18.7506 117.55 18.7104 116.96 18.7104H103.86C103.28 18.7104 102.84 18.7606 102.54 18.8506C102.25 18.9406 102.03 19.1705 101.9 19.5205L101.61 19.4805ZM113.46 13.7505C113.87 13.6505 114.22 13.4205 114.5 13.0605C114.79 12.6905 114.93 12.2705 114.93 11.7905V3.9707H105.05C104.47 3.9707 104.03 4.02035 103.73 4.11035C103.44 4.21035 103.22 4.43027 103.09 4.78027L102.8 4.74072C102.79 4.64072 102.78 4.51059 102.78 4.35059C102.78 4.06059 102.85 3.83063 102.98 3.64062C103.11 3.45062 103.33 3.27035 103.61 3.11035C103.32 2.95035 103.11 2.77057 102.98 2.58057C102.84 2.39057 102.78 2.15061 102.78 1.87061C102.78 1.71061 102.79 1.58047 102.8 1.48047L103.09 1.44043C103.23 1.79043 103.44 2.02035 103.73 2.11035C104.02 2.20035 104.46 2.25049 105.05 2.25049H114.72C115.31 2.25049 115.71 2.52031 115.95 3.07031C116.07 2.69031 116.3 2.41047 116.62 2.23047C116.95 2.05047 117.31 1.9707 117.7 1.9707C117.98 1.9707 118.22 2.00029 118.39 2.05029L118.43 2.34033C118.02 2.44033 117.67 2.67027 117.39 3.03027C117.1 3.40027 116.96 3.82029 116.96 4.30029V11.7905C116.96 12.2705 117.1 12.6905 117.39 13.0605C117.68 13.4305 118.02 13.6605 118.43 13.7505L118.39 14.0405C118.15 14.1105 117.9 14.1406 117.66 14.1406C117.27 14.1406 116.91 14.0606 116.6 13.9106C116.29 13.7606 116.07 13.5307 115.95 13.2207C115.83 13.5307 115.61 13.7606 115.3 13.9106C114.99 14.0606 114.63 14.1406 114.24 14.1406C114 14.1406 113.75 14.1105 113.51 14.0405L113.46 13.7505ZM117.97 17.9507V17.7505H102.83V17.9507H117.97ZM104.03 3.01025V3.21045H114.93V3.01025H104.03ZM116.06 3.9707H115.85V12.8105H116.06V3.9707Z" fill="black"/>
<path d="M133.03 8.47998C133.04 8.56998 133.05 8.71012 133.05 8.87012C133.05 9.16012 132.98 9.39008 132.84 9.58008C132.7 9.77008 132.49 9.94986 132.21 10.1099C132.49 10.2699 132.71 10.4501 132.84 10.6401C132.98 10.8301 133.05 11.0701 133.05 11.3501C133.05 11.5101 133.04 11.6402 133.03 11.7402L132.74 11.7798C132.6 11.4298 132.38 11.1898 132.08 11.0698C131.77 10.9598 131.34 10.8999 130.78 10.8999H124.72V17.0601H130.78C131.34 17.0601 131.77 17.0001 132.08 16.8901C132.39 16.7701 132.61 16.5402 132.74 16.1802L133.03 16.2202C133.04 16.3102 133.05 16.4499 133.05 16.6099C133.05 16.8999 132.98 17.1298 132.84 17.3198C132.7 17.5098 132.49 17.6901 132.21 17.8501C132.49 18.0101 132.71 18.1899 132.84 18.3799C132.98 18.5699 133.05 18.8098 133.05 19.0898C133.05 19.2498 133.04 19.38 133.03 19.48L132.74 19.52C132.6 19.17 132.38 18.9298 132.08 18.8198C131.77 18.7098 131.34 18.6499 130.78 18.6499H124.92C124.34 18.6499 123.93 18.3801 123.7 17.8301C123.56 18.2301 123.33 18.5102 123.01 18.7002C122.68 18.8802 122.32 18.98 121.91 18.98C121.65 18.98 121.43 18.9499 121.26 18.8999L121.22 18.6099C121.63 18.5199 121.97 18.2799 122.26 17.9199C122.55 17.5499 122.69 17.1299 122.69 16.6499V10.9399C122.38 10.9799 122.13 11.0699 121.94 11.1899C121.75 11.3199 121.61 11.51 121.51 11.77L121.22 11.73C121.21 11.64 121.2 11.4998 121.2 11.3398C121.2 11.0498 121.27 10.8199 121.4 10.6299C121.54 10.4399 121.75 10.2601 122.03 10.1001C121.74 9.9401 121.53 9.75982 121.4 9.56982C121.26 9.37982 121.2 9.13986 121.2 8.85986C121.2 8.69986 121.21 8.57021 121.22 8.47021L121.51 8.43018C121.65 8.78018 121.87 9.01988 122.17 9.12988C122.48 9.24988 122.91 9.2998 123.47 9.2998H129.49V3.62988H124.1C123.54 3.62988 123.11 3.6898 122.8 3.7998C122.49 3.9098 122.27 4.15 122.14 4.5L121.85 4.45996C121.84 4.36996 121.83 4.23982 121.83 4.06982C121.83 3.77982 121.9 3.54986 122.03 3.35986C122.17 3.16986 122.38 2.99008 122.66 2.83008C122.37 2.67008 122.16 2.4898 122.03 2.2998C121.89 2.1098 121.83 1.86984 121.83 1.58984C121.83 1.42984 121.84 1.3002 121.85 1.2002L122.14 1.16016C122.28 1.51016 122.5 1.74986 122.8 1.85986C123.11 1.97986 123.54 2.02979 124.1 2.02979H129.28C129.86 2.02979 130.27 2.3001 130.5 2.8501C130.64 2.4501 130.87 2.16998 131.19 1.97998C131.52 1.79998 131.88 1.70996 132.29 1.70996C132.55 1.70996 132.77 1.74004 132.94 1.79004L132.98 2.08008C132.57 2.18008 132.23 2.41002 131.94 2.77002C131.65 3.14002 131.51 3.56004 131.51 4.04004V9.25977C131.82 9.22977 132.08 9.15979 132.29 9.02979C132.49 8.89979 132.64 8.70018 132.74 8.43018L133.03 8.47998ZM122.44 10.2202H131.81V10.02H122.44V10.2202ZM123.08 2.75V2.9502H129.49V2.75H123.08ZM123.61 17.0698H123.81V10.9102H123.61V17.0698ZM131.81 17.9702V17.77H124.73V17.9702H131.81ZM130.6 3.6499H130.4V9.31982H130.6V3.6499ZM137.14 17.8301C137.14 18.3101 137.28 18.7301 137.57 19.1001C137.86 19.4701 138.2 19.7 138.61 19.79L138.57 20.0801C138.33 20.1501 138.08 20.1802 137.84 20.1802C137.45 20.1802 137.09 20.1102 136.78 19.9502C136.47 19.8002 136.25 19.5698 136.13 19.2598C136.01 19.5698 135.79 19.8002 135.48 19.9502C135.17 20.1002 134.81 20.1802 134.42 20.1802C134.18 20.1802 133.93 20.1501 133.69 20.0801L133.65 19.79C134.06 19.7 134.41 19.4601 134.69 19.1001C134.98 18.7301 135.12 18.3101 135.12 17.8301V3.33984C135.12 2.85984 134.98 2.43982 134.69 2.06982C134.4 1.69982 134.06 1.46988 133.65 1.37988L133.69 1.08984C133.93 1.01984 134.18 0.990234 134.42 0.990234C134.81 0.990234 135.17 1.06996 135.48 1.20996C135.79 1.35996 136.01 1.5899 136.13 1.8999C136.25 1.5899 136.47 1.35996 136.78 1.20996C137.09 1.05996 137.45 0.990234 137.84 0.990234C138.08 0.990234 138.33 1.01984 138.57 1.08984L138.61 1.37988C138.2 1.46988 137.86 1.70982 137.57 2.06982C137.28 2.43982 137.14 2.85984 137.14 3.33984V17.8301ZM136.01 18.8501H136.22V2.31982H136.01V18.8501Z" fill="black"/>
<path d="M157.79 18.3809C157.93 18.5709 157.99 18.8108 157.99 19.0908C157.99 19.2508 157.98 19.381 157.97 19.481L157.68 19.521C157.54 19.171 157.33 18.9411 157.04 18.8511C156.75 18.7511 156.31 18.7109 155.72 18.7109H142.62C142.04 18.7109 141.6 18.7611 141.3 18.8511C141.01 18.9411 140.79 19.171 140.66 19.521L140.37 19.481C140.36 19.381 140.35 19.2508 140.35 19.0908C140.35 18.8008 140.42 18.5709 140.55 18.3809C140.69 18.1909 140.9 18.0111 141.18 17.8511C140.89 17.6911 140.68 17.5108 140.55 17.3208C140.41 17.1308 140.35 16.8908 140.35 16.6108C140.35 16.4508 140.36 16.3212 140.37 16.2212L140.66 16.1812C140.8 16.5312 141.01 16.7611 141.3 16.8511C141.59 16.9511 142.03 16.9912 142.62 16.9912H146.62V11.791C146.62 11.301 146.47 10.8612 146.18 10.4712C145.89 10.0812 145.54 9.84098 145.15 9.75098L145.19 9.46094C145.43 9.39094 145.68 9.36084 145.92 9.36084C146.31 9.36084 146.67 9.43082 146.98 9.59082C147.29 9.74082 147.51 9.97076 147.63 10.2808C147.75 9.97076 147.97 9.74082 148.28 9.59082C148.59 9.44082 148.95 9.36084 149.34 9.36084C149.58 9.36084 149.83 9.39094 150.07 9.46094L150.11 9.75098C149.72 9.84098 149.37 10.0912 149.08 10.4712C148.79 10.8512 148.64 11.301 148.64 11.791V16.9912H155.7C156.28 16.9912 156.72 16.9411 157.02 16.8511C157.31 16.7511 157.53 16.5312 157.66 16.1812L157.95 16.2212C157.96 16.3112 157.97 16.4408 157.97 16.6108C157.97 16.9008 157.9 17.1308 157.77 17.3208C157.63 17.5108 157.42 17.6911 157.14 17.8511C157.44 18.0111 157.65 18.1909 157.79 18.3809ZM141.58 4.75098C141.57 4.65098 141.56 4.52084 141.56 4.36084C141.56 4.07084 141.63 3.84088 141.76 3.65088C141.9 3.46088 142.11 3.28109 142.39 3.12109C142.1 2.96109 141.89 2.78082 141.76 2.59082C141.62 2.40082 141.56 2.16086 141.56 1.88086C141.56 1.72086 141.57 1.59121 141.58 1.49121L141.87 1.45117C142.01 1.80117 142.22 2.03109 142.51 2.12109C142.8 2.21109 143.24 2.26074 143.83 2.26074H153.5C154.09 2.26074 154.49 2.53105 154.73 3.08105C154.85 2.70105 155.08 2.42121 155.4 2.24121C155.73 2.06121 156.09 1.98096 156.48 1.98096C156.76 1.98096 157 2.01104 157.17 2.06104L157.21 2.35107C156.8 2.45107 156.45 2.68102 156.17 3.04102C155.88 3.41102 155.74 3.83104 155.74 4.31104V11.8008C155.74 12.2808 155.88 12.7008 156.17 13.0708C156.46 13.4408 156.8 13.6707 157.21 13.7607L157.17 14.0508C156.93 14.1208 156.68 14.1509 156.44 14.1509C156.05 14.1509 155.69 14.0709 155.38 13.9209C155.07 13.7709 154.85 13.541 154.73 13.231C154.61 13.541 154.39 13.7709 154.08 13.9209C153.77 14.0709 153.41 14.1509 153.02 14.1509C152.78 14.1509 152.53 14.1208 152.29 14.0508L152.25 13.7607C152.66 13.6607 153.01 13.4308 153.29 13.0708C153.58 12.7008 153.72 12.2808 153.72 11.8008V3.98096H143.84C143.26 3.98096 142.82 4.03109 142.52 4.12109C142.23 4.22109 142.01 4.44102 141.88 4.79102L141.58 4.75098ZM141.6 17.9512H156.74V17.751H141.6V17.9512ZM153.71 3.01074H142.81V3.21094H153.71V3.01074ZM147.75 10.6909H147.55V17.001H147.75V10.6909ZM154.83 3.97119H154.62V12.811H154.83V3.97119Z" fill="black"/>
<path d="M179.99 9.66992C179.99 10.1499 180.13 10.5699 180.42 10.9399C180.71 11.3099 181.05 11.5401 181.46 11.6401L181.42 11.9199C181.18 11.9899 180.93 12.02 180.69 12.02C180.3 12.02 179.94 11.94 179.63 11.79C179.32 11.64 179.1 11.4101 178.98 11.1001C178.86 11.4101 178.64 11.64 178.33 11.79C178.02 11.94 177.66 12.02 177.27 12.02C177.03 12.02 176.78 11.9899 176.54 11.9199L176.5 11.6401C176.91 11.5401 177.26 11.3099 177.54 10.9399C177.83 10.5699 177.97 10.1499 177.97 9.66992V7.22021H176.36H174.63V9.08008C174.63 9.56008 174.77 9.9801 175.06 10.3501C175.35 10.7201 175.69 10.95 176.1 11.04L176.06 11.3301C175.88 11.3901 175.65 11.4102 175.37 11.4102C174.98 11.4102 174.61 11.3199 174.29 11.1499C173.96 10.9699 173.74 10.6901 173.62 10.3101C173.42 10.8501 173.01 11.1299 172.42 11.1299H167.34C166.74 11.1299 166.34 10.8601 166.14 10.3101C166.02 10.6901 165.79 10.9699 165.47 11.1499C165.14 11.3299 164.78 11.4102 164.39 11.4102C164.11 11.4102 163.87 11.3801 163.7 11.3301L163.66 11.04C164.07 10.95 164.42 10.7101 164.7 10.3501C164.99 9.9801 165.13 9.56008 165.13 9.08008V3.93994C165.13 3.47994 164.99 3.05994 164.7 2.68994C164.41 2.31994 164.07 2.09 163.68 2L163.72 1.70996C163.96 1.63996 164.21 1.60986 164.45 1.60986C164.83 1.60986 165.18 1.68984 165.49 1.83984C165.8 1.98984 166.02 2.21979 166.14 2.52979C166.26 2.21979 166.48 1.98984 166.79 1.83984C167.1 1.68984 167.45 1.60986 167.83 1.60986C168.07 1.60986 168.32 1.63996 168.56 1.70996L168.6 2C168.21 2.1 167.86 2.32994 167.57 2.68994C167.28 3.05994 167.13 3.46994 167.13 3.93994V5.18018H172.62V3.93994C172.62 3.47994 172.47 3.05994 172.18 2.68994C171.89 2.31994 171.54 2.09 171.15 2L171.19 1.70996C171.43 1.63996 171.68 1.60986 171.92 1.60986C172.3 1.60986 172.65 1.68984 172.96 1.83984C173.27 1.98984 173.49 2.21979 173.61 2.52979C173.73 2.21979 173.95 1.98984 174.26 1.83984C174.57 1.68984 174.92 1.60986 175.3 1.60986C175.54 1.60986 175.79 1.63996 176.03 1.70996L176.07 2C175.68 2.1 175.34 2.32994 175.05 2.68994C174.76 3.05994 174.62 3.46994 174.62 3.93994V5.50977H176.35H177.96V3.3501C177.96 2.8701 177.82 2.45008 177.53 2.08008C177.24 1.71008 176.9 1.48014 176.49 1.39014L176.53 1.1001C176.77 1.0301 177.02 1 177.26 1C177.65 1 178.01 1.08021 178.32 1.22021C178.63 1.37021 178.85 1.60016 178.97 1.91016C179.09 1.60016 179.31 1.37021 179.62 1.22021C179.93 1.07021 180.29 1 180.68 1C180.92 1 181.17 1.0301 181.41 1.1001L181.45 1.39014C181.04 1.48014 180.7 1.72008 180.41 2.08008C180.12 2.45008 179.98 2.8701 179.98 3.3501V9.66992H179.99ZM181.36 13.1099C180.95 13.1999 180.61 13.4398 180.32 13.7998C180.03 14.1698 179.89 14.5998 179.89 15.0898V17.8901C180.35 17.8101 180.67 17.5601 180.83 17.1401L181.11 17.1802C181.12 17.2802 181.13 17.3998 181.13 17.5498C181.13 17.8398 181.06 18.0698 180.93 18.2598C180.79 18.4498 180.58 18.62 180.3 18.77C180.6 18.92 180.82 19.0898 180.95 19.2798C181.09 19.4698 181.15 19.7002 181.15 19.9702C181.15 20.0402 181.14 20.1699 181.11 20.3599L180.83 20.3999C180.57 19.8699 180.01 19.6001 179.14 19.6001H169.2C168.62 19.6001 168.21 19.3298 167.98 18.7798C167.86 19.1598 167.63 19.4401 167.31 19.6201C166.98 19.8001 166.62 19.8799 166.23 19.8799C165.94 19.8799 165.71 19.8498 165.54 19.7998L165.5 19.5098C165.91 19.4198 166.25 19.1798 166.54 18.8198C166.83 18.4498 166.97 18.0298 166.97 17.5498V14.7402C166.51 14.8202 166.19 15.0702 166.03 15.4902L165.74 15.4502C165.73 15.3602 165.72 15.2301 165.72 15.0801C165.72 14.7901 165.79 14.5601 165.93 14.3701C166.07 14.1801 166.28 14.0099 166.56 13.8599C166.27 13.7099 166.06 13.5401 165.93 13.3501C165.79 13.1601 165.72 12.9201 165.72 12.6401C165.72 12.4901 165.73 12.37 165.74 12.27L166.03 12.23C166.29 12.76 166.85 13.0298 167.72 13.0298H177.66C178.24 13.0298 178.65 13.3001 178.88 13.8501C179 13.4701 179.23 13.1898 179.55 13.0098C179.88 12.8298 180.24 12.75 180.63 12.75C180.92 12.75 181.15 12.7801 181.32 12.8301L181.36 13.1099ZM165.99 9.52002H166.2V2.93018H165.99V9.52002ZM166.95 13.71V13.9102H177.85V13.71H166.95ZM172.58 6.06982V5.87012H167.09V6.06982H172.58ZM167.09 6.79004V9.52002H172.58V6.79004H167.09ZM167.09 10.3999H172.58V10.2002H167.09V10.3999ZM167.87 18.0298H168.07V14.6001H167.87V18.0298ZM177.85 18.0298V14.6001H168.99V18.0298H177.85ZM168.99 18.9302H179.89V18.73H168.99V18.9302ZM173.48 9.52002H173.68V2.93018H173.48V9.52002ZM174.6 6.25977V6.45996H177.95V6.25977H174.6ZM178.97 14.6001H178.77V18.0298H178.97V14.6001ZM178.87 10.6899H179.08V2.31982H178.87V10.6899Z" fill="black"/>
<path d="M188.01 9.36035C187.44 9.81035 186.68 10.1404 185.72 10.3604C185.23 10.4704 184.82 10.6306 184.5 10.8506C184.17 11.0706 183.98 11.3304 183.93 11.6304L183.64 11.6504C183.54 11.4504 183.5 11.2305 183.5 11.0005C183.5 10.7505 183.56 10.5306 183.68 10.3306C183.8 10.1306 183.96 9.96031 184.17 9.82031C183.79 9.72031 183.5 9.56055 183.31 9.31055C183.12 9.07055 183 8.73055 182.94 8.31055L183.2 8.19043C183.36 8.41043 183.54 8.56039 183.72 8.65039C183.9 8.74039 184.13 8.78027 184.4 8.78027C184.69 8.78027 184.96 8.75068 185.24 8.70068C186.23 8.56068 186.98 8.22041 187.48 7.67041C187.98 7.12041 188.23 6.33053 188.23 5.29053V3.76025C188.23 3.28025 188.08 2.86072 187.79 2.49072C187.5 2.12072 187.15 1.89029 186.74 1.80029L186.78 1.51025C187.02 1.44025 187.27 1.41064 187.51 1.41064C187.9 1.41064 188.26 1.48063 188.57 1.64062C188.88 1.79062 189.1 2.02057 189.22 2.33057C189.34 2.02057 189.56 1.79062 189.87 1.64062C190.18 1.49063 190.54 1.41064 190.93 1.41064C191.17 1.41064 191.42 1.44025 191.66 1.51025L191.7 1.80029C191.29 1.89029 190.94 2.13072 190.64 2.49072C190.34 2.86072 190.19 3.28025 190.19 3.76025V5.29053C190.19 6.32053 190.44 7.12041 190.96 7.67041C191.47 8.22041 192.22 8.56068 193.21 8.70068C193.48 8.76068 193.76 8.78027 194.05 8.78027C194.32 8.78027 194.55 8.74039 194.73 8.65039C194.91 8.56039 195.09 8.41043 195.25 8.19043L195.51 8.31055C195.46 8.73055 195.33 9.07055 195.14 9.31055C194.95 9.56055 194.66 9.72031 194.28 9.82031C194.48 9.96031 194.65 10.1306 194.77 10.3306C194.89 10.5306 194.95 10.7605 194.95 11.0005C194.95 11.2305 194.9 11.4504 194.81 11.6504L194.52 11.6304C194.47 11.3304 194.28 11.0706 193.95 10.8506C193.62 10.6306 193.22 10.4704 192.73 10.3604C191.78 10.1404 191.01 9.81061 190.43 9.37061C189.85 8.93061 189.43 8.45066 189.17 7.93066C188.99 8.44066 188.58 8.91035 188.01 9.36035ZM200.33 15.7705C200.5 15.9305 200.77 16.0406 201.14 16.1006V16.4106C200.77 16.4706 200.5 16.5707 200.33 16.7407C200.16 16.9007 199.97 17.1806 199.77 17.5806C199.35 18.4006 198.58 19.0603 197.47 19.5703C196.36 20.0803 194.81 20.3403 192.81 20.3403C190.81 20.3403 189.25 20.0903 188.15 19.5703C187.04 19.0603 186.28 18.4006 185.85 17.5806C185.65 17.1906 185.46 16.9107 185.29 16.7407C185.12 16.5807 184.85 16.4706 184.48 16.4106V16.1006C184.85 16.0506 185.12 15.9405 185.29 15.7705C185.46 15.6105 185.65 15.3307 185.85 14.9307C186.27 14.1107 187.04 13.4504 188.15 12.9404C189.26 12.4304 190.81 12.1704 192.81 12.1704C194.81 12.1704 196.36 12.4204 197.47 12.9404C198.58 13.4504 199.34 14.1107 199.77 14.9307C199.97 15.3307 200.16 15.6005 200.33 15.7705ZM184.58 9.85059C185.74 9.69059 186.77 9.31047 187.67 8.73047C188.58 8.15047 189.1 7.36035 189.23 6.36035C189.37 7.35035 189.89 8.14047 190.8 8.73047C191.71 9.32047 192.75 9.69059 193.92 9.85059L193.96 9.69043C192.59 9.46043 191.47 9.02035 190.61 8.36035C189.75 7.71035 189.32 6.78057 189.32 5.58057V2.7207H189.11V5.58057C189.11 6.78057 188.69 7.70035 187.84 8.36035C187 9.01035 185.89 9.45043 184.51 9.69043L184.58 9.85059ZM197.63 18.8003C198.68 18.2603 199.21 17.4107 199.21 16.2407C199.21 15.0807 198.68 14.2407 197.63 13.7007C196.58 13.1607 194.97 12.8906 192.8 12.8906C190.64 12.8906 189.03 13.1607 187.97 13.7007C186.92 14.2407 186.39 15.0807 186.39 16.2407C186.39 17.4107 186.92 18.2603 187.97 18.8003C189.02 19.3403 190.63 19.6104 192.8 19.6104C194.97 19.6004 196.58 19.3303 197.63 18.8003ZM197.49 13.8506C198.5 14.3506 199.01 15.1507 199.01 16.2407C199.01 17.3307 198.5 18.1306 197.49 18.6406C196.48 19.1506 194.91 19.4106 192.81 19.4106C190.7 19.4106 189.14 19.1606 188.13 18.6406C187.12 18.1306 186.61 17.3307 186.61 16.2407C186.61 15.1507 187.12 14.3606 188.13 13.8506C189.14 13.3506 190.7 13.1006 192.81 13.1006C194.91 13.0906 196.48 13.3506 197.49 13.8506ZM197.71 16.7207C197.59 16.6307 197.4 16.5705 197.14 16.5405C196.87 16.5105 196.45 16.4606 195.86 16.4106V16.1006C196.45 16.0506 196.87 16.0007 197.14 15.9707C197.4 15.9407 197.59 15.8805 197.71 15.7905C197.83 15.7005 197.86 15.5706 197.82 15.3906C197.75 15.1606 197.53 14.9207 197.16 14.6807C196.78 14.4407 196.23 14.2403 195.5 14.0703C194.77 13.9003 193.87 13.8105 192.81 13.8105C191.75 13.8105 190.85 13.8903 190.12 14.0703C189.39 14.2403 188.83 14.4407 188.46 14.6807C188.09 14.9207 187.87 15.1506 187.8 15.3906C187.76 15.5706 187.8 15.7005 187.91 15.7905C188.03 15.8805 188.22 15.9407 188.48 15.9707C188.74 16.0107 189.17 16.0506 189.76 16.1006V16.4106C189.17 16.4706 188.75 16.5105 188.48 16.5405C188.21 16.5705 188.02 16.6407 187.91 16.7207C187.8 16.8007 187.76 16.9406 187.8 17.1206C187.87 17.3506 188.09 17.5906 188.46 17.8306C188.84 18.0706 189.39 18.2704 190.12 18.4404C190.85 18.6104 191.75 18.6904 192.81 18.6904C193.87 18.6904 194.77 18.6104 195.5 18.4404C196.23 18.2704 196.79 18.0706 197.16 17.8306C197.53 17.5906 197.75 17.3606 197.82 17.1206C197.87 16.9406 197.83 16.8007 197.71 16.7207ZM193.13 6.93066C193.1 6.56066 193.15 6.27029 193.28 6.05029C193.41 5.83029 193.63 5.66053 193.94 5.54053C193.63 5.42053 193.41 5.25027 193.28 5.03027C193.15 4.81027 193.1 4.52039 193.13 4.15039L193.42 4.09033C193.53 4.35033 193.71 4.52033 193.95 4.59033C194.19 4.67033 194.57 4.70068 195.07 4.70068H197.34V3.33057C197.34 2.85057 197.2 2.43055 196.91 2.06055C196.62 1.69055 196.28 1.46061 195.87 1.37061L195.91 1.08057C196.15 1.01057 196.4 0.980469 196.64 0.980469C197.03 0.980469 197.39 1.06068 197.7 1.20068C198.01 1.35068 198.23 1.58062 198.35 1.89062C198.47 1.58062 198.69 1.35068 199 1.20068C199.31 1.05068 199.67 0.980469 200.06 0.980469C200.3 0.980469 200.55 1.01057 200.79 1.08057L200.83 1.37061C200.42 1.46061 200.08 1.70055 199.79 2.06055C199.5 2.43055 199.36 2.85057 199.36 3.33057V9.43066C199.36 9.91066 199.5 10.3307 199.79 10.7007C200.08 11.0707 200.42 11.3006 200.83 11.3906L200.79 11.6807C200.55 11.7507 200.3 11.7803 200.06 11.7803C199.67 11.7803 199.31 11.7003 199 11.5503C198.69 11.4003 198.47 11.1704 198.35 10.8604C198.23 11.1704 198.01 11.4003 197.7 11.5503C197.39 11.7003 197.03 11.7803 196.64 11.7803C196.4 11.7803 196.15 11.7507 195.91 11.6807L195.87 11.3906C196.28 11.2906 196.63 11.0607 196.91 10.7007C197.2 10.3307 197.34 9.91066 197.34 9.43066V6.37061H195.07C194.57 6.37061 194.19 6.41047 193.95 6.48047C193.71 6.56047 193.53 6.72047 193.42 6.98047L193.13 6.93066ZM197.34 5.44043H194.36V5.64062H197.34V5.44043ZM198.46 2.32031H198.25V10.4604H198.46V2.32031Z" fill="black"/>
<path d="M212.8 10.52C212.3 10.6 211.95 10.77 211.75 11.04C211.55 11.3 211.45 11.6599 211.43 12.1099C211.38 13.8999 211.19 15.3201 210.87 16.3501C210.55 17.3801 210.1 18.1198 209.52 18.5498C208.94 18.9798 208.21 19.2002 207.33 19.2002C206.45 19.2002 205.72 18.9798 205.14 18.5498C204.56 18.1098 204.11 17.3801 203.79 16.3501C203.47 15.3201 203.28 13.8999 203.23 12.1099C203.22 11.6599 203.11 11.3 202.91 11.04C202.71 10.77 202.36 10.6 201.86 10.52V10.1899C202.36 10.1099 202.71 9.93992 202.91 9.66992C203.11 9.39992 203.21 9.0501 203.23 8.6001C203.28 6.8001 203.47 5.38986 203.79 4.35986C204.11 3.32986 204.56 2.5899 205.14 2.1499C205.72 1.7199 206.45 1.5 207.33 1.5C208.21 1.5 208.94 1.7199 209.52 2.1499C210.1 2.5899 210.55 3.31986 210.87 4.35986C211.19 5.38986 211.38 6.8101 211.43 8.6001C211.44 9.0501 211.55 9.40992 211.75 9.66992C211.95 9.92992 212.3 10.1099 212.8 10.1899V10.52ZM209.2 17.8599C209.67 17.4199 210.03 16.6102 210.27 15.4302C210.51 14.2502 210.64 12.5599 210.64 10.3599C210.64 8.14986 210.52 6.46004 210.27 5.29004C210.03 4.11004 209.67 3.29986 209.2 2.85986C208.73 2.41986 208.11 2.2002 207.33 2.2002C206.55 2.2002 205.93 2.41986 205.46 2.85986C204.99 3.29986 204.63 4.11004 204.39 5.29004C204.15 6.47004 204.02 8.15986 204.02 10.3599C204.02 12.5599 204.14 14.2502 204.39 15.4302C204.63 16.6102 204.99 17.4199 205.46 17.8599C205.93 18.2999 206.55 18.52 207.33 18.52C208.11 18.52 208.73 18.2999 209.2 17.8599ZM209.08 3.02979C209.52 3.44979 209.86 4.24014 210.09 5.39014C210.32 6.54014 210.44 8.19986 210.44 10.3599C210.44 12.5199 210.32 14.1801 210.09 15.3301C209.86 16.4801 209.52 17.2699 209.08 17.6899C208.64 18.1099 208.06 18.3198 207.33 18.3198C206.61 18.3198 206.03 18.1099 205.58 17.6899C205.14 17.2699 204.8 16.4801 204.57 15.3301C204.34 14.1801 204.22 12.5199 204.22 10.3599C204.22 8.19986 204.34 6.54014 204.57 5.39014C204.8 4.24014 205.14 3.44979 205.58 3.02979C206.02 2.60979 206.6 2.3999 207.33 2.3999C208.06 2.3999 208.64 2.60979 209.08 3.02979ZM209.27 10.9399C209.11 10.7199 208.84 10.58 208.47 10.52V10.1899C208.84 10.1399 209.1 10 209.27 9.77002C209.43 9.54002 209.51 9.23984 209.51 8.83984C209.51 7.35984 209.44 6.21992 209.31 5.41992C209.17 4.61992 208.95 4.06023 208.64 3.74023C208.33 3.41023 207.89 3.25 207.33 3.25C206.77 3.25 206.34 3.41023 206.02 3.74023C205.71 4.07023 205.48 4.62992 205.35 5.41992C205.21 6.21992 205.15 7.35984 205.15 8.83984C205.15 9.23984 205.23 9.54002 205.39 9.77002C205.55 9.99002 205.82 10.1299 206.19 10.1899V10.52C205.82 10.58 205.56 10.7099 205.39 10.9399C205.23 11.1599 205.15 11.4701 205.15 11.8701C205.15 13.3501 205.22 14.49 205.35 15.29C205.49 16.09 205.71 16.6502 206.02 16.9702C206.33 17.3002 206.77 17.46 207.33 17.46C207.89 17.46 208.32 17.3002 208.64 16.9702C208.95 16.6402 209.18 16.08 209.31 15.29C209.45 14.49 209.51 13.3501 209.51 11.8701C209.52 11.4801 209.44 11.1699 209.27 10.9399ZM207.5 7.14014C207.5 7.93014 207.52 8.5302 207.56 8.9502C207.6 9.3602 207.67 9.66986 207.78 9.85986C207.89 10.0499 208.04 10.18 208.23 10.25V10.4902C208.04 10.5602 207.89 10.6899 207.78 10.8799C207.67 11.0699 207.6 11.3798 207.56 11.7998C207.52 12.2198 207.5 12.8201 207.5 13.6001H207.17C207.17 12.8201 207.15 12.2298 207.11 11.7998C207.07 11.3798 207 11.0699 206.89 10.8799C206.78 10.6899 206.63 10.5602 206.44 10.4902V10.25C206.63 10.18 206.78 10.0499 206.89 9.85986C207 9.66986 207.07 9.3702 207.11 8.9502C207.15 8.5302 207.17 7.93014 207.17 7.14014H207.5ZM219.46 17.8901C219.46 18.3701 219.58 18.7801 219.82 19.1201C220.06 19.4701 220.35 19.6898 220.71 19.7998L220.67 20.0898C220.48 20.1298 220.28 20.1499 220.08 20.1499C219.73 20.1499 219.41 20.0799 219.12 19.9399C218.84 19.7999 218.63 19.5698 218.51 19.2598C218.39 19.5698 218.18 19.7999 217.9 19.9399C217.62 20.0799 217.3 20.1499 216.94 20.1499C216.74 20.1499 216.54 20.1298 216.35 20.0898L216.31 19.7998C216.66 19.6898 216.96 19.4601 217.2 19.1201C217.44 18.7701 217.56 18.3601 217.56 17.8901V11.2002H215.89H215.22V17.79C215.22 18.2 215.31 18.5398 215.49 18.8198C215.67 19.0998 215.9 19.2899 216.18 19.3799L216.14 19.6401C216.02 19.6801 215.89 19.7002 215.75 19.7002C215.46 19.7002 215.18 19.62 214.89 19.48C214.61 19.33 214.4 19.1301 214.28 18.8701C214.16 19.1301 213.95 19.33 213.67 19.48C213.38 19.63 213.1 19.7002 212.81 19.7002C212.67 19.7002 212.54 19.6801 212.42 19.6401L212.38 19.3799C212.67 19.2799 212.9 19.0998 213.07 18.8198C213.24 18.5398 213.34 18.2 213.34 17.79V3.2998C213.34 2.8898 213.25 2.55002 213.07 2.27002C212.89 1.99002 212.66 1.79996 212.38 1.70996L212.42 1.4502C212.54 1.4102 212.67 1.39014 212.81 1.39014C213.1 1.39014 213.38 1.45986 213.67 1.60986C213.96 1.75986 214.16 1.96021 214.28 2.22021C214.4 1.96021 214.61 1.75986 214.89 1.60986C215.18 1.45986 215.46 1.39014 215.75 1.39014C215.89 1.39014 216.01 1.4102 216.14 1.4502L216.18 1.70996C215.89 1.80996 215.66 1.99002 215.49 2.27002C215.31 2.55002 215.22 2.8898 215.22 3.2998V9.47998H215.89H217.56V3.27002C217.56 2.79002 217.44 2.38004 217.2 2.04004C216.96 1.69004 216.67 1.46986 216.31 1.35986L216.35 1.06982C216.53 1.02982 216.72 1.00977 216.94 1.00977C217.29 1.00977 217.61 1.08021 217.9 1.22021C218.19 1.36021 218.39 1.5899 218.51 1.8999C218.63 1.5899 218.84 1.36021 219.12 1.22021C219.41 1.08021 219.73 1.00977 220.08 1.00977C220.28 1.00977 220.48 1.02982 220.67 1.06982L220.71 1.35986C220.36 1.46986 220.06 1.70004 219.82 2.04004C219.58 2.39004 219.46 2.80002 219.46 3.27002V17.8901ZM214.15 18.46H214.35V2.62012H214.15V18.46ZM215.19 10.2402V10.4399H217.54V10.2402H215.19ZM218.4 18.8501H218.6V2.31982H218.4V18.8501Z" fill="black"/>
<path d="M233.93 16.3999C233.87 16.8199 233.75 17.1599 233.56 17.3999C233.37 17.6399 233.08 17.8102 232.7 17.9102C233.07 18.2602 233.25 18.6202 233.25 18.9902C233.25 19.2102 233.19 19.4602 233.07 19.7402L232.78 19.7202C232.75 19.4902 232.65 19.2999 232.48 19.1499C232.31 18.9999 232.03 18.8201 231.65 18.6001C231.58 18.5601 231.51 18.5202 231.43 18.4702C231.35 18.4202 231.25 18.3598 231.14 18.2998C230.21 17.7198 229.45 17.0002 228.85 16.1602C228.25 15.3202 227.87 14.52 227.71 13.75C227.55 14.51 227.17 15.3102 226.57 16.1602C225.97 17.0002 225.21 17.7198 224.28 18.2998C224.17 18.3698 224.08 18.4302 223.99 18.4702C223.91 18.5202 223.83 18.5601 223.77 18.6001C223.39 18.8201 223.11 18.9999 222.94 19.1499C222.77 19.2999 222.67 19.4902 222.64 19.7202L222.35 19.7402C222.23 19.4502 222.17 19.2002 222.17 18.9902C222.17 18.6102 222.35 18.2502 222.72 17.9102C222.34 17.8202 222.05 17.6499 221.86 17.3999C221.67 17.1499 221.55 16.8199 221.49 16.3999L221.76 16.2798C221.99 16.6098 222.29 16.77 222.66 16.77C222.97 16.77 223.35 16.6499 223.78 16.4199C224.53 16.0199 225.21 15.2501 225.81 14.0801C226.41 12.9201 226.72 11.2298 226.72 9.02979V3.75977H224.31C223.73 3.75977 223.29 3.8099 222.99 3.8999C222.7 3.9999 222.48 4.21982 222.35 4.56982L222.06 4.52979C222.05 4.43979 222.04 4.31014 222.04 4.14014C222.04 3.86014 222.11 3.62018 222.24 3.43018C222.38 3.24018 222.59 3.0599 222.87 2.8999C222.58 2.7399 222.37 2.56012 222.24 2.37012C222.1 2.18012 222.04 1.94016 222.04 1.66016C222.04 1.50016 222.05 1.37002 222.06 1.27002L222.35 1.22998C222.49 1.57998 222.7 1.8099 222.99 1.8999C223.28 1.9999 223.72 2.04004 224.31 2.04004H231.09C231.67 2.04004 232.11 1.9899 232.41 1.8999C232.7 1.8099 232.92 1.57998 233.05 1.22998L233.34 1.27002C233.35 1.37002 233.36 1.50016 233.36 1.66016C233.36 1.95016 233.29 2.18012 233.16 2.37012C233.02 2.56012 232.81 2.7399 232.53 2.8999C232.82 3.0599 233.03 3.24018 233.16 3.43018C233.3 3.62018 233.36 3.86014 233.36 4.14014C233.36 4.30014 233.35 4.42979 233.34 4.52979L233.05 4.56982C232.91 4.21982 232.7 3.9899 232.41 3.8999C232.12 3.8099 231.68 3.75977 231.09 3.75977H228.68V9.02979C228.68 11.2398 228.98 12.9201 229.59 14.0801C230.2 15.2401 230.87 16.0199 231.62 16.4199C232.05 16.6499 232.43 16.77 232.74 16.77C233.11 16.77 233.41 16.6098 233.64 16.2798L233.93 16.3999ZM232.33 17.71C231.02 17.18 229.95 16.2198 229.1 14.8198C228.25 13.4298 227.82 11.65 227.82 9.47998V3.75977H227.61V9.47998C227.61 11.64 227.19 13.4198 226.33 14.8198C225.48 16.2098 224.4 17.18 223.1 17.71L223.18 17.8701C224.34 17.4101 225.33 16.5902 226.16 15.4302C226.99 14.2702 227.51 12.7802 227.71 10.9702C227.91 12.7802 228.43 14.2702 229.26 15.4302C230.09 16.5902 231.08 17.4101 232.24 17.8701L232.33 17.71ZM223.31 2.81006V3.00977H232.13V2.81006H223.31ZM239.78 10.8701C239.92 11.0601 239.98 11.3001 239.98 11.5801C239.98 11.7401 239.97 11.8702 239.96 11.9702L239.67 12.0098C239.53 11.6598 239.32 11.4298 239.03 11.3398C238.74 11.2498 238.3 11.2002 237.71 11.2002H237.42V17.8301C237.42 18.3101 237.56 18.7301 237.85 19.1001C238.13 19.4701 238.48 19.7 238.89 19.79L238.85 20.0801C238.61 20.1501 238.36 20.1802 238.12 20.1802C237.73 20.1802 237.37 20.1102 237.06 19.9502C236.75 19.8002 236.53 19.5698 236.41 19.2598C236.29 19.5698 236.07 19.8002 235.76 19.9502C235.45 20.1002 235.09 20.1802 234.7 20.1802C234.46 20.1802 234.21 20.1501 233.97 20.0801L233.93 19.79C234.34 19.7 234.68 19.4601 234.97 19.1001C235.26 18.7301 235.4 18.3101 235.4 17.8301V3.33984C235.4 2.85984 235.26 2.43982 234.97 2.06982C234.68 1.69982 234.34 1.46988 233.93 1.37988L233.97 1.08984C234.21 1.01984 234.46 0.990234 234.7 0.990234C235.09 0.990234 235.45 1.06996 235.76 1.20996C236.07 1.35996 236.29 1.5899 236.41 1.8999C236.53 1.5899 236.75 1.35996 237.06 1.20996C237.37 1.05996 237.73 0.990234 238.12 0.990234C238.36 0.990234 238.61 1.01984 238.85 1.08984L238.89 1.37988C238.48 1.46988 238.13 1.70982 237.85 2.06982C237.56 2.43982 237.42 2.85984 237.42 3.33984V9.47998H237.71C238.29 9.47998 238.73 9.42984 239.03 9.33984C239.32 9.24984 239.54 9.01992 239.67 8.66992L239.96 8.70996C239.97 8.79996 239.98 8.9301 239.98 9.1001C239.98 9.3901 239.91 9.62006 239.78 9.81006C239.64 10.0001 239.43 10.1798 239.15 10.3398C239.44 10.4998 239.65 10.6801 239.78 10.8701ZM236.31 18.8501H236.51V2.31982H236.31V18.8501ZM237.44 10.4399H238.74V10.2402H237.44V10.4399Z" fill="black"/>
<path d="M3.28999 43.9502H1.94V30.48H0.610001V28.9102H1.94V27.5801H7.53V28.9102H8.88V31.6099H10.23V35.8599H8.89999V37H10.23V42.6001H8.88V43.9502H7.53V45.2798H3.28999V43.9502ZM4.86 30.48V42.3799H7.31V37.21H6V35.6602H7.3V31.8198H5.97V30.4902H4.86V30.48Z" fill="black"/>
<path d="M11.98 30.4902H10.65V28.9102H13.32V27.5801H14.87V43.9399H13.54V45.27H11.97V30.4902H11.98Z" fill="black"/>
<path d="M16.63 43.9502H15.3V42.3799H16.63V41.0498H18.2V42.3799H22V39.9102H20.67V38.5601H19.32V37.21H17.97V35.8599H16.62V34.5098H15.29V30.2598H16.62V28.9102H17.97V27.5801H22.21V28.9102H23.56V30.48H22.21V31.8101H20.66V30.48H18.19V32.9502H19.54V34.2998H20.89V35.6499H22.22V37H23.57V38.3501H24.92V42.6001H23.57V43.9502H20.9V45.2798H16.63V43.9502Z" fill="black"/>
<path d="M26.67 37.2002H25.34V35.6499H26.67V30.4902H25.34V28.9199H26.67V27.5898H34.96V29.1401H33.61V30.4902H29.59V34.3101H34.96V35.8599H33.61V37.21H29.59V42.3901H34.96V43.96H33.61V45.29H26.67V37.2002Z" fill="black"/>
<path d="M35.39 41.0298H36.72V38.3501H38.07V35.8599H36.72V31.8198H35.39V27.5898H38.29V31.6299H39.64V32.96H40.76V31.6299H42.11V27.5898H45.01V29.1401H43.66V31.8198H42.31V34.52H40.98V37.0098H42.31V39.6899H43.66V42.3901H45V43.96H43.65V45.29H42.1V43.96H40.75V39.9199H39.4V38.5898H38.28V41.2598H36.93V43.73H38.26V45.2798H35.38V41.0298H35.39Z" fill="black"/>
<path d="M46.75 43.9507H45.42V28.9106H46.75V27.5806H48.32V42.3706H50.79V28.9004H52.14V27.5703H53.69V42.3604H55.04V43.9307H52.35V45.2603H50.8V43.9307H49.68V45.2603H46.76V43.9507H46.75Z" fill="black"/>
<path d="M56.79 37.2002H55.46V35.6499H56.79V30.4902H55.46V28.9199H56.79V27.5898H65.08V29.1401H63.73V30.4902H59.71V34.3101H65.08V35.8599H63.73V37.21H59.71V42.3901H65.08V43.96H63.73V45.29H56.79V37.2002Z" fill="black"/>
<path d="M66.83 30.4902H65.5V28.9199H68.17V27.5898H69.74V42.3799H75.11V43.9502H73.76V45.2798H66.82V30.4902H66.83Z" fill="black"/>
<path d="M78.26 41.501C78.26 40.701 78.12 40.1308 77.84 39.8008C77.56 39.4708 77.07 39.2712 76.36 39.2212V38.731C77.07 38.681 77.56 38.4809 77.84 38.1509C78.12 37.8209 78.26 37.2512 78.26 36.4512H78.83C78.83 37.2512 78.97 37.8209 79.25 38.1509C79.53 38.4809 80.02 38.681 80.73 38.731V39.2212C80.02 39.2812 79.53 39.4708 79.25 39.8008C78.97 40.1308 78.83 40.701 78.83 41.501H78.26Z" fill="black"/>
<path d="M83.28 30.4902H81.95V28.9199H84.62V27.5898H86.19V42.3799H91.56V43.9502H90.21V45.2798H83.27V30.4902H83.28Z" fill="black"/>
<path d="M93.32 37.2002H91.99V35.6499H93.32V30.4902H91.99V28.9199H93.32V27.5898H101.61V29.1401H100.26V30.4902H96.24V34.3101H101.61V35.8599H100.26V37.21H96.24V42.3901H101.61V43.96H100.26V45.29H93.32V37.2002Z" fill="black"/>
<path d="M114.91 43.9307H113.56V42.5806H112.23V35.6406H113.56V34.2905H116.25V32.9404H119.15V34.2905H121.84V37.1904H120.49V38.5405H119.14V39.8706H116.26V38.3403H118.91V35.8706H115.12V41.0103H116.47V42.3604L120.49 42.3804V43.9307H117.82V45.2803H114.9V43.9307H114.91Z" fill="black"/>
<path d="M126.3 43.9307H124.95V37.2007H122.28V35.6504H123.61V34.3003H124.96V30.2603H126.31V28.9307H127.88V34.3003H131.9V35.8506H130.55V37.2007H127.88V42.3604L130.55 42.3804V43.9307H129.2V45.2803H126.3V43.9307Z" fill="black"/>
<path d="M143.85 30.48H142.52V28.9102H143.85V27.5801H149.44V28.9102H150.79V31.6001H152.14V37.1899H150.79V38.52H147.91V36.9902H149.21V31.8101H147.88V30.48H146.76V43.9502H145.41V45.2798H143.84V30.48H143.85Z" fill="black"/>
<path d="M152.56 35.6504H153.89V31.6006H155.24V28.9004H156.59V27.5703H158.16V28.9004H159.49V31.6006H160.84V35.6504H162.19V43.9404H160.84V45.2705H159.29V41.2505H155.47V43.9404H154.12V45.2705H152.57V35.6504H152.56ZM155.46 35.8506V38.3203H159.25V35.8506H157.92V31.8306H156.8V35.8506H155.46Z" fill="black"/>
<path d="M163.93 30.4902H162.6V27.5898H166.84V30.2598H168.19V32.9302H169.31V28.9102H170.66V27.5801H172.21V45.27H170.66V42.6001H169.31V39.9102H167.96V37.2402H166.84V43.9502H165.49V45.2798H163.92V30.4902H163.93Z" fill="black"/>
<path d="M173.97 43.9502H172.64V42.3799H173.97V41.0498H175.54V42.3799H179.33V39.9102H178V38.5601H176.65V37.21H175.3V35.8599H173.95V34.5098H172.62V30.2598H173.95V28.9102H175.3V27.5801H179.54V28.9102H180.89V30.48H179.54V31.8101H177.99V30.48H175.52V32.9502H176.87V34.2998H178.22V35.6499H179.55V37H180.9V38.3501H182.25V42.6001H180.9V43.9502H178.23V45.2798H173.96V43.9502H173.97Z" fill="black"/>
<path d="M184.01 37.2002H182.68V35.6499H184.01V30.4902H182.68V28.9199H184.01V27.5898H192.3V29.1401H190.95V30.4902H186.93V34.3101H192.3V35.8599H190.95V37.21H186.93V42.3901H192.3V43.96H190.95V45.29H184.01V37.2002Z" fill="black"/>
<path d="M192.72 41.0298H194.05V38.3501H195.4V35.8599H194.05V31.8198H192.72V27.5898H195.62V31.6299H196.97V32.96H198.09V31.6299H199.44V27.5898H202.34V29.1401H200.99V31.8198H199.64V34.52H198.31V37.0098H199.64V39.6899H200.99V42.3901H202.34V43.96H200.99V45.29H199.44V43.96H198.09V39.9199H196.74V38.5898H195.62V41.2598H194.27V43.73H195.6V45.2798H192.72V41.0298Z" fill="black"/>
<path d="M204.09 43.9507H202.76V28.9106H204.09V27.5806H205.66V42.3706H208.13V28.9004H209.48V27.5703H211.03V42.3604H212.38V43.9307H209.69V45.2603H208.14V43.9307H207.02V45.2603H204.1V43.9507H204.09Z" fill="black"/>
<path d="M214.13 37.2002H212.8V35.6499H214.13V30.4902H212.8V28.9199H214.13V27.5898H222.42V29.1401H221.07V30.4902H217.05V34.3101H222.42V35.8599H221.07V37.21H217.05V42.3901H222.42V43.96H221.07V45.29H214.13V37.2002Z" fill="black"/>
<path d="M224.17 30.4902H222.84V28.9199H225.51V27.5898H227.08V42.3799H232.45V43.9502H231.1V45.2798H224.16V30.4902H224.17Z" fill="black"/>
<path d="M235.6 41.501C235.6 40.701 235.46 40.1308 235.18 39.8008C234.9 39.4708 234.41 39.2712 233.7 39.2212V38.731C234.41 38.681 234.9 38.4809 235.18 38.1509C235.46 37.8209 235.6 37.2512 235.6 36.4512H236.17C236.17 37.2512 236.31 37.8209 236.59 38.1509C236.87 38.4809 237.36 38.681 238.07 38.731V39.2212C237.36 39.2812 236.87 39.4708 236.59 39.8008C236.31 40.1308 236.17 40.701 236.17 41.501H235.6Z" fill="black"/>
<path d="M240.62 30.4902H239.29V28.9199H241.96V27.5898H243.53V42.3799H248.9V43.9502H247.55V45.2798H240.61V30.4902H240.62Z" fill="black"/>
<path d="M250.66 37.2002H249.33V35.6499H250.66V30.4902H249.33V28.9199H250.66V27.5898H258.95V29.1401H257.6V30.4902H253.58V34.3101H258.95V35.8599H257.6V37.21H253.58V42.3901H258.95V43.96H257.6V45.29H250.66V37.2002Z" fill="black"/>
</svg>
