<svg width="148" height="45" viewBox="0 0 148 45" fill="none" xmlns="http://www.w3.org/2000/svg">
<path d="M39.47 17.6902C38.72 17.2602 38.13 16.5202 37.71 15.4702C37.29 14.4302 37.05 13.0202 37 11.2402C36.99 10.7902 36.8801 10.4302 36.6801 10.1702C36.4801 9.90017 36.13 9.73015 35.63 9.65015V9.32031C36.13 9.24031 36.4801 9.07029 36.6801 8.80029C36.8801 8.53029 36.98 8.18022 37 7.73022C37.06 5.95022 37.29 4.54024 37.71 3.50024C38.13 2.46024 38.72 1.72028 39.47 1.29028C40.23 0.860283 41.1699 0.640137 42.3199 0.640137C43.4599 0.640137 44.4201 0.860283 45.1801 1.29028C45.9401 1.73028 46.53 2.46024 46.95 3.50024C47.37 4.54024 47.6 5.95022 47.64 7.73022C47.65 8.18022 47.76 8.54029 47.96 8.80029C48.16 9.07029 48.51 9.24031 49.01 9.32031V9.65015C48.51 9.73015 48.16 9.90017 47.96 10.1702C47.76 10.4402 47.66 10.7902 47.64 11.2402C47.6 13.0202 47.37 14.4302 46.95 15.4702C46.53 16.5102 45.9401 17.2502 45.1801 17.6902C44.4201 18.1302 43.4699 18.3403 42.3199 18.3403C41.1699 18.3403 40.23 18.1202 39.47 17.6902ZM44.86 17.0002C45.48 16.5602 45.94 15.7603 46.26 14.5803C46.57 13.4003 46.73 11.7102 46.73 9.49023C46.73 7.27023 46.57 5.58015 46.26 4.40015C45.95 3.22015 45.48 2.42022 44.86 1.98022C44.24 1.55022 43.3899 1.33032 42.3199 1.33032C41.2499 1.33032 40.4 1.55022 39.78 1.98022C39.16 2.41022 38.7 3.22015 38.38 4.40015C38.07 5.58015 37.91 7.27023 37.91 9.49023C37.91 11.7102 38.07 13.4103 38.38 14.5803C38.69 15.7603 39.16 16.5602 39.78 17.0002C40.4 17.4302 41.2499 17.6501 42.3199 17.6501C43.3899 17.6501 44.24 17.4302 44.86 17.0002ZM39.89 16.8103C39.29 16.3903 38.85 15.6102 38.55 14.4602C38.25 13.3102 38.11 11.6602 38.11 9.48022C38.11 7.30022 38.26 5.64024 38.55 4.50024C38.84 3.36024 39.29 2.57015 39.89 2.15015C40.49 1.73015 41.2999 1.52026 42.3199 1.52026C43.3399 1.52026 44.15 1.73015 44.75 2.15015C45.35 2.57015 45.79 3.36024 46.09 4.50024C46.38 5.64024 46.53 7.30022 46.53 9.48022C46.53 11.6602 46.38 13.3202 46.09 14.4602C45.8 15.6002 45.35 16.3803 44.75 16.8103C44.15 17.2303 43.3399 17.4402 42.3199 17.4402C41.2999 17.4402 40.49 17.2303 39.89 16.8103ZM44.1899 16.1003C44.6499 15.7703 44.99 15.2102 45.21 14.4102C45.43 13.6102 45.54 12.4702 45.54 11.0002C45.54 10.6102 45.42 10.3003 45.17 10.0703C44.93 9.84031 44.52 9.71015 43.95 9.65015V9.32031C44.52 9.26031 44.93 9.12015 45.17 8.90015C45.41 8.68015 45.54 8.37021 45.54 7.97021C45.54 6.50021 45.43 5.3703 45.21 4.5603C44.99 3.7603 44.6499 3.19036 44.1899 2.87036C43.7299 2.54036 43.1001 2.38013 42.3101 2.38013C41.5201 2.38013 40.9001 2.54036 40.4301 2.87036C39.9701 3.20036 39.63 3.7603 39.41 4.5603C39.19 5.3603 39.08 6.50021 39.08 7.97021C39.08 8.36022 39.2 8.67015 39.45 8.90015C39.7 9.13015 40.1 9.26031 40.67 9.32031V9.65015C40.1 9.71015 39.69 9.84031 39.45 10.0703C39.21 10.2903 39.08 10.6002 39.08 11.0002C39.08 12.4702 39.19 13.6002 39.41 14.4102C39.63 15.2102 39.9701 15.7803 40.4301 16.1003C40.8901 16.4303 41.5201 16.5903 42.3101 16.5903C43.1101 16.5903 43.7299 16.4203 44.1899 16.1003ZM42.09 12.7102C42.09 11.7602 41.9999 11.0303 41.8199 10.5303C41.6399 10.0303 41.36 9.73013 40.98 9.63013V9.34033C41.36 9.25033 41.6399 8.9502 41.8199 8.4502C41.9999 7.9502 42.09 7.22025 42.09 6.26025H42.54C42.54 7.23025 42.63 7.9602 42.8 8.4502C42.98 8.9502 43.26 9.24033 43.64 9.34033V9.63013C43.26 9.72013 42.98 10.0203 42.8 10.5303C42.62 11.0303 42.54 11.7602 42.54 12.7102H42.09ZM48.7 18.9102C49.11 18.8202 49.46 18.5802 49.74 18.2202C50.03 17.8502 50.17 17.4302 50.17 16.9502V2.46021C50.17 1.98021 50.03 1.56019 49.74 1.19019C49.45 0.820186 49.11 0.590244 48.7 0.500244L48.74 0.210205C48.98 0.140205 49.23 0.110352 49.47 0.110352C49.86 0.110352 50.22 0.180332 50.53 0.340332C50.84 0.490332 51.0601 0.720273 51.1801 1.03027C51.3001 0.720273 51.52 0.490332 51.83 0.340332C52.14 0.190332 52.5 0.110352 52.89 0.110352C53.13 0.110352 53.38 0.140205 53.62 0.210205L53.66 0.500244C53.25 0.590244 52.91 0.830186 52.62 1.19019C52.33 1.56019 52.1899 1.98021 52.1899 2.46021V16.9502C52.1899 17.4302 52.33 17.8502 52.62 18.2202C52.91 18.5902 53.25 18.8202 53.66 18.9102L53.62 19.2002C53.38 19.2702 53.13 19.3003 52.89 19.3003C52.5 19.3003 52.14 19.2303 51.83 19.0803C51.52 18.9303 51.3001 18.7001 51.1801 18.3901C51.0601 18.7001 50.84 18.9303 50.53 19.0803C50.22 19.2303 49.86 19.3003 49.47 19.3003C49.23 19.3003 48.98 19.2702 48.74 19.2002L48.7 18.9102ZM51.3 1.4502H51.09V17.9802H51.3V1.4502Z" fill="black"/>
<path d="M60.23 8.49023C59.66 8.94023 58.8999 9.27023 57.9399 9.49023C57.4499 9.60023 57.04 9.76022 56.72 9.98022C56.39 10.2002 56.2 10.4603 56.15 10.7603L55.86 10.7803C55.76 10.5803 55.72 10.3601 55.72 10.1301C55.72 9.89013 55.78 9.6602 55.9 9.46021C56.02 9.26021 56.18 9.0902 56.39 8.9502C56.01 8.85019 55.72 8.68019 55.53 8.44019C55.34 8.20019 55.22 7.86019 55.16 7.44019L55.42 7.32031C55.58 7.54031 55.7599 7.69027 55.9399 7.78027C56.1199 7.87027 56.35 7.91016 56.62 7.91016C56.91 7.91016 57.18 7.88032 57.46 7.83032C58.45 7.69032 59.2 7.35029 59.7 6.80029C60.2 6.25029 60.45 5.46017 60.45 4.42017V2.89014C60.45 2.41014 60.3 1.99036 60.01 1.62036C59.72 1.25036 59.37 1.02017 58.96 0.920166L59 0.640137C59.24 0.570137 59.49 0.540283 59.73 0.540283C60.12 0.540283 60.48 0.610254 60.79 0.760254C61.1 0.910254 61.3199 1.1402 61.4399 1.4502C61.5599 1.1402 61.78 0.910254 62.09 0.760254C62.4 0.610254 62.76 0.540283 63.15 0.540283C63.39 0.540283 63.64 0.580137 63.88 0.640137L63.92 0.920166C63.51 1.01017 63.16 1.25036 62.86 1.62036C62.56 1.99036 62.41 2.41014 62.41 2.89014V4.42017C62.41 5.46017 62.6601 6.25029 63.1801 6.80029C63.6901 7.35029 64.4401 7.69032 65.4301 7.83032C65.7001 7.89032 65.98 7.91016 66.27 7.91016C66.54 7.91016 66.77 7.87027 66.95 7.78027C67.13 7.69027 67.31 7.54031 67.47 7.32031L67.73 7.44019C67.68 7.86019 67.55 8.20019 67.36 8.44019C67.17 8.68019 66.88 8.85019 66.5 8.9502C66.7 9.0902 66.87 9.26021 66.99 9.46021C67.11 9.6602 67.17 9.89013 67.17 10.1301C67.17 10.3601 67.12 10.5803 67.03 10.7803L66.74 10.7603C66.69 10.4603 66.5 10.2002 66.17 9.98022C65.84 9.76022 65.44 9.60023 64.95 9.49023C64 9.27023 63.23 8.94024 62.65 8.50024C62.07 8.06024 61.65 7.5803 61.39 7.0603C61.21 7.5603 60.8 8.04023 60.23 8.49023ZM72.55 14.8901C72.72 15.0501 72.99 15.1602 73.36 15.2202V15.5303C72.99 15.5903 72.72 15.6904 72.55 15.8604C72.38 16.0204 72.19 16.3002 71.99 16.7002C71.57 17.5202 70.7999 18.1802 69.6899 18.6902C68.5799 19.2002 67.03 19.4602 65.03 19.4602C63.03 19.4602 61.47 19.2102 60.37 18.6902C59.26 18.1802 58.4999 17.5202 58.0699 16.7002C57.8699 16.3102 57.68 16.0304 57.51 15.8604C57.34 15.7004 57.07 15.5903 56.7 15.5303V15.2202C57.07 15.1702 57.34 15.0601 57.51 14.8901C57.68 14.7301 57.8699 14.4503 58.0699 14.0503C58.4899 13.2303 59.26 12.5703 60.37 12.0603C61.48 11.5503 63.03 11.2903 65.03 11.2903C67.03 11.2903 68.5799 11.5403 69.6899 12.0603C70.7999 12.5703 71.56 13.2303 71.99 14.0503C72.19 14.4503 72.38 14.7301 72.55 14.8901ZM56.8 8.98022C57.96 8.82022 58.99 8.44035 59.89 7.86035C60.8 7.27035 61.32 6.48023 61.45 5.49023C61.59 6.48023 62.11 7.27035 63.02 7.86035C63.93 8.44035 64.97 8.82022 66.14 8.98022L66.1801 8.82031C64.8101 8.59031 63.69 8.15023 62.83 7.49023C61.97 6.84023 61.54 5.9102 61.54 4.71021V1.85034H61.33V4.71021C61.33 5.9102 60.9101 6.83023 60.0601 7.49023C59.2201 8.14023 58.11 8.59031 56.73 8.82031L56.8 8.98022ZM69.86 17.9202C70.91 17.3802 71.4399 16.5304 71.4399 15.3604C71.4399 14.2004 70.91 13.3603 69.86 12.8203C68.81 12.2803 67.2 12.0103 65.03 12.0103C62.87 12.0103 61.26 12.2803 60.2 12.8203C59.15 13.3603 58.62 14.2004 58.62 15.3604C58.62 16.5304 59.15 17.3802 60.2 17.9202C61.25 18.4602 62.86 18.7302 65.03 18.7302C67.19 18.7302 68.8 18.4602 69.86 17.9202ZM69.71 12.9802C70.72 13.4802 71.23 14.2804 71.23 15.3704C71.23 16.4604 70.72 17.2603 69.71 17.7703C68.7 18.2803 67.13 18.5303 65.03 18.5303C62.92 18.5303 61.36 18.2803 60.35 17.7703C59.34 17.2603 58.83 16.4604 58.83 15.3704C58.83 14.2804 59.34 13.4802 60.35 12.9802C61.36 12.4802 62.92 12.2302 65.03 12.2302C67.14 12.2202 68.7 12.4702 69.71 12.9802ZM69.9399 15.8403C69.8199 15.7503 69.63 15.6902 69.37 15.6602C69.1 15.6302 68.68 15.5803 68.09 15.5303V15.2202C68.68 15.1702 69.1 15.1203 69.37 15.0903C69.63 15.0603 69.8199 15.0002 69.9399 14.9102C70.0599 14.8202 70.09 14.6903 70.05 14.5103C69.98 14.2803 69.76 14.0403 69.39 13.8103C69.01 13.5703 68.46 13.3702 67.73 13.2002C67 13.0302 66.1 12.9502 65.04 12.9502C63.98 12.9502 63.08 13.0302 62.35 13.2002C61.62 13.3702 61.0599 13.5703 60.6899 13.8103C60.3199 14.0503 60.1 14.2803 60.03 14.5103C59.99 14.6903 60.03 14.8202 60.14 14.9102C60.25 15.0002 60.45 15.0603 60.71 15.0903C60.97 15.1303 61.4 15.1702 61.99 15.2202V15.5303C61.4 15.5903 60.98 15.6302 60.71 15.6602C60.44 15.6902 60.25 15.7603 60.14 15.8403C60.02 15.9303 59.99 16.0602 60.03 16.2402C60.1 16.4702 60.3199 16.7002 60.6899 16.9402C61.0699 17.1802 61.62 17.3803 62.35 17.5503C63.08 17.7203 63.98 17.8003 65.04 17.8003C66.1 17.8003 67 17.7203 67.73 17.5503C68.46 17.3803 69.02 17.1702 69.39 16.9402C69.76 16.7002 69.98 16.4702 70.05 16.2402C70.09 16.0602 70.0499 15.9303 69.9399 15.8403ZM65.35 6.0603C65.32 5.6903 65.37 5.40018 65.5 5.18018C65.63 4.96018 65.85 4.79017 66.16 4.67017C65.85 4.55017 65.63 4.38016 65.5 4.16016C65.37 3.94016 65.32 3.65027 65.35 3.28027L65.64 3.22021C65.75 3.48021 65.93 3.65021 66.17 3.72021C66.41 3.79021 66.79 3.83032 67.29 3.83032H69.5601V2.46021C69.5601 1.98021 69.42 1.56019 69.13 1.19019C68.84 0.820186 68.5 0.590244 68.09 0.500244L68.13 0.210205C68.37 0.140205 68.62 0.110352 68.86 0.110352C69.25 0.110352 69.61 0.180332 69.92 0.340332C70.23 0.490332 70.4499 0.720273 70.5699 1.03027C70.6899 0.720273 70.91 0.490332 71.22 0.340332C71.53 0.190332 71.89 0.110352 72.28 0.110352C72.52 0.110352 72.77 0.140205 73.01 0.210205L73.05 0.500244C72.64 0.590244 72.3 0.830186 72.01 1.19019C71.72 1.56019 71.58 1.98021 71.58 2.46021V8.5603C71.58 9.0403 71.72 9.46032 72.01 9.83032C72.3 10.2003 72.64 10.4303 73.05 10.5203L73.01 10.8103C72.77 10.8803 72.52 10.9102 72.28 10.9102C71.89 10.9102 71.53 10.8402 71.22 10.6902C70.91 10.5402 70.6899 10.3102 70.5699 10.0002C70.4499 10.3102 70.23 10.5402 69.92 10.6902C69.61 10.8402 69.25 10.9102 68.86 10.9102C68.62 10.9102 68.37 10.8803 68.13 10.8103L68.09 10.5203C68.5 10.4303 68.85 10.1903 69.13 9.83032C69.42 9.46032 69.5601 9.0403 69.5601 8.5603V5.50024H67.29C66.79 5.50024 66.41 5.54035 66.17 5.61035C65.93 5.69035 65.75 5.85035 65.64 6.11035L65.35 6.0603ZM69.5601 4.57031H66.58V4.77026H69.5601V4.57031ZM70.6801 1.4502H70.47V9.59033H70.6801V1.4502Z" fill="black"/>
<path d="M85.03 9.65039C84.53 9.73039 84.18 9.90041 83.98 10.1704C83.78 10.4404 83.68 10.7905 83.66 11.2405C83.61 13.0405 83.42 14.4505 83.1 15.4805C82.78 16.5105 82.33 17.2504 81.75 17.6804C81.17 18.1104 80.4401 18.3306 79.5601 18.3306C78.6801 18.3306 77.95 18.1104 77.37 17.6804C76.79 17.2504 76.34 16.5105 76.02 15.4805C75.7 14.4505 75.51 13.0305 75.46 11.2405C75.45 10.7905 75.34 10.4304 75.14 10.1704C74.94 9.90041 74.59 9.73039 74.09 9.65039V9.32056C74.59 9.24056 74.94 9.07054 75.14 8.80054C75.34 8.53054 75.44 8.18047 75.46 7.73047C75.51 5.93047 75.7 4.52048 76.02 3.49048C76.34 2.46048 76.79 1.72052 77.37 1.28052C77.95 0.850518 78.6801 0.630371 79.5601 0.630371C80.4401 0.630371 81.17 0.850518 81.75 1.28052C82.33 1.72052 82.78 2.45048 83.1 3.49048C83.42 4.52048 83.61 5.94047 83.66 7.73047C83.67 8.18047 83.78 8.54054 83.98 8.80054C84.18 9.07054 84.53 9.24056 85.03 9.32056V9.65039ZM81.4301 16.9905C81.9001 16.5505 82.26 15.7405 82.5 14.5605C82.74 13.3805 82.87 11.6905 82.87 9.49048C82.87 7.29048 82.75 5.60041 82.5 4.42041C82.26 3.24041 81.9001 2.43048 81.4301 1.99048C80.9601 1.55048 80.3401 1.33057 79.5601 1.33057C78.7801 1.33057 78.1599 1.55048 77.6899 1.99048C77.2199 2.43048 76.86 3.24041 76.62 4.42041C76.38 5.60041 76.25 7.29048 76.25 9.49048C76.25 11.6905 76.37 13.3805 76.62 14.5605C76.87 15.7405 77.2199 16.5505 77.6899 16.9905C78.1599 17.4305 78.7801 17.6504 79.5601 17.6504C80.3401 17.6504 80.9601 17.4305 81.4301 16.9905ZM81.3 2.1604C81.74 2.5804 82.0801 3.37051 82.3101 4.52051C82.5401 5.67051 82.66 7.33048 82.66 9.49048C82.66 11.6505 82.5401 13.3104 82.3101 14.4604C82.0801 15.6104 81.74 16.3906 81.3 16.8206C80.86 17.2406 80.28 17.4504 79.55 17.4504C78.83 17.4504 78.25 17.2406 77.8 16.8206C77.36 16.4006 77.02 15.6104 76.79 14.4604C76.56 13.3104 76.4399 11.6505 76.4399 9.49048C76.4399 7.33048 76.56 5.67051 76.79 4.52051C77.02 3.37051 77.36 2.5804 77.8 2.1604C78.24 1.7404 78.82 1.53052 79.55 1.53052C80.28 1.53052 80.86 1.7404 81.3 2.1604ZM81.5 10.0706C81.34 9.84056 81.07 9.71039 80.7 9.65039V9.32056C81.07 9.26056 81.33 9.12039 81.5 8.90039C81.66 8.68039 81.74 8.37046 81.74 7.97046C81.74 6.49046 81.67 5.35054 81.54 4.55054C81.4 3.75054 81.18 3.19061 80.87 2.87061C80.56 2.54061 80.1201 2.38037 79.5601 2.38037C79.0001 2.38037 78.57 2.54061 78.25 2.87061C77.94 3.20061 77.71 3.76054 77.58 4.55054C77.44 5.35054 77.38 6.48046 77.38 7.97046C77.38 8.36046 77.46 8.67039 77.62 8.90039C77.78 9.12039 78.05 9.26056 78.42 9.32056V9.65039C78.05 9.71039 77.79 9.84056 77.62 10.0706C77.46 10.2906 77.38 10.6005 77.38 11.0005C77.38 12.4805 77.45 13.6204 77.58 14.4204C77.72 15.2204 77.94 15.7806 78.25 16.1006C78.56 16.4306 79.0001 16.5906 79.5601 16.5906C80.1201 16.5906 80.55 16.4306 80.87 16.1006C81.18 15.7706 81.41 15.2104 81.54 14.4204C81.68 13.6204 81.74 12.4905 81.74 11.0005C81.74 10.6005 81.66 10.2906 81.5 10.0706ZM79.72 6.2605C79.72 7.0505 79.74 7.65056 79.78 8.07056C79.82 8.48056 79.89 8.79047 80 8.98047C80.11 9.17047 80.26 9.30061 80.45 9.37061V9.62061C80.26 9.69061 80.11 9.8205 80 10.0105C79.89 10.2005 79.82 10.5104 79.78 10.9304C79.74 11.3504 79.72 11.9505 79.72 12.7305H79.39C79.39 11.9505 79.37 11.3604 79.33 10.9304C79.29 10.5104 79.22 10.2005 79.11 10.0105C79 9.8205 78.85 9.69061 78.66 9.62061V9.37061C78.85 9.30061 79 9.17047 79.11 8.98047C79.22 8.79047 79.29 8.49056 79.33 8.07056C79.37 7.66056 79.39 7.0505 79.39 6.2605H79.72ZM91.6801 17.0205C91.6801 17.5005 91.8 17.9105 92.04 18.2505C92.28 18.6005 92.5701 18.8204 92.9301 18.9304L92.89 19.2205C92.7 19.2605 92.5 19.2805 92.3 19.2805C91.95 19.2805 91.63 19.2105 91.34 19.0605C91.06 18.9205 90.85 18.6904 90.73 18.3804C90.61 18.6904 90.4 18.9205 90.12 19.0605C89.84 19.2005 89.52 19.2805 89.16 19.2805C88.96 19.2805 88.7599 19.2605 88.5699 19.2205L88.53 18.9304C88.88 18.8204 89.18 18.5905 89.42 18.2505C89.66 17.9005 89.78 17.4905 89.78 17.0205V10.3306H88.11H87.4399V16.9204C87.4399 17.3304 87.53 17.6704 87.71 17.9504C87.89 18.2304 88.12 18.4105 88.4 18.5105L88.36 18.7705C88.24 18.8105 88.11 18.8306 87.97 18.8306C87.68 18.8306 87.4 18.7606 87.11 18.6106C86.83 18.4606 86.62 18.2605 86.5 18.0005C86.38 18.2605 86.17 18.4606 85.89 18.6106C85.6 18.7606 85.32 18.8306 85.03 18.8306C84.89 18.8306 84.76 18.8105 84.64 18.7705L84.6 18.5105C84.89 18.4105 85.12 18.2304 85.29 17.9504C85.47 17.6704 85.5601 17.3304 85.5601 16.9204V2.43042C85.5601 2.02042 85.47 1.68039 85.29 1.40039C85.11 1.12039 84.88 0.930576 84.6 0.840576L84.64 0.570557C84.76 0.530557 84.89 0.510498 85.03 0.510498C85.32 0.510498 85.6 0.590479 85.89 0.740479C86.18 0.890478 86.38 1.09059 86.5 1.35059C86.62 1.09059 86.83 0.890478 87.11 0.740479C87.4 0.590479 87.68 0.510498 87.97 0.510498C88.11 0.510498 88.23 0.530557 88.36 0.570557L88.4 0.840576C88.11 0.930576 87.88 1.12039 87.71 1.40039C87.53 1.68039 87.4399 2.02042 87.4399 2.43042V8.6106H88.11H89.78V2.4104C89.78 1.9304 89.66 1.52042 89.42 1.18042C89.18 0.83042 88.89 0.610488 88.53 0.500488L88.5699 0.210449C88.7499 0.170449 88.94 0.150391 89.16 0.150391C89.51 0.150391 89.83 0.220596 90.12 0.360596C90.41 0.500596 90.61 0.730527 90.73 1.04053C90.85 0.730527 91.06 0.500596 91.34 0.360596C91.63 0.220596 91.95 0.150391 92.3 0.150391C92.5 0.150391 92.7 0.170449 92.89 0.210449L92.9301 0.500488C92.5801 0.610488 92.28 0.84042 92.04 1.18042C91.8 1.53042 91.6801 1.9404 91.6801 2.4104V17.0205ZM86.38 17.5906H86.58V1.75049H86.38V17.5906ZM87.42 9.3606V9.56055H89.77V9.3606H87.42ZM90.62 17.9805H90.8199V1.45044H90.62V17.9805Z" fill="black"/>
<path d="M106.15 15.53C106.09 15.95 105.97 16.29 105.78 16.53C105.59 16.77 105.3 16.94 104.92 17.04C105.29 17.39 105.47 17.7501 105.47 18.1201C105.47 18.3401 105.41 18.5899 105.29 18.8799L105 18.8601C104.97 18.6301 104.87 18.44 104.7 18.29C104.53 18.14 104.25 17.96 103.87 17.74C103.8 17.7 103.73 17.6601 103.65 17.6101C103.57 17.5601 103.47 17.5099 103.36 17.4399C102.43 16.8499 101.67 16.14 101.07 15.3C100.47 14.46 100.09 13.6499 99.9301 12.8899C99.7701 13.6499 99.39 14.46 98.79 15.3C98.19 16.14 97.43 16.8599 96.5 17.4399C96.39 17.5099 96.3 17.5601 96.21 17.6101C96.13 17.6601 96.05 17.7 95.99 17.74C95.61 17.96 95.33 18.14 95.16 18.29C94.99 18.44 94.89 18.6301 94.86 18.8601L94.5699 18.8799C94.4499 18.5899 94.39 18.3401 94.39 18.1201C94.39 17.7401 94.5699 17.38 94.9399 17.04C94.5599 16.94 94.27 16.77 94.08 16.53C93.89 16.29 93.77 15.95 93.71 15.53L93.98 15.4099C94.21 15.7399 94.51 15.8999 94.88 15.8999C95.19 15.8999 95.57 15.78 96 15.55C96.75 15.16 97.43 14.38 98.03 13.21C98.63 12.05 98.9399 10.3599 98.9399 8.15991V2.88989H96.53C95.95 2.88989 95.51 2.94003 95.21 3.03003C94.92 3.13003 94.6999 3.34995 94.5699 3.69995L94.28 3.65991C94.27 3.55991 94.26 3.44002 94.26 3.27002C94.26 2.98002 94.33 2.75006 94.46 2.56006C94.6 2.37006 94.81 2.19003 95.09 2.03003C94.8 1.87003 94.59 1.69 94.46 1.5C94.32 1.31 94.26 1.07003 94.26 0.780029C94.26 0.620029 94.27 0.489893 94.28 0.389893L94.5699 0.350098C94.7099 0.700098 94.92 0.930019 95.21 1.02002C95.5 1.11002 95.94 1.15991 96.53 1.15991H103.31C103.89 1.15991 104.33 1.11002 104.63 1.02002C104.92 0.92002 105.14 0.700098 105.27 0.350098L105.56 0.389893C105.57 0.489893 105.58 0.620029 105.58 0.780029C105.58 1.07003 105.51 1.3 105.38 1.5C105.24 1.69 105.03 1.87003 104.75 2.03003C105.04 2.19003 105.25 2.37006 105.38 2.56006C105.52 2.75006 105.58 2.99002 105.58 3.27002C105.58 3.43002 105.57 3.55991 105.56 3.65991L105.27 3.69995C105.13 3.34995 104.92 3.12003 104.63 3.03003C104.34 2.94003 103.9 2.88989 103.31 2.88989H100.9V8.15991C100.9 10.3599 101.2 12.05 101.81 13.21C102.42 14.37 103.09 15.15 103.84 15.55C104.27 15.78 104.65 15.8999 104.96 15.8999C105.33 15.8999 105.63 15.7399 105.86 15.4099L106.15 15.53ZM104.56 16.8301C103.25 16.3001 102.18 15.3399 101.33 13.9399C100.48 12.5399 100.05 10.7701 100.05 8.6001V2.88989H99.84V8.6001C99.84 10.7601 99.4201 12.5399 98.5601 13.9399C97.7101 15.3299 96.63 16.3001 95.33 16.8301L95.41 16.99C96.57 16.53 97.56 15.71 98.39 14.55C99.22 13.39 99.7399 11.9001 99.9399 10.0901C100.14 11.9001 100.66 13.38 101.49 14.55C102.32 15.71 103.31 16.53 104.47 16.99L104.56 16.8301ZM95.54 1.93994V2.13989H104.36V1.93994H95.54ZM112.01 10C112.15 10.19 112.21 10.43 112.21 10.71C112.21 10.87 112.2 11.0001 112.19 11.1001L111.9 11.1399C111.76 10.7899 111.55 10.56 111.26 10.47C110.97 10.38 110.53 10.3301 109.94 10.3301H109.65V16.96C109.65 17.44 109.79 17.86 110.08 18.23C110.36 18.6 110.71 18.8299 111.12 18.9199L111.08 19.21C110.84 19.28 110.59 19.3101 110.35 19.3101C109.96 19.3101 109.6 19.2401 109.29 19.0901C108.98 18.9401 108.76 18.7099 108.64 18.3999C108.52 18.7099 108.3 18.9401 107.99 19.0901C107.68 19.2401 107.32 19.3101 106.93 19.3101C106.69 19.3101 106.44 19.28 106.2 19.21L106.16 18.9199C106.57 18.8299 106.91 18.59 107.2 18.23C107.49 17.87 107.63 17.44 107.63 16.96V2.46997C107.63 1.98997 107.49 1.56995 107.2 1.19995C106.91 0.829951 106.57 0.60001 106.16 0.51001L106.2 0.219971C106.44 0.149971 106.69 0.120117 106.93 0.120117C107.32 0.120117 107.68 0.190098 107.99 0.350098C108.3 0.500098 108.52 0.730039 108.64 1.04004C108.76 0.730039 108.98 0.500098 109.29 0.350098C109.6 0.200098 109.96 0.120117 110.35 0.120117C110.59 0.120117 110.84 0.149971 111.08 0.219971L111.12 0.51001C110.71 0.60001 110.36 0.839951 110.08 1.19995C109.79 1.56995 109.65 1.98997 109.65 2.46997V8.61011H109.94C110.52 8.61011 110.96 8.55997 111.26 8.46997C111.55 8.37997 111.77 8.15005 111.9 7.80005L112.19 7.84009C112.2 7.93009 112.21 8.06998 112.21 8.22998C112.21 8.51998 112.14 8.74994 112.01 8.93994C111.87 9.12994 111.66 9.30997 111.38 9.46997C111.66 9.62997 111.87 9.81 112.01 10ZM108.54 17.98H108.74V1.44995H108.54V17.98ZM109.66 9.57007H110.96V9.37012H109.66V9.57007Z" fill="black"/>
<path d="M1.98999 36.3303H0.660034V34.7803H1.98999V29.6104H0.660034V28.0403H3.32996V26.7102H4.90002V33.4001H7.34998V29.6003H6.05005V28.0303H8.71997V26.7002H10.27V43.0603H8.92004V44.3901H7.37V36.3303H4.90002V43.0603H3.55005V44.3901H1.97998V36.3303H1.98999Z" fill="black"/>
<path d="M12.03 36.3201H10.7V34.77H12.03V29.6101H10.7V28.04H12.03V26.71H20.3199V28.26H18.97V29.6101H14.95V33.4299H20.3199V34.98H18.97V36.3301H14.95V41.51H20.3199V43.0801H18.97V44.4099H12.03V36.3201Z" fill="black"/>
<path d="M23.4399 30.73H24.75V29.6101H20.75V28.04H22.08V26.71H30.37V28.26H29.02V29.6101H26.35V43.0801H25V44.4099H23.45V30.73H23.4399Z" fill="black"/>
<path d="M32.11 36.3201H30.78V34.77H32.11V29.6101H30.78V28.04H32.11V26.71H40.4V28.26H39.05V29.6101H35.03V33.4299H40.4V34.98H39.05V36.3301H35.03V41.51H40.4V43.0801H39.05V44.4099H32.11V36.3201Z" fill="black"/>
<path d="M42.15 29.6101H40.8199V28.04H42.15V26.71H47.74V28.04H49.09V30.74H50.4399V34.99H49.11V36.1299H50.4399V43.0801H49.09V44.4099H47.54V36.3401H46.21V34.79H47.51V29.6201H45.0601V43.0901H43.71V44.4199H42.14V29.6101H42.15Z" fill="black"/>
<path d="M53.54 43.0601H52.1899V40.3701H50.86V32.0801H52.1899V30.75H53.76V40.1399H55.11V41.49L57.5601 41.51V30.9399H56.23V29.6101H52.21V28.04H53.54V26.71H57.78V28.04H59.13V30.73H60.48V41.71H59.13V43.0601H56.46V44.4099H53.54V43.0601Z" fill="black"/>
<path d="M62.23 43.0801H60.9V41.51H62.23V40.1799H63.8V41.51H67.59V39.04H66.26V37.6899H64.91V36.3401H63.5601V34.99H62.21V33.6399H60.88V29.3899H62.21V28.04H63.5601V26.71H67.8V28.04H69.15V29.6101H67.8V30.9399H66.25V29.6101H63.78V32.0801H65.13V33.4299H66.48V34.78H67.8101V36.1299H69.16V37.48H70.51V41.73H69.16V43.0801H66.49V44.4099H62.22V43.0801H62.23Z" fill="black"/>
<path d="M72.27 36.3201H70.9399V34.77H72.27V29.6101H70.9399V28.04H72.27V26.71H80.5601V28.26H79.21V29.6101H75.1899V33.4299H80.5601V34.98H79.21V36.3301H75.1899V41.51H80.5601V43.0801H79.21V44.4099H72.27V36.3201Z" fill="black"/>
<path d="M80.99 40.1501H82.3199V37.4702H83.67V34.9802H82.3199V30.9302H80.99V26.7002H83.89V30.7402H85.24V32.0703H86.36V30.7402H87.71V26.7002H90.61V28.2502H89.26V30.9202H87.91V33.6204H86.58V36.1104H87.91V38.7903H89.26V41.4902H90.61V43.0603H89.26V44.3901H87.71V43.0603H86.36V39.0203H85.01V37.6902H83.89V40.3604H82.54V42.8303H83.87V44.3801H80.99V40.1501Z" fill="black"/>
<path d="M92.35 43.0801H91.02V28.04H92.35V26.71H93.92V41.51H96.39V28.04H97.74V26.71H99.29V41.51H100.64V43.0801H97.95V44.4099H96.4V43.0801H95.28V44.4099H92.36V43.0801H92.35Z" fill="black"/>
<path d="M102.39 36.3201H101.06V34.77H102.39V29.6101H101.06V28.04H102.39V26.71H110.68V28.26H109.33V29.6101H105.31V33.4299H110.68V34.98H109.33V36.3301H105.31V41.51H110.68V43.0801H109.33V44.4099H102.39V36.3201Z" fill="black"/>
<path d="M112.43 29.6101H111.1V28.04H113.77V26.71H115.34V41.51H120.71V43.0801H119.36V44.4099H112.42V29.6101H112.43Z" fill="black"/>
<path d="M123.86 40.6299C123.86 39.8299 123.72 39.2599 123.44 38.9299C123.16 38.5999 122.67 38.4001 121.96 38.3501V37.8601C122.67 37.8101 123.16 37.61 123.44 37.28C123.72 36.95 123.86 36.3801 123.86 35.5801H124.43C124.43 36.3801 124.57 36.95 124.85 37.28C125.13 37.61 125.62 37.8101 126.33 37.8601V38.3501C125.62 38.4101 125.13 38.5999 124.85 38.9299C124.57 39.2599 124.43 39.8299 124.43 40.6299H123.86Z" fill="black"/>
<path d="M128.88 29.6101H127.55V28.04H130.22V26.71H131.79V41.51H137.16V43.0801H135.81V44.4099H128.87V29.6101H128.88Z" fill="black"/>
<path d="M138.92 36.3201H137.59V34.77H138.92V29.6101H137.59V28.04H138.92V26.71H147.21V28.26H145.86V29.6101H141.84V33.4299H147.21V34.98H145.86V36.3301H141.84V41.51H147.21V43.0801H145.86V44.4099H138.92V36.3201Z" fill="black"/>
</svg>
