<svg width="182" height="46" viewBox="0 0 182 46" fill="none" xmlns="http://www.w3.org/2000/svg">
<path d="M14.27 1.55029C13.98 1.65029 13.75 1.83035 13.58 2.11035C13.4 2.39035 13.3199 2.73014 13.3199 3.14014V17.6301C13.3199 18.0401 13.41 18.3802 13.58 18.6602C13.76 18.9402 13.99 19.1302 14.27 19.2202L14.23 19.4802C14.11 19.5202 13.98 19.5403 13.84 19.5403C13.56 19.5403 13.27 19.4603 12.98 19.3203C12.69 19.1703 12.49 18.9702 12.37 18.7102C12.25 18.9702 12.04 19.1703 11.76 19.3203C11.47 19.4703 11.19 19.5403 10.9 19.5403C10.76 19.5403 10.64 19.5202 10.51 19.4802L10.47 19.2202C10.76 19.1202 10.99 18.9402 11.16 18.6602C11.34 18.3802 11.42 18.0401 11.42 17.6301V10.7703H10.26H8.43994V12.0803C8.43994 14.0103 7.95999 15.4702 6.98999 16.4602C6.01999 17.4502 4.72999 18.1701 3.10999 18.6301C2.56999 18.8101 2.16994 18.9801 1.93994 19.1401C1.69994 19.3001 1.55 19.5802 1.5 19.9602L1.20996 19.9802C1.11996 19.7402 1.06995 19.5003 1.06995 19.2703C1.06995 18.9003 1.25 18.5402 1.62 18.1702C1.23 18.0702 0.94 17.9202 0.75 17.7102C0.57 17.5002 0.450015 17.1803 0.390015 16.7603L0.660034 16.6401C0.890034 16.9701 1.19996 17.1301 1.57996 17.1301C1.81996 17.1301 2.14004 17.0702 2.54004 16.9502C3.78004 16.6202 4.74995 16.0903 5.44995 15.3403C6.14995 14.5903 6.5 13.5302 6.5 12.1602V3.63013H3.01001C2.42001 3.63013 1.98994 3.68026 1.68994 3.77026C1.39994 3.87026 1.18005 4.09019 1.05005 4.44019L0.76001 4.40015C0.75001 4.31015 0.73999 4.18025 0.73999 4.01025C0.73999 3.72025 0.809941 3.49029 0.939941 3.30029C1.07994 3.11029 1.28995 2.93026 1.56995 2.77026C1.28995 2.61026 1.06994 2.43023 0.939941 2.24023C0.799941 2.05023 0.73999 1.81027 0.73999 1.53027C0.73999 1.37027 0.75001 1.24014 0.76001 1.14014L1.05005 1.10034C1.19005 1.45034 1.39994 1.68026 1.68994 1.77026C1.97994 1.87026 2.42001 1.91016 3.01001 1.91016H6.25C6.81 1.91016 7.20005 2.18022 7.43005 2.73022C7.55005 2.35022 7.77998 2.07014 8.09998 1.89014C8.42998 1.71014 8.79005 1.62036 9.18005 1.62036C9.45005 1.62036 9.67998 1.6502 9.84998 1.7002L9.89001 1.99023C9.50001 2.08023 9.14999 2.32019 8.85999 2.69019C8.56999 3.06019 8.42004 3.4802 8.42004 3.9502V9.07031H10.24H11.4V3.15015C11.4 2.74015 11.31 2.40036 11.14 2.12036C10.96 1.84036 10.73 1.6503 10.45 1.5603L10.49 1.29028C10.61 1.25028 10.74 1.23022 10.88 1.23022C11.17 1.23022 11.45 1.3002 11.74 1.4502C12.03 1.6002 12.23 1.8003 12.35 2.0603C12.47 1.8003 12.68 1.6002 12.96 1.4502C13.25 1.3002 13.5299 1.23022 13.8199 1.23022C13.9599 1.23022 14.09 1.25028 14.21 1.29028L14.27 1.55029ZM2 2.65015V2.85034H6.51001V2.65015H2ZM7.58997 3.61035H7.39001V11.9802C7.39001 13.2602 7.15996 14.2903 6.70996 15.0603C6.24996 15.8403 5.66005 16.4303 4.93005 16.8403C4.20005 17.2503 3.27995 17.6001 2.19995 17.8801L2.23999 18.0803C3.33999 17.7903 4.27004 17.4403 5.04004 17.0203C5.80004 16.6003 6.42002 15.9802 6.90002 15.1702C7.38002 14.3602 7.60999 13.3002 7.60999 11.9802V3.61035H7.58997ZM8.44995 9.8103V10.0103H11.4301V9.8103H8.44995ZM12.27 18.3003H12.47V2.46021H12.27V18.3003ZM17.3101 17.7302C17.3101 18.2102 17.41 18.6202 17.61 18.9602C17.81 19.3102 18.05 19.5301 18.35 19.6401L18.3101 19.9302C18.1501 19.9702 17.96 19.9902 17.76 19.9902C17.43 19.9902 17.14 19.9203 16.89 19.7803C16.64 19.6403 16.46 19.4103 16.35 19.1003C16.24 19.4103 16.0601 19.6403 15.8101 19.7803C15.5601 19.9203 15.2699 19.9902 14.9399 19.9902C14.7399 19.9902 14.55 19.9702 14.39 19.9302L14.35 19.6401C14.65 19.5301 14.9 19.3002 15.09 18.9602C15.28 18.6202 15.39 18.2002 15.39 17.7302V3.12036C15.39 2.64036 15.29 2.23014 15.09 1.89014C14.89 1.54014 14.64 1.32021 14.35 1.21021L14.39 0.920166C14.55 0.880166 14.7399 0.860352 14.9399 0.860352C15.2699 0.860352 15.5601 0.930312 15.8101 1.07031C16.0601 1.21031 16.24 1.44024 16.35 1.75024C16.46 1.44024 16.64 1.21031 16.89 1.07031C17.14 0.930312 17.43 0.860352 17.76 0.860352C17.96 0.860352 18.1501 0.880166 18.3101 0.920166L18.35 1.21021C18.05 1.32021 17.8 1.55014 17.61 1.89014C17.41 2.24014 17.3101 2.65036 17.3101 3.12036V17.7302ZM16.25 18.6902H16.45V2.16016H16.25V18.6902Z" fill="black"/>
<path d="M23.26 18.4099C22.51 17.9699 21.92 17.24 21.49 16.2C21.07 15.16 20.83 13.75 20.78 11.97C20.77 11.52 20.66 11.1599 20.46 10.8999C20.26 10.6299 19.91 10.4599 19.41 10.3799V10.05C19.91 9.97005 20.26 9.80003 20.46 9.53003C20.66 9.26003 20.76 8.90996 20.78 8.45996C20.84 6.67996 21.07 5.26998 21.49 4.22998C21.91 3.18998 22.5 2.45002 23.26 2.02002C24.02 1.58002 24.96 1.37012 26.11 1.37012C27.25 1.37012 28.21 1.59002 28.97 2.02002C29.73 2.46002 30.32 3.18998 30.74 4.22998C31.16 5.26998 31.3901 6.67996 31.4301 8.45996C31.4401 8.90996 31.55 9.27003 31.75 9.53003C31.95 9.80003 32.3 9.97005 32.8 10.05V10.3799C32.3 10.4599 31.95 10.6399 31.75 10.8999C31.55 11.1699 31.4501 11.52 31.4301 11.97C31.3901 13.75 31.16 15.16 30.74 16.2C30.32 17.24 29.73 17.9799 28.97 18.4099C28.21 18.8499 27.26 19.0601 26.11 19.0601C24.96 19.0601 24.01 18.8399 23.26 18.4099ZM28.65 17.71C29.27 17.27 29.73 16.47 30.05 15.29C30.36 14.11 30.52 12.42 30.52 10.2C30.52 7.97995 30.36 6.29011 30.05 5.11011C29.74 3.93011 29.27 3.12994 28.65 2.68994C28.03 2.24994 27.18 2.04004 26.11 2.04004C25.04 2.04004 24.1899 2.25994 23.5699 2.68994C22.9499 3.12994 22.49 3.93011 22.17 5.11011C21.86 6.29011 21.7 7.97995 21.7 10.2C21.7 12.42 21.86 14.12 22.17 15.29C22.48 16.47 22.9499 17.27 23.5699 17.71C24.1899 18.15 25.04 18.3601 26.11 18.3601C27.18 18.3601 28.03 18.15 28.65 17.71ZM23.6801 17.53C23.0801 17.11 22.64 16.3299 22.34 15.1799C22.04 14.0299 21.9 12.38 21.9 10.2C21.9 8.01995 22.05 6.35997 22.34 5.21997C22.63 4.07997 23.0801 3.29012 23.6801 2.87012C24.2801 2.45012 25.09 2.23999 26.11 2.23999C27.13 2.23999 27.94 2.45012 28.54 2.87012C29.14 3.29012 29.58 4.06997 29.88 5.21997C30.17 6.35997 30.3199 8.01995 30.3199 10.2C30.3199 12.38 30.17 14.0399 29.88 15.1799C29.59 16.3199 29.14 17.1 28.54 17.53C27.94 17.95 27.13 18.1599 26.11 18.1599C25.08 18.1599 24.2701 17.95 23.6801 17.53ZM27.98 16.8101C28.44 16.4801 28.78 15.9201 29 15.1201C29.22 14.3201 29.33 13.18 29.33 11.71C29.33 11.32 29.21 11.01 28.96 10.78C28.72 10.55 28.31 10.4201 27.74 10.3601V10.03C28.31 9.98003 28.72 9.84011 28.96 9.61011C29.2 9.39011 29.33 9.07993 29.33 8.67993C29.33 7.20993 29.22 6.08002 29 5.27002C28.78 4.47002 28.44 3.90008 27.98 3.58008C27.52 3.25008 26.89 3.09009 26.1 3.09009C25.31 3.09009 24.69 3.25008 24.22 3.58008C23.76 3.91008 23.42 4.47002 23.2 5.27002C22.98 6.07002 22.87 7.20993 22.87 8.67993C22.87 9.06993 22.99 9.38011 23.24 9.61011C23.48 9.83011 23.89 9.97003 24.46 10.03V10.3601C23.89 10.4201 23.48 10.55 23.24 10.78C23 11 22.87 11.31 22.87 11.71C22.87 13.18 22.98 14.3101 23.2 15.1201C23.42 15.9201 23.76 16.4901 24.22 16.8101C24.68 17.1401 25.31 17.3 26.1 17.3C26.89 17.3 27.52 17.1401 27.98 16.8101ZM25.88 13.4299C25.88 12.4799 25.79 11.75 25.61 11.25C25.43 10.75 25.15 10.4501 24.77 10.3501V10.0601C25.15 9.97006 25.43 9.66992 25.61 9.16992C25.79 8.66992 25.88 7.93998 25.88 6.97998H26.33C26.33 7.94998 26.42 8.67992 26.59 9.16992C26.77 9.66992 27.0501 9.96006 27.4301 10.0601V10.3501C27.0501 10.4401 26.77 10.74 26.59 11.25C26.41 11.75 26.33 12.4799 26.33 13.4299H25.88ZM32.49 19.6299C32.9 19.5399 33.25 19.2999 33.53 18.9399C33.82 18.5699 33.96 18.1499 33.96 17.6699V3.17993C33.96 2.69993 33.82 2.27991 33.53 1.90991C33.24 1.53991 32.9 1.30997 32.49 1.21997L32.53 0.929932C32.77 0.859932 33.02 0.830078 33.26 0.830078C33.65 0.830078 34.0099 0.900049 34.3199 1.05005C34.6299 1.20005 34.85 1.42999 34.97 1.73999C35.09 1.42999 35.31 1.20005 35.62 1.05005C35.93 0.900049 36.2901 0.830078 36.6801 0.830078C36.9201 0.830078 37.17 0.859932 37.41 0.929932L37.45 1.21997C37.04 1.30997 36.7 1.54991 36.41 1.90991C36.12 2.27991 35.98 2.69993 35.98 3.17993V17.6699C35.98 18.1499 36.12 18.5699 36.41 18.9399C36.7 19.3099 37.04 19.5399 37.45 19.6299L37.41 19.9199C37.17 19.9899 36.9201 20.02 36.6801 20.02C36.2901 20.02 35.93 19.95 35.62 19.8C35.31 19.65 35.09 19.4201 34.97 19.1101C34.85 19.4201 34.6299 19.65 34.3199 19.8C34.0099 19.95 33.65 20.02 33.26 20.02C33.02 20.02 32.77 19.9899 32.53 19.9199L32.49 19.6299ZM35.08 2.15991H34.87V18.6899H35.08V2.15991Z" fill="black"/>
<path d="M43.33 19.3203C43.32 19.2203 43.3101 19.1002 43.3101 18.9302C43.3101 18.6402 43.38 18.4102 43.51 18.2202C43.65 18.0302 43.86 17.8502 44.14 17.6902C43.85 17.5302 43.64 17.3502 43.51 17.1602C43.37 16.9702 43.3101 16.7302 43.3101 16.4502C43.3101 16.2902 43.32 16.1603 43.33 16.0603L43.62 16.0203C43.76 16.3703 43.97 16.6002 44.26 16.6902C44.55 16.7802 44.99 16.8303 45.58 16.8303H58.6801C59.2601 16.8303 59.7 16.7802 60 16.6902C60.29 16.5902 60.51 16.3703 60.64 16.0203L60.9301 16.0603C60.9401 16.1603 60.95 16.2802 60.95 16.4502C60.95 16.7402 60.88 16.9702 60.75 17.1602C60.61 17.3502 60.4 17.5302 60.12 17.6902C60.41 17.8502 60.62 18.0302 60.75 18.2202C60.89 18.4102 60.95 18.6502 60.95 18.9302C60.95 19.0902 60.9401 19.2203 60.9301 19.3203L60.64 19.3604C60.5 19.0104 60.29 18.7802 60 18.6902C59.71 18.5902 59.2701 18.5503 58.6801 18.5503H45.58C45 18.5503 44.56 18.6002 44.26 18.6902C43.97 18.7802 43.75 19.0104 43.62 19.3604L43.33 19.3203ZM55.1801 13.5903C55.5901 13.4903 55.94 13.2601 56.22 12.9001C56.51 12.5301 56.65 12.1101 56.65 11.6301V3.8103H46.77C46.19 3.8103 45.75 3.8602 45.45 3.9502C45.16 4.0402 44.9401 4.27036 44.8101 4.62036L44.52 4.58032C44.51 4.48032 44.5 4.36019 44.5 4.19019C44.5 3.90019 44.57 3.67022 44.7 3.48022C44.84 3.29022 45.05 3.1102 45.33 2.9502C45.04 2.7902 44.83 2.61017 44.7 2.42017C44.57 2.23017 44.5 1.99021 44.5 1.71021C44.5 1.55021 44.51 1.42031 44.52 1.32031L44.8101 1.28027C44.9501 1.63027 45.16 1.8602 45.45 1.9502C45.74 2.0402 46.18 2.09033 46.77 2.09033H56.4399C57.0299 2.09033 57.43 2.36016 57.67 2.91016C57.79 2.53016 58.02 2.25031 58.34 2.07031C58.67 1.89031 59.03 1.80029 59.42 1.80029C59.7 1.80029 59.94 1.83013 60.11 1.88013L60.15 2.17017C59.74 2.27017 59.39 2.50035 59.11 2.86035C58.83 3.22035 58.6801 3.65013 58.6801 4.13013V11.6204C58.6801 12.1004 58.82 12.5201 59.11 12.8901C59.4 13.2601 59.74 13.4903 60.15 13.5803L60.11 13.8704C59.87 13.9404 59.62 13.9702 59.38 13.9702C58.99 13.9702 58.6299 13.8902 58.3199 13.7402C58.0099 13.5902 57.79 13.3603 57.67 13.0503C57.55 13.3603 57.33 13.5902 57.02 13.7402C56.71 13.8902 56.35 13.9702 55.96 13.9702C55.72 13.9702 55.47 13.9404 55.23 13.8704L55.1801 13.5903ZM59.6899 17.7903V17.5903H44.55V17.7903H59.6899ZM45.76 2.86035V3.0603H56.66V2.86035H45.76ZM57.78 3.8103H57.5699V12.6501H57.78V3.8103Z" fill="black"/>
<path d="M74.75 8.32007C74.76 8.41007 74.77 8.53996 74.77 8.70996C74.77 8.99996 74.7001 9.22992 74.5601 9.41992C74.4201 9.60992 74.2101 9.78995 73.9301 9.94995C74.2101 10.11 74.4301 10.29 74.5601 10.48C74.7001 10.67 74.77 10.9099 74.77 11.1899C74.77 11.3499 74.76 11.4801 74.75 11.5801L74.46 11.6201C74.32 11.2701 74.1 11.0299 73.8 10.9199C73.49 10.7999 73.06 10.75 72.5 10.75H66.4399V16.9099H72.5C73.06 16.9099 73.49 16.85 73.8 16.74C74.11 16.62 74.33 16.39 74.46 16.04L74.75 16.0801C74.76 16.1701 74.77 16.3 74.77 16.47C74.77 16.76 74.7001 16.9899 74.5601 17.1799C74.4201 17.3699 74.2101 17.55 73.9301 17.71C74.2101 17.87 74.4301 18.05 74.5601 18.24C74.7001 18.43 74.77 18.67 74.77 18.95C74.77 19.11 74.76 19.2401 74.75 19.3401L74.46 19.3799C74.32 19.0299 74.1 18.7899 73.8 18.6799C73.49 18.5599 73.06 18.51 72.5 18.51H66.64C66.06 18.51 65.65 18.2399 65.42 17.6899C65.28 18.0799 65.05 18.3701 64.73 18.5601C64.4 18.7401 64.04 18.8401 63.63 18.8401C63.37 18.8401 63.15 18.81 62.98 18.76L62.9399 18.47C63.3499 18.37 63.69 18.14 63.98 17.78C64.27 17.42 64.41 16.99 64.41 16.51V10.8C64.1 10.84 63.85 10.93 63.66 11.05C63.47 11.18 63.33 11.3699 63.23 11.6299L62.9399 11.5901C62.9299 11.4901 62.92 11.36 62.92 11.2C62.92 10.91 62.99 10.68 63.12 10.49C63.26 10.3 63.47 10.12 63.75 9.95996C63.46 9.79996 63.25 9.61993 63.12 9.42993C62.98 9.23993 62.92 8.99997 62.92 8.71997C62.92 8.55997 62.9299 8.43008 62.9399 8.33008L63.23 8.29004C63.37 8.64004 63.59 8.87999 63.89 8.98999C64.2 9.10999 64.6299 9.15991 65.1899 9.15991H71.21V3.48999H65.8199C65.2599 3.48999 64.83 3.54991 64.52 3.65991C64.21 3.77991 63.99 4.01011 63.86 4.36011L63.5699 4.32007C63.5599 4.22007 63.55 4.09993 63.55 3.92993C63.55 3.63993 63.62 3.40997 63.75 3.21997C63.88 3.02997 64.1 2.84994 64.38 2.68994C64.09 2.52994 63.88 2.34991 63.75 2.15991C63.61 1.96991 63.55 1.72995 63.55 1.44995C63.55 1.28995 63.5599 1.16006 63.5699 1.06006L63.86 1.02002C64 1.37002 64.22 1.60997 64.52 1.71997C64.83 1.83997 65.2599 1.88989 65.8199 1.88989H71C71.58 1.88989 71.99 2.15996 72.22 2.70996C72.36 2.31996 72.59 2.03009 72.91 1.84009C73.24 1.66009 73.6 1.56006 74.01 1.56006C74.27 1.56006 74.49 1.58989 74.66 1.63989L74.7 1.92993C74.29 2.02993 73.95 2.26012 73.66 2.62012C73.37 2.98012 73.23 3.40989 73.23 3.88989V9.11011C73.54 9.08011 73.8 9.00988 74.01 8.87988C74.21 8.74988 74.36 8.55003 74.46 8.28003L74.75 8.32007ZM64.16 10.0601H73.53V9.86011H64.16V10.0601ZM64.8 2.59009V2.79004H71.21V2.59009H64.8ZM65.33 16.9199H65.53V10.76H65.33V16.9199ZM73.53 17.8101V17.6101H66.45V17.8101H73.53ZM72.33 3.48999H72.13V9.15991H72.33V3.48999ZM78.86 17.6699C78.86 18.1499 79 18.5699 79.29 18.9399C79.58 19.3099 79.92 19.5399 80.33 19.6299L80.29 19.9199C80.05 19.9899 79.8001 20.02 79.5601 20.02C79.1701 20.02 78.81 19.95 78.5 19.8C78.19 19.65 77.97 19.4201 77.85 19.1101C77.73 19.4201 77.51 19.65 77.2 19.8C76.89 19.95 76.53 20.02 76.14 20.02C75.9 20.02 75.65 19.9899 75.41 19.9199L75.37 19.6299C75.78 19.5399 76.13 19.2999 76.41 18.9399C76.7 18.5699 76.84 18.1499 76.84 17.6699V3.17993C76.84 2.69993 76.7 2.27991 76.41 1.90991C76.12 1.53991 75.78 1.30997 75.37 1.21997L75.41 0.929932C75.65 0.859932 75.9 0.830078 76.14 0.830078C76.53 0.830078 76.89 0.900049 77.2 1.05005C77.51 1.20005 77.73 1.42999 77.85 1.73999C77.97 1.42999 78.19 1.20005 78.5 1.05005C78.81 0.900049 79.1701 0.830078 79.5601 0.830078C79.8001 0.830078 80.05 0.859932 80.29 0.929932L80.33 1.21997C79.92 1.30997 79.58 1.54991 79.29 1.90991C79 2.27991 78.86 2.69993 78.86 3.17993V17.6699ZM77.73 18.6899H77.9399V2.15991H77.73V18.6899Z" fill="black"/>
<path d="M99.51 18.22C99.65 18.41 99.71 18.6499 99.71 18.9299C99.71 19.0899 99.6999 19.2201 99.6899 19.3201L99.4 19.3601C99.26 19.0101 99.05 18.7799 98.76 18.6899C98.47 18.5899 98.0299 18.55 97.4399 18.55H84.34C83.76 18.55 83.32 18.5999 83.02 18.6899C82.73 18.7799 82.51 19.0101 82.38 19.3601L82.09 19.3201C82.08 19.2201 82.0699 19.0999 82.0699 18.9299C82.0699 18.6399 82.14 18.41 82.27 18.22C82.41 18.03 82.62 17.8499 82.9 17.6899C82.61 17.5299 82.4 17.3499 82.27 17.1599C82.13 16.9699 82.0699 16.73 82.0699 16.45C82.0699 16.29 82.08 16.1601 82.09 16.0601L82.38 16.02C82.52 16.37 82.73 16.5999 83.02 16.6899C83.31 16.7799 83.75 16.8301 84.34 16.8301H88.34V11.6299C88.34 11.1399 88.19 10.7001 87.9 10.3101C87.61 9.92006 87.26 9.68009 86.87 9.59009L86.91 9.30005C87.15 9.23005 87.4 9.19995 87.64 9.19995C88.03 9.19995 88.39 9.26992 88.7 9.41992C89.01 9.56992 89.23 9.80011 89.35 10.1101C89.47 9.80011 89.69 9.56992 90 9.41992C90.31 9.26992 90.6701 9.19995 91.0601 9.19995C91.3001 9.19995 91.55 9.23005 91.79 9.30005L91.83 9.59009C91.44 9.68009 91.09 9.93006 90.8 10.3101C90.51 10.7001 90.36 11.1399 90.36 11.6299V16.8301H97.42C98 16.8301 98.44 16.7799 98.74 16.6899C99.03 16.5899 99.25 16.37 99.38 16.02L99.67 16.0601C99.68 16.1601 99.6899 16.28 99.6899 16.45C99.6899 16.74 99.62 16.9699 99.49 17.1599C99.35 17.3499 99.14 17.5299 98.86 17.6899C99.16 17.8499 99.37 18.03 99.51 18.22ZM83.3 4.59009C83.29 4.49009 83.28 4.36995 83.28 4.19995C83.28 3.90995 83.35 3.67999 83.48 3.48999C83.62 3.29999 83.83 3.11996 84.11 2.95996C83.82 2.79996 83.61 2.61993 83.48 2.42993C83.35 2.23993 83.28 1.99997 83.28 1.71997C83.28 1.55997 83.29 1.43008 83.3 1.33008L83.59 1.29004C83.73 1.64004 83.94 1.86996 84.23 1.95996C84.52 2.04996 84.96 2.1001 85.55 2.1001H95.22C95.81 2.1001 96.21 2.36992 96.45 2.91992C96.57 2.53992 96.8 2.26008 97.12 2.08008C97.45 1.90008 97.81 1.81006 98.2 1.81006C98.48 1.81006 98.72 1.83989 98.89 1.88989L98.9301 2.17993C98.5201 2.27993 98.17 2.51012 97.89 2.87012C97.61 3.23012 97.46 3.65989 97.46 4.13989V11.6299C97.46 12.1099 97.6 12.5299 97.89 12.8999C98.18 13.2699 98.5201 13.5001 98.9301 13.5901L98.89 13.8799C98.65 13.9499 98.4 13.98 98.16 13.98C97.77 13.98 97.41 13.9 97.1 13.75C96.79 13.6 96.57 13.3701 96.45 13.0601C96.33 13.3701 96.11 13.6 95.8 13.75C95.49 13.9 95.13 13.98 94.74 13.98C94.5 13.98 94.25 13.9499 94.01 13.8799L93.97 13.5901C94.38 13.4901 94.73 13.2599 95.01 12.8999C95.3 12.5299 95.4399 12.1099 95.4399 11.6299V3.81006H85.5601C84.9801 3.81006 84.54 3.85995 84.24 3.94995C83.95 4.03995 83.73 4.27012 83.6 4.62012L83.3 4.59009ZM83.33 17.79H98.47V17.5901H83.33V17.79ZM95.4301 2.86011H84.53V3.06006H95.4301V2.86011ZM89.47 10.53H89.27V16.8401H89.47V10.53ZM96.55 3.81006H96.34V12.6499H96.55V3.81006Z" fill="black"/>
<path d="M119.36 1.55029C119.07 1.65029 118.84 1.83035 118.67 2.11035C118.49 2.39035 118.41 2.73014 118.41 3.14014V17.6301C118.41 18.0401 118.5 18.3802 118.67 18.6602C118.85 18.9402 119.08 19.1302 119.36 19.2202L119.32 19.4802C119.2 19.5202 119.07 19.5403 118.93 19.5403C118.65 19.5403 118.36 19.4603 118.07 19.3203C117.78 19.1703 117.58 18.9702 117.46 18.7102C117.34 18.9702 117.13 19.1703 116.85 19.3203C116.56 19.4703 116.28 19.5403 115.99 19.5403C115.85 19.5403 115.73 19.5202 115.6 19.4802L115.56 19.2202C115.85 19.1202 116.08 18.9402 116.25 18.6602C116.43 18.3802 116.51 18.0401 116.51 17.6301V10.7502H115.39H114.12C114.16 10.8702 114.18 11.0202 114.18 11.2002C114.18 11.3602 114.17 11.4903 114.16 11.5903L113.87 11.6301C113.73 11.2801 113.51 11.0402 113.21 10.9302C112.9 10.8102 112.47 10.7603 111.91 10.7603H108.85V16.9202H112.52C113.08 16.9202 113.51 16.8602 113.82 16.7502C114.13 16.6302 114.35 16.4003 114.48 16.0503L114.77 16.0903C114.78 16.1803 114.79 16.3102 114.79 16.4802C114.79 16.7702 114.72 17.0002 114.59 17.1902C114.45 17.3802 114.24 17.5602 113.96 17.7202C114.25 17.8802 114.46 18.0602 114.59 18.2502C114.73 18.4402 114.79 18.6802 114.79 18.9602C114.79 19.1202 114.78 19.2503 114.77 19.3503L114.48 19.3901C114.34 19.0401 114.12 18.8002 113.82 18.6902C113.51 18.5702 113.08 18.5203 112.52 18.5203H109.17C108.58 18.5203 108.18 18.2502 107.95 17.7002C107.81 18.0902 107.58 18.3803 107.26 18.5703C106.93 18.7503 106.57 18.8503 106.16 18.8503C105.9 18.8503 105.68 18.8203 105.51 18.7703L105.47 18.4802C105.88 18.3802 106.22 18.1503 106.51 17.7903C106.8 17.4303 106.94 17.0003 106.94 16.5203V10.8103C106.63 10.8503 106.38 10.9403 106.18 11.0603C105.99 11.1903 105.85 11.3801 105.75 11.6401L105.46 11.6003C105.45 11.5003 105.44 11.3702 105.44 11.2102C105.44 10.9202 105.51 10.6902 105.65 10.5002C105.78 10.3102 106 10.1302 106.28 9.97021C106 9.81021 105.78 9.63019 105.65 9.44019C105.51 9.25019 105.44 9.01022 105.44 8.73022C105.44 8.57022 105.45 8.44033 105.46 8.34033L105.75 8.30029C105.89 8.65029 106.11 8.89024 106.41 9.00024C106.72 9.12024 107.15 9.17017 107.71 9.17017H111.34V3.50024H108.34C107.78 3.50024 107.35 3.56017 107.04 3.67017C106.73 3.79017 106.51 4.02036 106.38 4.37036L106.09 4.33032C106.08 4.23032 106.07 4.11019 106.07 3.94019C106.07 3.65019 106.14 3.42022 106.27 3.23022C106.4 3.04022 106.62 2.8602 106.9 2.7002C106.62 2.5402 106.4 2.36017 106.27 2.17017C106.13 1.98017 106.07 1.74021 106.07 1.46021C106.07 1.30021 106.08 1.17031 106.09 1.07031L106.38 1.03027C106.52 1.38027 106.74 1.62022 107.04 1.73022C107.35 1.85022 107.78 1.90015 108.34 1.90015H111.01C111.59 1.90015 112 2.17021 112.23 2.72021C112.37 2.33021 112.6 2.04034 112.92 1.85034C113.25 1.67034 113.61 1.57031 114.02 1.57031C114.28 1.57031 114.5 1.60015 114.67 1.65015L114.71 1.94019C114.3 2.04019 113.95 2.27013 113.67 2.63013C113.39 2.99013 113.24 3.42015 113.24 3.90015V8.98022C113.54 8.83022 113.74 8.60028 113.85 8.29028L114.14 8.33032C114.15 8.42032 114.16 8.55021 114.16 8.72021C114.16 8.90022 114.14 9.05017 114.1 9.17017H115.37H116.49V3.15015C116.49 2.74015 116.4 2.40036 116.23 2.12036C116.05 1.84036 115.82 1.6503 115.54 1.5603L115.58 1.29028C115.7 1.25028 115.83 1.23022 115.97 1.23022C116.26 1.23022 116.54 1.3002 116.83 1.4502C117.12 1.6002 117.32 1.8003 117.44 2.0603C117.56 1.8003 117.77 1.6002 118.05 1.4502C118.34 1.3002 118.62 1.23022 118.91 1.23022C119.05 1.23022 119.18 1.25028 119.3 1.29028L119.36 1.55029ZM106.71 10.0603H112.95V9.86035H106.71V10.0603ZM107.34 2.59033V2.79028H111.36V2.59033H107.34ZM107.81 16.9202H108.02V10.7603H107.81V16.9202ZM113.57 17.8103V17.6104H108.88V17.8103H113.57ZM112.43 3.49023H112.23V9.16016C112.32 9.16016 112.39 9.15014 112.43 9.14014V3.49023ZM113.63 9.86035V10.0603H116.53V9.86035H113.63ZM117.36 18.3003H117.56V2.46021H117.36V18.3003ZM122.4 17.7302C122.4 18.2102 122.5 18.6202 122.7 18.9602C122.9 19.3102 123.14 19.5301 123.44 19.6401L123.4 19.9302C123.24 19.9702 123.05 19.9902 122.85 19.9902C122.52 19.9902 122.23 19.9203 121.98 19.7803C121.73 19.6403 121.55 19.4103 121.44 19.1003C121.33 19.4103 121.15 19.6403 120.9 19.7803C120.65 19.9203 120.36 19.9902 120.03 19.9902C119.83 19.9902 119.64 19.9702 119.48 19.9302L119.44 19.6401C119.74 19.5301 119.99 19.3002 120.18 18.9602C120.38 18.6102 120.48 18.2002 120.48 17.7302V3.12036C120.48 2.64036 120.38 2.23014 120.18 1.89014C119.98 1.54014 119.73 1.32021 119.44 1.21021L119.48 0.920166C119.64 0.880166 119.83 0.860352 120.03 0.860352C120.36 0.860352 120.65 0.930312 120.9 1.07031C121.15 1.21031 121.33 1.44024 121.44 1.75024C121.55 1.44024 121.73 1.21031 121.98 1.07031C122.23 0.930312 122.52 0.860352 122.85 0.860352C123.05 0.860352 123.24 0.880166 123.4 0.920166L123.44 1.21021C123.14 1.32021 122.89 1.55014 122.7 1.89014C122.5 2.24014 122.4 2.65036 122.4 3.12036V17.7302ZM121.34 18.6902H121.54V2.16016H121.34V18.6902Z" fill="black"/>
<path d="M142.36 18.2202C142.5 18.4102 142.56 18.6502 142.56 18.9302C142.56 19.0902 142.55 19.2203 142.54 19.3203L142.25 19.3604C142.11 19.0104 141.9 18.7802 141.61 18.6902C141.32 18.5902 140.88 18.5503 140.29 18.5503H127.19C126.61 18.5503 126.17 18.6002 125.87 18.6902C125.58 18.7802 125.36 19.0104 125.23 19.3604L124.94 19.3203C124.93 19.2203 124.92 19.1002 124.92 18.9302C124.92 18.6402 124.99 18.4102 125.12 18.2202C125.26 18.0302 125.47 17.8502 125.75 17.6902C125.46 17.5302 125.25 17.3502 125.12 17.1602C124.98 16.9702 124.92 16.7302 124.92 16.4502C124.92 16.2902 124.93 16.1603 124.94 16.0603L125.23 16.0203C125.37 16.3703 125.58 16.6002 125.87 16.6902C126.16 16.7802 126.6 16.8303 127.19 16.8303H140.29C140.87 16.8303 141.31 16.7802 141.61 16.6902C141.9 16.5902 142.12 16.3703 142.25 16.0203L142.54 16.0603C142.55 16.1603 142.56 16.2802 142.56 16.4502C142.56 16.7402 142.49 16.9702 142.36 17.1602C142.22 17.3502 142.01 17.5302 141.73 17.6902C142.02 17.8502 142.23 18.0302 142.36 18.2202ZM125.76 11.5803C125.58 11.3703 125.46 11.0501 125.4 10.6301L125.66 10.5103C125.88 10.8203 126.18 10.9802 126.58 10.9802C126.85 10.9802 127.25 10.9002 127.76 10.7402C128.4 10.5502 129.11 10.2403 129.88 9.80029C130.66 9.36029 131.32 8.85026 131.88 8.27026C132.44 7.69026 132.72 7.10026 132.72 6.52026V3.83032H128.43C127.83 3.83032 127.39 3.88021 127.09 3.97021C126.8 4.06021 126.58 4.29014 126.45 4.64014L126.17 4.60034C126.16 4.50034 126.15 4.38021 126.15 4.21021C126.15 3.92021 126.22 3.69024 126.35 3.50024C126.49 3.31024 126.7 3.13021 126.98 2.97021C126.69 2.81021 126.48 2.63019 126.35 2.44019C126.22 2.25019 126.15 2.01022 126.15 1.73022C126.15 1.57022 126.16 1.44033 126.17 1.34033L126.45 1.30029C126.59 1.65029 126.8 1.88021 127.09 1.97021C127.38 2.06021 127.83 2.11035 128.43 2.11035H139.06C139.64 2.11035 140.08 2.06021 140.38 1.97021C140.67 1.87021 140.89 1.65029 141.02 1.30029L141.31 1.34033C141.32 1.43033 141.33 1.56022 141.33 1.73022C141.33 2.02022 141.26 2.25019 141.13 2.44019C141 2.63019 140.78 2.81021 140.5 2.97021C140.79 3.13021 141 3.31024 141.13 3.50024C141.27 3.69024 141.33 3.93021 141.33 4.21021C141.33 4.37021 141.32 4.50034 141.31 4.60034L141.02 4.64014C140.88 4.29014 140.67 4.06021 140.38 3.97021C140.09 3.87021 139.65 3.83032 139.06 3.83032H134.75V6.52026C134.75 7.11026 135.03 7.69026 135.59 8.27026C136.15 8.86026 136.81 9.37029 137.59 9.80029C138.37 10.2403 139.07 10.5502 139.71 10.7402C140.23 10.9002 140.62 10.9802 140.89 10.9802C141.28 10.9802 141.59 10.8203 141.81 10.5103L142.08 10.6301C142.02 11.0501 141.91 11.3703 141.72 11.5803C141.54 11.7903 141.25 11.9403 140.85 12.0403C141.22 12.3803 141.4 12.7303 141.4 13.1003C141.4 13.3203 141.34 13.5704 141.22 13.8604L140.93 13.8403C140.9 13.5803 140.82 13.3702 140.68 13.2102C140.54 13.0502 140.38 12.9203 140.2 12.8403C140.02 12.7603 139.71 12.6302 139.26 12.4502C138.04 11.9902 136.89 11.4002 135.83 10.6702C134.77 9.95017 134.07 9.18035 133.73 8.36035C133.39 9.18035 132.69 9.95017 131.63 10.6702C130.57 11.3902 129.42 11.9802 128.2 12.4502C128.13 12.4802 127.93 12.5602 127.58 12.6902C127.23 12.8302 126.98 12.9902 126.81 13.1702C126.65 13.3502 126.55 13.5703 126.52 13.8303L126.23 13.8503C126.11 13.5603 126.05 13.3103 126.05 13.0903C126.05 12.7203 126.23 12.3703 126.6 12.0303C126.23 11.9403 125.95 11.7903 125.76 11.5803ZM126.18 17.7903H141.32V17.5903H126.18V17.7903ZM133.65 6.08032C133.65 6.80032 133.33 7.55031 132.68 8.32031C132.03 9.10031 131.2 9.79016 130.19 10.4102C129.18 11.0302 128.14 11.4803 127.1 11.7703L127.14 11.9702C128.09 11.7102 129.05 11.3103 130 10.7703C130.95 10.2303 131.77 9.60015 132.45 8.90015C133.13 8.20015 133.57 7.5003 133.76 6.8103C133.95 7.5003 134.39 8.20015 135.07 8.90015C135.75 9.60015 136.57 10.2203 137.52 10.7703C138.47 11.3103 139.42 11.7202 140.38 11.9702L140.42 11.7703C139.37 11.4803 138.34 11.0302 137.33 10.4102C136.32 9.79016 135.49 9.09031 134.84 8.32031C134.19 7.54031 133.87 6.80032 133.87 6.08032V3.8103H133.67V6.08032H133.65ZM127.41 2.86035V3.0603H140.1V2.86035H127.41Z" fill="black"/>
<path d="M156.87 2.04004C156.46 2.14004 156.12 2.36998 155.83 2.72998C155.54 3.09998 155.4 3.52 155.4 4V16.47C155.4 16.95 155.54 17.37 155.83 17.74C156.12 18.11 156.46 18.3399 156.87 18.4299L156.83 18.72C156.65 18.77 156.42 18.8 156.14 18.8C155.75 18.8 155.39 18.71 155.06 18.53C154.73 18.35 154.51 18.0699 154.39 17.6899C154.16 18.2299 153.75 18.51 153.17 18.51H147.82C147.23 18.51 146.83 18.2399 146.59 17.6899C146.47 18.0699 146.24 18.35 145.92 18.53C145.59 18.71 145.23 18.8 144.84 18.8C144.56 18.8 144.32 18.77 144.15 18.72L144.11 18.4299C144.52 18.3299 144.87 18.1 145.15 17.74C145.44 17.37 145.58 16.95 145.58 16.47V4C145.58 3.52 145.44 3.09998 145.15 2.72998C144.86 2.35998 144.52 2.13004 144.11 2.04004L144.15 1.75C144.39 1.68 144.64 1.6499 144.88 1.6499C145.27 1.6499 145.63 1.73012 145.94 1.87012C146.25 2.02012 146.47 2.25006 146.59 2.56006C146.71 2.25006 146.93 2.02012 147.24 1.87012C147.55 1.72012 147.91 1.6499 148.3 1.6499C148.54 1.6499 148.79 1.68 149.03 1.75L149.07 2.04004C148.66 2.14004 148.32 2.36998 148.03 2.72998C147.74 3.09998 147.6 3.52 147.6 4V8.75H153.35V4C153.35 3.52 153.21 3.09998 152.92 2.72998C152.63 2.35998 152.29 2.13004 151.88 2.04004L151.92 1.75C152.16 1.68 152.41 1.6499 152.65 1.6499C153.04 1.6499 153.4 1.73012 153.71 1.87012C154.02 2.02012 154.24 2.25006 154.36 2.56006C154.48 2.25006 154.7 2.02012 155.01 1.87012C155.32 1.72012 155.68 1.6499 156.07 1.6499C156.31 1.6499 156.56 1.68 156.8 1.75L156.87 2.04004ZM146.48 16.8301H146.69V2.96997H146.48V16.8301ZM153.36 9.68994V9.48999H147.61V9.68994H153.36ZM147.61 10.4299V16.8401H153.36V10.4299H147.61ZM147.61 17.77H153.36V17.5701H147.61V17.77ZM154.28 16.8301H154.48V2.96997H154.28V16.8301ZM160.48 17.6699C160.48 18.1499 160.62 18.5699 160.91 18.9399C161.2 19.3099 161.54 19.5399 161.95 19.6299L161.91 19.9199C161.67 19.9899 161.42 20.02 161.18 20.02C160.79 20.02 160.43 19.95 160.12 19.8C159.81 19.65 159.59 19.4201 159.47 19.1101C159.35 19.4201 159.13 19.65 158.82 19.8C158.51 19.95 158.15 20.02 157.76 20.02C157.52 20.02 157.27 19.9899 157.03 19.9199L156.99 19.6299C157.4 19.5399 157.75 19.2999 158.03 18.9399C158.32 18.5699 158.46 18.1499 158.46 17.6699V3.17993C158.46 2.69993 158.32 2.27991 158.03 1.90991C157.74 1.53991 157.4 1.30997 156.99 1.21997L157.03 0.929932C157.27 0.859932 157.52 0.830078 157.76 0.830078C158.15 0.830078 158.51 0.900049 158.82 1.05005C159.13 1.20005 159.35 1.42999 159.47 1.73999C159.59 1.42999 159.81 1.20005 160.12 1.05005C160.43 0.900049 160.79 0.830078 161.18 0.830078C161.42 0.830078 161.67 0.859932 161.91 0.929932L161.95 1.21997C161.54 1.30997 161.2 1.54991 160.91 1.90991C160.62 2.27991 160.48 2.69993 160.48 3.17993V17.6699ZM159.36 18.6899H159.57V2.15991H159.36V18.6899Z" fill="black"/>
<path d="M179.87 13.6501C179.87 14.1301 180.01 14.5502 180.3 14.9202C180.59 15.2902 180.93 15.5204 181.34 15.6104L181.3 15.9001C181.06 15.9701 180.81 16.0002 180.57 16.0002C180.18 16.0002 179.82 15.9303 179.51 15.7803C179.2 15.6303 178.98 15.4003 178.86 15.0903C178.74 15.4003 178.52 15.6303 178.21 15.7803C177.9 15.9303 177.54 16.0002 177.15 16.0002C176.91 16.0002 176.66 15.9701 176.42 15.9001L176.38 15.6104C176.79 15.5104 177.14 15.2802 177.42 14.9202C177.71 14.5502 177.85 14.1301 177.85 13.6501V7.61035H176.4H175.09C174.97 9.35035 174.47 10.5703 173.59 11.2603C172.71 11.9503 171.46 12.3003 169.85 12.3003C168.24 12.3003 167.03 11.9703 166.2 11.3103C165.37 10.6503 164.87 9.61018 164.69 8.18018C164.62 7.83018 164.5 7.56036 164.31 7.37036C164.13 7.19036 163.79 7.05021 163.3 6.97021V6.64014C163.79 6.57014 164.13 6.45025 164.31 6.26025C164.49 6.08025 164.62 5.8102 164.69 5.4502C164.87 4.0202 165.37 2.98031 166.2 2.32031C167.03 1.66031 168.25 1.33032 169.85 1.33032C171.47 1.33032 172.71 1.67033 173.58 2.34033C174.45 3.01033 174.95 4.19013 175.07 5.88013H176.4H177.85V3.17017C177.85 2.69017 177.71 2.27015 177.42 1.90015C177.13 1.53015 176.79 1.30021 176.38 1.21021L176.42 0.920166C176.66 0.850166 176.91 0.820312 177.15 0.820312C177.54 0.820312 177.9 0.890283 178.21 1.04028C178.52 1.19028 178.74 1.42022 178.86 1.73022C178.98 1.42022 179.2 1.19028 179.51 1.04028C179.82 0.890283 180.18 0.820312 180.57 0.820312C180.81 0.820312 181.06 0.850166 181.3 0.920166L181.34 1.21021C180.93 1.30021 180.59 1.54015 180.3 1.90015C180.01 2.27015 179.87 2.69017 179.87 3.17017V13.6501ZM180.99 16.9602C181 17.0502 181.01 17.1803 181.01 17.3503C181.01 17.6403 180.94 17.8703 180.81 18.0603C180.67 18.2503 180.46 18.4303 180.18 18.5903C180.46 18.7503 180.68 18.9304 180.81 19.1204C180.95 19.3104 181.01 19.5503 181.01 19.8303C181.01 19.9903 181 20.1202 180.99 20.2202L180.71 20.2603C180.57 19.9103 180.36 19.6803 180.07 19.5903C179.78 19.4903 179.34 19.4502 178.75 19.4502H169.08C168.5 19.4502 168.09 19.1801 167.86 18.6301C167.74 19.0101 167.51 19.2902 167.19 19.4702C166.86 19.6502 166.5 19.7402 166.11 19.7402C165.82 19.7402 165.59 19.7102 165.42 19.6602L165.38 19.3704C165.79 19.2804 166.13 19.0402 166.42 18.6802C166.71 18.3102 166.85 17.8902 166.85 17.4102V15.3901C166.85 14.9001 166.73 14.4804 166.5 14.1104C166.27 13.7504 165.96 13.5202 165.58 13.4302L165.62 13.1401C165.86 13.0701 166.1 13.0403 166.31 13.0403C166.66 13.0403 166.98 13.1103 167.26 13.2603C167.54 13.4103 167.74 13.6402 167.86 13.9502C167.98 13.6402 168.18 13.4103 168.46 13.2603C168.74 13.1103 169.06 13.0403 169.41 13.0403C169.63 13.0403 169.86 13.0701 170.1 13.1401L170.14 13.4302C169.76 13.5302 169.45 13.7504 169.22 14.1104C168.99 14.4704 168.87 14.9001 168.87 15.3901V17.7402H178.75C179.34 17.7402 179.77 17.6903 180.07 17.6003C180.36 17.5003 180.58 17.2802 180.71 16.9302L180.99 16.9602ZM172.26 11.1702C172.87 10.8902 173.33 10.4102 173.64 9.72021C173.95 9.03022 174.1 8.0603 174.1 6.8103C174.1 5.5703 173.95 4.61017 173.64 3.92017C173.33 3.23017 172.87 2.75021 172.26 2.47021C171.65 2.19021 170.84 2.05029 169.83 2.05029C168.81 2.05029 167.99 2.19021 167.38 2.47021C166.77 2.75021 166.31 3.23017 166 3.92017C165.69 4.61017 165.54 5.5703 165.54 6.8103C165.54 8.0603 165.69 9.03022 166 9.72021C166.31 10.4102 166.77 10.8902 167.38 11.1702C167.99 11.4502 168.81 11.5903 169.83 11.5903C170.84 11.5903 171.65 11.4502 172.26 11.1702ZM172.16 2.65015C172.74 2.91015 173.18 3.37027 173.47 4.03027C173.76 4.69027 173.9 5.62031 173.9 6.82031C173.9 8.03031 173.76 8.97013 173.47 9.63013C173.18 10.2901 172.75 10.7503 172.16 11.0103C171.58 11.2703 170.8 11.4001 169.83 11.4001C168.85 11.4001 168.07 11.2703 167.49 11.0103C166.91 10.7503 166.48 10.2901 166.18 9.63013C165.89 8.97013 165.74 8.03031 165.74 6.82031C165.74 5.62031 165.89 4.69027 166.18 4.03027C166.47 3.37027 166.91 2.91015 167.49 2.65015C168.07 2.39015 168.85 2.26025 169.83 2.26025C170.8 2.26025 171.57 2.39015 172.16 2.65015ZM172.58 7.28027C172.35 7.13027 171.96 7.03021 171.41 6.97021V6.64014C171.97 6.59014 172.36 6.49033 172.58 6.34033C172.8 6.20033 172.92 5.9802 172.92 5.7002C172.92 4.7502 172.68 4.06014 172.2 3.64014C171.72 3.22014 170.93 3.01025 169.84 3.01025C168.74 3.01025 167.94 3.22014 167.46 3.64014C166.98 4.06014 166.74 4.7502 166.74 5.7002C166.74 5.9902 166.85 6.20033 167.08 6.34033C167.3 6.48033 167.7 6.58014 168.27 6.64014V6.97021C167.7 7.02022 167.3 7.13027 167.08 7.28027C166.86 7.43027 166.74 7.65018 166.74 7.93018C166.74 8.88018 166.98 9.57023 167.46 9.99023C167.94 10.4102 168.74 10.6204 169.84 10.6204C170.93 10.6204 171.71 10.4102 172.2 9.99023C172.68 9.57023 172.92 8.88018 172.92 7.93018C172.91 7.65018 172.8 7.43027 172.58 7.28027ZM167.75 17.7302H167.95V14.3604H167.75V17.7302ZM168.87 18.6902H179.77V18.4902H168.87V18.6902ZM177.83 6.86035V6.66016H175.09V6.82031V6.86035H177.83ZM178.75 14.6702H178.96V2.16016H178.75V14.6702Z" fill="black"/>
<path d="M15.98 43.79H14.63V41.0901H13.3V30.1001H14.63V28.75H17.3199V27.4199H21.5601V28.75H22.91V31.6499H21.5601V33H20.01V30.3301H16.1899V40.8799H17.54V42.23H19.99V38.4099H18.6899V36.8601H21.5699V38.21H22.92V42.45H21.5699V43.8H20.22V45.1299H15.98V43.79Z" fill="black"/>
<path d="M23.35 35.5002H24.6801V31.4602H26.03V28.7603H27.38V27.4302H28.95V28.7603H30.28V31.4602H31.63V35.5002H32.98V43.7903H31.63V45.1204H30.08V41.1003H26.26V43.7903H24.91V45.1204H23.36V35.5002H23.35ZM26.25 35.6902V38.1602H30.04V35.6902H28.71V31.6702H27.59V35.6902H26.25Z" fill="black"/>
<path d="M37.41 39.75H36.0601V35.7H34.71V31.6499H33.38V27.4199H36.28V31.46H37.63V35.5H38.98V36.8301H40.1V32.8101H41.4301V30.3401L38.78 30.3201V28.77H40.11V27.4199H41.66V28.77H43.01V33.01H41.66V37.05H40.3101V43.78H38.98V45.1101H37.41V39.75Z" fill="black"/>
<path d="M56.3101 43.7703H54.96V42.4202H53.63V35.4802H54.96V34.1301H57.65V32.7803H60.55V34.1301H63.24V37.0303H61.89V38.3801H60.54V39.7102H57.66V38.1802H60.3101V35.7102H56.52V40.8503H57.87V42.2002L61.89 42.2202V43.7703H59.22V45.1204H56.3V43.7703H56.3101Z" fill="black"/>
<path d="M67.6899 43.7705H66.34V37.0405H63.67V35.4905H65V34.1404H66.35V30.1006H67.7V28.7705H69.27V34.1404H73.29V35.6904H71.9399V37.0405H69.27V42.2004L71.9399 42.2205V43.7705H70.59V45.1206H67.6899V43.7705Z" fill="black"/>
<path d="M85.24 30.3303H83.91V28.7603H86.58V27.4302H88.15V42.2302H93.52V43.8003H92.17V45.1301H85.23V30.3303H85.24Z" fill="black"/>
<path d="M95.28 37.0403H93.95V35.4902H95.28V30.3303H93.95V28.7603H95.28V27.4302H103.57V28.9802H102.22V30.3303H98.2V34.1501H103.57V35.7002H102.22V37.0503H98.2V42.2302H103.57V43.8003H102.22V45.1301H95.28V37.0403Z" fill="black"/>
<path d="M105.32 43.79H104V42.22H105.33V40.8899H106.9V42.22H110.69V39.75H109.36V38.3999H108.01V37.05H106.66V35.7H105.31V34.3501H104V30.1001H105.33V28.75H106.68V27.4199H110.92V28.75H112.27V30.3201H110.92V31.6499H109.37V30.3201H106.9V32.79H108.25V34.1399H109.6V35.49H110.93V36.8401H112.28V38.1899H113.63V42.4399H112.28V43.79H109.61V45.1201H105.34V43.79H105.32Z" fill="black"/>
<path d="M116.71 43.79H115.36V30.3201H114.03V28.75H115.36V27.4199H120.95V28.75H122.3V31.45H123.65V35.7H122.32V36.8401H123.65V42.4399H122.3V43.79H120.95V45.1201H116.71V43.79ZM118.28 30.3201V42.22H120.73V37.05H119.43V35.5H120.73V31.6599H119.4V30.3301H118.28V30.3201Z" fill="black"/>
<path d="M125.4 30.3301H124.07V28.75H126.74V27.4199H128.29V43.78H126.96V45.1101H125.39V30.3301H125.4Z" fill="black"/>
<path d="M130.06 37.0403H128.73V35.4902H130.06V30.3303H128.73V28.7603H130.06V27.4302H138.35V28.9802H137V30.3303H132.98V34.1501H138.35V35.7002H137V37.0503H132.98V42.2302H138.35V43.8003H137V45.1301H130.06V37.0403Z" fill="black"/>
<path d="M140.1 30.3301H138.77V27.4299H143.01V30.1001H144.36V32.77H145.48V28.75H146.83V27.4199H148.38V45.1101H146.83V42.4399H145.48V39.75H144.13V37.0801H143.01V43.79H141.66V45.1201H140.09V30.3301H140.1Z" fill="black"/>
<path d="M150.14 30.3301H148.81V27.4299H153.05V30.1001H154.4V32.77H155.52V28.75H156.87V27.4199H158.42V45.1101H156.87V42.4399H155.52V39.75H154.17V37.0801H153.05V43.79H151.7V45.1201H150.13V30.3301H150.14Z" fill="black"/>
<path d="M160.18 37.0403H158.85V35.4902H160.18V30.3303H158.85V28.7603H160.18V27.4302H168.47V28.9802H167.12V30.3303H163.1V34.1501H168.47V35.7002H167.12V37.0503H163.1V42.2302H168.47V43.8003H167.12V45.1301H160.18V37.0403Z" fill="black"/>
</svg>
